<svg width="1008" height="872" viewBox="0 0 1008 872" fill="none" xmlns="http://www.w3.org/2000/svg">
<path opacity="0.2" d="M606.354 264.867C602.503 264.364 598.663 262.595 594.751 262.595C592.178 264.379 593.159 265.951 591.746 268.355C588.293 274.231 585.949 280.146 583.019 286.337C582.265 287.931 579.268 287.723 577.808 287.041C574.492 285.492 570.384 279.592 567.004 281.602C563.296 283.805 558.427 284.308 554.473 286.113C549.297 288.476 549.152 294.055 546.353 298.88C544.355 302.325 540.929 307.935 536.668 309.215C535.472 309.574 534.507 310.045 533.439 310.687C530.184 312.642 511.81 313.171 512.501 306.943C512.858 303.729 520.655 288.823 520.397 288.641C515.444 285.152 509.181 282.896 503.87 280.066C498.719 277.321 493.768 274.471 489.006 271.107C485.719 268.785 482.081 270.469 478.457 271.459C476.66 271.949 476.144 271.708 475.516 273.73C474.224 277.886 472.831 282.157 471.872 286.401C470.33 293.224 467.381 319.335 455.505 312.542C451.069 310.005 450.242 302.963 449.431 298.432C449.116 296.67 449.378 295.967 447.801 295.008C441.99 291.477 435.702 288.829 429.995 285.121C424.437 281.51 419.098 277.469 413.117 274.562C407.722 271.94 400.388 266.978 394.193 269.827C392.967 270.391 393.008 274.516 392.211 275.97C389.224 281.422 389.634 283.008 390.037 289.153C390.439 295.272 391.766 302.074 387.384 307.135C385.946 308.796 384.66 307.467 383.548 309.599C382.529 311.553 382.444 313.385 382.046 315.518C380.66 322.936 379.765 330.455 377.954 337.788C376.187 344.943 374.014 348.866 366.958 350.267C359.429 351.761 352.825 350.139 345.38 350.139C342.83 350.139 340.973 356.142 339.498 357.946C337.364 360.558 334.993 363.177 332.434 365.369C330.602 366.939 327.846 370.233 325.401 370.873C319.887 372.316 311.784 367.718 306.605 365.817C301.612 363.985 296.488 359.225 292.22 356.25C287.114 352.691 284.469 350.715 278.155 350.715C274.615 350.715 270.639 350.191 267.222 351.29C262.997 352.65 258.469 353.519 254.052 353.914C244.958 354.728 237.016 351.461 233.082 343.227C231.944 340.845 231.917 338.685 230.141 336.54C226.577 332.235 221.889 329.097 218.026 325.085C213.973 320.876 209.709 315.711 208.34 309.887C207.672 307.045 208.256 303.589 207.221 300.896C205.957 297.607 205.025 295.356 202.075 292.928C198.931 290.341 194.919 289.194 191.749 286.753C189.73 285.199 188.451 280.61 186.858 278.466C186.454 277.922 185.7 275.851 185.132 275.522C183.237 274.424 179.602 274.676 178.164 272.962C176.276 270.713 177.013 265.021 177.013 262.403C177.013 252.383 179.798 242.781 179.89 232.71C179.927 228.647 177.427 217.387 182.799 215.112C191.655 211.362 197.19 202.504 204.312 196.394C206.353 194.643 204.785 186.494 204.504 184.331C204.263 182.477 204.149 179.916 203.034 178.38C202.118 177.119 202.437 173.215 202.362 171.725C202.228 169.045 202.263 166.457 201.883 163.789C201.489 161.028 201.156 157.983 199.901 155.47C199.173 154.013 199.99 152.943 201.307 152.015C209.144 146.495 216.069 140.001 221.574 132.113C225.591 126.357 232.02 119.966 223.876 115.41C221.808 114.254 227.094 110.949 227.999 110.227C231.498 107.437 235.115 104.718 238.325 101.588C241.08 98.9007 242.608 96.4052 242.608 92.5006C242.608 90.6623 240.33 87.7518 242.32 86.6452C244.761 85.2881 247.747 83.7993 249.864 82.0057C257.941 75.1651 259.61 62.3312 263.354 52.7287C264.826 48.9538 265.198 49.3264 267.167 51.2978L267.222 51.3528C268.052 52.1831 269.659 51.8008 270.77 51.8008C272.855 51.8008 274.128 52.3508 275.917 53.4646C281.052 56.6614 282.394 59.7411 282.822 65.8473C283.304 72.7219 282.522 79.4706 286.05 85.7493C287.379 88.1133 290.524 86.3576 292.54 85.9093C294.681 85.433 296.141 84.0646 297.814 82.6457C301.85 79.222 306.102 75.7151 309.354 71.5108C310.643 69.8439 313.028 70.0396 314.852 70.5509C324.337 73.209 341.684 71.3828 345.156 60.4399C347.147 54.1661 352.081 48.7399 352.509 41.8818C352.605 40.3469 352.241 38.8375 350.847 38.1701C346.326 36.0063 336.8 31.3131 338.444 24.7315C339.25 21.5042 341.918 20.6744 344.901 19.996C351.996 18.3819 360.538 16.8498 366.766 13.0847C369.378 11.5056 371.433 9.25591 373.223 6.81331C374.568 4.97807 375.243 2.173 377.123 0.797918C379.415 -0.878954 382.519 0.468842 384.859 1.37386C388.268 2.69234 391.654 3.77737 395.12 4.86151C397.779 5.69323 400.594 4.56456 403.176 5.75742C407.435 7.72516 411.498 10.0658 415.866 11.8048C424.035 15.0567 435.407 23.3987 443.837 17.1483C445.802 15.6913 447.564 14.0721 449.431 12.5087C450.98 11.2117 453.846 7.75775 455.888 7.48524C457.692 7.24458 459.599 7.4287 461.259 8.15717C464.705 9.67036 468.403 9.9041 472.063 10.6209C478.857 11.9514 485.059 15.403 491.499 17.8202C501.7 21.6492 513.281 23.1473 524.169 22.3957C526.051 22.2658 528.975 21.1591 530.562 22.7477C533.236 25.4247 535.975 28.3414 538.873 30.8749C541.618 33.274 544.235 34.8208 545.97 37.9782C547.643 41.0227 553.724 47.1932 557.35 47.1932C562.061 47.1932 565.915 45.0613 570.456 44.4415C574.094 43.9449 578.667 45.5332 582.348 46.0413C591.284 47.2751 599.678 49.5112 607.857 44.8895C611.21 42.9946 614.623 40.2819 618.598 40.2819C622.831 40.2819 627.097 41.6482 631.224 42.5537C637.309 43.8886 643.767 45.4654 650.021 45.4654C653.317 45.4654 656.48 44.0536 659.643 43.2896C662.113 42.6928 664.337 43.7977 665.78 45.5934C669.338 50.0205 672.752 56.1961 677.895 58.968C680.4 60.318 680.229 58.3921 681.348 61.3038C682.351 63.9148 683.236 67.5337 683.362 70.3589C683.577 75.2162 683.722 78.2369 688.508 79.7339C690.879 80.4753 693.46 81.1738 695.957 81.1738C696.845 81.1738 701.813 80.3161 701.966 80.7258C702.312 81.6487 700.835 84.5965 700.624 85.3974C699.81 88.4732 699.19 91.5971 698.386 94.6764C696.178 103.138 693.269 111.369 690.842 119.762C689.776 123.449 687.17 127.896 687.389 131.857C687.594 135.546 693.143 136.483 693.143 139.632C693.143 141.065 692.568 142.343 692.568 143.663C692.568 145.18 690.492 146.053 690.266 147.407C689.538 151.78 688.537 154.809 690.714 158.926C691.469 160.354 692.511 161.014 692.568 162.958C692.606 164.244 692.154 166.441 692.856 167.565C695.022 171.034 693.347 177.24 696.468 180.364C699.594 183.493 702.524 183.691 706.665 183.691C708.394 183.691 712.33 182.708 711.844 184.555C711.328 186.517 710.15 187.562 709.255 189.131C707.674 191.9 699.863 192.706 697.203 193.482C694.592 194.245 691.634 194.896 689.691 196.938C685.741 201.09 682.799 206.475 679.59 211.209C677.259 214.647 672.099 215.897 668.242 217C665.668 217.736 663.124 217.002 660.666 218.568C657.813 220.385 655.975 225.279 654.912 228.295C652.403 235.409 646.784 235.695 641.038 238.982C639.732 239.729 638.755 240.72 637.618 241.606C633.907 244.495 629.289 245.669 625.375 248.197C624.08 249.033 624.161 250.047 624.064 251.461C623.885 254.06 622.889 256.419 621.888 258.789L621.794 259.012C621.084 260.695 619.971 262.27 618.917 263.747C618.642 264.133 618.063 265.735 617.639 265.923C615.132 267.038 609.077 265.223 606.354 264.867Z" fill="#676873"/>
<path opacity="0.2" d="M258.609 819.894C254.291 820.27 252.314 822.878 251.638 826.866C250.719 829.031 247.91 831.473 246.268 833.116C244.698 834.685 241.918 836.261 239.761 836.653C236.981 837.159 234 836.668 231.293 837.454C230.173 837.779 229.372 838.547 228.298 838.952C222.596 841.104 215.76 842.813 209.709 843.703C206.818 844.128 203.654 844.194 200.983 845.459C199.181 846.313 197.18 846.135 195.406 846.957C193.031 848.057 192.083 849.967 190.759 852.07C189.34 854.324 188.667 856.776 185.466 857.054C180.682 857.47 175.063 858.196 170.802 860.54C167.585 862.31 164.484 863.298 161.585 865.498C160.227 866.529 158.166 868.399 156.498 868.907C153.801 869.728 150.58 869.013 147.849 868.726C145.717 868.502 142.323 868.805 140.801 870.327C139.36 871.769 138.71 872.179 136.36 871.902C133.819 871.603 129.897 870.964 128.486 868.494C127.532 866.824 125.791 866.376 124.045 866.376C122.357 866.376 120.85 867.632 119.656 868.7C118.319 869.897 114.051 868.7 112.221 868.7C110.117 868.7 109.379 870.04 107.418 870.559C104.979 871.205 101.765 871.954 99.2083 871.954C94.5046 871.954 88.0648 867.316 84.8019 864.052C83.8037 863.054 83.2582 861.571 82.4782 860.437C80.4713 857.517 77.6575 855.167 75.7656 852.328C74.5305 850.475 73.1838 848.695 73.1838 846.389C73.1838 842.073 74.9322 839.63 76.4368 835.491C76.7759 834.559 77.0386 828.928 76.2045 828.261C74.3149 826.749 72.67 823.463 71.5831 821.289C70.5469 819.216 68.606 819.041 67.1682 817.363C66.6438 816.751 64.8849 815.608 64.07 815.246C62.5031 814.549 59.2723 814.76 58.1061 813.593C57.4339 812.921 57.3832 811.478 57.3832 810.598C57.3832 809.15 56.478 808.088 55.6792 806.931C53.1268 803.233 51.4894 798.66 48.2952 795.465C45.6377 792.807 43.0855 789.768 40.2916 787.253C38.9987 786.09 31.8788 783.297 31.8233 782.244C31.6516 778.979 35.4219 778.934 36.1091 776.459C36.5143 775 37.4 773.307 37.4 771.785C37.4 771.167 36.9353 771.009 36.9353 770.391C36.9353 767.815 37.0029 765.925 38.0713 763.496C40.0706 758.951 42.8455 756.542 47.624 754.587C50.1748 753.543 52.6763 753.045 54.569 750.868C55.2443 750.092 56.4537 749.187 56.4537 748.079C56.4537 747.604 56.2763 746.78 56.6861 746.453C57.4808 745.817 58.0137 742.815 58.5191 741.804C59.2673 740.308 58.9988 738.829 60.378 737.647C62.6219 735.723 65.0247 732.652 67.6071 731.217C70.8603 729.409 70.8602 726.566 70.8601 723.255V723.212C70.8601 722.143 71.5613 720.602 70.9634 719.854C70.1068 718.783 69.1248 717.816 68.0718 716.704C65.7707 714.275 64.4879 709.827 63.5278 706.685C62.5362 703.439 59.7477 701.365 58.1061 698.55C56.2731 695.407 52.6091 695.195 50.1799 692.766C48.1576 690.743 45.842 687.262 45.3261 684.425C45.0382 682.841 44.3709 681.069 44.3709 679.493C44.3709 677.341 44.64 674.911 44.1385 672.804C43.6606 670.797 43.609 669.082 42.0473 667.433C40.2643 665.551 39.0738 665.316 36.6255 664.644C33.4457 663.772 30.6983 664.242 30.0677 660.616C29.5112 657.415 29.2156 653.952 29.035 650.7C28.926 648.738 26.9115 644.321 25.059 643.262C21.4226 641.184 22.9936 638.856 22.9936 635.361C22.9936 632.367 22.5289 629.556 22.5289 626.529C22.5289 622.212 24.6369 616.99 26.3499 613.049C28.7383 607.555 29.4997 602.561 29.4997 596.78C29.4997 594.367 29.997 589.265 26.7114 588.879C22.303 588.36 23.7364 583.974 23.9488 581.106C24.0081 580.305 24.2513 575.601 25.0848 574.934C27.4196 573.066 29.7008 571.03 32.0299 569.124C34.6477 566.981 31.3586 563.422 31.3586 561.222C31.3586 557.764 33.1038 551.826 29.6546 549.317C27.8769 548.024 25.9241 545.709 24.8525 543.791C23.7046 541.736 21.5369 541.605 19.4823 541.105C16.784 540.449 13.2347 539.7 11.1689 537.748C9.49477 536.167 9.47012 533.679 8.48387 531.706C7.35173 529.441 9.49349 526.363 7.76096 524.63C5.95949 522.828 -0.988353 521.784 0.118834 518.794C0.884431 516.726 3.20252 516.366 3.83663 514.146C4.5215 511.748 2.03179 509.218 2.57154 507.328C2.9858 505.878 5.55483 504.06 6.54752 503.068C7.99802 501.617 9.10046 500.206 10.1879 498.497C10.6891 497.709 9.98131 495.692 9.98131 494.752C9.98131 492.86 9.49875 490.944 11.1431 489.665C13.0701 488.166 16.0342 488.133 18.2947 487.78C20.3893 487.453 22.1521 486.404 24.1812 485.921C27.0065 485.248 29.4374 484.11 32.2622 483.132C34.7494 482.271 33.6343 481.324 34.1728 479.439C34.4666 478.411 37.2585 475.989 38.3295 475.359C39.7294 474.535 40.6105 473.583 41.2211 472.209C42.5456 469.228 44.7656 466.356 46.333 463.377C48.0295 460.153 50.8812 458.693 54.1301 456.973C55.3182 456.344 55.989 454.424 55.989 453.151C55.989 451.618 56.8081 450.534 57.8479 449.432C58.9606 448.254 59.6316 446.476 60.1715 444.991C60.8113 443.231 62.773 442.745 64.1475 441.737C66.0056 440.374 68.6643 439.497 67.8394 436.857C67.2011 434.813 67.1424 432.697 67.1424 430.581C67.1424 427.22 70.4604 423.837 71.7896 420.846C72.5556 419.122 74.0887 417.848 75.0168 416.224C75.9151 414.651 76.3565 413.363 78.5023 414.339C79.9003 414.974 82.3699 414.256 83.511 415.397C85.105 416.992 87.4728 417.708 89.4491 418.754C90.4894 419.305 91.583 420.954 92.7022 421.078C93.1067 421.123 94.1353 421.412 94.4578 421.647C95.9046 422.699 98.5673 422.334 100.293 422.576C102.902 422.943 105.194 423.958 107.677 424.694C110.508 425.533 113.821 425.622 116.765 425.727C119.791 425.835 123.895 429.174 125.336 431.769C125.86 432.712 126.952 435.46 127.815 435.953C129.856 437.12 131.816 437.775 134.011 438.716C137.894 440.38 141.541 440.136 145.448 440.136C148.4 440.136 151.183 436.307 152.29 434.093C154.157 430.36 157.818 434.093 161.017 434.093C162.609 434.093 164.476 432.732 165.406 431.537C166.3 430.387 165.358 429.564 166.826 428.748C169.535 427.243 171.729 425.044 174.494 423.661C176.199 422.808 180.761 423.517 182.187 424.332C184.519 425.665 187.882 428.435 189.571 430.607C190.401 431.674 191.617 433.668 191.688 435.023C191.732 435.847 191.896 437.491 192.618 437.915C194.316 438.914 195.727 439.997 197.73 440.498C199.331 440.898 200.834 441.304 202.377 441.892C202.949 442.11 203.709 441.466 204.442 441.634C206.082 442.009 208.737 442.204 210.071 443.39C210.925 444.149 211.145 445.289 211.775 446.075C214.336 449.278 221.092 446.061 224.219 445.714C226.326 445.48 226.57 440.486 228.169 439.206C229.353 438.259 231.943 438.921 233.255 439.671C234.392 440.321 234.644 441.575 235.14 442.667C236.697 446.092 240.699 447.455 243.97 448.735L244.116 448.792C246.048 449.548 247.184 449.992 247.92 452.015C248.418 453.384 249.616 454.569 250.502 455.708C253.596 459.687 258.885 459.776 263.462 460.691C267.625 461.524 269.046 465.382 271.518 468.129C272.517 469.24 272.52 470.802 273.945 471.641C275.041 472.285 275.965 473.09 277.198 473.706C280.061 475.139 281.922 477.379 283.136 480.111C284.037 482.138 284.046 484.934 286.286 486.36C287.602 487.198 289.311 486.205 290.442 486.205C291.069 486.205 291.983 490.044 292.069 490.337C293.138 494.002 293.463 497.546 293.463 501.363C293.463 502.788 292.976 505.173 294.134 506.166C295.412 507.262 296.58 509.258 297.852 510.531C298.966 511.645 300.272 512.706 301.131 514.042C303.986 518.485 296.718 517.727 295.064 518.2C293.257 518.716 293.402 525.907 292.637 527.522C291.546 529.825 289.617 531.118 287.422 532.274C286.736 532.635 281.689 535.446 282.413 536.251C283.26 537.193 285.016 536.716 285.924 537.852C286.518 538.594 286.44 540.524 286.492 541.467C286.574 542.941 289.691 543.731 290.881 543.12C294.925 541.042 295.185 537.164 299.788 538.187C302.419 538.772 307.188 537.403 309.548 536.354C310.829 535.784 312.524 535.415 313.446 534.262L313.453 534.253C314.096 533.449 314.561 532.868 315.305 533.797C317.109 536.052 318.132 537.368 318.584 540.305C319.159 544.045 320.416 547.913 323.102 550.66C326.957 554.604 328.783 558.87 326.097 564.243C324.807 566.823 325.624 570.439 326.949 572.868C328.59 575.878 329.409 578.67 329.737 582.113C329.882 583.629 330.38 585.124 331.312 586.322C332.571 587.941 333.45 589.777 335.288 590.841C336.826 591.731 337.022 591.967 337.715 593.527C339.194 596.855 339.352 600.779 340.968 604.011C341.508 605.091 341.912 605.308 342.827 605.974C343.861 606.725 347.569 606.285 348.197 607.471C348.581 608.197 348.723 610.848 348.765 611.655C348.835 612.981 349.186 613.807 349.798 614.908C350.894 616.881 351.479 619.028 352.715 620.951C353.738 622.542 354.342 623.244 354.342 625.186C354.342 631.799 354.072 638.272 352.483 644.631C351.522 648.477 348.118 653.671 345.305 656.484C344.072 657.718 343.283 659.131 341.82 660.228C340.206 661.439 338.544 663.698 336.889 664.644C334.364 666.087 335.353 671.695 335.288 674.147C335.178 678.322 334.551 681.064 332.861 684.631C331.449 687.613 333.597 690.841 332.603 693.825C332.155 695.17 331.556 697.454 330.538 698.473C329.063 699.948 326.768 699.947 324.806 700.9C322.481 702.03 323.763 706.222 324.599 708.105C326.163 711.623 328.257 714.689 327.284 718.822C326.405 722.561 325.266 726.337 322.766 729.254C321.845 730.329 320.891 731.145 319.746 732.017C319.339 732.328 317.841 732.859 317.629 733.231C316.422 735.342 315.305 739.661 315.305 742.063C315.305 743.055 315.01 744.829 314.143 745.523C310.713 748.267 306.762 749.713 303.687 752.96C303.167 753.509 299.562 756.751 300.537 757.97C301.276 758.893 301.363 761.023 301.363 762.256C301.363 764.9 299.33 766.614 297.645 768.299C296.112 769.833 295.157 772.921 293.463 773.98C292.75 774.426 292.717 775.345 291.836 775.736C291.164 776.035 290.305 776.676 289.745 777.156C288.19 778.489 286.143 778.747 284.349 779.713C281.089 781.469 276.565 780.426 273.712 782.708C271.094 784.804 274.874 787.033 274.874 788.984C274.874 790.028 273.48 790.728 273.48 791.772C273.48 793.347 273.661 793.799 274.616 795.026C276.708 797.717 274.929 803.705 274.874 806.621C274.835 808.712 274.997 810.832 274.874 812.922C274.785 814.429 272.183 816.135 271.156 817.105C269.29 818.868 264.834 819.429 262.326 819.429C261.215 819.429 259.863 819.785 258.609 819.894Z" fill="#676873"/>
<path opacity="0.2" d="M765.547 327C772.249 327 778.012 328.803 784.965 328.178C787.528 327.947 790.004 329.427 792.614 330.664C795.525 332.044 800.334 332.926 802.682 334.983C804.63 336.689 807.995 336.378 809.678 338.483C810.941 340.063 812.054 341.852 813.208 343.619C816.166 348.146 823.393 351.144 828.834 351.144C831.992 351.144 834.15 354.938 835.273 357.687C836.106 359.725 836.744 361.94 837.66 363.903C838.994 366.765 840.987 372.255 843.805 373.979C846.809 375.816 850.052 378.899 853.579 379.443C856.31 379.863 858.483 381.104 859.561 383.532C862.349 389.81 864.399 394.881 864.399 402.638C864.399 404.158 863.483 405.688 864.236 407.021C866.59 411.19 869.105 415.591 872.506 418.995C874.664 421.154 877.623 422.296 880.58 422.954C885.377 424.02 889.154 427.739 894.114 428.842C895.892 429.238 897.647 429.694 899.409 430.086C902.133 430.691 906.23 434.414 907.811 436.269C909.137 437.825 910.528 438.184 911.014 440.456C911.553 442.974 911.472 445.451 911.472 448.014C911.472 448.811 910.674 450.849 911.178 451.252C911.907 451.837 912.201 454.27 912.518 455.113C913.315 457.23 914.123 459.377 915.002 461.46C916.609 465.269 916.679 469.56 914.871 473.63C914.134 475.289 910.883 476.964 910.883 478.635C910.883 480.053 911.043 482.909 912.322 483.641C912.733 483.876 913.825 486.054 913.825 486.585C913.825 490.665 912.649 495.857 912.649 500.325C912.649 503.507 913.237 506.84 913.237 509.845C913.237 516.466 920.878 522.604 925.855 525.451C927.179 526.208 927.65 528.627 928.274 529.933C929.486 532.468 931.161 535.376 933.243 537.228C934.729 538.551 936.916 538.214 938.669 538.864C941.181 539.795 945.35 541.829 947.038 544C950.363 548.279 951.706 553.448 955.602 557.25C959.047 560.611 964.044 565.891 968.939 566.803C972.276 567.424 975.972 568.365 979.334 568.438C985.017 568.562 985.575 577.759 988.847 581.034C991.48 583.668 995.19 586.091 998.163 588.526C999.944 589.983 1003.85 592.128 1003.85 594.643C1003.85 597.775 1002.09 600.895 1002.09 604.065C1002.09 607.153 1004.69 608.588 1006.4 611.034C1007.7 612.893 1007.68 615.867 1006.66 617.904C1005.7 619.831 1002.31 619.082 1000.62 619.082C996.33 619.082 993.628 620.279 989.533 621.372C988.043 621.769 987.152 623.245 985.611 623.662C981.258 624.839 969.946 624.926 968.514 629.943C967.734 632.675 966.797 636.976 965.278 639.365C961.817 644.808 957.331 649.712 953.51 654.937C950.299 659.329 952.726 664.555 950.437 669.136C947.717 674.581 943.453 679.046 939.519 683.596C936.984 686.528 935.669 688.744 934.158 692.593C933.247 694.914 931.896 697.616 932.099 700.15C932.298 702.649 933.153 705.132 933.243 707.544C933.362 710.771 932.801 713.735 932.654 716.965C932.509 720.171 930.514 722.042 929.124 724.752C927.309 728.289 925.849 732.159 924.286 735.809C923.39 737.902 922.063 740.428 922.063 742.745C922.063 749.003 922.674 754.957 919.84 760.738C917.282 765.958 912.382 770.251 910.426 775.591C909.61 777.818 911.222 780.518 911.439 782.69C911.716 785.46 908.894 787.85 907.712 790.084C906.291 792.772 906.231 792.279 903.299 793.094C897.122 794.811 889.244 790.025 883.817 795.155C881.248 797.583 879.789 799.44 876.102 800.782C872.358 802.145 867.337 802.034 863.582 800.782C861.454 800.072 855.237 801.534 852.958 802.254C848.356 803.709 843.03 805.988 838.967 808.699C836.344 810.449 834.553 813.079 831.906 814.719C828.447 816.862 826.292 815.855 822.165 815.765C817.002 815.653 816.805 810.046 813.437 807.194C808.701 803.184 801.151 801.336 795.687 804.577C792.504 806.465 788.026 807.532 784.376 806.801C781.988 806.323 780.422 804.153 778.786 802.516C776.396 800.124 772.744 798.709 769.862 796.987C768.896 796.41 768.046 796.056 767.018 796.627C764.258 798.162 761.65 799.644 759.369 801.927C756.341 804.958 753.976 806.346 750.38 808.699C747.345 810.685 745.542 809.269 745.542 813.704C745.542 818.722 744.081 823.739 742.6 828.524C741.549 831.92 739.503 835.627 740.377 839.32C740.752 840.907 741.318 842.681 742.305 843.999C742.847 844.722 743.812 844.953 744.234 845.798C745.463 848.258 745.542 850.936 745.542 853.748C745.542 856.579 745.698 859.461 745.542 862.286C745.495 863.132 732.34 863.093 730.21 863.759C726.674 864.865 723.662 866.997 719.979 866.997C718.189 866.997 716.38 866.761 714.65 866.376C710.873 865.536 706.921 865.82 703.046 865.82C691.961 865.82 678.294 868.756 667.741 865.1C665.585 864.353 663.407 863.672 661.269 862.875C657.242 861.376 653.848 863.365 649.958 863.988C644.97 864.786 637.952 865.557 633.875 868.895C631.901 870.512 625.603 871.099 622.892 871.578C620.938 871.923 618.666 872.123 617.302 870.531C616.038 869.054 613.87 867.37 612.203 866.343C609.474 864.663 607.388 860.955 604.913 858.753C598.842 853.353 585.366 858.022 583.109 847.859C582.227 843.885 580.657 840.036 579.742 835.918C578.792 831.64 574.915 827.796 571.08 825.776C567.802 824.05 564.238 823.461 560.881 821.949C558.552 820.9 556.285 819.017 554.016 817.794C548.812 814.989 542.873 814.89 538.685 810.466C534.696 806.252 533.317 800.055 529.237 795.973C527.334 794.068 525.758 790.585 523.451 789.266C522.82 788.905 522.671 788.011 521.948 787.63C520.236 786.729 518.018 786.629 516.194 786.06C513.698 785.281 509.591 784.617 509.591 781.611C509.591 776.979 510.04 771.861 511.03 767.347C511.968 763.067 512.381 758.776 513.252 754.523L513.269 754.443C513.736 752.166 514.575 748.072 513.416 745.984C512.592 744.5 512.386 741.788 511.912 740.128C511.255 737.824 504.812 736.498 503.053 735.809C499.22 734.308 501.841 730.459 501.321 727.074C500.996 724.963 499 722.397 499 720.63C499 715.799 499.043 711.729 501.027 707.216C502.723 703.359 505.352 704.589 507.826 702.113C511.628 698.308 514.682 693.009 517.535 688.569C519.808 685.03 523.37 681.803 523.125 677.38C523.028 675.636 522.19 674.872 523.713 673.258C525.14 671.746 526.619 669.724 528.289 668.547C530.116 667.26 534.543 665 535.481 662.887C537.487 658.371 543.013 656.274 545.353 652.058C546.893 649.285 547.741 644.123 551.237 643.52C557.376 642.461 563.49 643.305 569.347 644.37C575.553 645.5 584.862 644.404 590.791 642.178C594.971 640.61 598.878 638.997 602.821 636.486C604.752 635.256 609.265 638.43 611.026 639.071C614.119 640.196 617.276 640.65 620.408 641.59C624.247 642.742 628.153 645.287 632.176 644.861C639.383 644.097 646.479 642.689 653.62 641.59C655.676 641.273 656.885 641.33 658.719 640.281C660.288 639.384 661.81 637.271 662.903 635.864C664.456 633.866 664.019 631.556 665.061 629.354C666.461 626.396 665.574 623.777 669.637 622.615C673.082 621.63 675.72 623.028 679.052 623.204C682.561 623.388 685.123 621.559 688.172 620.881C694.111 619.56 697.881 611.607 697.881 605.832C697.881 603.566 697.672 602.268 696.671 600.139C695.747 598.173 694.741 594.072 692.879 592.582C690.011 590.285 691.474 584.665 688.924 582.113C688.165 581.354 684.936 581.017 684.936 580.216C684.936 578.128 686.602 575.959 687.29 574.065C688.18 571.615 689.043 569.637 690.362 567.261C692.413 563.567 693.656 560.239 694.808 556.203C695.633 553.314 696.4 550.193 698.24 547.533C700.594 544.131 703.882 539.633 706.707 536.639C709.222 533.974 707.974 529.34 709.355 526.301C710.989 522.703 708.472 518.188 708.472 514.556C708.472 511.537 708.575 506.375 709.78 503.662C712.585 497.344 709.066 489.092 704.811 484.36C703.968 483.423 702.87 481.953 701.869 481.285C700.45 480.338 698.639 480.611 697.75 478.93C695.469 474.617 694.796 469.566 692.879 465.091C691.803 462.577 691.643 459.672 689.905 457.436C688.931 456.182 688.386 454.621 688.466 453.019C688.641 449.52 689.878 445.031 691.147 441.765C693.591 435.476 698.923 431.063 700.79 424.524C701.897 420.648 702 417.613 702 413.564C702 410.332 700.96 406.97 700.267 403.848C699.686 401.232 701.136 397.455 701.379 394.786C701.556 392.835 701.896 390.702 702 388.832C702.45 380.724 709.576 376.994 712.003 370.315C712.945 367.721 715.559 364.161 717.887 362.79C721.267 360.8 722.315 354.242 722.561 350.915C722.841 347.136 721.707 344.074 718.769 341.722C716.259 339.712 718.551 337.851 720.109 336.291C722.186 334.213 721.822 330.149 725.242 329.388C727.862 328.806 733.131 328.799 735.539 329.814C738.761 331.171 743.236 328.774 746.457 330.239C748.974 331.384 754.122 330.799 756.46 329.814C759.219 328.651 762.468 327 765.547 327Z" fill="#676873"/>
</svg>
