<svg width="432" height="437" viewBox="0 0 432 437" fill="none" xmlns="http://www.w3.org/2000/svg">
<path opacity="0.2" d="M276.742 132.434C274.816 132.182 272.896 131.298 270.94 131.298C269.654 132.19 270.144 132.975 269.437 134.177C267.711 137.115 266.539 140.073 265.074 143.169C264.697 143.966 263.198 143.861 262.469 143.521C260.81 142.746 258.757 139.796 257.066 140.801C255.213 141.902 252.778 142.154 250.801 143.057C248.213 144.238 248.14 147.028 246.741 149.44C245.742 151.163 244.029 153.968 241.898 154.607C241.3 154.787 240.818 155.023 240.284 155.343C238.656 156.321 229.469 156.586 229.815 153.471C229.993 151.865 233.892 144.411 233.763 144.32C231.286 142.576 228.155 141.448 225.499 140.033C222.924 138.66 220.448 137.236 218.067 135.553C216.424 134.392 214.605 135.235 212.793 135.729C211.895 135.974 211.637 135.854 211.322 136.865C210.677 138.943 209.98 141.078 209.5 143.201C208.729 146.612 207.255 159.668 201.317 156.271C199.099 155.003 198.686 151.481 198.28 149.216C198.122 148.335 198.253 147.983 197.465 147.504C194.56 145.738 191.415 144.414 188.562 142.561C185.783 140.755 183.113 138.734 180.123 137.281C177.425 135.97 173.758 133.489 170.661 134.913C170.048 135.195 170.068 137.258 169.67 137.985C168.177 140.711 168.382 141.504 168.583 144.576C168.784 147.636 169.448 151.037 167.257 153.567C166.537 154.398 165.894 153.733 165.339 154.799C164.829 155.777 164.787 156.693 164.587 157.759C163.894 161.468 163.447 165.228 162.541 168.894C161.658 172.472 160.571 174.433 157.043 175.133C153.279 175.881 149.977 175.069 146.255 175.069C144.979 175.069 144.051 178.071 143.314 178.973C142.246 180.279 141.061 181.589 139.781 182.685C138.865 183.469 137.487 185.116 136.265 185.436C133.508 186.158 129.457 183.859 126.867 182.909C124.371 181.992 121.808 179.613 119.674 178.125C117.121 176.345 115.799 175.357 112.642 175.357C110.872 175.357 108.884 175.096 107.176 175.645C105.063 176.325 102.799 176.76 100.59 176.957C96.0434 177.364 92.0725 175.731 90.1055 171.614C89.5362 170.422 89.523 169.343 88.635 168.27C86.8532 166.117 84.5092 164.549 82.5774 162.543C80.5509 160.438 78.419 157.856 77.7344 154.943C77.4005 153.523 77.6924 151.794 77.175 150.448C76.5432 148.803 76.0767 147.678 74.6017 146.464C73.03 145.171 71.024 144.597 69.4391 143.377C68.4297 142.599 67.7899 140.305 66.9937 139.233C66.7916 138.961 66.4147 137.926 66.1306 137.761C65.183 137.212 63.3654 137.338 62.6463 136.481C61.7023 135.356 62.0709 132.51 62.0709 131.202C62.0709 126.191 63.4634 121.391 63.5094 116.355C63.5279 114.323 62.278 108.694 64.9638 107.556C69.3918 105.681 72.1597 101.252 75.7205 98.1971C76.741 97.3215 75.9569 93.2472 75.8164 92.1657C75.6961 91.2386 75.6391 89.9578 75.0812 89.19C74.6232 88.5596 74.7828 86.6073 74.7456 85.8623C74.6786 84.5226 74.6962 83.2285 74.5058 81.8947C74.3087 80.5139 74.1424 78.9915 73.5149 77.7351C73.1509 77.0065 73.5593 76.4714 74.2181 76.0073C78.1365 73.2474 81.5987 70.0003 84.3515 66.0563C86.36 63.1786 89.5744 59.9829 85.5023 57.7052C84.4684 57.1268 87.1113 55.4745 87.5641 55.1134C89.3136 53.7184 91.122 52.3589 92.7267 50.7939C94.1043 49.4503 94.8685 48.2026 94.8685 46.2503C94.8685 45.3311 93.7296 43.8759 94.7246 43.3226C95.9449 42.644 97.4378 41.8997 98.4967 41.0029C102.535 37.5826 103.37 31.1656 105.242 26.3643C105.977 24.4769 106.164 24.6632 107.148 25.6489L107.176 25.6764C107.59 26.0915 108.394 25.9004 108.95 25.9004C109.992 25.9004 110.628 26.1754 111.523 26.7323C114.091 28.3307 114.761 29.8705 114.975 32.9237C115.216 36.3609 114.825 39.7353 116.59 42.8747C117.254 44.0566 118.827 43.1788 119.834 42.9547C120.905 42.7165 121.635 42.0323 122.472 41.3228C124.49 39.611 126.616 37.8576 128.241 35.7554C128.886 34.922 130.078 35.0198 130.991 35.2754C135.733 36.6045 144.406 35.6914 146.143 30.2199C147.138 27.083 149.605 24.3699 149.819 20.9409C149.867 20.1735 149.685 19.4188 148.988 19.0851C146.728 18.0031 141.964 15.6565 142.786 12.3658C143.189 10.7521 144.524 10.3372 146.015 9.99799C149.563 9.19093 153.833 8.4249 156.947 6.54234C158.253 5.75279 159.281 4.62796 160.176 3.40666C160.848 2.48904 161.186 1.0865 162.126 0.398959C163.272 -0.439477 164.824 0.234421 165.994 0.68693C167.699 1.34617 169.392 1.88868 171.124 2.43075C172.454 2.84661 173.861 2.28228 175.152 2.87871C177.282 3.86258 179.314 5.03292 181.498 5.9024C185.582 7.52833 191.268 11.6993 195.483 8.57413C196.465 7.84567 197.346 7.03604 198.28 6.25437C199.055 5.60586 200.488 3.87888 201.509 3.74262C202.41 3.62229 203.364 3.71435 204.194 4.07859C205.917 4.83518 207.766 4.95205 209.596 5.31046C212.993 5.97568 216.094 7.70149 219.314 8.9101C224.415 10.8246 230.205 11.5736 235.649 11.1979C236.59 11.1329 238.052 10.5795 238.845 11.3739C240.183 12.7123 241.552 14.1707 243.001 15.4374C244.373 16.637 245.682 17.4104 246.549 18.9891C247.386 20.5114 250.426 23.5966 252.239 23.5966C254.595 23.5966 256.522 22.5306 258.793 22.2208C260.612 21.9725 262.898 22.7666 264.738 23.0207C269.206 23.6376 273.403 24.7556 277.493 22.4447C279.17 21.4973 280.876 20.141 282.863 20.141C284.98 20.141 287.113 20.8241 289.177 21.2768C292.219 21.9443 295.448 22.7327 298.575 22.7327C300.223 22.7327 301.805 22.0268 303.386 21.6448C304.621 21.3464 305.733 21.8989 306.455 22.7967C308.233 25.0102 309.941 28.098 312.512 29.484C313.765 30.159 313.679 29.1961 314.238 30.6519C314.74 31.9574 315.183 33.7668 315.245 35.1794C315.353 37.6081 315.426 39.1184 317.819 39.867C319.004 40.2377 320.294 40.5869 321.543 40.5869C321.987 40.5869 324.471 40.158 324.548 40.3629C324.72 40.8244 323.982 42.2982 323.876 42.6987C323.47 44.2366 323.159 45.7986 322.757 47.3382C321.653 51.569 320.199 55.6845 318.985 59.8809C318.452 61.7243 317.149 63.9481 317.259 65.9283C317.362 67.7729 320.136 68.2414 320.136 69.8159C320.136 70.5324 319.849 71.1716 319.849 71.8317C319.849 72.5901 318.81 73.0266 318.698 73.7036C318.334 75.8898 317.833 77.4047 318.921 79.463C319.299 80.1771 319.82 80.5069 319.849 81.4788C319.867 82.122 319.642 83.2207 319.992 83.7825C321.075 85.5169 320.238 88.6201 321.798 90.1819C323.362 91.7466 324.826 91.8457 326.897 91.8457C327.762 91.8457 329.729 91.3538 329.486 92.2777C329.228 93.2586 328.64 93.781 328.192 94.5654C327.401 95.9499 323.496 96.353 322.166 96.7412C320.861 97.1224 319.382 97.448 318.41 98.4691C316.435 100.545 314.964 103.237 313.359 105.604C312.194 107.323 309.614 107.949 307.685 108.5C306.398 108.868 305.127 108.501 303.897 109.284C302.471 110.193 301.552 112.64 301.02 114.147C299.766 117.705 296.956 117.848 294.084 119.491C293.43 119.864 292.942 120.36 292.373 120.803C290.518 122.247 288.209 122.835 286.252 124.098C285.604 124.516 285.645 125.023 285.596 125.73C285.507 127.03 285.009 128.209 284.509 129.394L284.462 129.506C284.107 130.348 283.55 131.135 283.023 131.874C282.886 132.066 282.596 132.867 282.384 132.962C281.13 133.519 278.103 132.611 276.742 132.434Z" fill="#676873"/>
<path opacity="0.2" d="M310.274 164C313.624 164 316.506 164.902 319.982 164.589C321.264 164.474 322.502 165.213 323.807 165.832C325.263 166.522 327.667 166.963 328.841 167.991C329.815 168.844 331.497 168.689 332.339 169.742C332.97 170.532 333.527 171.426 334.104 172.31C335.583 174.573 339.196 176.072 341.917 176.072C343.496 176.072 344.575 177.969 345.137 179.343C345.553 180.363 345.872 181.47 346.33 182.451C346.997 183.882 347.993 186.628 349.403 187.49C350.904 188.408 352.526 189.95 354.29 190.221C355.655 190.432 356.742 191.052 357.281 192.266C358.675 195.405 359.7 197.941 359.7 201.819C359.7 202.579 359.241 203.344 359.618 204.011C360.795 206.095 362.053 208.296 363.753 209.998C364.832 211.077 366.311 211.648 367.79 211.977C370.188 212.51 372.077 214.37 374.557 214.921C375.446 215.119 376.323 215.347 377.205 215.543C378.567 215.846 380.615 217.707 381.405 218.634C382.068 219.412 382.764 219.592 383.007 220.728C383.277 221.987 383.236 223.226 383.236 224.507C383.236 224.905 382.837 225.925 383.089 226.126C383.454 226.418 383.6 227.635 383.759 228.056C384.157 229.115 384.562 230.188 385.001 231.23C385.805 233.135 385.839 235.28 384.936 237.315C384.567 238.145 382.942 238.982 382.942 239.818C382.942 240.527 383.021 241.955 383.661 242.32C383.867 242.438 384.413 243.527 384.413 243.792C384.413 245.833 383.824 248.428 383.824 250.663C383.824 252.253 384.118 253.92 384.118 255.423C384.118 258.733 387.939 261.802 390.427 263.225C391.09 263.604 391.325 264.813 391.637 265.466C392.243 266.734 393.081 268.188 394.121 269.114C394.865 269.775 395.958 269.607 396.835 269.932C398.091 270.397 400.175 271.414 401.019 272.5C402.682 274.64 403.353 277.224 405.301 279.125C407.023 280.805 409.522 283.446 411.97 283.901C413.638 284.212 415.486 284.683 417.167 284.719C420.008 284.781 420.287 289.379 421.923 291.017C423.24 292.334 425.095 293.545 426.582 294.763C427.472 295.492 429.426 296.564 429.426 297.822C429.426 299.387 428.543 300.948 428.543 302.533C428.543 304.076 429.845 304.794 430.701 306.017C431.351 306.947 431.34 308.434 430.831 309.452C430.35 310.416 428.657 310.041 427.808 310.041C425.665 310.041 424.314 310.639 422.267 311.186C421.522 311.385 421.076 312.122 420.305 312.331C418.129 312.92 412.473 312.963 411.757 315.471C411.367 316.838 410.898 318.988 410.139 320.182C408.409 322.904 406.165 325.356 404.255 327.969C402.649 330.165 403.863 332.777 402.719 335.068C401.358 337.791 399.227 340.023 397.26 342.298C395.992 343.764 395.334 344.872 394.579 346.796C394.123 347.957 393.448 349.308 393.549 350.575C393.649 351.825 394.077 353.066 394.121 354.272C394.181 355.885 393.9 357.368 393.827 358.983C393.754 360.585 392.757 361.521 392.062 362.876C391.154 364.645 390.425 366.579 389.643 368.405C389.195 369.451 388.531 370.714 388.531 371.873C388.531 375.002 388.837 377.978 387.42 380.869C386.141 383.479 383.691 385.625 382.713 388.296C382.305 389.409 383.111 390.759 383.22 391.845C383.358 393.23 381.947 394.425 381.356 395.542C380.645 396.886 380.616 396.639 379.15 397.047C376.061 397.906 372.122 395.512 369.408 398.077C368.124 399.291 367.395 400.22 365.551 400.891C363.679 401.572 361.168 401.517 359.291 400.891C358.227 400.536 355.119 401.267 353.979 401.627C351.678 402.354 349.015 403.494 346.984 404.85C345.672 405.725 344.776 407.039 343.453 407.859C341.723 408.931 340.646 408.428 338.582 408.383C336.001 408.327 335.903 405.523 334.218 404.097C331.851 402.092 328.075 401.168 325.343 402.788C323.752 403.732 321.513 404.266 319.688 403.901C318.494 403.662 317.711 402.576 316.893 401.758C315.698 400.562 313.872 399.855 312.431 398.993C311.948 398.705 311.523 398.528 311.009 398.814C309.629 399.581 308.325 400.322 307.185 401.463C305.67 402.979 304.488 403.673 302.69 404.85C301.172 405.842 300.271 405.134 300.271 407.352C300.271 409.861 299.54 412.37 298.8 414.762C298.274 416.46 297.251 418.314 297.688 420.16C297.876 420.954 298.159 421.841 298.653 422.499C298.924 422.861 299.406 422.976 299.617 423.399C300.231 424.629 300.271 425.968 300.271 427.374C300.271 428.789 300.349 430.231 300.271 431.643C300.247 432.066 293.67 432.046 292.605 432.379C290.837 432.932 289.331 433.999 287.489 433.999C286.595 433.999 285.69 433.88 284.825 433.688C282.937 433.268 280.96 433.41 279.023 433.41C273.481 433.41 266.647 434.878 261.371 433.05C260.292 432.676 259.204 432.336 258.134 431.938C256.121 431.188 254.424 432.182 252.479 432.494C249.985 432.893 246.476 433.278 244.438 434.948C243.451 435.756 240.301 436.049 238.946 436.289C237.969 436.461 236.833 436.562 236.151 435.765C235.519 435.027 234.435 434.185 233.601 433.672C232.237 432.831 231.194 430.978 229.956 429.877C226.921 427.176 220.183 429.511 219.055 424.43C218.613 422.442 217.828 420.518 217.371 418.459C216.896 416.32 214.957 414.398 213.04 413.388C211.401 412.525 209.619 412.23 207.94 411.474C206.776 410.95 205.643 410.008 204.508 409.397C201.906 407.995 198.937 407.945 196.842 405.733C194.848 403.626 194.158 400.528 192.119 398.486C191.167 397.534 190.379 395.793 189.226 395.133C188.91 394.953 188.835 394.506 188.474 394.315C187.618 393.864 186.509 393.815 185.597 393.53C184.349 393.14 182.296 392.808 182.296 391.305C182.296 388.99 182.52 386.43 183.015 384.173C183.484 382.034 183.69 379.888 184.126 377.761L184.134 377.721C184.368 376.583 184.788 374.536 184.208 373.492C183.796 372.75 183.693 371.394 183.456 370.564C183.127 369.412 179.906 368.749 179.027 368.405C177.11 367.654 178.421 365.729 178.16 364.037C177.998 362.982 177 361.698 177 360.815C177 358.399 177.021 356.364 178.013 354.108C178.861 352.18 180.176 352.794 181.413 351.556C183.314 349.654 184.841 347.005 186.267 344.784C187.404 343.015 189.185 341.402 189.062 339.19C189.014 338.318 188.595 337.936 189.356 337.129C190.07 336.373 190.809 335.362 191.645 334.773C192.558 334.13 194.771 333 195.241 331.944C196.243 329.685 199.007 328.637 200.177 326.529C200.946 325.143 201.371 322.562 203.119 322.26C206.188 321.73 209.245 322.152 212.174 322.685C215.277 323.25 219.931 322.702 222.896 321.589C224.985 320.805 226.939 319.998 228.91 318.743C229.876 318.128 232.132 319.715 233.013 320.035C234.559 320.598 236.138 320.825 237.704 321.295C239.623 321.871 241.576 323.144 243.588 322.931C247.191 322.549 250.739 321.845 254.31 321.295C255.338 321.136 255.943 321.165 256.86 320.641C257.644 320.192 258.405 319.136 258.952 318.432C259.728 317.433 259.509 316.278 260.03 315.177C260.73 313.698 260.287 312.388 262.319 311.807C264.041 311.315 265.36 312.014 267.026 312.102C268.78 312.194 270.062 311.279 271.586 310.94C274.555 310.28 276.44 306.303 276.44 303.416C276.44 302.283 276.336 301.634 275.836 300.57C275.373 299.586 274.87 297.536 273.94 296.791C272.505 295.643 273.237 292.833 271.962 291.557C271.582 291.177 269.968 291.009 269.968 290.608C269.968 289.564 270.801 288.479 271.145 287.533C271.59 286.307 272.022 285.319 272.681 284.13C273.706 282.283 274.328 280.62 274.904 278.601C275.316 277.157 275.7 275.597 276.62 274.267C277.797 272.565 279.441 270.316 280.853 268.82C282.111 267.487 281.487 265.17 282.177 263.651C282.994 261.852 281.736 259.594 281.736 257.778C281.736 256.269 281.787 253.688 282.39 252.331C283.793 249.172 282.033 245.046 279.905 242.68C279.484 242.212 278.935 241.476 278.434 241.143C277.725 240.669 276.82 240.805 276.375 239.965C275.234 237.808 274.898 235.283 273.94 233.045C273.401 231.788 273.321 230.336 272.452 229.218C271.965 228.591 271.693 227.81 271.733 227.01C271.821 225.26 272.439 223.015 273.073 221.383C274.295 218.238 276.962 216.032 277.895 212.762C278.448 210.824 278.5 209.306 278.5 207.282C278.5 205.666 277.98 203.985 277.634 202.424C277.343 201.116 278.068 199.227 278.189 197.893C278.278 196.917 278.448 195.851 278.5 194.916C278.725 190.862 282.288 188.997 283.501 185.657C283.972 184.361 285.279 182.58 286.443 181.895C288.134 180.9 288.657 177.621 288.781 175.957C288.92 174.068 288.354 172.537 286.885 171.361C285.629 170.356 286.775 169.425 287.555 168.646C288.593 167.607 288.411 165.574 290.121 165.194C291.431 164.903 294.066 164.9 295.269 165.407C296.881 166.086 299.118 164.887 300.728 165.619C301.987 166.192 304.561 165.899 305.73 165.407C307.11 164.825 308.734 164 310.274 164Z" fill="#676873"/>
<path opacity="0.2" d="M129.304 388.947C127.146 389.135 126.157 390.439 125.819 392.433C125.36 393.516 123.955 394.736 123.134 395.558C122.349 396.343 120.959 397.131 119.881 397.327C118.49 397.58 117 397.334 115.647 397.727C115.086 397.89 114.686 398.273 114.149 398.476C111.298 399.552 107.88 400.407 104.855 400.852C103.409 401.064 101.827 401.097 100.491 401.73C99.5905 402.156 98.5901 402.068 97.7031 402.478C96.5154 403.028 96.0414 403.984 95.3795 405.035C94.6702 406.162 94.3333 407.388 92.7331 407.527C90.3412 407.735 87.5315 408.098 85.4008 409.27C83.7922 410.155 82.2422 410.649 80.7923 411.749C80.1133 412.264 79.0832 413.2 78.2492 413.453C76.9007 413.864 75.29 413.507 73.9247 413.363C72.8585 413.251 71.1614 413.403 70.4006 414.164C69.6799 414.884 69.3552 415.089 68.1802 414.951C66.9093 414.802 64.9486 414.482 64.243 413.247C63.766 412.412 62.8953 412.188 62.0226 412.188C61.1786 412.188 60.425 412.816 59.8281 413.35C59.1597 413.948 57.0255 413.35 56.1103 413.35C55.0586 413.35 54.6896 414.02 53.7092 414.28C52.4893 414.603 50.8823 414.977 49.6042 414.977C47.2523 414.977 44.0324 412.658 42.4009 411.026C41.9019 410.527 41.6291 409.786 41.2391 409.218C40.2356 407.758 38.8287 406.583 37.8828 405.164C37.2653 404.238 36.5919 403.348 36.5919 402.194C36.5919 400.036 37.4661 398.815 38.2184 396.746C38.3879 396.279 38.5193 393.464 38.1022 393.13C37.1574 392.374 36.335 390.731 35.7915 389.644C35.2734 388.608 34.303 388.521 33.5841 387.682C33.3219 387.376 32.4424 386.804 32.035 386.623C31.2516 386.275 29.6361 386.38 29.053 385.797C28.717 385.46 28.6916 384.739 28.6916 384.299C28.6916 383.575 28.239 383.044 27.8396 382.465C26.5634 380.617 25.7447 378.33 24.1476 376.733C22.8188 375.404 21.5428 373.884 20.1458 372.627C19.4993 372.045 15.9394 370.649 15.9117 370.122C15.8258 368.49 17.711 368.467 18.0546 367.23C18.2571 366.5 18.7 365.654 18.7 364.893C18.7 364.584 18.4676 364.504 18.4676 364.195C18.4676 362.907 18.5014 361.962 19.0356 360.748C20.0353 358.476 21.4228 357.271 23.812 356.293C25.0874 355.772 26.3381 355.523 27.2845 354.434C27.6221 354.046 28.2269 353.594 28.2269 353.04C28.2269 352.802 28.1382 352.39 28.343 352.226C28.7404 351.908 29.0069 350.408 29.2596 349.902C29.6336 349.154 29.4994 348.415 30.189 347.823C31.311 346.862 32.5124 345.326 33.8035 344.608C35.4301 343.705 35.4301 342.283 35.4301 340.627V340.606C35.4301 340.071 35.7806 339.301 35.4817 338.927C35.0534 338.392 34.5624 337.908 34.0359 337.352C32.8854 336.137 32.2439 333.914 31.7639 332.342C31.2681 330.719 29.8738 329.682 29.053 328.275C28.1365 326.704 26.3046 326.598 25.09 325.383C24.0788 324.372 22.921 322.631 22.6631 321.212C22.5191 320.421 22.1854 319.535 22.1854 318.746C22.1854 317.67 22.32 316.455 22.0693 315.402C21.8303 314.398 21.8045 313.541 21.0236 312.717C20.1322 311.775 19.5369 311.658 18.3127 311.322C16.7229 310.886 15.3491 311.121 15.0339 309.308C14.7556 307.708 14.6078 305.976 14.5175 304.35C14.463 303.369 13.4558 301.161 12.5295 300.631C10.7113 299.592 11.4968 298.428 11.4968 296.68C11.4968 295.183 11.2644 293.778 11.2644 292.264C11.2644 290.106 12.3184 287.495 13.175 285.525C14.3691 282.777 14.7499 280.28 14.7499 277.39C14.7499 276.183 14.9985 273.633 13.3557 273.439C11.1515 273.18 11.8682 270.987 11.9744 269.553C12.0041 269.153 12.1257 266.8 12.5424 266.467C13.7098 265.533 14.8504 264.515 16.0149 263.562C17.3238 262.491 15.6793 260.711 15.6793 259.611C15.6793 257.882 16.5519 254.913 14.8273 253.659C13.9385 253.012 12.9621 251.855 12.4262 250.895C11.8523 249.868 10.7684 249.803 9.74117 249.553C8.39201 249.224 6.61735 248.85 5.58447 247.874C4.74739 247.083 4.73506 245.839 4.24193 244.853C3.67586 243.72 4.74674 242.181 3.88048 241.315C2.97974 240.414 -0.494177 239.892 0.059417 238.397C0.442216 237.363 1.60126 237.183 1.91831 236.073C2.26075 234.874 1.01589 233.609 1.28577 232.664C1.4929 231.939 2.77742 231.03 3.27376 230.534C3.99901 229.808 4.55023 229.103 5.09393 228.248C5.34455 227.854 4.99065 226.846 4.99065 226.376C4.99065 225.43 4.74938 224.472 5.57156 223.833C6.53507 223.083 8.01708 223.067 9.14735 222.89C10.1946 222.726 11.076 222.202 12.0906 221.96C13.5033 221.624 14.7187 221.055 16.1311 220.566C17.3747 220.135 16.8171 219.662 17.0864 218.72C17.2333 218.205 18.6293 216.995 19.1647 216.68C19.8647 216.268 20.3052 215.791 20.6105 215.104C21.2728 213.614 22.3828 212.178 23.1665 210.689C24.0147 209.077 25.4406 208.347 27.065 207.486C27.6591 207.172 27.9945 206.212 27.9945 205.576C27.9945 204.809 28.4041 204.267 28.9239 203.716C29.4803 203.127 29.8158 202.238 30.0857 201.495C30.4057 200.615 31.3865 200.373 32.0737 199.869C33.0028 199.187 34.3322 198.748 33.9197 197.428C33.6006 196.407 33.5712 195.348 33.5712 194.291C33.5712 192.61 35.2302 190.919 35.8948 189.423C36.2778 188.561 37.0443 187.924 37.5084 187.112C37.9575 186.326 38.1782 185.681 39.2511 186.169C39.9501 186.487 41.185 186.128 41.7555 186.699C42.5525 187.496 43.7364 187.854 44.7246 188.377C45.2447 188.653 45.7915 189.477 46.3511 189.539C46.5534 189.562 47.0677 189.706 47.2289 189.823C47.9523 190.35 49.2836 190.167 50.1463 190.288C51.451 190.472 52.5969 190.979 53.8383 191.347C55.2541 191.766 56.9106 191.811 58.3823 191.863C59.8957 191.917 61.9473 193.587 62.6681 194.885C62.93 195.356 63.4761 196.73 63.9073 196.976C64.9281 197.56 65.9082 197.888 67.0055 198.358C68.9468 199.19 70.7703 199.068 72.7242 199.068C74.1999 199.068 75.5917 197.154 76.1451 196.047C77.0783 194.18 78.9091 196.047 80.5083 196.047C81.3044 196.047 82.2382 195.366 82.7028 194.768C83.15 194.193 82.6789 193.782 83.4128 193.374C84.7674 192.621 85.8643 191.522 87.2468 190.83C88.0992 190.404 90.3803 190.758 91.0937 191.166C92.2593 191.832 93.9409 193.217 94.7856 194.304C95.2005 194.837 95.8085 195.834 95.8442 196.512C95.8659 196.923 95.9481 197.745 96.3089 197.958C97.1578 198.457 97.8634 198.998 98.8649 199.249C99.6657 199.449 100.417 199.652 101.189 199.946C101.475 200.055 101.854 199.733 102.221 199.817C103.041 200.004 104.368 200.102 105.035 200.695C105.462 201.074 105.573 201.644 105.887 202.038C107.168 203.639 110.546 202.031 112.11 201.857C113.163 201.74 113.285 199.243 114.085 198.603C114.677 198.129 115.972 198.461 116.628 198.836C117.196 199.161 117.322 199.788 117.57 200.333C118.348 202.046 120.349 202.728 121.985 203.368L122.058 203.396C123.024 203.774 123.592 203.996 123.96 205.007C124.209 205.692 124.808 206.284 125.251 206.854C126.798 208.843 129.443 208.888 131.731 209.346C133.813 209.762 134.523 211.691 135.759 213.064C136.259 213.62 136.26 214.401 136.972 214.82C137.52 215.143 137.982 215.545 138.599 215.853C140.031 216.569 140.961 217.69 141.568 219.055C142.018 220.069 142.023 221.467 143.143 222.18C143.801 222.599 144.656 222.102 145.221 222.102C145.534 222.102 145.992 224.022 146.034 224.168C146.569 226.001 146.731 227.773 146.731 229.682C146.731 230.394 146.488 231.587 147.067 232.083C147.706 232.631 148.29 233.629 148.926 234.265C149.483 234.823 150.136 235.353 150.565 236.021C151.993 238.242 148.359 237.864 147.532 238.1C146.628 238.358 146.701 241.954 146.318 242.761C145.773 243.913 144.808 244.559 143.711 245.137C143.368 245.317 140.844 246.723 141.206 247.125C141.63 247.596 142.508 247.358 142.962 247.926C143.259 248.297 143.22 249.262 143.246 249.733C143.287 250.471 144.846 250.865 145.441 250.56C147.463 249.521 147.592 247.582 149.894 248.094C151.21 248.386 153.594 247.701 154.774 247.177C155.414 246.892 156.262 246.707 156.723 246.131L156.727 246.127C157.048 245.725 157.281 245.434 157.652 245.899C158.554 247.026 159.066 247.684 159.292 249.152C159.58 251.022 160.208 252.956 161.551 254.33C163.479 256.302 164.391 258.435 163.048 261.122C162.403 262.412 162.812 264.219 163.474 265.434C164.295 266.939 164.705 268.335 164.869 270.056C164.941 270.815 165.19 271.562 165.656 272.161C166.285 272.97 166.725 273.888 167.644 274.421C168.413 274.866 168.511 274.983 168.857 275.763C169.597 277.427 169.676 279.39 170.484 281.005C170.754 281.545 170.956 281.654 171.413 281.987C171.93 282.363 173.785 282.143 174.099 282.736C174.291 283.099 174.361 284.424 174.383 284.827C174.417 285.49 174.593 285.904 174.899 286.454C175.447 287.441 175.739 288.514 176.358 289.476C176.869 290.271 177.171 290.622 177.171 291.593C177.171 294.9 177.036 298.136 176.241 301.316C175.761 303.238 174.059 305.835 172.653 307.242C172.036 307.859 171.642 308.565 170.91 309.114C170.103 309.72 169.272 310.849 168.444 311.322C167.182 312.044 167.676 314.847 167.644 316.074C167.589 318.161 167.275 319.532 166.431 321.316C165.725 322.806 166.799 324.421 166.301 325.912C166.077 326.585 165.778 327.727 165.269 328.236C164.531 328.974 163.384 328.974 162.403 329.45C161.24 330.015 161.881 332.111 162.3 333.052C163.081 334.811 164.128 336.345 163.642 338.411C163.202 340.28 162.633 342.169 161.383 343.627C160.922 344.165 160.445 344.572 159.873 345.009C159.669 345.164 158.92 345.43 158.814 345.615C158.211 346.671 157.652 348.83 157.652 350.031C157.652 350.527 157.505 351.415 157.072 351.761C155.357 353.134 153.381 353.857 151.843 355.48C151.583 355.755 149.781 357.375 150.269 357.985C150.638 358.447 150.682 359.511 150.682 360.128C150.682 361.45 149.665 362.307 148.823 363.15C148.056 363.917 147.579 365.461 146.731 365.99C146.375 366.213 146.358 366.672 145.918 366.868C145.582 367.018 145.153 367.338 144.873 367.578C144.095 368.245 143.071 368.373 142.175 368.856C140.545 369.734 138.282 369.213 136.856 370.354C135.547 371.402 137.437 372.517 137.437 373.492C137.437 374.014 136.74 374.364 136.74 374.886C136.74 375.674 136.831 375.899 137.308 376.513C138.354 377.859 137.464 380.852 137.437 382.31C137.417 383.356 137.498 384.416 137.437 385.461C137.393 386.215 136.091 387.068 135.578 387.553C134.645 388.434 132.417 388.715 131.163 388.715C130.608 388.715 129.932 388.892 129.304 388.947Z" fill="#676873"/>
</svg>
