<svg width="90" height="142" viewBox="0 0 90 142" fill="none" xmlns="http://www.w3.org/2000/svg">
<g filter="url(#filter0_i_686_1887)">
<rect x="44.4297" y="4" width="1" height="8" fill="#FD6060"/>
</g>
<g filter="url(#filter1_i_686_1887)">
<circle cx="44.9297" cy="2.5" r="2.5" fill="#FD6060"/>
</g>
<g filter="url(#filter2_i_686_1887)">
<circle cx="7.5" cy="7.5" r="7.5" transform="matrix(1 0 0 -1 37.4297 26)" fill="url(#paint0_linear_686_1887)"/>
</g>
<g filter="url(#filter3_i_686_1887)">
<path d="M85.4297 48C85.4297 60 75.9297 82 45.4297 82C14.9297 82 5.42969 63 5.42969 48C5.42969 35.1156 14.2834 18.9111 34.5259 14.5964C35.9741 14.2877 41.4805 14.5 45.4297 14.5C49.4427 14.5 53.1271 13.9622 56.4946 14.7894C76.6229 19.7338 85.4297 37.7199 85.4297 48Z" fill="url(#paint1_linear_686_1887)"/>
</g>
<g filter="url(#filter4_i_686_1887)">
<path d="M86.5364 36.0633C84.7624 34.6709 80.9362 32.3777 78.9861 29.9858C77.2724 37.4653 77.7113 66.086 79.9197 64.9447C81.1986 63.6266 83.2885 63.0712 84.6911 62.0191C86.2343 60.8618 87.1271 59.1709 88.0347 57.0842C89.278 54.2255 89.9965 38.7788 86.5364 36.0633Z" fill="#FD6060"/>
</g>
<g filter="url(#filter5_i_686_1887)">
<path d="M3.46355 36.0633C5.23759 34.6709 9.06376 32.3777 11.0139 29.9858C12.7276 37.4653 12.2887 66.086 10.0803 64.9447C8.80141 63.6266 6.71154 63.0712 5.30885 62.0191C3.76571 60.8618 2.8729 59.1709 1.96533 57.0842C0.721987 54.2255 0.00351906 38.7788 3.46355 36.0633Z" fill="#FD6060"/>
</g>
<g filter="url(#filter6_i_686_1887)">
<rect x="15.4297" y="25" width="59" height="46" rx="16" fill="#2F2D2D"/>
</g>
<rect x="16.4297" y="26" width="57" height="44" rx="15" stroke="white" stroke-opacity="0.2" stroke-width="2"/>
<ellipse opacity="0.05" cx="26.9297" cy="48" rx="0.5" ry="18" fill="url(#paint2_linear_686_1887)"/>
<ellipse opacity="0.1" cx="31.9297" cy="48" rx="0.5" ry="18" fill="url(#paint3_linear_686_1887)"/>
<ellipse opacity="0.15" cx="36.9297" cy="48" rx="0.5" ry="18" fill="url(#paint4_linear_686_1887)"/>
<ellipse opacity="0.2" cx="41.9297" cy="48" rx="0.5" ry="18" fill="url(#paint5_linear_686_1887)"/>
<ellipse opacity="0.2" cx="46.9297" cy="48" rx="0.5" ry="18" fill="url(#paint6_linear_686_1887)"/>
<ellipse opacity="0.15" cx="51.9297" cy="48" rx="0.5" ry="18" fill="url(#paint7_linear_686_1887)"/>
<ellipse opacity="0.1" cx="56.9297" cy="48" rx="0.5" ry="18" fill="url(#paint8_linear_686_1887)"/>
<ellipse opacity="0.05" cx="61.9297" cy="48" rx="0.5" ry="18" fill="url(#paint9_linear_686_1887)"/>
<ellipse opacity="0.1" cx="44.4297" cy="35.5" rx="0.5" ry="18" transform="rotate(90 44.4297 35.5)" fill="url(#paint10_linear_686_1887)"/>
<ellipse opacity="0.15" cx="44.4297" cy="40.5" rx="0.5" ry="18" transform="rotate(90 44.4297 40.5)" fill="url(#paint11_linear_686_1887)"/>
<ellipse opacity="0.2" cx="44.4297" cy="45.5" rx="0.5" ry="18" transform="rotate(90 44.4297 45.5)" fill="url(#paint12_linear_686_1887)"/>
<ellipse opacity="0.2" cx="44.4297" cy="50.5" rx="0.5" ry="18" transform="rotate(90 44.4297 50.5)" fill="url(#paint13_linear_686_1887)"/>
<ellipse opacity="0.15" cx="44.4297" cy="55.5" rx="0.5" ry="18" transform="rotate(90 44.4297 55.5)" fill="url(#paint14_linear_686_1887)"/>
<ellipse opacity="0.1" cx="44.4297" cy="60.5" rx="0.5" ry="18" transform="rotate(90 44.4297 60.5)" fill="url(#paint15_linear_686_1887)"/>
<rect x="25.4297" y="46" width="7" height="18" rx="2" fill="#FD6060"/>
<rect x="57.4297" y="46" width="7" height="18" rx="2" fill="#FD6060"/>
<g filter="url(#filter7_f_686_1887)">
<path d="M61.4297 103.031C61.4297 112.038 54.0424 124 44.9297 124C35.817 124 28.4297 112.038 28.4297 103.031C28.4297 90.0497 36.8481 96.7066 44.9297 96.7066C53.0113 96.7066 61.4297 90.0497 61.4297 103.031Z" fill="url(#paint16_linear_686_1887)"/>
</g>
<g filter="url(#filter8_i_686_1887)">
<path d="M16.4281 97.5021C13.6249 105.907 13.5389 112.988 9.42853 113.5C5.42844 113.998 0.189277 106.076 3.42812 96.0018C7.92981 82 18.7969 79.6925 20.4286 83.4998C21.9286 86.9997 17.9297 93 16.4281 97.5021Z" fill="url(#paint17_linear_686_1887)"/>
</g>
<path d="M6.80859 89.2188L6.73447 93.2443C6.73138 93.4121 6.68569 93.5755 6.60594 93.7231C5.95315 94.9314 4.87059 97.4164 4.74231 99.5862C4.72665 99.851 4.62341 100.105 4.43998 100.296C3.60371 101.169 3.04366 101.914 2.59375 102.364" stroke="white" stroke-width="0.35" stroke-linecap="round"/>
<path d="M17.2356 94.9739L14.8028 95.8639C14.5632 95.9516 14.3666 96.1254 14.2552 96.355C13.0908 98.7572 11.0858 103.577 10.9383 106.652C10.9275 106.878 11.0062 107.097 11.1468 107.274L12.8945 109.473" stroke="white" stroke-width="0.35" stroke-linecap="round"/>
<g filter="url(#filter9_i_686_1887)">
<path d="M73.7477 97.5021C76.5509 105.907 76.6369 112.988 80.7473 113.5C84.7473 113.998 89.9865 106.076 86.7477 96.0018C82.246 82 71.3789 79.6925 69.7472 83.4998C68.2472 86.9997 72.2461 93 73.7477 97.5021Z" fill="url(#paint18_linear_686_1887)"/>
</g>
<path d="M83.3672 89.2188L83.4413 93.2443C83.4444 93.4121 83.4901 93.5755 83.5698 93.7231C84.2226 94.9314 85.3052 97.4164 85.4335 99.5862C85.4491 99.851 85.5524 100.105 85.7358 100.296C86.5721 101.169 87.1321 101.914 87.582 102.364" stroke="white" stroke-width="0.35" stroke-linecap="round"/>
<path d="M72.9401 94.9739L75.3729 95.8639C75.6126 95.9516 75.8092 96.1254 75.9205 96.355C77.085 98.7572 79.09 103.577 79.2375 106.652C79.2483 106.878 79.1696 107.097 79.029 107.274L77.2812 109.473" stroke="white" stroke-width="0.35" stroke-linecap="round"/>
<g filter="url(#filter10_ii_686_1887)">
<path d="M69.4297 94.5C69.4297 108.031 58.4607 126 44.9297 126C31.3987 126 20.4297 108.031 20.4297 94.5C20.4297 75 32.9297 85 44.9297 85C56.9297 85 69.4297 75 69.4297 94.5Z" fill="white"/>
</g>
<path d="M24.1406 109.015L31.4973 111.385C31.7278 111.459 31.9235 111.614 32.0481 111.822L33.1081 113.589C33.2641 113.849 33.5277 114.024 33.8285 114.062C35.5212 114.281 41.3821 115 45.3549 115C49.3276 115 55.1885 114.281 56.8812 114.062C57.182 114.024 57.4456 113.849 57.6016 113.589L58.6728 111.803C58.7906 111.607 58.9722 111.457 59.1873 111.379L65.7386 108.986" stroke="url(#paint19_linear_686_1887)" stroke-width="0.35" stroke-linecap="round"/>
<g filter="url(#filter11_i_686_1887)">
<rect x="31.4297" y="91" width="28" height="21" rx="8" fill="#2F2D2D"/>
</g>
<rect x="31.9297" y="91.5" width="27" height="20" rx="7.5" stroke="white" stroke-opacity="0.2"/>
<path opacity="0.5" d="M45.4062 94L49.1562 96.125V104.375L45.4062 106.5L41.6562 104.375V96.125L45.4062 94Z" fill="url(#paint20_linear_686_1887)"/>
<path opacity="0.5" d="M49.1289 100.065L49.1636 104.376L42.0189 108.501L38.3036 106.315L38.2689 102.005L45.4136 97.8804L49.1289 100.065Z" fill="url(#paint21_linear_686_1887)"/>
<path opacity="0.5" d="M41.6836 100.065L41.6489 104.376L48.7936 108.501L52.5089 106.315L52.5436 102.005L45.3989 97.8804L41.6836 100.065Z" fill="url(#paint22_linear_686_1887)"/>
<g filter="url(#filter12_f_686_1887)">
<ellipse cx="44.4375" cy="133" rx="12.5" ry="2" fill="#FD6060"/>
</g>
<defs>
<filter id="filter0_i_686_1887" x="44.4297" y="4" width="1" height="8" filterUnits="userSpaceOnUse" color-interpolation-filters="sRGB">
<feFlood flood-opacity="0" result="BackgroundImageFix"/>
<feBlend mode="normal" in="SourceGraphic" in2="BackgroundImageFix" result="shape"/>
<feColorMatrix in="SourceAlpha" type="matrix" values="0 0 0 0 0 0 0 0 0 0 0 0 0 0 0 0 0 0 127 0" result="hardAlpha"/>
<feOffset dx="-2"/>
<feComposite in2="hardAlpha" operator="arithmetic" k2="-1" k3="1"/>
<feColorMatrix type="matrix" values="0 0 0 0 1 0 0 0 0 0.804703 0 0 0 0 0.804703 0 0 0 0.25 0"/>
<feBlend mode="normal" in2="shape" result="effect1_innerShadow_686_1887"/>
</filter>
<filter id="filter1_i_686_1887" x="42.4297" y="0" width="5" height="5" filterUnits="userSpaceOnUse" color-interpolation-filters="sRGB">
<feFlood flood-opacity="0" result="BackgroundImageFix"/>
<feBlend mode="normal" in="SourceGraphic" in2="BackgroundImageFix" result="shape"/>
<feColorMatrix in="SourceAlpha" type="matrix" values="0 0 0 0 0 0 0 0 0 0 0 0 0 0 0 0 0 0 127 0" result="hardAlpha"/>
<feOffset dx="-2"/>
<feComposite in2="hardAlpha" operator="arithmetic" k2="-1" k3="1"/>
<feColorMatrix type="matrix" values="0 0 0 0 1 0 0 0 0 0.804703 0 0 0 0 0.804703 0 0 0 0.25 0"/>
<feBlend mode="normal" in2="shape" result="effect1_innerShadow_686_1887"/>
</filter>
<filter id="filter2_i_686_1887" x="37.4297" y="11" width="15" height="16" filterUnits="userSpaceOnUse" color-interpolation-filters="sRGB">
<feFlood flood-opacity="0" result="BackgroundImageFix"/>
<feBlend mode="normal" in="SourceGraphic" in2="BackgroundImageFix" result="shape"/>
<feColorMatrix in="SourceAlpha" type="matrix" values="0 0 0 0 0 0 0 0 0 0 0 0 0 0 0 0 0 0 127 0" result="hardAlpha"/>
<feOffset dy="1"/>
<feGaussianBlur stdDeviation="1"/>
<feComposite in2="hardAlpha" operator="arithmetic" k2="-1" k3="1"/>
<feColorMatrix type="matrix" values="0 0 0 0 1 0 0 0 0 1 0 0 0 0 1 0 0 0 0.65 0"/>
<feBlend mode="normal" in2="shape" result="effect1_innerShadow_686_1887"/>
</filter>
<filter id="filter3_i_686_1887" x="5.42969" y="11.3281" width="80" height="70.6719" filterUnits="userSpaceOnUse" color-interpolation-filters="sRGB">
<feFlood flood-opacity="0" result="BackgroundImageFix"/>
<feBlend mode="normal" in="SourceGraphic" in2="BackgroundImageFix" result="shape"/>
<feColorMatrix in="SourceAlpha" type="matrix" values="0 0 0 0 0 0 0 0 0 0 0 0 0 0 0 0 0 0 127 0" result="hardAlpha"/>
<feOffset dy="-3"/>
<feGaussianBlur stdDeviation="1.5"/>
<feComposite in2="hardAlpha" operator="arithmetic" k2="-1" k3="1"/>
<feColorMatrix type="matrix" values="0 0 0 0 1 0 0 0 0 1 0 0 0 0 1 0 0 0 0.65 0"/>
<feBlend mode="normal" in2="shape" result="effect1_innerShadow_686_1887"/>
</filter>
<filter id="filter4_i_686_1887" x="77.9375" y="29.9858" width="11.125" height="34.9919" filterUnits="userSpaceOnUse" color-interpolation-filters="sRGB">
<feFlood flood-opacity="0" result="BackgroundImageFix"/>
<feBlend mode="normal" in="SourceGraphic" in2="BackgroundImageFix" result="shape"/>
<feColorMatrix in="SourceAlpha" type="matrix" values="0 0 0 0 0 0 0 0 0 0 0 0 0 0 0 0 0 0 127 0" result="hardAlpha"/>
<feOffset dx="-2"/>
<feComposite in2="hardAlpha" operator="arithmetic" k2="-1" k3="1"/>
<feColorMatrix type="matrix" values="0 0 0 0 1 0 0 0 0 0.804703 0 0 0 0 0.804703 0 0 0 0.25 0"/>
<feBlend mode="normal" in2="shape" result="effect1_innerShadow_686_1887"/>
</filter>
<filter id="filter5_i_686_1887" x="0.9375" y="29.9858" width="11.125" height="34.9919" filterUnits="userSpaceOnUse" color-interpolation-filters="sRGB">
<feFlood flood-opacity="0" result="BackgroundImageFix"/>
<feBlend mode="normal" in="SourceGraphic" in2="BackgroundImageFix" result="shape"/>
<feColorMatrix in="SourceAlpha" type="matrix" values="0 0 0 0 0 0 0 0 0 0 0 0 0 0 0 0 0 0 127 0" result="hardAlpha"/>
<feOffset dx="2"/>
<feComposite in2="hardAlpha" operator="arithmetic" k2="-1" k3="1"/>
<feColorMatrix type="matrix" values="0 0 0 0 1 0 0 0 0 0.804703 0 0 0 0 0.804703 0 0 0 0.25 0"/>
<feBlend mode="normal" in2="shape" result="effect1_innerShadow_686_1887"/>
</filter>
<filter id="filter6_i_686_1887" x="15.4297" y="25" width="59" height="47" filterUnits="userSpaceOnUse" color-interpolation-filters="sRGB">
<feFlood flood-opacity="0" result="BackgroundImageFix"/>
<feBlend mode="normal" in="SourceGraphic" in2="BackgroundImageFix" result="shape"/>
<feColorMatrix in="SourceAlpha" type="matrix" values="0 0 0 0 0 0 0 0 0 0 0 0 0 0 0 0 0 0 127 0" result="hardAlpha"/>
<feOffset dy="1"/>
<feGaussianBlur stdDeviation="5.15"/>
<feComposite in2="hardAlpha" operator="arithmetic" k2="-1" k3="1"/>
<feColorMatrix type="matrix" values="0 0 0 0 0 0 0 0 0 0 0 0 0 0 0 0 0 0 1 0"/>
<feBlend mode="normal" in2="shape" result="effect1_innerShadow_686_1887"/>
</filter>
<filter id="filter7_f_686_1887" x="22.5297" y="89.1" width="44.8" height="40.8" filterUnits="userSpaceOnUse" color-interpolation-filters="sRGB">
<feFlood flood-opacity="0" result="BackgroundImageFix"/>
<feBlend mode="normal" in="SourceGraphic" in2="BackgroundImageFix" result="shape"/>
<feGaussianBlur stdDeviation="2.95" result="effect1_foregroundBlur_686_1887"/>
</filter>
<filter id="filter8_i_686_1887" x="2.41797" y="80.8621" width="20.3398" height="32.6604" filterUnits="userSpaceOnUse" color-interpolation-filters="sRGB">
<feFlood flood-opacity="0" result="BackgroundImageFix"/>
<feBlend mode="normal" in="SourceGraphic" in2="BackgroundImageFix" result="shape"/>
<feColorMatrix in="SourceAlpha" type="matrix" values="0 0 0 0 0 0 0 0 0 0 0 0 0 0 0 0 0 0 127 0" result="hardAlpha"/>
<feOffset dx="2" dy="-1"/>
<feGaussianBlur stdDeviation="2.5"/>
<feComposite in2="hardAlpha" operator="arithmetic" k2="-1" k3="1"/>
<feColorMatrix type="matrix" values="0 0 0 0 1 0 0 0 0 1 0 0 0 0 1 0 0 0 1 0"/>
<feBlend mode="normal" in2="shape" result="effect1_innerShadow_686_1887"/>
</filter>
<filter id="filter9_i_686_1887" x="69.418" y="80.8621" width="20.3398" height="32.6604" filterUnits="userSpaceOnUse" color-interpolation-filters="sRGB">
<feFlood flood-opacity="0" result="BackgroundImageFix"/>
<feBlend mode="normal" in="SourceGraphic" in2="BackgroundImageFix" result="shape"/>
<feColorMatrix in="SourceAlpha" type="matrix" values="0 0 0 0 0 0 0 0 0 0 0 0 0 0 0 0 0 0 127 0" result="hardAlpha"/>
<feOffset dx="2" dy="-1"/>
<feGaussianBlur stdDeviation="2.5"/>
<feComposite in2="hardAlpha" operator="arithmetic" k2="-1" k3="1"/>
<feColorMatrix type="matrix" values="0 0 0 0 1 0 0 0 0 1 0 0 0 0 1 0 0 0 1 0"/>
<feBlend mode="normal" in2="shape" result="effect1_innerShadow_686_1887"/>
</filter>
<filter id="filter10_ii_686_1887" x="20.4297" y="76.4363" width="49" height="53.5637" filterUnits="userSpaceOnUse" color-interpolation-filters="sRGB">
<feFlood flood-opacity="0" result="BackgroundImageFix"/>
<feBlend mode="normal" in="SourceGraphic" in2="BackgroundImageFix" result="shape"/>
<feColorMatrix in="SourceAlpha" type="matrix" values="0 0 0 0 0 0 0 0 0 0 0 0 0 0 0 0 0 0 127 0" result="hardAlpha"/>
<feOffset dy="4"/>
<feGaussianBlur stdDeviation="2"/>
<feComposite in2="hardAlpha" operator="arithmetic" k2="-1" k3="1"/>
<feColorMatrix type="matrix" values="0 0 0 0 1 0 0 0 0 0.53552 0 0 0 0 0.53552 0 0 0 0.39 0"/>
<feBlend mode="normal" in2="shape" result="effect1_innerShadow_686_1887"/>
<feColorMatrix in="SourceAlpha" type="matrix" values="0 0 0 0 0 0 0 0 0 0 0 0 0 0 0 0 0 0 127 0" result="hardAlpha"/>
<feOffset dy="-6"/>
<feGaussianBlur stdDeviation="4"/>
<feComposite in2="hardAlpha" operator="arithmetic" k2="-1" k3="1"/>
<feColorMatrix type="matrix" values="0 0 0 0 1 0 0 0 0 0.995763 0 0 0 0 0.995763 0 0 0 0.57 0"/>
<feBlend mode="normal" in2="effect1_innerShadow_686_1887" result="effect2_innerShadow_686_1887"/>
</filter>
<filter id="filter11_i_686_1887" x="31.4297" y="91" width="28" height="22" filterUnits="userSpaceOnUse" color-interpolation-filters="sRGB">
<feFlood flood-opacity="0" result="BackgroundImageFix"/>
<feBlend mode="normal" in="SourceGraphic" in2="BackgroundImageFix" result="shape"/>
<feColorMatrix in="SourceAlpha" type="matrix" values="0 0 0 0 0 0 0 0 0 0 0 0 0 0 0 0 0 0 127 0" result="hardAlpha"/>
<feOffset dy="1"/>
<feGaussianBlur stdDeviation="5.15"/>
<feComposite in2="hardAlpha" operator="arithmetic" k2="-1" k3="1"/>
<feColorMatrix type="matrix" values="0 0 0 0 0 0 0 0 0 0 0 0 0 0 0 0 0 0 1 0"/>
<feBlend mode="normal" in2="shape" result="effect1_innerShadow_686_1887"/>
</filter>
<filter id="filter12_f_686_1887" x="25.6375" y="124.7" width="37.6" height="16.6" filterUnits="userSpaceOnUse" color-interpolation-filters="sRGB">
<feFlood flood-opacity="0" result="BackgroundImageFix"/>
<feBlend mode="normal" in="SourceGraphic" in2="BackgroundImageFix" result="shape"/>
<feGaussianBlur stdDeviation="3.15" result="effect1_foregroundBlur_686_1887"/>
</filter>
<linearGradient id="paint0_linear_686_1887" x1="7.5" y1="0" x2="7.5" y2="15" gradientUnits="userSpaceOnUse">
<stop stop-color="#F59999"/>
<stop offset="1" stop-color="#F59999"/>
</linearGradient>
<linearGradient id="paint1_linear_686_1887" x1="45.4297" y1="14.3281" x2="45.4297" y2="82" gradientUnits="userSpaceOnUse">
<stop stop-color="white"/>
<stop offset="1" stop-color="#FFC7C7"/>
</linearGradient>
<linearGradient id="paint2_linear_686_1887" x1="26.9297" y1="30" x2="26.9297" y2="66" gradientUnits="userSpaceOnUse">
<stop stop-color="#FD6060" stop-opacity="0"/>
<stop offset="0.5" stop-color="#FD6060"/>
<stop offset="1" stop-color="#FD6060" stop-opacity="0"/>
</linearGradient>
<linearGradient id="paint3_linear_686_1887" x1="31.9297" y1="30" x2="31.9297" y2="66" gradientUnits="userSpaceOnUse">
<stop stop-color="#FD6060" stop-opacity="0"/>
<stop offset="0.5" stop-color="#FD6060"/>
<stop offset="1" stop-color="#FD6060" stop-opacity="0"/>
</linearGradient>
<linearGradient id="paint4_linear_686_1887" x1="36.9297" y1="30" x2="36.9297" y2="66" gradientUnits="userSpaceOnUse">
<stop stop-color="#FD6060" stop-opacity="0"/>
<stop offset="0.5" stop-color="#FD6060"/>
<stop offset="1" stop-color="#FD6060" stop-opacity="0"/>
</linearGradient>
<linearGradient id="paint5_linear_686_1887" x1="41.9297" y1="30" x2="41.9297" y2="66" gradientUnits="userSpaceOnUse">
<stop stop-color="#FD6060" stop-opacity="0"/>
<stop offset="0.5" stop-color="#FD6060"/>
<stop offset="1" stop-color="#FD6060" stop-opacity="0"/>
</linearGradient>
<linearGradient id="paint6_linear_686_1887" x1="46.9297" y1="30" x2="46.9297" y2="66" gradientUnits="userSpaceOnUse">
<stop stop-color="#FD6060" stop-opacity="0"/>
<stop offset="0.5" stop-color="#FD6060"/>
<stop offset="1" stop-color="#FD6060" stop-opacity="0"/>
</linearGradient>
<linearGradient id="paint7_linear_686_1887" x1="51.9297" y1="30" x2="51.9297" y2="66" gradientUnits="userSpaceOnUse">
<stop stop-color="#FD6060" stop-opacity="0"/>
<stop offset="0.5" stop-color="#FD6060"/>
<stop offset="1" stop-color="#FD6060" stop-opacity="0"/>
</linearGradient>
<linearGradient id="paint8_linear_686_1887" x1="56.9297" y1="30" x2="56.9297" y2="66" gradientUnits="userSpaceOnUse">
<stop stop-color="#FD6060" stop-opacity="0"/>
<stop offset="0.5" stop-color="#FD6060"/>
<stop offset="1" stop-color="#FD6060" stop-opacity="0"/>
</linearGradient>
<linearGradient id="paint9_linear_686_1887" x1="61.9297" y1="30" x2="61.9297" y2="66" gradientUnits="userSpaceOnUse">
<stop stop-color="#FD6060" stop-opacity="0"/>
<stop offset="0.5" stop-color="#FD6060"/>
<stop offset="1" stop-color="#FD6060" stop-opacity="0"/>
</linearGradient>
<linearGradient id="paint10_linear_686_1887" x1="44.4297" y1="17.5" x2="44.4297" y2="53.5" gradientUnits="userSpaceOnUse">
<stop stop-color="#FD6060" stop-opacity="0"/>
<stop offset="0.5" stop-color="#FD6060"/>
<stop offset="1" stop-color="#FD6060" stop-opacity="0"/>
</linearGradient>
<linearGradient id="paint11_linear_686_1887" x1="44.4297" y1="22.5" x2="44.4297" y2="58.5" gradientUnits="userSpaceOnUse">
<stop stop-color="#FD6060" stop-opacity="0"/>
<stop offset="0.5" stop-color="#FD6060"/>
<stop offset="1" stop-color="#FD6060" stop-opacity="0"/>
</linearGradient>
<linearGradient id="paint12_linear_686_1887" x1="44.4297" y1="27.5" x2="44.4297" y2="63.5" gradientUnits="userSpaceOnUse">
<stop stop-color="#FD6060" stop-opacity="0"/>
<stop offset="0.5" stop-color="#FD6060"/>
<stop offset="1" stop-color="#FD6060" stop-opacity="0"/>
</linearGradient>
<linearGradient id="paint13_linear_686_1887" x1="44.4297" y1="32.5" x2="44.4297" y2="68.5" gradientUnits="userSpaceOnUse">
<stop stop-color="#FD6060" stop-opacity="0"/>
<stop offset="0.5" stop-color="#FD6060"/>
<stop offset="1" stop-color="#FD6060" stop-opacity="0"/>
</linearGradient>
<linearGradient id="paint14_linear_686_1887" x1="44.4297" y1="37.5" x2="44.4297" y2="73.5" gradientUnits="userSpaceOnUse">
<stop stop-color="#FD6060" stop-opacity="0"/>
<stop offset="0.5" stop-color="#FD6060"/>
<stop offset="1" stop-color="#FD6060" stop-opacity="0"/>
</linearGradient>
<linearGradient id="paint15_linear_686_1887" x1="44.4297" y1="42.5" x2="44.4297" y2="78.5" gradientUnits="userSpaceOnUse">
<stop stop-color="#FD6060" stop-opacity="0"/>
<stop offset="0.5" stop-color="#FD6060"/>
<stop offset="1" stop-color="#FD6060" stop-opacity="0"/>
</linearGradient>
<linearGradient id="paint16_linear_686_1887" x1="44.9297" y1="95" x2="44.9297" y2="124" gradientUnits="userSpaceOnUse">
<stop stop-color="#FF9090" stop-opacity="0"/>
<stop offset="0.998865" stop-color="#FF9090"/>
</linearGradient>
<linearGradient id="paint17_linear_686_1887" x1="11.5888" y1="81.8621" x2="11.5888" y2="113.522" gradientUnits="userSpaceOnUse">
<stop stop-color="white"/>
<stop offset="1" stop-color="#FFC7C7"/>
</linearGradient>
<linearGradient id="paint18_linear_686_1887" x1="78.587" y1="81.8621" x2="78.587" y2="113.522" gradientUnits="userSpaceOnUse">
<stop stop-color="white"/>
<stop offset="1" stop-color="#FFC7C7"/>
</linearGradient>
<linearGradient id="paint19_linear_686_1887" x1="24.1406" y1="111.993" x2="65.7386" y2="111.993" gradientUnits="userSpaceOnUse">
<stop stop-color="white" stop-opacity="0.5"/>
<stop offset="0.495" stop-color="white"/>
<stop offset="1" stop-color="white" stop-opacity="0.5"/>
</linearGradient>
<linearGradient id="paint20_linear_686_1887" x1="45.4062" y1="94" x2="45.4062" y2="106.5" gradientUnits="userSpaceOnUse">
<stop stop-color="#FD6060" stop-opacity="0.2"/>
<stop offset="1" stop-color="#FD6060"/>
</linearGradient>
<linearGradient id="paint21_linear_686_1887" x1="49.1289" y1="100.065" x2="38.3036" y2="106.315" gradientUnits="userSpaceOnUse">
<stop stop-color="#FD6060"/>
<stop offset="1" stop-color="#FD6060" stop-opacity="0.2"/>
</linearGradient>
<linearGradient id="paint22_linear_686_1887" x1="41.6836" y1="100.065" x2="52.5089" y2="106.315" gradientUnits="userSpaceOnUse">
<stop stop-color="#FD6060"/>
<stop offset="1" stop-color="#FD6060" stop-opacity="0.2"/>
</linearGradient>
</defs>
</svg>
