<svg width="111" height="24" viewBox="0 0 111 24" fill="none" xmlns="http://www.w3.org/2000/svg">
    <g clip-path="url(#clip0_92_4339)">
        <path fill-rule="evenodd" clip-rule="evenodd"
            d="M7.0311 0.883726C6.76007 0.341671 6.20605 -0.000732422 5.60002 -0.000732422C4.99398 -0.000732422 4.43996 0.341671 4.16893 0.883726L0.168933 8.88373C-0.0790573 9.37971 -0.0525549 9.96873 0.238976 10.4404C0.530506 10.9121 1.04549 11.1993 1.60002 11.1993H9.60002C10.1545 11.1993 10.6695 10.9121 10.9611 10.4404C11.2526 9.96873 11.2791 9.37971 11.0311 8.88373L7.0311 0.883726ZM7.01116 7.99927H4.18887L5.60002 5.17698L7.01116 7.99927ZM16.3998 -0.000732422C14.4116 -0.000732422 12.7998 1.61105 12.7998 3.59927V11.1993H15.9998V3.59927C15.9998 3.37835 16.1789 3.19927 16.3998 3.19927C16.6207 3.19927 16.7998 3.37835 16.7998 3.59927V11.1993H16.8003H19.9998H20.0003V3.59927C20.0003 3.37835 20.1794 3.19927 20.4003 3.19927C20.6212 3.19927 20.8003 3.37835 20.8003 3.59927V11.1993H24.0003V3.59927C24.0003 1.61104 22.3885 -0.000732422 20.4003 -0.000732422C19.6601 -0.000732422 18.9721 0.222641 18.4001 0.605653C17.828 0.222641 17.14 -0.000732422 16.3998 -0.000732422ZM3.6 12.8005C1.61177 12.8005 0 14.4123 0 16.4005V24.0005H3.2V16.4005C3.2 16.1796 3.37909 16.0005 3.6 16.0005C3.81643 16.0005 3.99271 16.1724 3.99978 16.3871L3.99976 16.4005V24.0005H4H7.19976H7.2V16.4005L7.19998 16.3872C7.20704 16.1724 7.38332 16.0005 7.59976 16.0005C7.82067 16.0005 7.99976 16.1796 7.99976 16.4005V24.0005H11.1998V16.4005C11.1998 14.4123 9.58798 12.8005 7.59976 12.8005C6.85975 12.8005 6.17189 13.0238 5.59988 13.4067C5.02786 13.0238 4.34001 12.8005 3.6 12.8005ZM18.3998 12.8005C15.307 12.8005 12.7998 15.3077 12.7998 18.4005C12.7998 21.4933 15.307 24.0005 18.3998 24.0005C21.4926 24.0005 23.9998 21.4933 23.9998 18.4005C23.9998 15.3077 21.4926 12.8005 18.3998 12.8005ZM15.9998 18.4005C15.9998 17.0751 17.0743 16.0005 18.3998 16.0005C19.7253 16.0005 20.7998 17.0751 20.7998 18.4005C20.7998 19.726 19.7253 20.8005 18.3998 20.8005C17.0743 20.8005 15.9998 19.726 15.9998 18.4005Z"
            fill="#FD6060" />
    </g>
    <path fill-rule="evenodd" clip-rule="evenodd"
        d="M40.342 3.82903C40.0879 3.32085 39.5685 2.99985 39.0003 2.99985C38.4322 2.99985 37.9128 3.32085 37.6587 3.82903L30.1587 18.829C29.7882 19.57 30.0885 20.471 30.8295 20.8415C31.5705 21.212 32.4715 20.9116 32.842 20.1707L39.0003 7.85395L45.1587 20.1707C45.5292 20.9116 46.4302 21.212 47.1711 20.8415C47.9121 20.471 48.2125 19.57 47.842 18.829L40.342 3.82903ZM53.2717 3.21361C52.8083 2.93557 52.2312 2.92829 51.7609 3.19455C51.2907 3.46081 51 3.95944 51 4.49985V19.4998C51 20.3283 51.6716 20.9998 52.5 20.9998C53.3284 20.9998 54 20.3283 54 19.4998V7.14913L59.2282 10.2861C59.7033 10.5711 60.2967 10.5711 60.7717 10.2861L66 7.14913V19.4998C66 20.3283 66.6716 20.9998 67.5 20.9998C68.3284 20.9998 69 20.3283 69 19.4998V4.49985C69 3.95944 68.7093 3.46081 68.239 3.19455C67.7688 2.92829 67.1916 2.93557 66.7282 3.21361L60 7.25056L53.2717 3.21361ZM72.7609 3.19455C73.2312 2.92829 73.8083 2.93557 74.2717 3.21361L81 7.25056L87.7282 3.21361C88.1916 2.93557 88.7688 2.92829 89.239 3.19455C89.7093 3.46081 90 3.95944 90 4.49985V19.4998C90 20.3283 89.3284 20.9998 88.5 20.9998C87.6716 20.9998 87 20.3283 87 19.4998V7.14913L81.7717 10.2861C81.2967 10.5711 80.7033 10.5711 80.2282 10.2861L75 7.14913V19.4998C75 20.3283 74.3284 20.9998 73.5 20.9998C72.6716 20.9998 72 20.3283 72 19.4998V4.49985C72 3.95944 72.2907 3.46081 72.7609 3.19455ZM96 11.9998C96 8.68614 98.6863 5.99985 102 5.99985C105.314 5.99985 108 8.68614 108 11.9998C108 15.3136 105.314 17.9998 102 17.9998C98.6863 17.9998 96 15.3136 96 11.9998ZM102 2.99985C97.0294 2.99985 93 7.02928 93 11.9998C93 16.9704 97.0294 20.9998 102 20.9998C106.971 20.9998 111 16.9704 111 11.9998C111 7.02928 106.971 2.99985 102 2.99985Z"
        fill="#303030" />
    <defs>
        <clipPath id="clip0_92_4339">
            <rect width="24" height="24" fill="white" />
        </clipPath>
    </defs>
</svg>