<svg width="800" height="800" viewBox="0 0 800 800" fill="none" xmlns="http://www.w3.org/2000/svg">
<mask id="mask0_417_5" style="mask-type:alpha" maskUnits="userSpaceOnUse" x="0" y="0" width="800" height="800">
<rect width="800" height="800" fill="url(#paint0_linear_417_5)"/>
</mask>
<g mask="url(#mask0_417_5)">
<g opacity="0.1">
<path d="M249.424 63.164L248.53 63.6112L249.424 63.164ZM162.693 63.164L163.587 63.6112L162.693 63.164ZM41.4821 305.575L40.5877 305.128L41.4821 305.575ZM43.6046 352.746L42.7539 353.272H42.7539L43.6046 352.746ZM368.512 352.746L369.363 353.272L368.512 352.746ZM370.635 305.575L369.74 306.023L370.635 305.575ZM163.297 278.775L162.403 278.328L161.679 279.775H163.297V278.775ZM248.82 278.775V279.775H250.438L249.714 278.328L248.82 278.775ZM206.058 193.256L206.953 192.808L206.058 191.02L205.164 192.808L206.058 193.256ZM424.231 375.74H423.231V376.74H424.231V375.74ZM521.199 375.74V376.74H522.199V375.74H521.199ZM545.441 375.74H544.441V376.74H545.441V375.74ZM642.426 375.74V376.74H643.426V375.74H642.426ZM666.668 375.74H665.668V376.74H666.668V375.74ZM763.636 375.74V376.74H764.636V375.74H763.636ZM593.933 54.7383L593.377 55.5693L593.933 55.9417L594.49 55.5693L593.933 54.7383ZM36.3633 763.636H35.3633V764.636H36.3633V763.636ZM133.332 763.636V764.636H134.332V763.636H133.332ZM157.567 532.943L158.567 532.946L158.567 532.928L158.567 532.91L157.567 532.943ZM157.567 763.636H156.567V764.636H157.567V763.636ZM254.542 763.636V764.636H255.542V763.636H254.542ZM254.542 533.119L255.542 533.117V533.117L254.542 533.119ZM254.542 532.943L253.542 532.91L253.542 532.928L253.542 532.946L254.542 532.943ZM278.777 763.636H277.777V764.636H278.777V763.636ZM375.746 763.636V764.636H376.746V763.636H375.746ZM206.055 442.627L205.498 443.458L206.055 443.831L206.611 443.458L206.055 442.627ZM206.058 37.3636C224.044 37.3636 240.486 47.525 248.53 63.6112L250.318 62.7167C241.936 45.9529 224.802 35.3636 206.058 35.3636V37.3636ZM163.587 63.6112C171.631 47.525 188.073 37.3636 206.058 37.3636V35.3636C187.315 35.3636 170.181 45.9529 161.798 62.7167L163.587 63.6112ZM42.3765 306.023L163.587 63.6112L161.798 62.7167L40.5877 305.128L42.3765 306.023ZM44.4552 352.22C35.8033 338.222 35.0167 320.742 42.3765 306.023L40.5877 305.128C32.9179 320.467 33.7376 338.684 42.7539 353.272L44.4552 352.22ZM84.8477 374.74C68.3907 374.74 53.1071 366.219 44.4552 352.22L42.7539 353.272C51.7703 367.86 67.6976 376.74 84.8477 376.74V374.74ZM327.269 374.74H84.8477V376.74H327.269V374.74ZM367.662 352.22C359.01 366.219 343.726 374.74 327.269 374.74V376.74C344.419 376.74 360.347 367.86 369.363 353.272L367.662 352.22ZM369.74 306.023C377.1 320.742 376.314 338.222 367.662 352.22L369.363 353.272C378.379 338.684 379.199 320.467 371.529 305.128L369.74 306.023ZM248.53 63.6112L369.74 306.023L371.529 305.128L250.318 62.7167L248.53 63.6112ZM163.297 279.775H248.82V277.775H163.297V279.775ZM205.164 192.808L162.403 278.328L164.191 279.222L206.953 193.703L205.164 192.808ZM249.714 278.328L206.953 192.808L205.164 193.703L247.925 279.222L249.714 278.328ZM425.231 145.449C425.231 85.7551 473.624 37.3636 533.32 37.3636V35.3636C472.519 35.3636 423.231 84.6505 423.231 145.449H425.231ZM425.231 375.74V145.449H423.231V375.74H425.231ZM521.199 374.74H424.231V376.74H521.199V374.74ZM520.199 145.449V375.74H522.199V145.449H520.199ZM533.32 132.328C526.074 132.328 520.199 138.202 520.199 145.449H522.199C522.199 139.307 527.178 134.328 533.32 134.328V132.328ZM546.441 145.449C546.441 138.202 540.567 132.328 533.32 132.328V134.328C539.462 134.328 544.441 139.307 544.441 145.449H546.441ZM546.441 375.74V145.449H544.441V375.74H546.441ZM545.457 374.74H545.441V376.74H545.457V374.74ZM642.41 374.74H545.457V376.74H642.41V374.74ZM642.426 374.74H642.41V376.74H642.426V374.74ZM641.426 145.449V375.74H643.426V145.449H641.426ZM654.547 132.328C647.3 132.328 641.426 138.202 641.426 145.449H643.426C643.426 139.307 648.405 134.328 654.547 134.328V132.328ZM667.668 145.449C667.668 138.202 661.793 132.328 654.547 132.328V134.328C660.689 134.328 665.668 139.307 665.668 145.449H667.668ZM667.668 375.74V145.449H665.668V375.74H667.668ZM763.636 374.74H666.668V376.74H763.636V374.74ZM762.636 145.449V375.74H764.636V145.449H762.636ZM654.547 37.3636C714.243 37.3636 762.636 85.755 762.636 145.449H764.636C764.636 84.6504 715.347 35.3636 654.547 35.3636V37.3636ZM594.49 55.5693C611.666 44.07 632.322 37.3636 654.547 37.3636V35.3636C631.913 35.3636 610.872 42.1945 593.377 53.9073L594.49 55.5693ZM533.32 37.3636C555.545 37.3636 576.201 44.07 593.377 55.5693L594.49 53.9073C576.994 42.1945 555.954 35.3636 533.32 35.3636V37.3636ZM37.3633 533.346C37.3633 473.652 85.7566 425.26 145.453 425.26V423.26C84.6521 423.26 35.3633 472.547 35.3633 533.346H37.3633ZM37.3633 763.636V533.346H35.3633V763.636H37.3633ZM133.332 762.636H36.3633V764.636H133.332V762.636ZM132.332 533.346V763.636H134.332V533.346H132.332ZM145.453 520.225C138.206 520.225 132.332 526.099 132.332 533.346H134.332C134.332 527.204 139.311 522.225 145.453 522.225V520.225ZM158.567 532.91C158.337 525.865 152.554 520.225 145.453 520.225V522.225C151.471 522.225 156.373 527.005 156.568 532.975L158.567 532.91ZM158.567 533.346C158.567 533.212 158.567 533.079 158.567 532.946L156.567 532.939C156.567 533.074 156.567 533.21 156.567 533.346H158.567ZM158.567 763.636V533.346H156.567V763.636H158.567ZM157.574 762.636H157.567V764.636H157.574V762.636ZM254.535 762.636H157.574V764.636H254.535V762.636ZM254.542 762.636H254.535V764.636H254.542V762.636ZM253.542 533.345V763.636H255.542V533.345H253.542ZM253.542 533.121C253.542 533.196 253.542 533.271 253.542 533.345H255.542C255.542 533.269 255.542 533.193 255.542 533.117L253.542 533.121ZM253.542 532.946L253.542 533.122L255.542 533.117L255.542 532.94L253.542 532.946ZM266.656 520.225C259.555 520.225 253.772 525.865 253.542 532.91L255.541 532.975C255.736 527.005 260.638 522.225 266.656 522.225V520.225ZM279.777 533.345C279.777 526.099 273.903 520.225 266.656 520.225V522.225C272.798 522.225 277.777 527.204 277.777 533.345H279.777ZM279.777 763.636V533.345H277.777V763.636H279.777ZM375.746 762.636H278.777V764.636H375.746V762.636ZM374.746 533.345V763.636H376.746V533.345H374.746ZM266.656 425.26C326.352 425.26 374.746 473.652 374.746 533.345H376.746C376.746 472.547 327.457 423.26 266.656 423.26V425.26ZM206.611 443.458C223.785 431.964 244.436 425.26 266.656 425.26V423.26C244.028 423.26 222.991 430.088 205.498 441.796L206.611 443.458ZM145.453 425.26C167.673 425.26 188.324 431.964 205.498 443.458L206.611 441.796C189.118 430.088 168.081 423.26 145.453 423.26V425.26ZM425.231 593.948C425.231 500.785 500.758 425.26 593.926 425.26V423.26C499.653 423.26 423.231 499.68 423.231 593.948H425.231ZM593.926 762.636C500.758 762.636 425.231 687.112 425.231 593.948H423.231C423.231 688.217 499.653 764.636 593.926 764.636V762.636ZM762.62 593.948C762.62 687.112 687.093 762.636 593.926 762.636V764.636C688.198 764.636 764.62 688.217 764.62 593.948H762.62ZM593.926 425.26C687.093 425.26 762.62 500.785 762.62 593.948H764.62C764.62 499.68 688.198 423.26 593.926 423.26V425.26ZM593.926 520.225C553.208 520.225 520.199 553.232 520.199 593.948H522.199C522.199 554.337 554.312 522.225 593.926 522.225V520.225ZM667.652 593.948C667.652 553.232 634.643 520.225 593.926 520.225V522.225C633.539 522.225 665.652 554.337 665.652 593.948H667.652ZM593.926 667.672C634.643 667.672 667.652 634.665 667.652 593.948H665.652C665.652 633.56 633.539 665.672 593.926 665.672V667.672ZM520.199 593.948C520.199 634.665 553.208 667.672 593.926 667.672V665.672C554.312 665.672 522.199 633.56 522.199 593.948H520.199Z" fill="#676873"/>
<path fill-rule="evenodd" clip-rule="evenodd" d="M206.059 72.7273C201.467 72.7273 197.27 75.3214 195.217 79.4268L74.0067 321.838C72.1285 325.595 72.3291 330.055 74.5372 333.628C76.7454 337.201 80.6466 339.376 84.848 339.376H327.269C331.471 339.376 335.372 337.201 337.58 333.628C339.788 330.055 339.989 325.595 338.111 321.838L216.9 79.4268C214.847 75.3214 210.65 72.7273 206.059 72.7273ZM130.169 46.9011C144.542 18.1565 173.921 0 206.059 0C238.196 0 267.576 18.1565 281.949 46.9011L387.868 258.732V145.449C387.868 65.1184 452.991 0 533.321 0C554.915 0 575.462 4.72573 593.934 13.2018C612.406 4.72574 632.953 0 654.547 0C734.877 0 800 65.1182 800 145.449V412.103H690.916C755.822 446.792 799.985 515.212 799.985 593.948C799.985 707.749 707.728 800 593.927 800C515.215 800 446.811 755.868 412.11 690.999V800H3.84162e-05V533.346C3.84162e-05 481.587 27.0355 436.144 67.7547 410.365C45.1226 405.711 25.0809 391.941 12.6724 371.864C-2.78785 346.85 -4.19335 315.614 8.95798 289.313L130.169 46.9011ZM703.031 339.376H727.273V145.449C727.273 105.287 694.713 72.7273 654.547 72.7273C639.542 72.7273 625.7 77.2315 614.163 84.9551L593.934 98.498L573.705 84.9551C562.168 77.2315 548.326 72.7273 533.321 72.7273C493.155 72.7273 460.595 105.287 460.595 145.449V339.376H484.837V145.449C484.837 118.67 506.546 96.9646 533.321 96.9646C560.097 96.9646 581.806 118.67 581.806 145.449V339.376H606.062V145.449C606.062 118.67 627.771 96.9646 654.547 96.9646C681.322 96.9646 703.031 118.67 703.031 145.449V339.376ZM193.931 727.273H218.179V533.346C218.179 533.255 218.179 533.164 218.179 533.071L218.176 532.409L218.198 531.747C219.054 505.696 240.416 484.861 266.656 484.861C293.432 484.861 315.141 506.567 315.141 533.346V727.273H339.382V533.346C339.382 493.184 306.823 460.624 266.656 460.624C251.655 460.624 237.816 465.126 226.281 472.847L206.055 486.384L185.829 472.847C174.294 465.126 160.454 460.624 145.453 460.624C105.286 460.624 72.7273 493.184 72.7273 533.346V727.273H96.9686V533.346C96.9686 506.567 118.677 484.861 145.453 484.861C171.693 484.861 193.055 505.695 193.912 531.745L193.933 532.408L193.931 533.071C193.931 533.163 193.931 533.255 193.931 533.346V727.273ZM206.059 111.947L307.659 315.139H104.459L206.059 111.947ZM593.927 460.624C520.289 460.624 460.595 520.317 460.595 593.948C460.595 667.58 520.289 727.273 593.927 727.273C667.565 727.273 727.258 667.58 727.258 593.948C727.258 520.317 667.565 460.624 593.927 460.624ZM484.837 593.948C484.837 533.7 533.679 484.861 593.927 484.861C654.174 484.861 703.017 533.7 703.017 593.948C703.017 654.197 654.174 703.035 593.927 703.035C533.679 703.035 484.837 654.197 484.837 593.948ZM593.927 557.589C573.843 557.589 557.564 573.869 557.564 593.948C557.564 614.028 573.843 630.308 593.927 630.308C614.011 630.308 630.29 614.028 630.29 593.948C630.29 573.869 614.011 557.589 593.927 557.589Z" stroke="#676873" stroke-width="0.25"/>
<path fill-rule="evenodd" clip-rule="evenodd" d="M206.058 72.7272C201.466 72.7272 197.269 75.3214 195.217 79.4268L74.006 321.838C72.1277 325.595 72.3284 330.055 74.5365 333.628C76.7446 337.201 80.6458 339.376 84.8472 339.376H327.269C331.47 339.376 335.371 337.201 337.579 333.628C339.787 330.055 339.988 325.595 338.11 321.838L216.899 79.4268C214.846 75.3214 210.65 72.7272 206.058 72.7272ZM703.031 339.376H727.272V145.449C727.272 105.287 694.713 72.7272 654.546 72.7272C639.542 72.7272 625.7 77.2315 614.163 84.955L593.933 98.498L573.704 84.955C562.167 77.2315 548.325 72.7272 533.321 72.7272C493.154 72.7272 460.595 105.287 460.595 145.449V339.376H484.836V145.449C484.836 118.67 506.545 96.9646 533.321 96.9646C560.097 96.9646 581.805 118.67 581.805 145.449V339.376H606.061V145.449C606.061 118.67 627.77 96.9646 654.546 96.9646C681.322 96.9646 703.031 118.67 703.031 145.449V339.376ZM193.93 727.273H218.178V533.345C218.178 533.255 218.178 533.164 218.178 533.071L218.176 532.409L218.197 531.747C219.053 505.696 240.415 484.861 266.656 484.861C293.432 484.861 315.141 506.567 315.141 533.345V727.273H339.382V533.345C339.382 493.184 306.823 460.624 266.656 460.624C251.655 460.624 237.815 465.126 226.28 472.847L206.054 486.384L185.828 472.847C174.293 465.126 160.454 460.624 145.453 460.624C105.286 460.624 72.7266 493.184 72.7266 533.346V727.273H96.9678V533.346C96.9678 506.567 118.677 484.861 145.453 484.861C171.693 484.861 193.055 505.695 193.911 531.745L193.933 532.408L193.93 533.071C193.93 533.163 193.93 533.255 193.93 533.346V727.273ZM206.058 111.947L307.658 315.139H104.458L206.058 111.947ZM593.926 460.624C520.288 460.624 460.595 520.317 460.595 593.948C460.595 667.58 520.288 727.273 593.926 727.273C667.564 727.273 727.257 667.58 727.257 593.948C727.257 520.317 667.564 460.624 593.926 460.624ZM484.836 593.948C484.836 533.7 533.679 484.861 593.926 484.861C654.173 484.861 703.016 533.7 703.016 593.948C703.016 654.197 654.173 703.035 593.926 703.035C533.679 703.035 484.836 654.197 484.836 593.948Z" stroke="#676873" stroke-width="4"/>
<path fill-rule="evenodd" clip-rule="evenodd" d="M206.059 49.0909C192.515 49.0909 180.134 56.7428 174.077 68.856L52.8662 311.267C47.3242 322.351 47.9165 335.514 54.4315 346.055C60.9465 356.596 72.4555 363.012 84.8483 363.012H327.27C339.662 363.012 351.171 356.596 357.686 346.055C364.201 335.514 364.794 322.351 359.252 311.267L238.041 68.856C231.984 56.7428 219.603 49.0909 206.059 49.0909ZM151.31 57.472C161.679 36.7351 182.874 23.6364 206.059 23.6364C229.244 23.6364 250.439 36.7351 260.808 57.472L382.019 299.883C391.506 318.858 390.492 341.392 379.339 359.437C368.186 377.483 348.484 388.467 327.27 388.467H84.8483C63.634 388.467 43.932 377.483 32.7788 359.437C21.6255 341.392 20.6116 318.858 30.0991 299.883L151.31 57.472ZM533.322 49.0909C480.102 49.0909 436.959 92.2324 436.959 145.449V363.012H508.473V145.449C508.473 131.725 519.599 120.601 533.322 120.601C547.045 120.601 558.17 131.725 558.17 145.449V363.012H629.699V145.449C629.699 131.725 640.824 120.601 654.547 120.601C668.27 120.601 679.395 131.725 679.395 145.449V363.012H750.909V145.449C750.909 92.2323 707.767 49.0909 654.547 49.0909C634.717 49.0909 616.321 55.0669 601.015 65.3138L593.934 70.0539L586.854 65.3138C571.548 55.0669 553.152 49.0909 533.322 49.0909ZM411.505 145.449C411.505 78.1732 466.045 23.6364 533.322 23.6364C555.37 23.6364 576.077 29.5041 593.934 39.7647C611.792 29.5041 632.499 23.6364 654.547 23.6364C721.824 23.6364 776.364 78.1731 776.364 145.449V388.467H411.505V145.449ZM206.059 164.798L269.414 291.502H142.704L206.059 164.798ZM183.891 266.048H228.227L206.059 221.714L183.891 266.048ZM145.454 436.988C92.2336 436.988 49.0913 480.129 49.0913 533.346V750.909H120.605V533.346C120.605 519.622 131.731 508.498 145.454 508.498C158.901 508.498 169.85 519.175 170.288 532.522L170.296 532.754L170.295 532.986C170.295 533.106 170.295 533.226 170.295 533.346V750.909H241.816L241.816 533.179C241.816 533.115 241.815 533.051 241.815 532.986L241.814 532.754L241.822 532.523C242.26 519.176 253.209 508.498 266.657 508.498C280.38 508.498 291.505 519.622 291.505 533.346V750.909H363.019V533.346C363.019 480.129 319.877 436.988 266.657 436.988C246.831 436.988 228.438 442.961 213.134 453.204L206.055 457.942L198.976 453.204C183.672 442.961 165.28 436.988 145.454 436.988ZM23.6367 533.346C23.6367 466.07 78.1764 411.533 145.454 411.533C167.497 411.533 188.2 417.398 206.055 427.655C223.91 417.398 244.614 411.533 266.657 411.533C333.934 411.533 388.474 466.07 388.474 533.346V776.364H23.6367V533.346ZM593.927 436.988C507.236 436.988 436.959 507.262 436.959 593.948C436.959 680.635 507.236 750.909 593.927 750.909C680.618 750.909 750.895 680.635 750.895 593.948C750.895 507.262 680.618 436.988 593.927 436.988ZM411.505 593.948C411.505 493.203 493.179 411.533 593.927 411.533C694.676 411.533 776.349 493.203 776.349 593.948C776.349 694.694 694.676 776.364 593.927 776.364C493.179 776.364 411.505 694.694 411.505 593.948ZM508.473 593.948C508.473 546.755 546.733 508.498 593.927 508.498C641.121 508.498 679.381 546.755 679.381 593.948C679.381 641.142 641.121 679.399 593.927 679.399C546.733 679.399 508.473 641.142 508.473 593.948ZM593.927 533.952C560.79 533.952 533.928 560.814 533.928 593.948C533.928 627.083 560.79 653.945 593.927 653.945C627.064 653.945 653.926 627.083 653.926 593.948C653.926 560.814 627.064 533.952 593.927 533.952Z" stroke="#676873" stroke-width="0.5"/>
<path fill-rule="evenodd" clip-rule="evenodd" d="M206.059 42.7273C190.104 42.7273 175.52 51.7409 168.385 66.01L47.1741 308.421C40.6457 321.478 41.3434 336.983 49.0179 349.4C56.6926 361.818 70.2498 369.376 84.848 369.376H327.269C341.867 369.376 355.425 361.818 363.099 349.4C370.774 336.983 371.472 321.478 364.943 308.421L243.732 66.01C236.598 51.7409 222.013 42.7273 206.059 42.7273ZM157.001 60.318C166.292 41.737 185.284 30 206.059 30C226.833 30 245.825 41.737 255.116 60.318L376.327 302.729C384.828 319.731 383.919 339.922 373.926 356.092C363.932 372.261 346.278 382.103 327.269 382.103H84.848C65.839 382.103 48.1853 372.261 38.1916 356.092C28.1979 339.922 27.2894 319.731 35.7905 302.729L157.001 60.318ZM533.321 42.7273C476.587 42.7273 430.595 88.7176 430.595 145.449V369.376H514.837V145.449C514.837 135.24 523.113 126.965 533.321 126.965C543.53 126.965 551.806 135.24 551.806 145.449V369.376H636.062V145.449C636.062 135.24 644.338 126.965 654.547 126.965C664.755 126.965 673.031 135.24 673.031 145.449V369.376H757.272V145.449C757.272 88.7175 711.281 42.7273 654.547 42.7273C633.417 42.7273 613.795 49.0995 597.474 60.0258L593.934 62.3959L590.394 60.0258C574.073 49.0995 554.451 42.7273 533.321 42.7273ZM417.868 145.449C417.868 81.688 469.559 30 533.321 30C555.543 30 576.314 36.2837 593.934 47.172C611.554 36.2837 632.325 30 654.547 30C718.309 30 770 81.6879 770 145.449V382.103H660.304V145.449C660.304 142.27 657.726 139.692 654.547 139.692C651.367 139.692 648.789 142.27 648.789 145.449V382.103H539.079V145.449C539.079 142.27 536.501 139.692 533.321 139.692C530.141 139.692 527.564 142.27 527.564 145.449V382.103H417.868V145.449ZM206.059 179.027L259.117 285.139H153L206.059 179.027ZM173.594 272.411H238.523L206.059 207.485L173.594 272.411ZM145.453 430.624C88.719 430.624 42.7273 476.614 42.7273 533.346V757.273H126.969V533.346C126.969 523.137 135.245 514.861 145.453 514.861C155.456 514.861 163.601 522.805 163.928 532.731L163.932 532.847L163.931 533.138C163.931 533.207 163.931 533.276 163.931 533.346V757.273H248.179V533.346C248.179 533.218 248.179 533.091 248.178 532.963L248.178 532.847L248.182 532.732C248.508 522.805 256.653 514.861 266.656 514.861C276.865 514.861 285.141 523.137 285.141 533.346V757.273H369.382V533.346C369.382 476.614 323.391 430.624 266.656 430.624C245.531 430.624 225.913 436.994 209.594 447.916L206.055 450.285L202.515 447.916C186.196 436.994 166.578 430.624 145.453 430.624ZM30 533.346C30 469.585 81.6904 417.897 145.453 417.897C167.67 417.897 188.437 424.178 206.055 435.062C223.673 424.178 244.44 417.897 266.656 417.897C330.419 417.897 382.11 469.585 382.11 533.346V770H272.414V533.346C272.414 530.166 269.836 527.589 266.656 527.589C263.574 527.589 261.055 530.013 260.906 533.056C260.906 533.102 260.906 533.147 260.906 533.192L260.906 770H151.203V533.346C151.203 533.249 151.203 533.152 151.204 533.056C151.055 530.013 148.536 527.589 145.453 527.589C142.273 527.589 139.696 530.166 139.696 533.346V770H30V533.346ZM593.927 430.624C503.721 430.624 430.595 503.747 430.595 593.948C430.595 684.15 503.721 757.273 593.927 757.273C684.132 757.273 757.258 684.15 757.258 593.948C757.258 503.747 684.132 430.624 593.927 430.624ZM417.868 593.948C417.868 496.718 496.693 417.897 593.927 417.897C691.161 417.897 769.985 496.718 769.985 593.948C769.985 691.179 691.161 770 593.927 770C496.693 770 417.868 691.179 417.868 593.948ZM514.837 593.948C514.837 550.27 550.247 514.861 593.927 514.861C637.607 514.861 673.017 550.27 673.017 593.948C673.017 637.627 637.607 673.035 593.927 673.035C550.247 673.035 514.837 637.627 514.837 593.948ZM593.927 527.589C557.275 527.589 527.564 557.299 527.564 593.948C527.564 630.598 557.275 660.308 593.927 660.308C630.578 660.308 660.289 630.598 660.289 593.948C660.289 557.299 630.578 527.589 593.927 527.589Z" stroke="#676873" stroke-width="0.75"/>
</g>
</g>
<defs>
<linearGradient id="paint0_linear_417_5" x1="400" y1="0" x2="400" y2="800" gradientUnits="userSpaceOnUse">
<stop stop-color="#D9D9D9"/>
<stop offset="0.623965" stop-color="#999999" stop-opacity="0.8"/>
<stop offset="1" stop-color="#737373" stop-opacity="0"/>
</linearGradient>
</defs>
</svg>
