<svg width="1201" height="176" viewBox="0 0 1201 176" fill="none" xmlns="http://www.w3.org/2000/svg">
    <rect width="1200" height="160" transform="translate(0.5 8)" fill="url(#paint0_linear_92_4307)" />
    <g opacity="0.3">
        <rect x="152.5" y="8" width="160" height="160" rx="80" fill="#676873" />
        <path
            d="M190.892 97.36C189.548 97.36 188.396 97.06 187.436 96.46C186.476 95.86 185.74 95.044 185.228 94.012C184.716 92.98 184.46 91.816 184.46 90.52C184.46 89.208 184.724 88.036 185.252 87.004C185.788 85.972 186.54 85.16 187.508 84.568C188.476 83.976 189.62 83.68 190.94 83.68C192.468 83.68 193.748 84.068 194.78 84.844C195.82 85.612 196.484 86.664 196.772 88L193.508 88.864C193.316 88.192 192.98 87.668 192.5 87.292C192.028 86.916 191.492 86.728 190.892 86.728C190.204 86.728 189.64 86.896 189.2 87.232C188.76 87.56 188.436 88.012 188.228 88.588C188.02 89.156 187.916 89.8 187.916 90.52C187.916 91.648 188.164 92.564 188.66 93.268C189.164 93.964 189.908 94.312 190.892 94.312C191.628 94.312 192.188 94.144 192.572 93.808C192.956 93.472 193.244 92.992 193.436 92.368L196.772 93.064C196.404 94.44 195.708 95.5 194.684 96.244C193.66 96.988 192.396 97.36 190.892 97.36ZM204.653 97.36C203.349 97.36 202.205 97.068 201.221 96.484C200.237 95.9 199.469 95.096 198.917 94.072C198.373 93.04 198.101 91.856 198.101 90.52C198.101 89.168 198.381 87.98 198.941 86.956C199.501 85.924 200.273 85.12 201.257 84.544C202.241 83.968 203.373 83.68 204.653 83.68C205.957 83.68 207.101 83.972 208.085 84.556C209.077 85.14 209.849 85.948 210.401 86.98C210.953 88.004 211.229 89.184 211.229 90.52C211.229 91.864 210.949 93.052 210.389 94.084C209.837 95.108 209.065 95.912 208.073 96.496C207.089 97.072 205.949 97.36 204.653 97.36ZM204.653 94.312C205.701 94.312 206.481 93.96 206.993 93.256C207.513 92.544 207.773 91.632 207.773 90.52C207.773 89.368 207.509 88.448 206.981 87.76C206.461 87.072 205.685 86.728 204.653 86.728C203.941 86.728 203.357 86.888 202.901 87.208C202.445 87.528 202.105 87.972 201.881 88.54C201.665 89.108 201.557 89.768 201.557 90.52C201.557 91.68 201.817 92.604 202.337 93.292C202.865 93.972 203.637 94.312 204.653 94.312ZM213.628 90.688V88.168H220.828V90.688H213.628ZM229.97 97.36C228.642 97.36 227.47 97.076 226.454 96.508C225.446 95.932 224.654 95.144 224.078 94.144C223.51 93.136 223.226 91.984 223.226 90.688C223.226 89.272 223.506 88.04 224.066 86.992C224.626 85.944 225.398 85.132 226.382 84.556C227.366 83.972 228.498 83.68 229.778 83.68C231.138 83.68 232.294 84 233.246 84.64C234.198 85.28 234.902 86.18 235.358 87.34C235.814 88.5 235.974 89.864 235.838 91.432H232.61V90.232C232.61 88.912 232.398 87.964 231.974 87.388C231.558 86.804 230.874 86.512 229.922 86.512C228.81 86.512 227.99 86.852 227.462 87.532C226.942 88.204 226.682 89.2 226.682 90.52C226.682 91.728 226.942 92.664 227.462 93.328C227.99 93.984 228.762 94.312 229.778 94.312C230.418 94.312 230.966 94.172 231.422 93.892C231.878 93.612 232.226 93.208 232.466 92.68L235.73 93.616C235.242 94.8 234.47 95.72 233.414 96.376C232.366 97.032 231.218 97.36 229.97 97.36ZM225.674 91.432V89.008H234.266V91.432H225.674ZM236.638 97L241.27 90.448L236.734 84.04H240.574L243.166 87.88L245.71 84.04H249.55L245.014 90.448L249.67 97H245.83L243.166 93.016L240.478 97H236.638ZM251.842 82.24V79.36H255.106V82.24H251.842ZM251.842 97V84.04H255.106V97H251.842ZM263.767 97.36C262.135 97.36 260.815 96.992 259.807 96.256C258.807 95.512 258.199 94.464 257.983 93.112L261.319 92.608C261.455 93.216 261.755 93.692 262.219 94.036C262.691 94.38 263.287 94.552 264.007 94.552C264.599 94.552 265.055 94.44 265.375 94.216C265.695 93.984 265.855 93.664 265.855 93.256C265.855 93 265.791 92.796 265.663 92.644C265.535 92.484 265.247 92.328 264.799 92.176C264.359 92.024 263.671 91.824 262.735 91.576C261.679 91.304 260.835 91 260.203 90.664C259.571 90.328 259.115 89.928 258.835 89.464C258.555 88.992 258.415 88.424 258.415 87.76C258.415 86.928 258.627 86.208 259.051 85.6C259.475 84.984 260.071 84.512 260.839 84.184C261.615 83.848 262.527 83.68 263.575 83.68C264.591 83.68 265.491 83.836 266.275 84.148C267.059 84.46 267.691 84.904 268.171 85.48C268.659 86.056 268.959 86.736 269.071 87.52L265.735 88.12C265.679 87.64 265.471 87.26 265.111 86.98C264.751 86.7 264.263 86.536 263.647 86.488C263.047 86.448 262.563 86.528 262.195 86.728C261.835 86.928 261.655 87.216 261.655 87.592C261.655 87.816 261.731 88.004 261.883 88.156C262.043 88.308 262.367 88.464 262.855 88.624C263.351 88.784 264.103 88.992 265.111 89.248C266.095 89.504 266.883 89.804 267.475 90.148C268.075 90.484 268.511 90.892 268.783 91.372C269.055 91.844 269.191 92.416 269.191 93.088C269.191 94.416 268.711 95.46 267.751 96.22C266.791 96.98 265.463 97.36 263.767 97.36ZM279.604 97C278.708 97.168 277.828 97.24 276.964 97.216C276.108 97.2 275.34 97.052 274.66 96.772C273.988 96.484 273.476 96.024 273.124 95.392C272.804 94.8 272.636 94.2 272.62 93.592C272.604 92.976 272.596 92.28 272.596 91.504V80.44H275.86V91.312C275.86 91.816 275.864 92.272 275.872 92.68C275.888 93.08 275.972 93.4 276.124 93.64C276.412 94.096 276.872 94.344 277.504 94.384C278.136 94.424 278.836 94.392 279.604 94.288V97ZM270.388 86.56V84.04H279.604V86.56H270.388Z"
            fill="white" />
    </g>
    <g opacity="0.6">
        <rect x="336.5" y="8" width="160" height="160" rx="80" fill="#676873" />
        <path
            d="M383.392 97.36C382.048 97.36 380.896 97.06 379.936 96.46C378.976 95.86 378.24 95.044 377.728 94.012C377.216 92.98 376.96 91.816 376.96 90.52C376.96 89.208 377.224 88.036 377.752 87.004C378.288 85.972 379.04 85.16 380.008 84.568C380.976 83.976 382.12 83.68 383.44 83.68C384.968 83.68 386.248 84.068 387.28 84.844C388.32 85.612 388.984 86.664 389.272 88L386.008 88.864C385.816 88.192 385.48 87.668 385 87.292C384.528 86.916 383.992 86.728 383.392 86.728C382.704 86.728 382.14 86.896 381.7 87.232C381.26 87.56 380.936 88.012 380.728 88.588C380.52 89.156 380.416 89.8 380.416 90.52C380.416 91.648 380.664 92.564 381.16 93.268C381.664 93.964 382.408 94.312 383.392 94.312C384.128 94.312 384.688 94.144 385.072 93.808C385.456 93.472 385.744 92.992 385.936 92.368L389.272 93.064C388.904 94.44 388.208 95.5 387.184 96.244C386.16 96.988 384.896 97.36 383.392 97.36ZM397.153 97.36C395.849 97.36 394.705 97.068 393.721 96.484C392.737 95.9 391.969 95.096 391.417 94.072C390.873 93.04 390.601 91.856 390.601 90.52C390.601 89.168 390.881 87.98 391.441 86.956C392.001 85.924 392.773 85.12 393.757 84.544C394.741 83.968 395.873 83.68 397.153 83.68C398.457 83.68 399.601 83.972 400.585 84.556C401.577 85.14 402.349 85.948 402.901 86.98C403.453 88.004 403.729 89.184 403.729 90.52C403.729 91.864 403.449 93.052 402.889 94.084C402.337 95.108 401.565 95.912 400.573 96.496C399.589 97.072 398.449 97.36 397.153 97.36ZM397.153 94.312C398.201 94.312 398.981 93.96 399.493 93.256C400.013 92.544 400.273 91.632 400.273 90.52C400.273 89.368 400.009 88.448 399.481 87.76C398.961 87.072 398.185 86.728 397.153 86.728C396.441 86.728 395.857 86.888 395.401 87.208C394.945 87.528 394.605 87.972 394.381 88.54C394.165 89.108 394.057 89.768 394.057 90.52C394.057 91.68 394.317 92.604 394.837 93.292C395.365 93.972 396.137 94.312 397.153 94.312ZM406.128 90.688V88.168H413.328V90.688H406.128ZM416.686 97V79.36H419.95V97H416.686ZM423.787 82.24V79.36H427.051V82.24H423.787ZM423.787 97V84.04H427.051V97H423.787ZM434.153 97L429.449 84.04H432.713L435.785 93.016L438.857 84.04H442.121L437.417 97H434.153ZM449.845 97.36C448.517 97.36 447.345 97.076 446.329 96.508C445.321 95.932 444.529 95.144 443.953 94.144C443.385 93.136 443.101 91.984 443.101 90.688C443.101 89.272 443.381 88.04 443.941 86.992C444.501 85.944 445.273 85.132 446.257 84.556C447.241 83.972 448.373 83.68 449.653 83.68C451.013 83.68 452.169 84 453.121 84.64C454.073 85.28 454.777 86.18 455.233 87.34C455.689 88.5 455.849 89.864 455.713 91.432H452.485V90.232C452.485 88.912 452.273 87.964 451.849 87.388C451.433 86.804 450.749 86.512 449.797 86.512C448.685 86.512 447.865 86.852 447.337 87.532C446.817 88.204 446.557 89.2 446.557 90.52C446.557 91.728 446.817 92.664 447.337 93.328C447.865 93.984 448.637 94.312 449.653 94.312C450.293 94.312 450.841 94.172 451.297 93.892C451.753 93.612 452.101 93.208 452.341 92.68L455.605 93.616C455.117 94.8 454.345 95.72 453.289 96.376C452.241 97.032 451.093 97.36 449.845 97.36ZM445.549 91.432V89.008H454.141V91.432H445.549Z"
            fill="white" />
    </g>
    <rect x="516.5" y="4" width="168" height="168" rx="84" fill="#676873" />
    <rect x="516.5" y="4" width="168" height="168" rx="84" stroke="white" stroke-width="8" />
    <path
        d="M549.892 97.36C548.548 97.36 547.396 97.06 546.436 96.46C545.476 95.86 544.74 95.044 544.228 94.012C543.716 92.98 543.46 91.816 543.46 90.52C543.46 89.208 543.724 88.036 544.252 87.004C544.788 85.972 545.54 85.16 546.508 84.568C547.476 83.976 548.62 83.68 549.94 83.68C551.468 83.68 552.748 84.068 553.78 84.844C554.82 85.612 555.484 86.664 555.772 88L552.508 88.864C552.316 88.192 551.98 87.668 551.5 87.292C551.028 86.916 550.492 86.728 549.892 86.728C549.204 86.728 548.64 86.896 548.2 87.232C547.76 87.56 547.436 88.012 547.228 88.588C547.02 89.156 546.916 89.8 546.916 90.52C546.916 91.648 547.164 92.564 547.66 93.268C548.164 93.964 548.908 94.312 549.892 94.312C550.628 94.312 551.188 94.144 551.572 93.808C551.956 93.472 552.244 92.992 552.436 92.368L555.772 93.064C555.404 94.44 554.708 95.5 553.684 96.244C552.66 96.988 551.396 97.36 549.892 97.36ZM563.653 97.36C562.349 97.36 561.205 97.068 560.221 96.484C559.237 95.9 558.469 95.096 557.917 94.072C557.373 93.04 557.101 91.856 557.101 90.52C557.101 89.168 557.381 87.98 557.941 86.956C558.501 85.924 559.273 85.12 560.257 84.544C561.241 83.968 562.373 83.68 563.653 83.68C564.957 83.68 566.101 83.972 567.085 84.556C568.077 85.14 568.849 85.948 569.401 86.98C569.953 88.004 570.229 89.184 570.229 90.52C570.229 91.864 569.949 93.052 569.389 94.084C568.837 95.108 568.065 95.912 567.073 96.496C566.089 97.072 564.949 97.36 563.653 97.36ZM563.653 94.312C564.701 94.312 565.481 93.96 565.993 93.256C566.513 92.544 566.773 91.632 566.773 90.52C566.773 89.368 566.509 88.448 565.981 87.76C565.461 87.072 564.685 86.728 563.653 86.728C562.941 86.728 562.357 86.888 561.901 87.208C561.445 87.528 561.105 87.972 560.881 88.54C560.665 89.108 560.557 89.768 560.557 90.52C560.557 91.68 560.817 92.604 561.337 93.292C561.865 93.972 562.637 94.312 563.653 94.312ZM572.628 90.688V88.168H579.828V90.688H572.628ZM588.658 97.36C587.314 97.36 586.162 97.06 585.202 96.46C584.242 95.86 583.506 95.044 582.994 94.012C582.482 92.98 582.226 91.816 582.226 90.52C582.226 89.208 582.49 88.036 583.018 87.004C583.554 85.972 584.306 85.16 585.274 84.568C586.242 83.976 587.386 83.68 588.706 83.68C590.234 83.68 591.514 84.068 592.546 84.844C593.586 85.612 594.25 86.664 594.538 88L591.274 88.864C591.082 88.192 590.746 87.668 590.266 87.292C589.794 86.916 589.258 86.728 588.658 86.728C587.97 86.728 587.406 86.896 586.966 87.232C586.526 87.56 586.202 88.012 585.994 88.588C585.786 89.156 585.682 89.8 585.682 90.52C585.682 91.648 585.93 92.564 586.426 93.268C586.93 93.964 587.674 94.312 588.658 94.312C589.394 94.312 589.954 94.144 590.338 93.808C590.722 93.472 591.01 92.992 591.202 92.368L594.538 93.064C594.17 94.44 593.474 95.5 592.45 96.244C591.426 96.988 590.162 97.36 588.658 97.36ZM596.938 97V84.04H599.818V87.208L599.506 86.8C599.674 86.352 599.898 85.944 600.178 85.576C600.458 85.208 600.802 84.904 601.21 84.664C601.522 84.472 601.862 84.324 602.23 84.22C602.598 84.108 602.978 84.04 603.37 84.016C603.762 83.984 604.154 83.992 604.546 84.04V87.088C604.186 86.976 603.766 86.94 603.286 86.98C602.814 87.012 602.386 87.12 602.002 87.304C601.618 87.48 601.294 87.716 601.03 88.012C600.766 88.3 600.566 88.644 600.43 89.044C600.294 89.436 600.226 89.88 600.226 90.376V97H596.938ZM612.618 97.36C611.29 97.36 610.118 97.076 609.102 96.508C608.094 95.932 607.302 95.144 606.726 94.144C606.158 93.136 605.874 91.984 605.874 90.688C605.874 89.272 606.154 88.04 606.714 86.992C607.274 85.944 608.046 85.132 609.03 84.556C610.014 83.972 611.146 83.68 612.426 83.68C613.786 83.68 614.942 84 615.894 84.64C616.846 85.28 617.55 86.18 618.006 87.34C618.462 88.5 618.622 89.864 618.486 91.432H615.258V90.232C615.258 88.912 615.046 87.964 614.622 87.388C614.206 86.804 613.522 86.512 612.57 86.512C611.458 86.512 610.638 86.852 610.11 87.532C609.59 88.204 609.33 89.2 609.33 90.52C609.33 91.728 609.59 92.664 610.11 93.328C610.638 93.984 611.41 94.312 612.426 94.312C613.066 94.312 613.614 94.172 614.07 93.892C614.526 93.612 614.874 93.208 615.114 92.68L618.378 93.616C617.89 94.8 617.118 95.72 616.062 96.376C615.014 97.032 613.866 97.36 612.618 97.36ZM608.322 91.432V89.008H616.914V91.432H608.322ZM624.561 97.36C623.633 97.36 622.845 97.184 622.197 96.832C621.557 96.472 621.069 95.996 620.733 95.404C620.405 94.804 620.241 94.144 620.241 93.424C620.241 92.824 620.333 92.276 620.517 91.78C620.701 91.284 620.997 90.848 621.405 90.472C621.821 90.088 622.377 89.768 623.073 89.512C623.553 89.336 624.125 89.18 624.789 89.044C625.453 88.908 626.205 88.78 627.045 88.66C627.885 88.532 628.809 88.392 629.817 88.24L628.641 88.888C628.641 88.12 628.457 87.556 628.089 87.196C627.721 86.836 627.105 86.656 626.241 86.656C625.761 86.656 625.261 86.772 624.741 87.004C624.221 87.236 623.857 87.648 623.649 88.24L620.697 87.304C621.025 86.232 621.641 85.36 622.545 84.688C623.449 84.016 624.681 83.68 626.241 83.68C627.385 83.68 628.401 83.856 629.289 84.208C630.177 84.56 630.849 85.168 631.305 86.032C631.561 86.512 631.713 86.992 631.761 87.472C631.809 87.952 631.833 88.488 631.833 89.08V97H628.977V94.336L629.385 94.888C628.753 95.76 628.069 96.392 627.333 96.784C626.605 97.168 625.681 97.36 624.561 97.36ZM625.257 94.792C625.857 94.792 626.361 94.688 626.769 94.48C627.185 94.264 627.513 94.02 627.753 93.748C628.001 93.476 628.169 93.248 628.257 93.064C628.425 92.712 628.521 92.304 628.545 91.84C628.577 91.368 628.593 90.976 628.593 90.664L629.553 90.904C628.585 91.064 627.801 91.2 627.201 91.312C626.601 91.416 626.117 91.512 625.749 91.6C625.381 91.688 625.057 91.784 624.777 91.888C624.457 92.016 624.197 92.156 623.997 92.308C623.805 92.452 623.661 92.612 623.565 92.788C623.477 92.964 623.433 93.16 623.433 93.376C623.433 93.672 623.505 93.928 623.649 94.144C623.801 94.352 624.013 94.512 624.285 94.624C624.557 94.736 624.881 94.792 625.257 94.792ZM642.729 97C641.833 97.168 640.953 97.24 640.089 97.216C639.233 97.2 638.465 97.052 637.785 96.772C637.113 96.484 636.601 96.024 636.249 95.392C635.929 94.8 635.761 94.2 635.745 93.592C635.729 92.976 635.721 92.28 635.721 91.504V80.44H638.985V91.312C638.985 91.816 638.989 92.272 638.997 92.68C639.013 93.08 639.097 93.4 639.249 93.64C639.537 94.096 639.997 94.344 640.629 94.384C641.261 94.424 641.961 94.392 642.729 94.288V97ZM633.513 86.56V84.04H642.729V86.56H633.513ZM650.938 97.36C649.61 97.36 648.438 97.076 647.422 96.508C646.414 95.932 645.622 95.144 645.046 94.144C644.478 93.136 644.194 91.984 644.194 90.688C644.194 89.272 644.474 88.04 645.034 86.992C645.594 85.944 646.366 85.132 647.35 84.556C648.334 83.972 649.466 83.68 650.746 83.68C652.106 83.68 653.262 84 654.214 84.64C655.166 85.28 655.87 86.18 656.326 87.34C656.782 88.5 656.942 89.864 656.806 91.432H653.578V90.232C653.578 88.912 653.366 87.964 652.942 87.388C652.526 86.804 651.842 86.512 650.89 86.512C649.778 86.512 648.958 86.852 648.43 87.532C647.91 88.204 647.65 89.2 647.65 90.52C647.65 91.728 647.91 92.664 648.43 93.328C648.958 93.984 649.73 94.312 650.746 94.312C651.386 94.312 651.934 94.172 652.39 93.892C652.846 93.612 653.194 93.208 653.434 92.68L656.698 93.616C656.21 94.8 655.438 95.72 654.382 96.376C653.334 97.032 652.186 97.36 650.938 97.36ZM646.642 91.432V89.008H655.234V91.432H646.642Z"
        fill="white" />
    <g opacity="0.6">
        <rect x="704.5" y="8" width="160" height="160" rx="80" fill="#676873" />
        <path
            d="M733.892 97.36C732.548 97.36 731.396 97.06 730.436 96.46C729.476 95.86 728.74 95.044 728.228 94.012C727.716 92.98 727.46 91.816 727.46 90.52C727.46 89.208 727.724 88.036 728.252 87.004C728.788 85.972 729.54 85.16 730.508 84.568C731.476 83.976 732.62 83.68 733.94 83.68C735.468 83.68 736.748 84.068 737.78 84.844C738.82 85.612 739.484 86.664 739.772 88L736.508 88.864C736.316 88.192 735.98 87.668 735.5 87.292C735.028 86.916 734.492 86.728 733.892 86.728C733.204 86.728 732.64 86.896 732.2 87.232C731.76 87.56 731.436 88.012 731.228 88.588C731.02 89.156 730.916 89.8 730.916 90.52C730.916 91.648 731.164 92.564 731.66 93.268C732.164 93.964 732.908 94.312 733.892 94.312C734.628 94.312 735.188 94.144 735.572 93.808C735.956 93.472 736.244 92.992 736.436 92.368L739.772 93.064C739.404 94.44 738.708 95.5 737.684 96.244C736.66 96.988 735.396 97.36 733.892 97.36ZM747.653 97.36C746.349 97.36 745.205 97.068 744.221 96.484C743.237 95.9 742.469 95.096 741.917 94.072C741.373 93.04 741.101 91.856 741.101 90.52C741.101 89.168 741.381 87.98 741.941 86.956C742.501 85.924 743.273 85.12 744.257 84.544C745.241 83.968 746.373 83.68 747.653 83.68C748.957 83.68 750.101 83.972 751.085 84.556C752.077 85.14 752.849 85.948 753.401 86.98C753.953 88.004 754.229 89.184 754.229 90.52C754.229 91.864 753.949 93.052 753.389 94.084C752.837 95.108 752.065 95.912 751.073 96.496C750.089 97.072 748.949 97.36 747.653 97.36ZM747.653 94.312C748.701 94.312 749.481 93.96 749.993 93.256C750.513 92.544 750.773 91.632 750.773 90.52C750.773 89.368 750.509 88.448 749.981 87.76C749.461 87.072 748.685 86.728 747.653 86.728C746.941 86.728 746.357 86.888 745.901 87.208C745.445 87.528 745.105 87.972 744.881 88.54C744.665 89.108 744.557 89.768 744.557 90.52C744.557 91.68 744.817 92.604 745.337 93.292C745.865 93.972 746.637 94.312 747.653 94.312ZM756.628 90.688V88.168H763.828V90.688H756.628ZM772.97 97.36C771.642 97.36 770.47 97.076 769.454 96.508C768.446 95.932 767.654 95.144 767.078 94.144C766.51 93.136 766.226 91.984 766.226 90.688C766.226 89.272 766.506 88.04 767.066 86.992C767.626 85.944 768.398 85.132 769.382 84.556C770.366 83.972 771.498 83.68 772.778 83.68C774.138 83.68 775.294 84 776.246 84.64C777.198 85.28 777.902 86.18 778.358 87.34C778.814 88.5 778.974 89.864 778.838 91.432H775.61V90.232C775.61 88.912 775.398 87.964 774.974 87.388C774.558 86.804 773.874 86.512 772.922 86.512C771.81 86.512 770.99 86.852 770.462 87.532C769.942 88.204 769.682 89.2 769.682 90.52C769.682 91.728 769.942 92.664 770.462 93.328C770.99 93.984 771.762 94.312 772.778 94.312C773.418 94.312 773.966 94.172 774.422 93.892C774.878 93.612 775.226 93.208 775.466 92.68L778.73 93.616C778.242 94.8 777.47 95.72 776.414 96.376C775.366 97.032 774.218 97.36 772.97 97.36ZM768.674 91.432V89.008H777.266V91.432H768.674ZM784.582 97L779.878 84.04H783.142L786.214 93.016L789.286 84.04H792.55L787.846 97H784.582ZM800.082 97.36C798.778 97.36 797.634 97.068 796.65 96.484C795.666 95.9 794.898 95.096 794.346 94.072C793.802 93.04 793.53 91.856 793.53 90.52C793.53 89.168 793.81 87.98 794.37 86.956C794.93 85.924 795.702 85.12 796.686 84.544C797.67 83.968 798.802 83.68 800.082 83.68C801.386 83.68 802.53 83.972 803.514 84.556C804.506 85.14 805.278 85.948 805.83 86.98C806.382 88.004 806.658 89.184 806.658 90.52C806.658 91.864 806.378 93.052 805.818 94.084C805.266 95.108 804.494 95.912 803.502 96.496C802.518 97.072 801.378 97.36 800.082 97.36ZM800.082 94.312C801.13 94.312 801.91 93.96 802.422 93.256C802.942 92.544 803.202 91.632 803.202 90.52C803.202 89.368 802.938 88.448 802.41 87.76C801.89 87.072 801.114 86.728 800.082 86.728C799.37 86.728 798.786 86.888 798.33 87.208C797.874 87.528 797.534 87.972 797.31 88.54C797.094 89.108 796.986 89.768 796.986 90.52C796.986 91.68 797.246 92.604 797.766 93.292C798.294 93.972 799.066 94.312 800.082 94.312ZM809.537 97V79.36H812.801V97H809.537ZM819.903 97L815.199 84.04H818.463L821.535 93.016L824.607 84.04H827.871L823.167 97H819.903ZM835.595 97.36C834.267 97.36 833.095 97.076 832.079 96.508C831.071 95.932 830.279 95.144 829.703 94.144C829.135 93.136 828.851 91.984 828.851 90.688C828.851 89.272 829.131 88.04 829.691 86.992C830.251 85.944 831.023 85.132 832.007 84.556C832.991 83.972 834.123 83.68 835.403 83.68C836.763 83.68 837.919 84 838.871 84.64C839.823 85.28 840.527 86.18 840.983 87.34C841.439 88.5 841.599 89.864 841.463 91.432H838.235V90.232C838.235 88.912 838.023 87.964 837.599 87.388C837.183 86.804 836.499 86.512 835.547 86.512C834.435 86.512 833.615 86.852 833.087 87.532C832.567 88.204 832.307 89.2 832.307 90.52C832.307 91.728 832.567 92.664 833.087 93.328C833.615 93.984 834.387 94.312 835.403 94.312C836.043 94.312 836.591 94.172 837.047 93.892C837.503 93.612 837.851 93.208 838.091 92.68L841.355 93.616C840.867 94.8 840.095 95.72 839.039 96.376C837.991 97.032 836.843 97.36 835.595 97.36ZM831.299 91.432V89.008H839.891V91.432H831.299Z"
            fill="white" />
    </g>
    <g opacity="0.3">
        <rect x="888.5" y="8" width="160" height="160" rx="80" fill="#676873" />
        <path
            d="M920.892 97.36C919.548 97.36 918.396 97.06 917.436 96.46C916.476 95.86 915.74 95.044 915.228 94.012C914.716 92.98 914.46 91.816 914.46 90.52C914.46 89.208 914.724 88.036 915.252 87.004C915.788 85.972 916.54 85.16 917.508 84.568C918.476 83.976 919.62 83.68 920.94 83.68C922.468 83.68 923.748 84.068 924.78 84.844C925.82 85.612 926.484 86.664 926.772 88L923.508 88.864C923.316 88.192 922.98 87.668 922.5 87.292C922.028 86.916 921.492 86.728 920.892 86.728C920.204 86.728 919.64 86.896 919.2 87.232C918.76 87.56 918.436 88.012 918.228 88.588C918.02 89.156 917.916 89.8 917.916 90.52C917.916 91.648 918.164 92.564 918.66 93.268C919.164 93.964 919.908 94.312 920.892 94.312C921.628 94.312 922.188 94.144 922.572 93.808C922.956 93.472 923.244 92.992 923.436 92.368L926.772 93.064C926.404 94.44 925.708 95.5 924.684 96.244C923.66 96.988 922.396 97.36 920.892 97.36ZM934.653 97.36C933.349 97.36 932.205 97.068 931.221 96.484C930.237 95.9 929.469 95.096 928.917 94.072C928.373 93.04 928.101 91.856 928.101 90.52C928.101 89.168 928.381 87.98 928.941 86.956C929.501 85.924 930.273 85.12 931.257 84.544C932.241 83.968 933.373 83.68 934.653 83.68C935.957 83.68 937.101 83.972 938.085 84.556C939.077 85.14 939.849 85.948 940.401 86.98C940.953 88.004 941.229 89.184 941.229 90.52C941.229 91.864 940.949 93.052 940.389 94.084C939.837 95.108 939.065 95.912 938.073 96.496C937.089 97.072 935.949 97.36 934.653 97.36ZM934.653 94.312C935.701 94.312 936.481 93.96 936.993 93.256C937.513 92.544 937.773 91.632 937.773 90.52C937.773 89.368 937.509 88.448 936.981 87.76C936.461 87.072 935.685 86.728 934.653 86.728C933.941 86.728 933.357 86.888 932.901 87.208C932.445 87.528 932.105 87.972 931.881 88.54C931.665 89.108 931.557 89.768 931.557 90.52C931.557 91.68 931.817 92.604 932.337 93.292C932.865 93.972 933.637 94.312 934.653 94.312ZM943.628 90.688V88.168H950.828V90.688H943.628ZM961.722 97C960.826 97.168 959.946 97.24 959.082 97.216C958.226 97.2 957.458 97.052 956.778 96.772C956.106 96.484 955.594 96.024 955.242 95.392C954.922 94.8 954.754 94.2 954.738 93.592C954.722 92.976 954.714 92.28 954.714 91.504V80.44H957.978V91.312C957.978 91.816 957.982 92.272 957.99 92.68C958.006 93.08 958.09 93.4 958.242 93.64C958.53 94.096 958.99 94.344 959.622 94.384C960.254 94.424 960.954 94.392 961.722 94.288V97ZM952.506 86.56V84.04H961.722V86.56H952.506ZM973.442 97V90.88C973.442 90.584 973.426 90.208 973.394 89.752C973.362 89.288 973.262 88.824 973.094 88.36C972.926 87.896 972.65 87.508 972.266 87.196C971.89 86.884 971.354 86.728 970.658 86.728C970.378 86.728 970.078 86.772 969.758 86.86C969.438 86.948 969.138 87.12 968.858 87.376C968.578 87.624 968.346 87.992 968.162 88.48C967.986 88.968 967.898 89.616 967.898 90.424L966.026 89.536C966.026 88.512 966.234 87.552 966.65 86.656C967.066 85.76 967.69 85.036 968.522 84.484C969.362 83.932 970.418 83.656 971.69 83.656C972.706 83.656 973.534 83.828 974.174 84.172C974.814 84.516 975.31 84.952 975.662 85.48C976.022 86.008 976.278 86.56 976.43 87.136C976.582 87.704 976.674 88.224 976.706 88.696C976.738 89.168 976.754 89.512 976.754 89.728V97H973.442ZM964.586 97V79.72H967.49V88.6H967.898V97H964.586ZM979.868 97V84.04H982.748V87.208L982.436 86.8C982.604 86.352 982.828 85.944 983.108 85.576C983.388 85.208 983.732 84.904 984.14 84.664C984.452 84.472 984.792 84.324 985.16 84.22C985.528 84.108 985.908 84.04 986.3 84.016C986.692 83.984 987.084 83.992 987.476 84.04V87.088C987.116 86.976 986.696 86.94 986.216 86.98C985.744 87.012 985.316 87.12 984.932 87.304C984.548 87.48 984.224 87.716 983.96 88.012C983.696 88.3 983.496 88.644 983.36 89.044C983.224 89.436 983.156 89.88 983.156 90.376V97H979.868ZM989.998 82.24V79.36H993.262V82.24H989.998ZM989.998 97V84.04H993.262V97H989.998ZM1000.36 97L995.66 84.04H998.924L1002 93.016L1005.07 84.04H1008.33L1003.63 97H1000.36ZM1016.06 97.36C1014.73 97.36 1013.56 97.076 1012.54 96.508C1011.53 95.932 1010.74 95.144 1010.16 94.144C1009.6 93.136 1009.31 91.984 1009.31 90.688C1009.31 89.272 1009.59 88.04 1010.15 86.992C1010.71 85.944 1011.48 85.132 1012.47 84.556C1013.45 83.972 1014.58 83.68 1015.86 83.68C1017.22 83.68 1018.38 84 1019.33 84.64C1020.28 85.28 1020.99 86.18 1021.44 87.34C1021.9 88.5 1022.06 89.864 1021.92 91.432H1018.7V90.232C1018.7 88.912 1018.48 87.964 1018.06 87.388C1017.64 86.804 1016.96 86.512 1016.01 86.512C1014.9 86.512 1014.08 86.852 1013.55 87.532C1013.03 88.204 1012.77 89.2 1012.77 90.52C1012.77 91.728 1013.03 92.664 1013.55 93.328C1014.08 93.984 1014.85 94.312 1015.86 94.312C1016.5 94.312 1017.05 94.172 1017.51 93.892C1017.96 93.612 1018.31 93.208 1018.55 92.68L1021.82 93.616C1021.33 94.8 1020.56 95.72 1019.5 96.376C1018.45 97.032 1017.3 97.36 1016.06 97.36ZM1011.76 91.432V89.008H1020.35V91.432H1011.76Z"
            fill="white" />
    </g>
    <defs>
        <linearGradient id="paint0_linear_92_4307" x1="0" y1="80" x2="1200" y2="80" gradientUnits="userSpaceOnUse">
            <stop stop-color="#676873" stop-opacity="0" />
            <stop offset="0.4" stop-color="#676873" stop-opacity="0.2" />
            <stop offset="0.6" stop-color="#676873" stop-opacity="0.2" />
            <stop offset="1" stop-color="#676873" stop-opacity="0" />
        </linearGradient>
    </defs>
</svg>