<svg width="354" height="354" viewBox="0 0 354 354" fill="none" xmlns="http://www.w3.org/2000/svg">
    <g filter="url(#filter0_d_92_4318)">
        <path fill-rule="evenodd" clip-rule="evenodd"
            d="M110.748 24.783C107.134 17.5556 99.7472 12.9902 91.6667 12.9902C83.5862 12.9902 76.1993 17.5556 72.5856 24.783L19.2522 131.45C15.9457 138.063 16.2991 145.916 20.1861 152.206C24.0732 158.495 30.9397 162.324 38.3334 162.324H145C152.394 162.324 159.26 158.495 163.147 152.206C167.034 145.916 167.388 138.063 164.081 131.45L110.748 24.783ZM91.6667 82.0264L110.482 119.657H72.8514L91.6667 82.0264ZM235.664 12.9902C209.154 12.9902 187.664 34.4806 187.664 60.9902V162.324H230.331V60.9902C230.331 58.0447 232.719 55.6569 235.664 55.6569C238.61 55.6569 240.997 58.0447 240.997 60.9902V162.324H241.004H283.664H283.671V60.9902C283.671 58.0447 286.058 55.6569 289.004 55.6569C291.949 55.6569 294.337 58.0447 294.337 60.9902V162.324H337.004V60.9902C337.004 34.4806 315.514 12.9902 289.004 12.9902C279.135 12.9902 269.962 15.9685 262.334 21.0753C254.706 15.9685 245.533 12.9902 235.664 12.9902ZM65 183.674C38.4903 183.674 17 205.164 17 231.674V333.007H59.6667V231.674C59.6667 228.728 62.0545 226.34 65 226.34C67.8609 226.34 70.1957 228.593 70.3275 231.421C70.327 231.506 70.3268 231.59 70.3268 231.674V333.007H70.3333H112.993H113V231.674C113 231.621 113 231.568 113 231.515C113 231.484 113 231.453 112.999 231.421C113.131 228.593 115.466 226.34 118.327 226.34C121.272 226.34 123.66 228.728 123.66 231.674V333.007H166.327V231.674C166.327 205.164 144.836 183.674 118.327 183.674C108.461 183.674 99.29 186.65 91.6634 191.755C84.0369 186.65 74.8661 183.674 65 183.674ZM262.331 183.674C221.093 183.674 187.664 217.103 187.664 258.34C187.664 299.578 221.093 333.007 262.331 333.007C303.568 333.007 336.997 299.578 336.997 258.34C336.997 217.103 303.568 183.674 262.331 183.674ZM230.331 258.34C230.331 240.667 244.658 226.34 262.331 226.34C280.004 226.34 294.331 240.667 294.331 258.34C294.331 276.014 280.004 290.34 262.331 290.34C244.658 290.34 230.331 276.014 230.331 258.34Z"
            fill="#FD6060" />
        <path
            d="M110.748 24.783L110.301 25.0066L110.748 24.783ZM72.5856 24.783L72.1384 24.5594L72.5856 24.783ZM19.2522 131.45L18.805 131.226H18.805L19.2522 131.45ZM20.1861 152.206L19.7608 152.469H19.7608L20.1861 152.206ZM163.147 152.206L163.573 152.469L163.147 152.206ZM164.081 131.45L164.528 131.226L164.081 131.45ZM110.482 119.657V120.157H111.291L110.929 119.433L110.482 119.657ZM91.6667 82.0264L92.1139 81.8027L91.6667 80.9083L91.2195 81.8027L91.6667 82.0264ZM72.8514 119.657L72.4042 119.433L72.0424 120.157H72.8514V119.657ZM187.664 162.324H187.164V162.824H187.664V162.324ZM230.331 162.324V162.824H230.831V162.324H230.331ZM240.997 162.324H240.497V162.824H240.997V162.324ZM283.671 162.324V162.824H284.171V162.324H283.671ZM294.337 162.324H293.837V162.824H294.337V162.324ZM337.004 162.324V162.824H337.504V162.324H337.004ZM262.334 21.0753L262.056 21.4908L262.334 21.6771L262.612 21.4908L262.334 21.0753ZM17 333.007H16.5V333.507H17V333.007ZM59.6667 333.007V333.507H60.1667V333.007H59.6667ZM70.3275 231.421L70.8275 231.424L70.8275 231.411L70.8269 231.398L70.3275 231.421ZM70.3268 333.007H69.8268V333.507H70.3268V333.007ZM113 333.007V333.507H113.5V333.007H113ZM113 231.515L112.5 231.516V231.516L113 231.515ZM112.999 231.421L112.5 231.398L112.499 231.411L112.499 231.424L112.999 231.421ZM123.66 333.007H123.16V333.507H123.66V333.007ZM166.327 333.007V333.507H166.827V333.007H166.327ZM91.6634 191.755L91.3853 192.17L91.6634 192.356L91.9415 192.17L91.6634 191.755ZM91.6667 13.4902C99.5578 13.4902 106.772 17.9486 110.301 25.0066L111.195 24.5594C107.497 17.1626 99.9365 12.4902 91.6667 12.4902V13.4902ZM73.0328 25.0066C76.5618 17.9486 83.7756 13.4902 91.6667 13.4902V12.4902C83.3968 12.4902 75.8368 17.1626 72.1384 24.5594L73.0328 25.0066ZM19.6995 131.673L73.0328 25.0066L72.1384 24.5594L18.805 131.226L19.6995 131.673ZM20.6115 151.943C16.8155 145.801 16.4704 138.131 19.6995 131.673L18.805 131.226C15.421 137.994 15.7826 146.032 19.7608 152.469L20.6115 151.943ZM38.3334 161.824C31.113 161.824 24.4074 158.085 20.6115 151.943L19.7608 152.469C23.739 158.906 30.7664 162.824 38.3334 162.824V161.824ZM145 161.824H38.3334V162.824H145V161.824ZM162.722 151.943C158.926 158.085 152.22 161.824 145 161.824V162.824C152.567 162.824 159.594 158.906 163.573 152.469L162.722 151.943ZM163.634 131.673C166.863 138.131 166.518 145.801 162.722 151.943L163.573 152.469C167.551 146.032 167.912 137.994 164.528 131.226L163.634 131.673ZM110.301 25.0066L163.634 131.673L164.528 131.226L111.195 24.5594L110.301 25.0066ZM110.929 119.433L92.1139 81.8027L91.2195 82.25L110.035 119.881L110.929 119.433ZM72.8514 120.157H110.482V119.157H72.8514V120.157ZM91.2195 81.8027L72.4042 119.433L73.2986 119.881L92.1139 82.25L91.2195 81.8027ZM188.164 60.9902C188.164 34.7567 209.431 13.4902 235.664 13.4902V12.4902C208.878 12.4902 187.164 34.2045 187.164 60.9902H188.164ZM188.164 162.324V60.9902H187.164V162.324H188.164ZM230.331 161.824H187.664V162.824H230.331V161.824ZM229.831 60.9902V162.324H230.831V60.9902H229.831ZM235.664 55.1569C232.442 55.1569 229.831 57.7686 229.831 60.9902H230.831C230.831 58.3209 232.995 56.1569 235.664 56.1569V55.1569ZM241.497 60.9902C241.497 57.7686 238.886 55.1569 235.664 55.1569V56.1569C238.333 56.1569 240.497 58.3209 240.497 60.9902H241.497ZM241.497 162.324V60.9902H240.497V162.324H241.497ZM241.004 161.824H240.997V162.824H241.004V161.824ZM283.664 161.824H241.004V162.824H283.664V161.824ZM283.671 161.824H283.664V162.824H283.671V161.824ZM283.171 60.9902V162.324H284.171V60.9902H283.171ZM289.004 55.1569C285.782 55.1569 283.171 57.7686 283.171 60.9902H284.171C284.171 58.3209 286.335 56.1569 289.004 56.1569V55.1569ZM294.837 60.9902C294.837 57.7686 292.226 55.1569 289.004 55.1569V56.1569C291.673 56.1569 293.837 58.3209 293.837 60.9902H294.837ZM294.837 162.324V60.9902H293.837V162.324H294.837ZM337.004 161.824H294.337V162.824H337.004V161.824ZM336.504 60.9902V162.324H337.504V60.9902H336.504ZM289.004 13.4902C315.237 13.4902 336.504 34.7567 336.504 60.9902H337.504C337.504 34.2044 315.79 12.4902 289.004 12.4902V13.4902ZM262.612 21.4908C270.16 16.4374 279.237 13.4902 289.004 13.4902V12.4902C279.033 12.4902 269.763 15.4997 262.056 20.6599L262.612 21.4908ZM235.664 13.4902C245.431 13.4902 254.508 16.4374 262.056 21.4908L262.612 20.6599C254.905 15.4997 245.635 12.4902 235.664 12.4902V13.4902ZM17.5 231.674C17.5 205.44 38.7665 184.174 65 184.174V183.174C38.2142 183.174 16.5 204.888 16.5 231.674H17.5ZM17.5 333.007V231.674H16.5V333.007H17.5ZM59.6667 332.507H17V333.507H59.6667V332.507ZM59.1667 231.674V333.007H60.1667V231.674H59.1667ZM65 225.84C61.7784 225.84 59.1667 228.452 59.1667 231.674H60.1667C60.1667 229.004 62.3307 226.84 65 226.84V225.84ZM70.8269 231.398C70.6828 228.304 68.1293 225.84 65 225.84V226.84C67.5926 226.84 69.7086 228.882 69.828 231.445L70.8269 231.398ZM70.8268 231.674C70.8268 231.591 70.827 231.507 70.8275 231.424L69.8275 231.419C69.827 231.504 69.8268 231.589 69.8268 231.674H70.8268ZM70.8268 333.007V231.674H69.8268V333.007H70.8268ZM70.3333 332.507H70.3268V333.507H70.3333V332.507ZM112.993 332.507H70.3333V333.507H112.993V332.507ZM113 332.507H112.993V333.507H113V332.507ZM112.5 231.674V333.007H113.5V231.674H112.5ZM112.5 231.516C112.5 231.569 112.5 231.621 112.5 231.674H113.5C113.5 231.62 113.5 231.567 113.5 231.513L112.5 231.516ZM112.499 231.424C112.5 231.455 112.5 231.486 112.5 231.516L113.5 231.513C113.5 231.482 113.5 231.45 113.499 231.419L112.499 231.424ZM118.327 225.84C115.198 225.84 112.644 228.304 112.5 231.398L113.499 231.445C113.618 228.882 115.734 226.84 118.327 226.84V225.84ZM124.16 231.674C124.16 228.452 121.548 225.84 118.327 225.84V226.84C120.996 226.84 123.16 229.004 123.16 231.674H124.16ZM124.16 333.007V231.674H123.16V333.007H124.16ZM166.327 332.507H123.66V333.507H166.327V332.507ZM165.827 231.674V333.007H166.827V231.674H165.827ZM118.327 184.174C144.56 184.174 165.827 205.44 165.827 231.674H166.827C166.827 204.888 145.113 183.174 118.327 183.174V184.174ZM91.9415 192.17C99.4883 187.119 108.563 184.174 118.327 184.174V183.174C108.359 183.174 99.0916 186.182 91.3853 191.339L91.9415 192.17ZM65 184.174C74.764 184.174 83.8385 187.119 91.3853 192.17L91.9415 191.339C84.2352 186.182 74.9681 183.174 65 183.174V184.174ZM188.164 258.34C188.164 217.379 221.37 184.174 262.331 184.174V183.174C220.817 183.174 187.164 216.827 187.164 258.34H188.164ZM262.331 332.507C221.37 332.507 188.164 299.302 188.164 258.34H187.164C187.164 299.854 220.817 333.507 262.331 333.507V332.507ZM336.497 258.34C336.497 299.302 303.292 332.507 262.331 332.507V333.507C303.844 333.507 337.497 299.854 337.497 258.34H336.497ZM262.331 184.174C303.292 184.174 336.497 217.379 336.497 258.34H337.497C337.497 216.827 303.844 183.174 262.331 183.174V184.174ZM262.331 225.84C244.381 225.84 229.831 240.391 229.831 258.34H230.831C230.831 240.944 244.934 226.84 262.331 226.84V225.84ZM294.831 258.34C294.831 240.391 280.28 225.84 262.331 225.84V226.84C279.728 226.84 293.831 240.944 293.831 258.34H294.831ZM262.331 290.84C280.28 290.84 294.831 276.29 294.831 258.34H293.831C293.831 275.737 279.728 289.84 262.331 289.84V290.84ZM229.831 258.34C229.831 276.29 244.381 290.84 262.331 290.84V289.84C244.934 289.84 230.831 275.737 230.831 258.34H229.831Z"
            fill="white" />
    </g>
    <defs>
        <filter id="filter0_d_92_4318" x="0.5" y="0.490234" width="353.004" height="353.017"
            filterUnits="userSpaceOnUse" color-interpolation-filters="sRGB">
            <feFlood flood-opacity="0" result="BackgroundImageFix" />
            <feColorMatrix in="SourceAlpha" type="matrix" values="0 0 0 0 0 0 0 0 0 0 0 0 0 0 0 0 0 0 127 0"
                result="hardAlpha" />
            <feOffset dy="4" />
            <feGaussianBlur stdDeviation="8" />
            <feComposite in2="hardAlpha" operator="out" />
            <feColorMatrix type="matrix" values="0 0 0 0 0.992157 0 0 0 0 0.376471 0 0 0 0 0.376471 0 0 0 0.81 0" />
            <feBlend mode="normal" in2="BackgroundImageFix" result="effect1_dropShadow_92_4318" />
            <feBlend mode="normal" in="SourceGraphic" in2="effect1_dropShadow_92_4318" result="shape" />
        </filter>
    </defs>
</svg>