<svg width="16" height="14" viewBox="0 0 16 14" fill="none" xmlns="http://www.w3.org/2000/svg">
<path d="M9.53674e-07 13.8574L0.352704 11.1726C1.21487 11.2303 1.88109 11.0763 2.35137 10.7106C2.82164 10.345 3.13516 9.83493 3.29191 9.18055C3.44867 8.52617 3.47806 7.78518 3.38009 6.95759H9.53674e-07V0H6.49565V7.53498C6.49565 9.80606 5.947 11.519 4.84969 12.6738C3.73279 13.8478 2.11623 14.2424 9.53674e-07 13.8574Z" fill="#FD6060"/>
<path d="M9.50435 13.8574L9.85705 11.1726C10.7192 11.2303 11.3854 11.0763 11.8557 10.7106C12.326 10.345 12.6395 9.83493 12.7963 9.18055C12.953 8.52617 12.9824 7.78518 12.8844 6.95759H9.50435V0H16V7.53498C16 9.80606 15.4513 11.519 14.354 12.6738C13.2371 13.8478 11.6206 14.2424 9.50435 13.8574Z" fill="#FD6060"/>
</svg>
