<svg width="16" height="14" viewBox="0 0 16 14" fill="none" xmlns="http://www.w3.org/2000/svg">
<path d="M16 0.142566L15.6473 2.82744C14.7851 2.7697 14.1189 2.92368 13.6486 3.28936C13.1784 3.65504 12.8648 4.16507 12.7081 4.81945C12.5513 5.47383 12.5219 6.21482 12.6199 7.04241H16V14H9.50435V6.46502C9.50435 4.19394 10.053 2.48101 11.1503 1.32622C12.2672 0.15219 13.8838 -0.242362 16 0.142566Z" fill="#FD6060"/>
<path d="M6.49565 0.142566L6.14295 2.82744C5.28078 2.7697 4.61456 2.92368 4.14428 3.28936C3.67401 3.65504 3.3605 4.16507 3.20374 4.81945C3.04698 5.47383 3.01759 6.21482 3.11556 7.04241H6.49565V14H0V6.46502C0 4.19394 0.548652 2.48101 1.64596 1.32622C2.76286 0.15219 4.37942 -0.242362 6.49565 0.142566Z" fill="#FD6060"/>
</svg>
