<svg width="1635" height="1051" viewBox="0 0 1635 1051" fill="none" xmlns="http://www.w3.org/2000/svg">
<path d="M1359.84 534C1359.84 818.119 1129.52 1048.44 845.4 1048.44C561.281 1048.44 330.957 818.119 330.957 534C330.957 249.881 561.281 19.5566 845.4 19.5566C1129.52 19.5566 1359.84 249.881 1359.84 534Z" fill="#F7F6F9"/>
<path d="M548.499 113.54C315.413 101.102 137.937 158.718 100.828 276.872C45.3901 453.386 324.223 698.168 723.62 823.608C1123.02 949.047 1491.73 907.643 1547.17 731.129C1580.03 626.517 1495.47 497.928 1338 384.413" stroke="#B6B6B6" stroke-width="0.75"/>
<circle opacity="0.3" cx="978.5" cy="125.5" r="32.5" fill="#D9D9D9"/>
<circle cx="874.5" cy="639.5" r="32.5" fill="#D9D9D9"/>
<ellipse opacity="0.2" cx="556.5" cy="738" rx="117.5" ry="94" transform="rotate(52.5227 556.5 738)" fill="#D9D9D9"/>
<ellipse opacity="0.4" cx="574.567" cy="230.405" rx="81.5" ry="58.5" transform="rotate(-28.6389 574.567 230.405)" fill="#D9D9D9"/>
<ellipse opacity="0.6" cx="1135.57" cy="805.405" rx="81.5" ry="58.5" transform="rotate(-28.6389 1135.57 805.405)" fill="#D9D9D9"/>
<ellipse opacity="0.6" cx="1252.92" cy="358.668" rx="73.767" ry="35.0494" transform="rotate(65.0283 1252.92 358.668)" fill="#D9D9D9"/>
</svg>
