<svg width="168" height="40" viewBox="0 0 168 40" fill="none" xmlns="http://www.w3.org/2000/svg">
<g clip-path="url(#clip0_588_2145)">
<path d="M154.304 31.7659C151.705 31.7659 149.598 29.6589 149.598 27.0599C149.598 26.8418 149.598 26.627 149.598 26.4183H154.273C154.273 26.7727 154.56 27.06 154.915 27.06L161.362 27.06C162.012 27.06 162.539 26.5333 162.539 25.8836C162.539 25.2338 162.012 24.7071 161.362 24.7071H154.304C151.705 24.7071 149.598 22.6002 149.598 20.0012V17.6483C149.598 15.0493 151.702 12.9424 154.301 12.9424C156.805 12.9424 159.903 12.9424 162.541 12.9424C165.14 12.9424 167.245 15.0491 167.245 17.6481C167.245 17.851 167.245 18.0552 167.245 18.2594H162.539C162.539 17.905 162.252 17.6177 161.897 17.6177L155.449 17.6177C154.8 17.6177 154.273 18.1444 154.273 18.7942V18.8247C154.273 19.4745 154.8 20.0012 155.449 20.0012H162.539C165.138 20.0012 167.245 22.1075 167.245 24.7065C167.245 25.4907 167.245 26.2924 167.245 27.0611C167.245 29.6601 165.138 31.7659 162.539 31.7659L154.304 31.7659Z" fill="white"/>
<path d="M133.129 31.7659V17.6483C133.129 15.0493 135.236 12.9424 137.835 12.9424H147.247V17.6483H139.011C138.362 17.6483 137.835 18.175 137.835 18.8247V31.7659H133.129Z" fill="white"/>
<path d="M117.835 31.7659C115.236 31.7659 113.129 29.659 113.129 27.06L113.129 17.6483C113.129 15.0493 115.236 12.9424 117.835 12.9424H126.07C128.669 12.9424 130.776 15.0493 130.776 17.6483V24.7071H117.835V25.9141C117.835 26.5638 118.362 27.0906 119.011 27.0906H130.776V31.7659H117.835ZM117.835 19.9859H126.07V18.8247C126.07 18.175 125.543 17.6483 124.894 17.6483H119.011C118.362 17.6483 117.835 18.175 117.835 18.8247V19.9859Z" fill="white"/>
<path d="M91.9531 31.7643V8.23486L96.6592 8.23486V19.9996L99.0119 19.9996L106.071 12.9407H110.777V14.7055L103.13 22.3525L110.777 29.9996V31.7643H106.071L99.0119 24.7054L96.6592 24.7055V31.7643H91.9531Z" fill="white"/>
<path d="M76.6591 31.7659C74.0601 31.7659 71.9532 29.6604 71.9532 27.0615C71.9532 26.3126 71.9532 25.5167 71.9532 24.7074C71.9531 22.1084 74.06 20.0012 76.659 20.0012H84.8943V18.8247C84.8943 18.175 84.3676 17.6483 83.7178 17.6483H74.3061V12.9424L84.9178 12.9954C87.5076 13.0083 89.6002 15.1114 89.6002 17.7012L89.6002 31.7659H76.6591ZM76.659 25.8912C76.659 26.5367 77.1823 27.06 77.8278 27.06H83.7255C84.371 27.06 84.8943 26.5367 84.8943 25.8912C84.8943 25.2457 84.371 24.7224 83.7255 24.7224H77.8278C77.1823 24.7224 76.659 25.2457 76.659 25.8912Z" fill="white"/>
<path d="M53.1289 31.7648V8.23535H71.9524V12.9412H57.8348V17.6471H69.5995V22.353H57.8348V31.7648H53.1289Z" fill="white"/>
<path d="M23.7146 20.0451C26.9865 16.7733 32.2912 16.7733 35.5631 20.0451C32.2912 23.317 26.9865 23.317 23.7146 20.0451Z" fill="white"/>
<path fill-rule="evenodd" clip-rule="evenodd" d="M29.5968 39.4129C35.1196 39.4129 39.5968 34.9357 39.5968 29.4129V10.5894C39.5968 5.06651 35.1196 0.589355 29.5968 0.589355C29.5606 0.589355 29.5245 0.589548 29.4883 0.589931H10.7734C5.25059 0.589931 0.773438 5.06707 0.773438 10.5899V29.4135C0.773438 34.9363 5.25059 39.4135 10.7734 39.4135C10.8096 39.4135 10.8457 39.4133 10.8818 39.4129H29.5968ZM15.4846 38.2364H29.5968C34.4699 38.2364 38.4203 34.286 38.4203 29.4129V10.5894C38.4203 5.71631 34.47 1.76592 29.597 1.76583C24.7239 1.76583 20.7734 5.71683 20.7734 10.5899V29.4135C20.7734 33.2329 18.6322 36.5522 15.4846 38.2364ZM4.89094 20.0451C8.16282 16.7733 13.4676 16.7733 16.7395 20.0451C13.4676 23.317 8.16282 23.317 4.89094 20.0451Z" fill="white"/>
</g>
<defs>
<clipPath id="clip0_588_2145">
<rect width="167.869" height="40" fill="white" transform="translate(0.0664062)"/>
</clipPath>
</defs>
</svg>
