<svg width="72" height="32" viewBox="0 0 72 32" fill="none" xmlns="http://www.w3.org/2000/svg">
<rect x="1.43359" y="0.5" width="70" height="31" rx="15.5" stroke="white"/>
<path d="M21.9946 21.21C21.3039 21.21 20.6739 21.0887 20.1046 20.846C19.5353 20.6033 19.0453 20.2557 18.6346 19.803C18.2239 19.3457 17.9066 18.795 17.6826 18.151C17.4633 17.5023 17.3536 16.772 17.3536 15.96C17.3536 14.8867 17.5449 13.958 17.9276 13.174C18.3103 12.39 18.8493 11.7857 19.5446 11.361C20.2399 10.9317 21.0566 10.717 21.9946 10.717C23.1239 10.717 24.0339 10.9807 24.7246 11.508C25.4153 12.0307 25.8913 12.747 26.1526 13.657L24.8926 13.916C24.6826 13.3047 24.3373 12.817 23.8566 12.453C23.3759 12.089 22.7763 11.907 22.0576 11.907C21.3063 11.9023 20.6809 12.0703 20.1816 12.411C19.6869 12.747 19.3136 13.2207 19.0616 13.832C18.8096 14.4433 18.6813 15.1527 18.6766 15.96C18.6719 16.7627 18.7956 17.4673 19.0476 18.074C19.2996 18.6807 19.6753 19.1567 20.1746 19.502C20.6786 19.8427 21.3063 20.0153 22.0576 20.02C22.7063 20.0247 23.2523 19.901 23.6956 19.649C24.1389 19.397 24.4819 19.033 24.7246 18.557C24.9673 18.081 25.1143 17.5093 25.1656 16.842H23.0236V15.813H26.4816C26.4956 15.9063 26.5026 16.0183 26.5026 16.149C26.5073 16.275 26.5096 16.3613 26.5096 16.408C26.5096 17.3273 26.3369 18.151 25.9916 18.879C25.6509 19.6023 25.1446 20.1717 24.4726 20.587C23.8053 21.0023 22.9793 21.21 21.9946 21.21ZM31.1277 21.21C30.3764 21.21 29.7277 21.0397 29.1817 20.699C28.6404 20.3583 28.2227 19.887 27.9287 19.285C27.6347 18.683 27.4877 17.9923 27.4877 17.213C27.4877 16.4197 27.6371 15.7243 27.9357 15.127C28.2344 14.5297 28.6567 14.0653 29.2027 13.734C29.7487 13.398 30.3904 13.23 31.1277 13.23C31.8837 13.23 32.5347 13.4003 33.0807 13.741C33.6267 14.077 34.0444 14.546 34.3337 15.148C34.6277 15.7453 34.7747 16.4337 34.7747 17.213C34.7747 18.0017 34.6277 18.697 34.3337 19.299C34.0397 19.8963 33.6197 20.3653 33.0737 20.706C32.5277 21.042 31.8791 21.21 31.1277 21.21ZM31.1277 20.027C31.9117 20.027 32.4951 19.7657 32.8777 19.243C33.2604 18.7203 33.4517 18.0437 33.4517 17.213C33.4517 16.359 33.2581 15.68 32.8707 15.176C32.4834 14.6673 31.9024 14.413 31.1277 14.413C30.6004 14.413 30.1664 14.532 29.8257 14.77C29.4851 15.008 29.2307 15.337 29.0627 15.757C28.8947 16.177 28.8107 16.6623 28.8107 17.213C28.8107 18.0623 29.0067 18.7437 29.3987 19.257C29.7907 19.7703 30.3671 20.027 31.1277 20.027Z" fill="white"/>
<circle cx="44.9336" cy="11" r="1" fill="white"/>
<circle cx="50.9336" cy="16" r="1" fill="white"/>
<circle cx="44.9336" cy="21" r="1" fill="white"/>
<circle cx="47.9336" cy="19" r="1" fill="white"/>
<circle cx="47.9336" cy="13" r="1" fill="white"/>
</svg>
