<svg width="1920" height="828" viewBox="0 0 1920 828" fill="none" xmlns="http://www.w3.org/2000/svg">
<g clip-path="url(#clip0_399_144)">
<rect width="1920" height="1076" transform="translate(0 -248)" fill="white"/>
<circle cx="960" cy="413" r="799.75" stroke="#D9D9D9" stroke-width="0.5"/>
<circle cx="960" cy="413" r="399.75" stroke="#B6B6B6" stroke-width="0.5"/>
<circle cx="960" cy="413" r="279.75" stroke="#676873" stroke-width="0.5"/>
<circle cx="960" cy="413" r="188.625" stroke="#676873" stroke-width="0.75"/>
<circle cx="960" cy="413" r="122.625" stroke="#676873" stroke-width="0.75"/>
<circle cx="960" cy="413" r="78.5" stroke="#676873"/>
<circle cx="960" cy="413" r="42.5" stroke="#676873"/>
<circle cx="16" cy="16" r="15.75" transform="matrix(1 0 0 -1 944 429)" stroke="#303030" stroke-width="0.5"/>
<path d="M650.75 543C650.75 581.62 640.854 616.572 624.868 641.861C608.879 667.154 586.823 682.75 562.5 682.75C538.177 682.75 516.121 667.154 500.132 641.861C484.146 616.572 474.25 581.62 474.25 543C474.25 504.38 484.146 469.428 500.132 444.139C516.121 418.846 538.177 403.25 562.5 403.25C586.823 403.25 608.879 418.846 624.868 444.139C640.854 469.428 650.75 504.38 650.75 543Z" stroke="#B6B6B6" stroke-width="0.5"/>
<path d="M1736.68 576.828C1693.28 619.281 1642.51 645.953 1595.5 654.766C1548.49 663.58 1505.28 654.532 1476.97 625.593C1448.66 596.653 1440.57 553.259 1450.42 506.455C1460.26 459.654 1488.04 409.474 1531.44 367.022C1574.84 324.569 1625.62 297.897 1672.62 289.083C1719.63 280.269 1762.84 289.317 1791.15 318.257C1819.46 347.196 1827.55 390.59 1817.71 437.394C1807.86 484.195 1780.08 534.375 1736.68 576.828Z" stroke="#D9D9D9" stroke-width="0.5"/>
<path d="M1703.49 542.904C1674.12 571.642 1639.75 589.695 1607.93 595.66C1576.12 601.626 1546.89 595.499 1527.74 575.928C1508.6 556.356 1503.12 527.001 1509.78 495.324C1516.44 463.649 1535.25 429.683 1564.62 400.945C1594 372.207 1628.37 354.154 1660.19 348.189C1692 342.223 1721.23 348.35 1740.38 367.922C1759.52 387.493 1765 416.848 1758.34 448.525C1751.68 480.2 1732.87 514.166 1703.49 542.904Z" stroke="#D9D9D9" stroke-width="0.5"/>
<circle cx="157" cy="-23" r="299.75" stroke="#D9D9D9" stroke-width="0.5"/>
<circle cx="157" cy="-23" r="172.75" stroke="#D9D9D9" stroke-width="0.5"/>
<circle cx="437" cy="81" r="20" fill="#D9D9D9"/>
<circle cx="560" cy="403" r="12" fill="#B6B6B6"/>
<circle cx="1304" cy="209" r="12" fill="#B6B6B6"/>
<circle cx="1051" cy="517" r="12" fill="#676873"/>
<circle cx="920" cy="429" r="4" fill="#B6B6B6"/>
<circle cx="997" cy="432" r="4" fill="#303030"/>
<circle cx="950" cy="446" r="2" fill="#B6B6B6"/>
<circle cx="954" cy="381" r="2" fill="#676873"/>
<circle cx="844" cy="330" r="12" fill="#676873"/>
<circle cx="902" cy="468" r="12" fill="#676873"/>
<circle cx="1022" cy="417" r="8" fill="#676873"/>
<circle cx="920" cy="371" r="8" fill="#303030"/>
<circle cx="986.5" cy="391.5" r="4.5" fill="#303030"/>
<circle cx="309" cy="627" r="12" fill="#F7F6F9"/>
<circle cx="1638" cy="435" r="12" fill="#B6B6B6"/>
<circle cx="1595" cy="318" r="10" fill="#D9D9D9"/>
<circle cx="1719" cy="591" r="16" fill="#F7F6F9"/>
<circle cx="1817" cy="441" r="6" fill="#D9D9D9"/>
<circle cx="1513" cy="552" r="6" fill="#D9D9D9"/>
<circle cx="1668" cy="717" r="6" fill="#F7F6F9"/>
<circle cx="1244" cy="403" r="20" fill="#B6B6B6"/>
<circle cx="586" cy="555" r="20" fill="#D9D9D9"/>
<ellipse cx="1071" cy="339" rx="14" ry="20" stroke="#B6B6B6" stroke-width="0.5"/>
<circle cx="116" cy="691" r="8" fill="#F7F6F9"/>
<circle cx="693" cy="121" r="20" fill="#B6B6B6"/>
<circle cx="1096" cy="173" r="40" fill="#D9D9D9"/>
<circle cx="1062" cy="355" r="5" fill="#B6B6B6"/>
<circle cx="1067" cy="321" r="4" fill="#B6B6B6"/>
<circle cx="1077" cy="335" r="4" fill="#676873"/>
<circle cx="1087" cy="343" r="2" fill="#D9D9D9"/>
<circle cx="1085" cy="327" r="2" fill="#D9D9D9"/>
<circle cx="1057" cy="337" r="2" fill="#D9D9D9"/>
<circle cx="1703" cy="120" r="19" fill="#D9D9D9"/>
<circle cx="1283" cy="651" r="36" fill="#F7F6F9"/>
<circle cx="164" cy="342" r="13" fill="#F7F6F9"/>
<path opacity="0.4" d="M1079.83 234.18C1078.97 234.18 1078.23 233.992 1077.63 233.616C1077.02 233.236 1076.55 232.708 1076.23 232.032C1075.91 231.356 1075.75 230.572 1075.75 229.68C1075.75 228.788 1075.91 228.004 1076.23 227.328C1076.55 226.652 1077.02 226.126 1077.63 225.75C1078.23 225.37 1078.97 225.18 1079.83 225.18C1080.83 225.18 1081.65 225.432 1082.31 225.936C1082.96 226.44 1083.42 227.118 1083.67 227.97L1082.4 228.312C1082.23 227.708 1081.93 227.234 1081.5 226.89C1081.07 226.546 1080.52 226.374 1079.83 226.374C1079.22 226.374 1078.71 226.512 1078.3 226.788C1077.9 227.064 1077.59 227.45 1077.38 227.946C1077.18 228.442 1077.07 229.02 1077.07 229.68C1077.07 230.34 1077.17 230.918 1077.37 231.414C1077.58 231.91 1077.89 232.296 1078.3 232.572C1078.71 232.848 1079.22 232.986 1079.83 232.986C1080.52 232.986 1081.07 232.814 1081.5 232.47C1081.93 232.122 1082.23 231.648 1082.4 231.048L1083.67 231.39C1083.42 232.242 1082.96 232.92 1082.31 233.424C1081.65 233.928 1080.83 234.18 1079.83 234.18ZM1084.99 234V227.52H1086.11V229.092L1085.95 228.888C1086.03 228.68 1086.14 228.49 1086.27 228.318C1086.39 228.142 1086.54 227.998 1086.71 227.886C1086.87 227.766 1087.06 227.674 1087.26 227.61C1087.46 227.542 1087.67 227.502 1087.88 227.49C1088.09 227.474 1088.3 227.484 1088.49 227.52V228.696C1088.28 228.64 1088.04 228.624 1087.78 228.648C1087.53 228.672 1087.29 228.754 1087.08 228.894C1086.87 229.026 1086.71 229.186 1086.59 229.374C1086.47 229.562 1086.39 229.772 1086.34 230.004C1086.29 230.232 1086.26 230.474 1086.26 230.73V234H1084.99ZM1090.35 236.88L1091.6 233.466L1091.62 234.474L1088.79 227.52H1090.1L1092.21 232.89H1091.83L1093.84 227.52H1095.12L1091.54 236.88H1090.35ZM1099.1 234.18C1098.48 234.18 1097.96 234.03 1097.54 233.73C1097.12 233.426 1096.8 233.016 1096.58 232.5C1096.37 231.984 1096.26 231.402 1096.26 230.754C1096.26 230.106 1096.37 229.524 1096.58 229.008C1096.79 228.492 1097.11 228.086 1097.53 227.79C1097.95 227.49 1098.46 227.34 1099.07 227.34C1099.68 227.34 1100.21 227.49 1100.65 227.79C1101.09 228.086 1101.43 228.492 1101.67 229.008C1101.91 229.52 1102.03 230.102 1102.03 230.754C1102.03 231.402 1101.91 231.986 1101.67 232.506C1101.44 233.022 1101.1 233.43 1100.66 233.73C1100.22 234.03 1099.7 234.18 1099.1 234.18ZM1096.05 236.88V227.52H1097.17V232.182H1097.31V236.88H1096.05ZM1098.92 233.046C1099.32 233.046 1099.65 232.944 1099.91 232.74C1100.18 232.536 1100.37 232.262 1100.5 231.918C1100.63 231.57 1100.7 231.182 1100.7 230.754C1100.7 230.33 1100.63 229.946 1100.5 229.602C1100.37 229.258 1100.18 228.984 1099.91 228.78C1099.64 228.576 1099.3 228.474 1098.88 228.474C1098.49 228.474 1098.17 228.57 1097.91 228.762C1097.66 228.954 1097.47 229.222 1097.35 229.566C1097.23 229.91 1097.17 230.306 1097.17 230.754C1097.17 231.202 1097.23 231.598 1097.35 231.942C1097.47 232.286 1097.66 232.556 1097.92 232.752C1098.18 232.948 1098.51 233.046 1098.92 233.046ZM1107.07 234C1106.66 234.08 1106.26 234.114 1105.87 234.102C1105.47 234.09 1105.12 234.014 1104.82 233.874C1104.51 233.734 1104.28 233.514 1104.12 233.214C1103.98 232.946 1103.9 232.674 1103.89 232.398C1103.88 232.118 1103.88 231.802 1103.88 231.45V225.72H1105.14V231.39C1105.14 231.65 1105.14 231.876 1105.15 232.068C1105.15 232.26 1105.2 232.422 1105.27 232.554C1105.42 232.802 1105.64 232.944 1105.96 232.98C1106.27 233.012 1106.64 232.998 1107.07 232.938V234ZM1102.64 228.528V227.52H1107.07V228.528H1102.64ZM1110.95 234.18C1110.3 234.18 1109.74 234.034 1109.27 233.742C1108.79 233.45 1108.42 233.048 1108.16 232.536C1107.91 232.02 1107.78 231.426 1107.78 230.754C1107.78 230.078 1107.91 229.484 1108.17 228.972C1108.44 228.456 1108.81 228.056 1109.28 227.772C1109.76 227.484 1110.32 227.34 1110.95 227.34C1111.6 227.34 1112.16 227.486 1112.64 227.778C1113.11 228.07 1113.48 228.472 1113.74 228.984C1114 229.496 1114.13 230.086 1114.13 230.754C1114.13 231.43 1114 232.026 1113.74 232.542C1113.48 233.054 1113.11 233.456 1112.63 233.748C1112.16 234.036 1111.6 234.18 1110.95 234.18ZM1110.95 232.998C1111.57 232.998 1112.03 232.79 1112.34 232.374C1112.65 231.954 1112.8 231.414 1112.8 230.754C1112.8 230.078 1112.64 229.538 1112.33 229.134C1112.02 228.726 1111.56 228.522 1110.95 228.522C1110.53 228.522 1110.19 228.618 1109.91 228.81C1109.64 228.998 1109.44 229.26 1109.31 229.596C1109.18 229.928 1109.11 230.314 1109.11 230.754C1109.11 231.434 1109.27 231.978 1109.58 232.386C1109.89 232.794 1110.35 232.998 1110.95 232.998Z" fill="#020000"/>
<path opacity="0.4" d="M1231.79 445.18C1231.21 445.18 1230.68 445.08 1230.19 444.88C1229.7 444.676 1229.28 444.38 1228.92 443.992C1228.56 443.604 1228.28 443.132 1228.08 442.576C1227.88 442.02 1227.78 441.388 1227.78 440.68C1227.78 439.748 1227.95 438.948 1228.29 438.28C1228.63 437.608 1229.1 437.092 1229.7 436.732C1230.31 436.368 1231 436.186 1231.79 436.186C1232.81 436.186 1233.62 436.422 1234.22 436.894C1234.83 437.366 1235.24 438.018 1235.46 438.85L1234.19 439.078C1234.02 438.562 1233.73 438.15 1233.34 437.842C1232.95 437.534 1232.46 437.378 1231.86 437.374C1231.25 437.37 1230.74 437.506 1230.33 437.782C1229.93 438.058 1229.63 438.446 1229.42 438.946C1229.22 439.442 1229.11 440.02 1229.11 440.68C1229.11 441.34 1229.21 441.918 1229.41 442.414C1229.61 442.906 1229.92 443.29 1230.33 443.566C1230.74 443.842 1231.25 443.982 1231.86 443.986C1232.36 443.994 1232.78 443.904 1233.13 443.716C1233.49 443.524 1233.77 443.244 1233.98 442.876C1234.18 442.508 1234.32 442.056 1234.38 441.52H1232.7V440.512H1235.71C1235.72 440.584 1235.72 440.68 1235.73 440.8C1235.73 440.916 1235.73 440.99 1235.73 441.022C1235.73 441.822 1235.58 442.536 1235.27 443.164C1234.96 443.792 1234.52 444.286 1233.93 444.646C1233.34 445.002 1232.63 445.18 1231.79 445.18ZM1238.76 445.18C1238.28 445.18 1237.88 445.092 1237.55 444.916C1237.23 444.736 1236.98 444.5 1236.82 444.208C1236.65 443.912 1236.57 443.588 1236.57 443.236C1236.57 442.908 1236.63 442.62 1236.74 442.372C1236.86 442.124 1237.03 441.914 1237.26 441.742C1237.49 441.566 1237.77 441.424 1238.1 441.316C1238.39 441.232 1238.71 441.158 1239.08 441.094C1239.44 441.03 1239.82 440.97 1240.22 440.914C1240.63 440.858 1241.03 440.802 1241.42 440.746L1240.97 440.998C1240.98 440.49 1240.87 440.114 1240.64 439.87C1240.42 439.622 1240.04 439.498 1239.5 439.498C1239.16 439.498 1238.85 439.578 1238.57 439.738C1238.28 439.894 1238.09 440.154 1237.97 440.518L1236.8 440.158C1236.96 439.602 1237.27 439.16 1237.72 438.832C1238.17 438.504 1238.77 438.34 1239.52 438.34C1240.1 438.34 1240.6 438.44 1241.03 438.64C1241.46 438.836 1241.78 439.148 1241.98 439.576C1242.08 439.788 1242.14 440.012 1242.17 440.248C1242.19 440.484 1242.2 440.738 1242.2 441.01V445H1241.09V443.518L1241.31 443.71C1241.04 444.206 1240.7 444.576 1240.28 444.82C1239.87 445.06 1239.36 445.18 1238.76 445.18ZM1238.98 444.154C1239.34 444.154 1239.64 444.092 1239.9 443.968C1240.16 443.84 1240.36 443.678 1240.52 443.482C1240.67 443.286 1240.78 443.082 1240.82 442.87C1240.89 442.678 1240.93 442.462 1240.94 442.222C1240.95 441.982 1240.96 441.79 1240.96 441.646L1241.36 441.796C1240.97 441.856 1240.61 441.91 1240.28 441.958C1239.96 442.006 1239.67 442.054 1239.4 442.102C1239.14 442.146 1238.91 442.2 1238.71 442.264C1238.53 442.324 1238.38 442.396 1238.24 442.48C1238.11 442.564 1238.01 442.666 1237.93 442.786C1237.85 442.906 1237.81 443.052 1237.81 443.224C1237.81 443.392 1237.85 443.548 1237.94 443.692C1238.02 443.832 1238.15 443.944 1238.32 444.028C1238.49 444.112 1238.71 444.154 1238.98 444.154ZM1251.53 445L1251.53 440.962C1251.53 440.494 1251.41 440.13 1251.17 439.87C1250.93 439.606 1250.62 439.474 1250.22 439.474C1249.98 439.474 1249.76 439.53 1249.56 439.642C1249.37 439.75 1249.21 439.914 1249.08 440.134C1248.96 440.35 1248.9 440.622 1248.9 440.95L1248.3 440.644C1248.29 440.188 1248.39 439.788 1248.59 439.444C1248.79 439.1 1249.07 438.834 1249.41 438.646C1249.76 438.454 1250.15 438.358 1250.58 438.358C1251.28 438.358 1251.83 438.568 1252.21 438.988C1252.59 439.408 1252.79 439.966 1252.79 440.662L1252.78 445H1251.53ZM1243.76 445V438.52H1244.87V440.392H1245.02V445H1243.76ZM1247.64 445L1247.65 440.986C1247.65 440.514 1247.53 440.144 1247.29 439.876C1247.05 439.608 1246.74 439.474 1246.34 439.474C1245.94 439.474 1245.62 439.61 1245.38 439.882C1245.14 440.154 1245.02 440.51 1245.02 440.95L1244.42 440.566C1244.42 440.142 1244.52 439.764 1244.72 439.432C1244.93 439.1 1245.2 438.838 1245.55 438.646C1245.9 438.454 1246.29 438.358 1246.73 438.358C1247.19 438.358 1247.58 438.456 1247.91 438.652C1248.23 438.844 1248.48 439.114 1248.65 439.462C1248.82 439.81 1248.9 440.214 1248.9 440.674L1248.9 445H1247.64ZM1257.14 445.18C1256.49 445.18 1255.93 445.04 1255.44 444.76C1254.95 444.476 1254.58 444.082 1254.3 443.578C1254.04 443.07 1253.9 442.482 1253.9 441.814C1253.9 441.106 1254.03 440.492 1254.3 439.972C1254.57 439.452 1254.94 439.05 1255.41 438.766C1255.89 438.482 1256.44 438.34 1257.08 438.34C1257.74 438.34 1258.3 438.494 1258.76 438.802C1259.23 439.106 1259.57 439.54 1259.8 440.104C1260.03 440.668 1260.12 441.338 1260.08 442.114H1258.82V441.658C1258.81 440.906 1258.67 440.35 1258.39 439.99C1258.11 439.63 1257.69 439.45 1257.12 439.45C1256.5 439.45 1256.02 439.648 1255.71 440.044C1255.39 440.44 1255.23 441.012 1255.23 441.76C1255.23 442.472 1255.39 443.024 1255.71 443.416C1256.02 443.804 1256.48 443.998 1257.08 443.998C1257.47 443.998 1257.81 443.91 1258.09 443.734C1258.38 443.554 1258.6 443.298 1258.76 442.966L1259.99 443.356C1259.74 443.936 1259.36 444.386 1258.85 444.706C1258.33 445.022 1257.76 445.18 1257.14 445.18ZM1254.83 442.114V441.136H1259.45V442.114H1254.83Z" fill="#020000"/>
<path opacity="0.4" d="M1033.33 548V539.36H1034.58V543.086H1038.9V539.36H1040.16V548H1038.9V544.268H1034.58V548H1033.33ZM1044.72 548.18C1044.08 548.18 1043.51 548.04 1043.02 547.76C1042.54 547.476 1042.16 547.082 1041.89 546.578C1041.62 546.07 1041.49 545.482 1041.49 544.814C1041.49 544.106 1041.62 543.492 1041.88 542.972C1042.15 542.452 1042.52 542.05 1043 541.766C1043.47 541.482 1044.03 541.34 1044.66 541.34C1045.32 541.34 1045.88 541.494 1046.35 541.802C1046.81 542.106 1047.16 542.54 1047.38 543.104C1047.62 543.668 1047.71 544.338 1047.66 545.114H1046.41V544.658C1046.4 543.906 1046.25 543.35 1045.97 542.99C1045.7 542.63 1045.28 542.45 1044.71 542.45C1044.08 542.45 1043.61 542.648 1043.29 543.044C1042.98 543.44 1042.82 544.012 1042.82 544.76C1042.82 545.472 1042.98 546.024 1043.29 546.416C1043.61 546.804 1044.06 546.998 1044.66 546.998C1045.05 546.998 1045.39 546.91 1045.67 546.734C1045.96 546.554 1046.19 546.298 1046.35 545.966L1047.58 546.356C1047.32 546.936 1046.94 547.386 1046.43 547.706C1045.92 548.022 1045.35 548.18 1044.72 548.18ZM1042.41 545.114V544.136H1047.04V545.114H1042.41ZM1050.72 548.18C1050.24 548.18 1049.84 548.092 1049.51 547.916C1049.19 547.736 1048.94 547.5 1048.77 547.208C1048.61 546.912 1048.53 546.588 1048.53 546.236C1048.53 545.908 1048.59 545.62 1048.7 545.372C1048.82 545.124 1048.99 544.914 1049.22 544.742C1049.45 544.566 1049.73 544.424 1050.06 544.316C1050.35 544.232 1050.67 544.158 1051.04 544.094C1051.4 544.03 1051.78 543.97 1052.18 543.914C1052.59 543.858 1052.99 543.802 1053.38 543.746L1052.93 543.998C1052.93 543.49 1052.83 543.114 1052.6 542.87C1052.38 542.622 1052 542.498 1051.46 542.498C1051.12 542.498 1050.81 542.578 1050.53 542.738C1050.24 542.894 1050.04 543.154 1049.93 543.518L1048.76 543.158C1048.92 542.602 1049.23 542.16 1049.67 541.832C1050.13 541.504 1050.73 541.34 1051.47 541.34C1052.05 541.34 1052.56 541.44 1052.99 541.64C1053.42 541.836 1053.73 542.148 1053.93 542.576C1054.04 542.788 1054.1 543.012 1054.13 543.248C1054.15 543.484 1054.16 543.738 1054.16 544.01V548H1053.05V546.518L1053.27 546.71C1053 547.206 1052.66 547.576 1052.24 547.82C1051.83 548.06 1051.32 548.18 1050.72 548.18ZM1050.94 547.154C1051.3 547.154 1051.6 547.092 1051.86 546.968C1052.11 546.84 1052.32 546.678 1052.48 546.482C1052.63 546.286 1052.73 546.082 1052.78 545.87C1052.85 545.678 1052.89 545.462 1052.9 545.222C1052.91 544.982 1052.91 544.79 1052.91 544.646L1053.32 544.796C1052.93 544.856 1052.57 544.91 1052.24 544.958C1051.92 545.006 1051.62 545.054 1051.36 545.102C1051.1 545.146 1050.87 545.2 1050.66 545.264C1050.49 545.324 1050.34 545.396 1050.2 545.48C1050.07 545.564 1049.96 545.666 1049.88 545.786C1049.81 545.906 1049.77 546.052 1049.77 546.224C1049.77 546.392 1049.81 546.548 1049.9 546.692C1049.98 546.832 1050.11 546.944 1050.28 547.028C1050.45 547.112 1050.67 547.154 1050.94 547.154ZM1055.84 548V539.18H1057.09V548H1055.84ZM1062.6 548C1062.2 548.08 1061.8 548.114 1061.4 548.102C1061.01 548.09 1060.66 548.014 1060.35 547.874C1060.05 547.734 1059.81 547.514 1059.66 547.214C1059.52 546.946 1059.44 546.674 1059.43 546.398C1059.42 546.118 1059.42 545.802 1059.42 545.45V539.72H1060.68V545.39C1060.68 545.65 1060.68 545.876 1060.68 546.068C1060.69 546.26 1060.73 546.422 1060.81 546.554C1060.95 546.802 1061.18 546.944 1061.49 546.98C1061.81 547.012 1062.18 546.998 1062.6 546.938V548ZM1058.18 542.528V541.52H1062.6V542.528H1058.18ZM1068.52 548V544.814C1068.52 544.562 1068.5 544.304 1068.45 544.04C1068.41 543.772 1068.33 543.524 1068.21 543.296C1068.1 543.068 1067.93 542.884 1067.71 542.744C1067.5 542.604 1067.22 542.534 1066.88 542.534C1066.66 542.534 1066.44 542.572 1066.24 542.648C1066.04 542.72 1065.87 542.838 1065.72 543.002C1065.57 543.166 1065.45 543.382 1065.36 543.65C1065.28 543.918 1065.24 544.244 1065.24 544.628L1064.46 544.334C1064.46 543.746 1064.57 543.228 1064.79 542.78C1065.01 542.328 1065.32 541.976 1065.73 541.724C1066.15 541.472 1066.64 541.346 1067.23 541.346C1067.68 541.346 1068.05 541.418 1068.36 541.562C1068.66 541.706 1068.91 541.896 1069.09 542.132C1069.29 542.364 1069.43 542.618 1069.53 542.894C1069.63 543.17 1069.7 543.44 1069.74 543.704C1069.77 543.968 1069.79 544.2 1069.79 544.4V548H1068.52ZM1063.96 548V539.36H1065.09V544.022H1065.24V548H1063.96Z" fill="#020000"/>
<path opacity="0.4" d="M861.174 502V493.36H866.694V494.542H862.428V496.966H865.974V498.148H862.428V500.818H866.694V502H861.174ZM872.683 502V498.814C872.683 498.562 872.661 498.304 872.617 498.04C872.577 497.772 872.497 497.524 872.377 497.296C872.261 497.068 872.095 496.884 871.879 496.744C871.667 496.604 871.389 496.534 871.045 496.534C870.821 496.534 870.609 496.572 870.409 496.648C870.209 496.72 870.033 496.838 869.881 497.002C869.733 497.166 869.615 497.382 869.527 497.65C869.443 497.918 869.401 498.244 869.401 498.628L868.621 498.334C868.621 497.746 868.731 497.228 868.951 496.78C869.171 496.328 869.487 495.976 869.899 495.724C870.311 495.472 870.809 495.346 871.393 495.346C871.841 495.346 872.217 495.418 872.521 495.562C872.825 495.706 873.071 495.896 873.259 496.132C873.451 496.364 873.597 496.618 873.697 496.894C873.797 497.17 873.865 497.44 873.901 497.704C873.937 497.968 873.955 498.2 873.955 498.4V502H872.683ZM868.129 502V495.52H869.251V497.392H869.401V502H868.129ZM879.226 502C878.818 502.08 878.418 502.114 878.026 502.102C877.634 502.09 877.284 502.014 876.976 501.874C876.668 501.734 876.436 501.514 876.28 501.214C876.14 500.946 876.064 500.674 876.052 500.398C876.044 500.118 876.04 499.802 876.04 499.45V493.72H877.3V499.39C877.3 499.65 877.302 499.876 877.306 500.068C877.314 500.26 877.356 500.422 877.432 500.554C877.576 500.802 877.804 500.944 878.116 500.98C878.432 501.012 878.802 500.998 879.226 500.938V502ZM874.798 496.528V495.52H879.226V496.528H874.798ZM883.173 502.18C882.529 502.18 881.963 502.04 881.475 501.76C880.991 501.476 880.613 501.082 880.341 500.578C880.073 500.07 879.939 499.482 879.939 498.814C879.939 498.106 880.071 497.492 880.335 496.972C880.603 496.452 880.975 496.05 881.451 495.766C881.927 495.482 882.481 495.34 883.113 495.34C883.773 495.34 884.335 495.494 884.799 495.802C885.263 496.106 885.609 496.54 885.837 497.104C886.069 497.668 886.161 498.338 886.113 499.114H884.859V498.658C884.851 497.906 884.707 497.35 884.427 496.99C884.151 496.63 883.729 496.45 883.161 496.45C882.533 496.45 882.061 496.648 881.745 497.044C881.429 497.44 881.271 498.012 881.271 498.76C881.271 499.472 881.429 500.024 881.745 500.416C882.061 500.804 882.517 500.998 883.113 500.998C883.505 500.998 883.843 500.91 884.127 500.734C884.415 500.554 884.639 500.298 884.799 499.966L886.029 500.356C885.777 500.936 885.395 501.386 884.883 501.706C884.371 502.022 883.801 502.18 883.173 502.18ZM880.863 499.114V498.136H885.489V499.114H880.863ZM887.459 502V495.52H888.575V497.092L888.419 496.888C888.499 496.68 888.603 496.49 888.731 496.318C888.859 496.142 889.007 495.998 889.175 495.886C889.339 495.766 889.521 495.674 889.721 495.61C889.925 495.542 890.133 495.502 890.345 495.49C890.557 495.474 890.761 495.484 890.957 495.52V496.696C890.745 496.64 890.509 496.624 890.249 496.648C889.993 496.672 889.757 496.754 889.541 496.894C889.337 497.026 889.175 497.186 889.055 497.374C888.939 497.562 888.855 497.772 888.803 498.004C888.751 498.232 888.725 498.474 888.725 498.73V502H887.459ZM895.808 502C895.4 502.08 895 502.114 894.608 502.102C894.216 502.09 893.866 502.014 893.558 501.874C893.25 501.734 893.018 501.514 892.862 501.214C892.722 500.946 892.646 500.674 892.634 500.398C892.626 500.118 892.622 499.802 892.622 499.45V493.72H893.882V499.39C893.882 499.65 893.884 499.876 893.888 500.068C893.896 500.26 893.938 500.422 894.014 500.554C894.158 500.802 894.386 500.944 894.698 500.98C895.014 501.012 895.384 500.998 895.808 500.938V502ZM891.38 496.528V495.52H895.808V496.528H891.38ZM899.004 502.18C898.524 502.18 898.122 502.092 897.798 501.916C897.474 501.736 897.228 501.5 897.06 501.208C896.896 500.912 896.814 500.588 896.814 500.236C896.814 499.908 896.872 499.62 896.988 499.372C897.104 499.124 897.276 498.914 897.504 498.742C897.732 498.566 898.012 498.424 898.344 498.316C898.632 498.232 898.958 498.158 899.322 498.094C899.686 498.03 900.068 497.97 900.468 497.914C900.872 497.858 901.272 497.802 901.668 497.746L901.212 497.998C901.22 497.49 901.112 497.114 900.888 496.87C900.668 496.622 900.288 496.498 899.748 496.498C899.408 496.498 899.096 496.578 898.812 496.738C898.528 496.894 898.33 497.154 898.218 497.518L897.048 497.158C897.208 496.602 897.512 496.16 897.96 495.832C898.412 495.504 899.012 495.34 899.76 495.34C900.34 495.34 900.844 495.44 901.272 495.64C901.704 495.836 902.02 496.148 902.22 496.576C902.324 496.788 902.388 497.012 902.412 497.248C902.436 497.484 902.448 497.738 902.448 498.01V502H901.338V500.518L901.554 500.71C901.286 501.206 900.944 501.576 900.528 501.82C900.116 502.06 899.608 502.18 899.004 502.18ZM899.226 501.154C899.582 501.154 899.888 501.092 900.144 500.968C900.4 500.84 900.606 500.678 900.762 500.482C900.918 500.286 901.02 500.082 901.068 499.87C901.136 499.678 901.174 499.462 901.182 499.222C901.194 498.982 901.2 498.79 901.2 498.646L901.608 498.796C901.212 498.856 900.852 498.91 900.528 498.958C900.204 499.006 899.91 499.054 899.646 499.102C899.386 499.146 899.154 499.2 898.95 499.264C898.778 499.324 898.624 499.396 898.488 499.48C898.356 499.564 898.25 499.666 898.17 499.786C898.094 499.906 898.056 500.052 898.056 500.224C898.056 500.392 898.098 500.548 898.182 500.692C898.266 500.832 898.394 500.944 898.566 501.028C898.738 501.112 898.958 501.154 899.226 501.154ZM904.126 494.458V493.24H905.38V494.458H904.126ZM904.126 502V495.52H905.38V502H904.126ZM911.73 502V498.814C911.73 498.562 911.708 498.304 911.664 498.04C911.624 497.772 911.544 497.524 911.424 497.296C911.308 497.068 911.142 496.884 910.926 496.744C910.714 496.604 910.436 496.534 910.092 496.534C909.868 496.534 909.656 496.572 909.456 496.648C909.256 496.72 909.08 496.838 908.928 497.002C908.78 497.166 908.662 497.382 908.574 497.65C908.49 497.918 908.448 498.244 908.448 498.628L907.668 498.334C907.668 497.746 907.778 497.228 907.998 496.78C908.218 496.328 908.534 495.976 908.946 495.724C909.358 495.472 909.856 495.346 910.44 495.346C910.888 495.346 911.264 495.418 911.568 495.562C911.872 495.706 912.118 495.896 912.306 496.132C912.498 496.364 912.644 496.618 912.744 496.894C912.844 497.17 912.912 497.44 912.948 497.704C912.984 497.968 913.002 498.2 913.002 498.4V502H911.73ZM907.176 502V495.52H908.298V497.392H908.448V502H907.176ZM922.329 502L922.335 497.962C922.335 497.494 922.215 497.13 921.975 496.87C921.735 496.606 921.419 496.474 921.027 496.474C920.787 496.474 920.567 496.53 920.367 496.642C920.171 496.75 920.011 496.914 919.887 497.134C919.767 497.35 919.707 497.622 919.707 497.95L919.101 497.644C919.093 497.188 919.189 496.788 919.389 496.444C919.593 496.1 919.869 495.834 920.217 495.646C920.565 495.454 920.955 495.358 921.387 495.358C922.087 495.358 922.629 495.568 923.013 495.988C923.397 496.408 923.589 496.966 923.589 497.662L923.583 502H922.329ZM914.559 502V495.52H915.675V497.392H915.819V502H914.559ZM918.447 502L918.453 497.986C918.453 497.514 918.333 497.144 918.093 496.876C917.857 496.608 917.539 496.474 917.139 496.474C916.743 496.474 916.423 496.61 916.179 496.882C915.939 497.154 915.819 497.51 915.819 497.95L915.219 497.566C915.219 497.142 915.321 496.764 915.525 496.432C915.729 496.1 916.005 495.838 916.353 495.646C916.701 495.454 917.095 495.358 917.535 495.358C917.995 495.358 918.387 495.456 918.711 495.652C919.035 495.844 919.281 496.114 919.449 496.462C919.621 496.81 919.707 497.214 919.707 497.674L919.701 502H918.447ZM927.939 502.18C927.295 502.18 926.729 502.04 926.241 501.76C925.757 501.476 925.379 501.082 925.107 500.578C924.839 500.07 924.705 499.482 924.705 498.814C924.705 498.106 924.837 497.492 925.101 496.972C925.369 496.452 925.741 496.05 926.217 495.766C926.693 495.482 927.247 495.34 927.879 495.34C928.539 495.34 929.101 495.494 929.565 495.802C930.029 496.106 930.375 496.54 930.603 497.104C930.835 497.668 930.927 498.338 930.879 499.114H929.625V498.658C929.617 497.906 929.473 497.35 929.193 496.99C928.917 496.63 928.495 496.45 927.927 496.45C927.299 496.45 926.827 496.648 926.511 497.044C926.195 497.44 926.037 498.012 926.037 498.76C926.037 499.472 926.195 500.024 926.511 500.416C926.827 500.804 927.283 500.998 927.879 500.998C928.271 500.998 928.609 500.91 928.893 500.734C929.181 500.554 929.405 500.298 929.565 499.966L930.795 500.356C930.543 500.936 930.161 501.386 929.649 501.706C929.137 502.022 928.567 502.18 927.939 502.18ZM925.629 499.114V498.136H930.255V499.114H925.629ZM936.597 502V498.814C936.597 498.562 936.575 498.304 936.531 498.04C936.491 497.772 936.411 497.524 936.291 497.296C936.175 497.068 936.009 496.884 935.793 496.744C935.581 496.604 935.303 496.534 934.959 496.534C934.735 496.534 934.523 496.572 934.323 496.648C934.123 496.72 933.947 496.838 933.795 497.002C933.647 497.166 933.529 497.382 933.441 497.65C933.357 497.918 933.315 498.244 933.315 498.628L932.535 498.334C932.535 497.746 932.645 497.228 932.865 496.78C933.085 496.328 933.401 495.976 933.813 495.724C934.225 495.472 934.723 495.346 935.307 495.346C935.755 495.346 936.131 495.418 936.435 495.562C936.739 495.706 936.985 495.896 937.173 496.132C937.365 496.364 937.511 496.618 937.611 496.894C937.711 497.17 937.779 497.44 937.815 497.704C937.851 497.968 937.869 498.2 937.869 498.4V502H936.597ZM932.043 502V495.52H933.165V497.392H933.315V502H932.043ZM943.14 502C942.732 502.08 942.332 502.114 941.94 502.102C941.548 502.09 941.198 502.014 940.89 501.874C940.582 501.734 940.35 501.514 940.194 501.214C940.054 500.946 939.978 500.674 939.966 500.398C939.958 500.118 939.954 499.802 939.954 499.45V493.72H941.214V499.39C941.214 499.65 941.216 499.876 941.22 500.068C941.228 500.26 941.27 500.422 941.346 500.554C941.49 500.802 941.718 500.944 942.03 500.98C942.346 501.012 942.716 500.998 943.14 500.938V502ZM938.712 496.528V495.52H943.14V496.528H938.712Z" fill="#020000"/>
<path opacity="0.4" d="M401.388 125L404.196 116.36H406.002L408.81 125H407.508L404.922 117.116H405.246L402.69 125H401.388ZM402.846 123.05V121.874H407.358V123.05H402.846ZM412.659 125.18C411.995 125.18 411.431 125.032 410.967 124.736C410.503 124.44 410.147 124.034 409.899 123.518C409.655 123.002 409.531 122.416 409.527 121.76C409.531 121.092 409.659 120.502 409.911 119.99C410.163 119.474 410.523 119.07 410.991 118.778C411.459 118.486 412.021 118.34 412.677 118.34C413.385 118.34 413.989 118.516 414.489 118.868C414.993 119.22 415.325 119.702 415.485 120.314L414.237 120.674C414.113 120.31 413.909 120.028 413.625 119.828C413.345 119.624 413.023 119.522 412.659 119.522C412.247 119.522 411.909 119.62 411.645 119.816C411.381 120.008 411.185 120.272 411.057 120.608C410.929 120.944 410.863 121.328 410.859 121.76C410.863 122.428 411.015 122.968 411.315 123.38C411.619 123.792 412.067 123.998 412.659 123.998C413.063 123.998 413.389 123.906 413.637 123.722C413.889 123.534 414.081 123.266 414.213 122.918L415.485 123.218C415.273 123.85 414.923 124.336 414.435 124.676C413.947 125.012 413.355 125.18 412.659 125.18ZM419.303 125.18C418.639 125.18 418.075 125.032 417.611 124.736C417.147 124.44 416.791 124.034 416.543 123.518C416.299 123.002 416.175 122.416 416.171 121.76C416.175 121.092 416.303 120.502 416.555 119.99C416.807 119.474 417.167 119.07 417.635 118.778C418.103 118.486 418.665 118.34 419.321 118.34C420.029 118.34 420.633 118.516 421.133 118.868C421.637 119.22 421.969 119.702 422.129 120.314L420.881 120.674C420.757 120.31 420.553 120.028 420.269 119.828C419.989 119.624 419.667 119.522 419.303 119.522C418.891 119.522 418.553 119.62 418.289 119.816C418.025 120.008 417.829 120.272 417.701 120.608C417.573 120.944 417.507 121.328 417.503 121.76C417.507 122.428 417.659 122.968 417.959 123.38C418.263 123.792 418.711 123.998 419.303 123.998C419.707 123.998 420.033 123.906 420.281 123.722C420.533 123.534 420.725 123.266 420.857 122.918L422.129 123.218C421.917 123.85 421.567 124.336 421.079 124.676C420.591 125.012 419.999 125.18 419.303 125.18ZM426.05 125.18C425.406 125.18 424.84 125.04 424.352 124.76C423.868 124.476 423.49 124.082 423.218 123.578C422.95 123.07 422.816 122.482 422.816 121.814C422.816 121.106 422.948 120.492 423.212 119.972C423.48 119.452 423.852 119.05 424.328 118.766C424.804 118.482 425.358 118.34 425.99 118.34C426.65 118.34 427.212 118.494 427.676 118.802C428.14 119.106 428.486 119.54 428.714 120.104C428.946 120.668 429.038 121.338 428.99 122.114H427.736V121.658C427.728 120.906 427.584 120.35 427.304 119.99C427.028 119.63 426.606 119.45 426.038 119.45C425.41 119.45 424.938 119.648 424.622 120.044C424.306 120.44 424.148 121.012 424.148 121.76C424.148 122.472 424.306 123.024 424.622 123.416C424.938 123.804 425.394 123.998 425.99 123.998C426.382 123.998 426.72 123.91 427.004 123.734C427.292 123.554 427.516 123.298 427.676 122.966L428.906 123.356C428.654 123.936 428.272 124.386 427.76 124.706C427.248 125.022 426.678 125.18 426.05 125.18ZM423.74 122.114V121.136H428.366V122.114H423.74ZM432.814 125.174C432.026 125.174 431.384 125 430.888 124.652C430.392 124.304 430.088 123.814 429.976 123.182L431.26 122.984C431.34 123.32 431.524 123.586 431.812 123.782C432.104 123.974 432.466 124.07 432.898 124.07C433.29 124.07 433.596 123.99 433.816 123.83C434.04 123.67 434.152 123.45 434.152 123.17C434.152 123.006 434.112 122.874 434.032 122.774C433.956 122.67 433.794 122.572 433.546 122.48C433.298 122.388 432.92 122.274 432.412 122.138C431.856 121.994 431.414 121.84 431.086 121.676C430.762 121.508 430.53 121.314 430.39 121.094C430.254 120.87 430.186 120.6 430.186 120.284C430.186 119.892 430.29 119.55 430.498 119.258C430.706 118.966 430.998 118.74 431.374 118.58C431.754 118.42 432.198 118.34 432.706 118.34C433.202 118.34 433.644 118.418 434.032 118.574C434.42 118.73 434.734 118.952 434.974 119.24C435.214 119.524 435.358 119.858 435.406 120.242L434.122 120.476C434.078 120.164 433.932 119.918 433.684 119.738C433.436 119.558 433.114 119.46 432.718 119.444C432.338 119.428 432.03 119.492 431.794 119.636C431.558 119.776 431.44 119.97 431.44 120.218C431.44 120.362 431.484 120.484 431.572 120.584C431.664 120.684 431.84 120.78 432.1 120.872C432.36 120.964 432.744 121.074 433.252 121.202C433.796 121.342 434.228 121.498 434.548 121.67C434.868 121.838 435.096 122.04 435.232 122.276C435.372 122.508 435.442 122.79 435.442 123.122C435.442 123.762 435.208 124.264 434.74 124.628C434.276 124.992 433.634 125.174 432.814 125.174ZM439.248 125.174C438.46 125.174 437.818 125 437.322 124.652C436.826 124.304 436.522 123.814 436.41 123.182L437.694 122.984C437.774 123.32 437.958 123.586 438.246 123.782C438.538 123.974 438.9 124.07 439.332 124.07C439.724 124.07 440.03 123.99 440.25 123.83C440.474 123.67 440.586 123.45 440.586 123.17C440.586 123.006 440.546 122.874 440.466 122.774C440.39 122.67 440.228 122.572 439.98 122.48C439.732 122.388 439.354 122.274 438.846 122.138C438.29 121.994 437.848 121.84 437.52 121.676C437.196 121.508 436.964 121.314 436.824 121.094C436.688 120.87 436.62 120.6 436.62 120.284C436.62 119.892 436.724 119.55 436.932 119.258C437.14 118.966 437.432 118.74 437.808 118.58C438.188 118.42 438.632 118.34 439.14 118.34C439.636 118.34 440.078 118.418 440.466 118.574C440.854 118.73 441.168 118.952 441.408 119.24C441.648 119.524 441.792 119.858 441.84 120.242L440.556 120.476C440.512 120.164 440.366 119.918 440.118 119.738C439.87 119.558 439.548 119.46 439.152 119.444C438.772 119.428 438.464 119.492 438.228 119.636C437.992 119.776 437.874 119.97 437.874 120.218C437.874 120.362 437.918 120.484 438.006 120.584C438.098 120.684 438.274 120.78 438.534 120.872C438.794 120.964 439.178 121.074 439.686 121.202C440.23 121.342 440.662 121.498 440.982 121.67C441.302 121.838 441.53 122.04 441.666 122.276C441.806 122.508 441.876 122.79 441.876 123.122C441.876 123.762 441.642 124.264 441.174 124.628C440.71 124.992 440.068 125.174 439.248 125.174ZM443.323 117.458V116.24H444.577V117.458H443.323ZM443.323 125V118.52H444.577V125H443.323ZM449.421 125.18C448.801 125.18 448.281 125.03 447.861 124.73C447.441 124.426 447.123 124.016 446.907 123.5C446.691 122.984 446.583 122.402 446.583 121.754C446.583 121.106 446.689 120.524 446.901 120.008C447.117 119.492 447.433 119.086 447.849 118.79C448.269 118.49 448.785 118.34 449.397 118.34C450.005 118.34 450.529 118.49 450.969 118.79C451.413 119.086 451.755 119.492 451.995 120.008C452.235 120.52 452.355 121.102 452.355 121.754C452.355 122.402 452.235 122.986 451.995 123.506C451.759 124.022 451.421 124.43 450.981 124.73C450.545 125.03 450.025 125.18 449.421 125.18ZM446.373 125V116.36H447.633V120.338H447.489V125H446.373ZM449.247 124.046C449.647 124.046 449.977 123.944 450.237 123.74C450.501 123.536 450.697 123.262 450.825 122.918C450.957 122.57 451.023 122.182 451.023 121.754C451.023 121.33 450.957 120.946 450.825 120.602C450.697 120.258 450.499 119.984 450.231 119.78C449.963 119.576 449.621 119.474 449.205 119.474C448.813 119.474 448.489 119.57 448.233 119.762C447.981 119.954 447.793 120.222 447.669 120.566C447.549 120.91 447.489 121.306 447.489 121.754C447.489 122.202 447.549 122.598 447.669 122.942C447.789 123.286 447.979 123.556 448.239 123.752C448.499 123.948 448.835 124.046 449.247 124.046ZM453.8 117.458V116.24H455.054V117.458H453.8ZM453.8 125V118.52H455.054V125H453.8ZM456.976 125V116.18H458.23V125H456.976ZM460.151 117.458V116.24H461.405V117.458H460.151ZM460.151 125V118.52H461.405V125H460.151ZM466.915 125C466.507 125.08 466.107 125.114 465.715 125.102C465.323 125.09 464.973 125.014 464.665 124.874C464.357 124.734 464.125 124.514 463.969 124.214C463.829 123.946 463.753 123.674 463.741 123.398C463.733 123.118 463.729 122.802 463.729 122.45V116.72H464.989V122.39C464.989 122.65 464.991 122.876 464.995 123.068C465.003 123.26 465.045 123.422 465.121 123.554C465.265 123.802 465.493 123.944 465.805 123.98C466.121 124.012 466.491 123.998 466.915 123.938V125ZM462.487 119.528V118.52H466.915V119.528H462.487ZM468.982 127.88L470.236 124.466L470.254 125.474L467.428 118.52H468.736L470.848 123.89H470.464L472.48 118.52H473.752L470.176 127.88H468.982Z" fill="#020000"/>
<path opacity="0.4" d="M1271.89 247.18C1271.03 247.18 1270.29 246.992 1269.69 246.616C1269.08 246.236 1268.61 245.708 1268.29 245.032C1267.97 244.356 1267.81 243.572 1267.81 242.68C1267.81 241.788 1267.97 241.004 1268.29 240.328C1268.61 239.652 1269.08 239.126 1269.69 238.75C1270.29 238.37 1271.03 238.18 1271.89 238.18C1272.89 238.18 1273.71 238.432 1274.37 238.936C1275.02 239.44 1275.48 240.118 1275.73 240.97L1274.46 241.312C1274.29 240.708 1273.99 240.234 1273.56 239.89C1273.13 239.546 1272.58 239.374 1271.89 239.374C1271.28 239.374 1270.77 239.512 1270.36 239.788C1269.96 240.064 1269.65 240.45 1269.44 240.946C1269.24 241.442 1269.13 242.02 1269.13 242.68C1269.13 243.34 1269.23 243.918 1269.43 244.414C1269.64 244.91 1269.95 245.296 1270.36 245.572C1270.77 245.848 1271.28 245.986 1271.89 245.986C1272.58 245.986 1273.13 245.814 1273.56 245.47C1273.99 245.122 1274.29 244.648 1274.46 244.048L1275.73 244.39C1275.48 245.242 1275.02 245.92 1274.37 246.424C1273.71 246.928 1272.89 247.18 1271.89 247.18ZM1279.87 247.18C1279.22 247.18 1278.66 247.034 1278.18 246.742C1277.7 246.45 1277.34 246.048 1277.08 245.536C1276.82 245.02 1276.69 244.426 1276.69 243.754C1276.69 243.078 1276.82 242.484 1277.09 241.972C1277.35 241.456 1277.72 241.056 1278.2 240.772C1278.67 240.484 1279.23 240.34 1279.87 240.34C1280.51 240.34 1281.08 240.486 1281.55 240.778C1282.03 241.07 1282.4 241.472 1282.66 241.984C1282.92 242.496 1283.05 243.086 1283.05 243.754C1283.05 244.43 1282.91 245.026 1282.65 245.542C1282.39 246.054 1282.02 246.456 1281.55 246.748C1281.07 247.036 1280.51 247.18 1279.87 247.18ZM1279.87 245.998C1280.49 245.998 1280.95 245.79 1281.25 245.374C1281.56 244.954 1281.71 244.414 1281.71 243.754C1281.71 243.078 1281.56 242.538 1281.25 242.134C1280.94 241.726 1280.48 241.522 1279.87 241.522C1279.45 241.522 1279.1 241.618 1278.83 241.81C1278.56 241.998 1278.35 242.26 1278.22 242.596C1278.09 242.928 1278.02 243.314 1278.02 243.754C1278.02 244.434 1278.18 244.978 1278.49 245.386C1278.8 245.794 1279.26 245.998 1279.87 245.998ZM1284.49 247V238.18H1285.74V247H1284.49ZM1287.66 247V238.18H1288.92V247H1287.66ZM1292.55 247.18C1292.07 247.18 1291.66 247.092 1291.34 246.916C1291.02 246.736 1290.77 246.5 1290.6 246.208C1290.44 245.912 1290.36 245.588 1290.36 245.236C1290.36 244.908 1290.41 244.62 1290.53 244.372C1290.65 244.124 1290.82 243.914 1291.05 243.742C1291.27 243.566 1291.55 243.424 1291.89 243.316C1292.17 243.232 1292.5 243.158 1292.86 243.094C1293.23 243.03 1293.61 242.97 1294.01 242.914C1294.41 242.858 1294.81 242.802 1295.21 242.746L1294.75 242.998C1294.76 242.49 1294.65 242.114 1294.43 241.87C1294.21 241.622 1293.83 241.498 1293.29 241.498C1292.95 241.498 1292.64 241.578 1292.35 241.738C1292.07 241.894 1291.87 242.154 1291.76 242.518L1290.59 242.158C1290.75 241.602 1291.05 241.16 1291.5 240.832C1291.95 240.504 1292.55 240.34 1293.3 240.34C1293.88 240.34 1294.39 240.44 1294.81 240.64C1295.25 240.836 1295.56 241.148 1295.76 241.576C1295.87 241.788 1295.93 242.012 1295.95 242.248C1295.98 242.484 1295.99 242.738 1295.99 243.01V247H1294.88V245.518L1295.1 245.71C1294.83 246.206 1294.49 246.576 1294.07 246.82C1293.66 247.06 1293.15 247.18 1292.55 247.18ZM1292.77 246.154C1293.12 246.154 1293.43 246.092 1293.69 245.968C1293.94 245.84 1294.15 245.678 1294.3 245.482C1294.46 245.286 1294.56 245.082 1294.61 244.87C1294.68 244.678 1294.72 244.462 1294.72 244.222C1294.74 243.982 1294.74 243.79 1294.74 243.646L1295.15 243.796C1294.75 243.856 1294.39 243.91 1294.07 243.958C1293.75 244.006 1293.45 244.054 1293.19 244.102C1292.93 244.146 1292.7 244.2 1292.49 244.264C1292.32 244.324 1292.17 244.396 1292.03 244.48C1291.9 244.564 1291.79 244.666 1291.71 244.786C1291.64 244.906 1291.6 245.052 1291.6 245.224C1291.6 245.392 1291.64 245.548 1291.72 245.692C1291.81 245.832 1291.94 245.944 1292.11 246.028C1292.28 246.112 1292.5 246.154 1292.77 246.154ZM1300.59 247.18C1299.97 247.18 1299.45 247.03 1299.03 246.73C1298.61 246.426 1298.29 246.016 1298.08 245.5C1297.86 244.984 1297.75 244.402 1297.75 243.754C1297.75 243.106 1297.86 242.524 1298.07 242.008C1298.29 241.492 1298.6 241.086 1299.02 240.79C1299.44 240.49 1299.95 240.34 1300.57 240.34C1301.17 240.34 1301.7 240.49 1302.14 240.79C1302.58 241.086 1302.92 241.492 1303.16 242.008C1303.4 242.52 1303.52 243.102 1303.52 243.754C1303.52 244.402 1303.4 244.986 1303.16 245.506C1302.93 246.022 1302.59 246.43 1302.15 246.73C1301.71 247.03 1301.19 247.18 1300.59 247.18ZM1297.54 247V238.36H1298.8V242.338H1298.66V247H1297.54ZM1300.42 246.046C1300.82 246.046 1301.15 245.944 1301.41 245.74C1301.67 245.536 1301.87 245.262 1301.99 244.918C1302.13 244.57 1302.19 244.182 1302.19 243.754C1302.19 243.33 1302.13 242.946 1301.99 242.602C1301.87 242.258 1301.67 241.984 1301.4 241.78C1301.13 241.576 1300.79 241.474 1300.37 241.474C1299.98 241.474 1299.66 241.57 1299.4 241.762C1299.15 241.954 1298.96 242.222 1298.84 242.566C1298.72 242.91 1298.66 243.306 1298.66 243.754C1298.66 244.202 1298.72 244.598 1298.84 244.942C1298.96 245.286 1299.15 245.556 1299.41 245.752C1299.67 245.948 1300 246.046 1300.42 246.046ZM1307.66 247.18C1307.02 247.18 1306.45 247.034 1305.98 246.742C1305.5 246.45 1305.13 246.048 1304.87 245.536C1304.62 245.02 1304.49 244.426 1304.49 243.754C1304.49 243.078 1304.62 242.484 1304.89 241.972C1305.15 241.456 1305.52 241.056 1306 240.772C1306.47 240.484 1307.03 240.34 1307.66 240.34C1308.31 240.34 1308.87 240.486 1309.35 240.778C1309.83 241.07 1310.19 241.472 1310.45 241.984C1310.71 242.496 1310.84 243.086 1310.84 243.754C1310.84 244.43 1310.71 245.026 1310.45 245.542C1310.19 246.054 1309.82 246.456 1309.34 246.748C1308.87 247.036 1308.31 247.18 1307.66 247.18ZM1307.66 245.998C1308.28 245.998 1308.75 245.79 1309.05 245.374C1309.36 244.954 1309.51 244.414 1309.51 243.754C1309.51 243.078 1309.36 242.538 1309.04 242.134C1308.74 241.726 1308.28 241.522 1307.66 241.522C1307.24 241.522 1306.9 241.618 1306.63 241.81C1306.35 241.998 1306.15 242.26 1306.02 242.596C1305.89 242.928 1305.82 243.314 1305.82 243.754C1305.82 244.434 1305.98 244.978 1306.29 245.386C1306.6 245.794 1307.06 245.998 1307.66 245.998ZM1312.16 247V240.52H1313.28V242.092L1313.12 241.888C1313.2 241.68 1313.31 241.49 1313.43 241.318C1313.56 241.142 1313.71 240.998 1313.88 240.886C1314.04 240.766 1314.22 240.674 1314.42 240.61C1314.63 240.542 1314.84 240.502 1315.05 240.49C1315.26 240.474 1315.46 240.484 1315.66 240.52V241.696C1315.45 241.64 1315.21 241.624 1314.95 241.648C1314.7 241.672 1314.46 241.754 1314.24 241.894C1314.04 242.026 1313.88 242.186 1313.76 242.374C1313.64 242.562 1313.56 242.772 1313.51 243.004C1313.45 243.232 1313.43 243.474 1313.43 243.73V247H1312.16ZM1318.45 247.18C1317.97 247.18 1317.56 247.092 1317.24 246.916C1316.92 246.736 1316.67 246.5 1316.5 246.208C1316.34 245.912 1316.26 245.588 1316.26 245.236C1316.26 244.908 1316.31 244.62 1316.43 244.372C1316.55 244.124 1316.72 243.914 1316.95 243.742C1317.17 243.566 1317.45 243.424 1317.79 243.316C1318.07 243.232 1318.4 243.158 1318.76 243.094C1319.13 243.03 1319.51 242.97 1319.91 242.914C1320.31 242.858 1320.71 242.802 1321.11 242.746L1320.65 242.998C1320.66 242.49 1320.55 242.114 1320.33 241.87C1320.11 241.622 1319.73 241.498 1319.19 241.498C1318.85 241.498 1318.54 241.578 1318.25 241.738C1317.97 241.894 1317.77 242.154 1317.66 242.518L1316.49 242.158C1316.65 241.602 1316.95 241.16 1317.4 240.832C1317.85 240.504 1318.45 240.34 1319.2 240.34C1319.78 240.34 1320.29 240.44 1320.71 240.64C1321.15 240.836 1321.46 241.148 1321.66 241.576C1321.77 241.788 1321.83 242.012 1321.85 242.248C1321.88 242.484 1321.89 242.738 1321.89 243.01V247H1320.78V245.518L1321 245.71C1320.73 246.206 1320.39 246.576 1319.97 246.82C1319.56 247.06 1319.05 247.18 1318.45 247.18ZM1318.67 246.154C1319.02 246.154 1319.33 246.092 1319.59 245.968C1319.84 245.84 1320.05 245.678 1320.2 245.482C1320.36 245.286 1320.46 245.082 1320.51 244.87C1320.58 244.678 1320.62 244.462 1320.62 244.222C1320.64 243.982 1320.64 243.79 1320.64 243.646L1321.05 243.796C1320.65 243.856 1320.29 243.91 1319.97 243.958C1319.65 244.006 1319.35 244.054 1319.09 244.102C1318.83 244.146 1318.6 244.2 1318.39 244.264C1318.22 244.324 1318.07 244.396 1317.93 244.48C1317.8 244.564 1317.69 244.666 1317.61 244.786C1317.54 244.906 1317.5 245.052 1317.5 245.224C1317.5 245.392 1317.54 245.548 1317.62 245.692C1317.71 245.832 1317.84 245.944 1318.01 246.028C1318.18 246.112 1318.4 246.154 1318.67 246.154ZM1327.16 247C1326.75 247.08 1326.35 247.114 1325.96 247.102C1325.56 247.09 1325.21 247.014 1324.91 246.874C1324.6 246.734 1324.37 246.514 1324.21 246.214C1324.07 245.946 1323.99 245.674 1323.98 245.398C1323.97 245.118 1323.97 244.802 1323.97 244.45V238.72H1325.23V244.39C1325.23 244.65 1325.23 244.876 1325.24 245.068C1325.24 245.26 1325.29 245.422 1325.36 245.554C1325.51 245.802 1325.73 245.944 1326.05 245.98C1326.36 246.012 1326.73 245.998 1327.16 245.938V247ZM1322.73 241.528V240.52H1327.16V241.528H1322.73ZM1328.64 239.458V238.24H1329.9V239.458H1328.64ZM1328.64 247V240.52H1329.9V247H1328.64ZM1334.51 247.18C1333.86 247.18 1333.3 247.034 1332.83 246.742C1332.35 246.45 1331.98 246.048 1331.72 245.536C1331.47 245.02 1331.34 244.426 1331.34 243.754C1331.34 243.078 1331.47 242.484 1331.73 241.972C1332 241.456 1332.37 241.056 1332.84 240.772C1333.32 240.484 1333.88 240.34 1334.51 240.34C1335.16 240.34 1335.72 240.486 1336.2 240.778C1336.67 241.07 1337.04 241.472 1337.3 241.984C1337.56 242.496 1337.69 243.086 1337.69 243.754C1337.69 244.43 1337.56 245.026 1337.3 245.542C1337.04 246.054 1336.67 246.456 1336.19 246.748C1335.72 247.036 1335.16 247.18 1334.51 247.18ZM1334.51 245.998C1335.13 245.998 1335.59 245.79 1335.9 245.374C1336.21 244.954 1336.36 244.414 1336.36 243.754C1336.36 243.078 1336.2 242.538 1335.89 242.134C1335.58 241.726 1335.12 241.522 1334.51 241.522C1334.09 241.522 1333.75 241.618 1333.47 241.81C1333.2 241.998 1333 242.26 1332.87 242.596C1332.74 242.928 1332.67 243.314 1332.67 243.754C1332.67 244.434 1332.83 244.978 1333.14 245.386C1333.45 245.794 1333.91 245.998 1334.51 245.998ZM1343.56 247V243.814C1343.56 243.562 1343.54 243.304 1343.49 243.04C1343.45 242.772 1343.37 242.524 1343.25 242.296C1343.14 242.068 1342.97 241.884 1342.75 241.744C1342.54 241.604 1342.26 241.534 1341.92 241.534C1341.7 241.534 1341.48 241.572 1341.28 241.648C1341.08 241.72 1340.91 241.838 1340.76 242.002C1340.61 242.166 1340.49 242.382 1340.4 242.65C1340.32 242.918 1340.28 243.244 1340.28 243.628L1339.5 243.334C1339.5 242.746 1339.61 242.228 1339.83 241.78C1340.05 241.328 1340.36 240.976 1340.77 240.724C1341.19 240.472 1341.68 240.346 1342.27 240.346C1342.72 240.346 1343.09 240.418 1343.4 240.562C1343.7 240.706 1343.95 240.896 1344.13 241.132C1344.33 241.364 1344.47 241.618 1344.57 241.894C1344.67 242.17 1344.74 242.44 1344.78 242.704C1344.81 242.968 1344.83 243.2 1344.83 243.4V247H1343.56ZM1339 247V240.52H1340.13V242.392H1340.28V247H1339Z" fill="#020000"/>
<path opacity="0.4" d="M1623.23 472.18C1622.61 472.18 1622.05 472.074 1621.55 471.862C1621.05 471.646 1620.64 471.34 1620.32 470.944C1620 470.544 1619.79 470.07 1619.7 469.522L1621 469.324C1621.14 469.852 1621.41 470.264 1621.83 470.56C1622.25 470.852 1622.74 470.998 1623.3 470.998C1623.65 470.998 1623.97 470.944 1624.26 470.836C1624.55 470.724 1624.79 470.566 1624.96 470.362C1625.14 470.154 1625.23 469.906 1625.23 469.618C1625.23 469.462 1625.21 469.324 1625.15 469.204C1625.1 469.084 1625.02 468.98 1624.93 468.892C1624.84 468.8 1624.72 468.722 1624.59 468.658C1624.45 468.59 1624.31 468.532 1624.15 468.484L1621.93 467.83C1621.72 467.766 1621.5 467.684 1621.27 467.584C1621.05 467.48 1620.84 467.346 1620.66 467.182C1620.47 467.014 1620.32 466.808 1620.21 466.564C1620.09 466.316 1620.03 466.016 1620.03 465.664C1620.03 465.132 1620.17 464.682 1620.44 464.314C1620.72 463.942 1621.09 463.662 1621.56 463.474C1622.02 463.282 1622.55 463.186 1623.13 463.186C1623.71 463.194 1624.23 463.298 1624.69 463.498C1625.16 463.698 1625.54 463.986 1625.85 464.362C1626.15 464.734 1626.37 465.186 1626.48 465.718L1625.14 465.946C1625.08 465.622 1624.95 465.344 1624.75 465.112C1624.56 464.876 1624.32 464.696 1624.03 464.572C1623.75 464.444 1623.44 464.378 1623.11 464.374C1622.79 464.366 1622.5 464.414 1622.23 464.518C1621.96 464.622 1621.75 464.768 1621.59 464.956C1621.44 465.144 1621.36 465.36 1621.36 465.604C1621.36 465.844 1621.43 466.038 1621.57 466.186C1621.71 466.334 1621.88 466.452 1622.08 466.54C1622.29 466.624 1622.5 466.694 1622.7 466.75L1624.3 467.2C1624.5 467.256 1624.72 467.332 1624.98 467.428C1625.23 467.52 1625.48 467.65 1625.71 467.818C1625.95 467.986 1626.15 468.21 1626.31 468.49C1626.46 468.766 1626.54 469.114 1626.54 469.534C1626.54 469.97 1626.45 470.354 1626.28 470.686C1626.1 471.014 1625.86 471.29 1625.55 471.514C1625.25 471.734 1624.9 471.9 1624.5 472.012C1624.1 472.124 1623.67 472.18 1623.23 472.18ZM1630.86 472.18C1630.24 472.18 1629.72 472.03 1629.3 471.73C1628.88 471.426 1628.56 471.016 1628.35 470.5C1628.13 469.984 1628.02 469.402 1628.02 468.754C1628.02 468.106 1628.13 467.524 1628.34 467.008C1628.56 466.492 1628.87 466.086 1629.29 465.79C1629.71 465.49 1630.23 465.34 1630.84 465.34C1631.45 465.34 1631.97 465.49 1632.41 465.79C1632.85 466.086 1633.2 466.492 1633.44 467.008C1633.68 467.52 1633.8 468.102 1633.8 468.754C1633.8 469.402 1633.68 469.986 1633.44 470.506C1633.2 471.022 1632.86 471.43 1632.42 471.73C1631.99 472.03 1631.47 472.18 1630.86 472.18ZM1627.81 474.88V465.52H1628.93V470.182H1629.07V474.88H1627.81ZM1630.69 471.046C1631.09 471.046 1631.42 470.944 1631.68 470.74C1631.94 470.536 1632.14 470.262 1632.27 469.918C1632.4 469.57 1632.46 469.182 1632.46 468.754C1632.46 468.33 1632.4 467.946 1632.27 467.602C1632.14 467.258 1631.94 466.984 1631.67 466.78C1631.4 466.576 1631.06 466.474 1630.65 466.474C1630.25 466.474 1629.93 466.57 1629.67 466.762C1629.42 466.954 1629.23 467.222 1629.11 467.566C1628.99 467.91 1628.93 468.306 1628.93 468.754C1628.93 469.202 1628.99 469.598 1629.11 469.942C1629.23 470.286 1629.42 470.556 1629.68 470.752C1629.94 470.948 1630.28 471.046 1630.69 471.046ZM1637.94 472.18C1637.29 472.18 1636.73 472.034 1636.25 471.742C1635.77 471.45 1635.41 471.048 1635.15 470.536C1634.89 470.02 1634.76 469.426 1634.76 468.754C1634.76 468.078 1634.89 467.484 1635.16 466.972C1635.42 466.456 1635.79 466.056 1636.27 465.772C1636.74 465.484 1637.3 465.34 1637.94 465.34C1638.58 465.34 1639.15 465.486 1639.62 465.778C1640.1 466.07 1640.47 466.472 1640.73 466.984C1640.99 467.496 1641.12 468.086 1641.12 468.754C1641.12 469.43 1640.98 470.026 1640.72 470.542C1640.46 471.054 1640.09 471.456 1639.62 471.748C1639.14 472.036 1638.58 472.18 1637.94 472.18ZM1637.94 470.998C1638.56 470.998 1639.02 470.79 1639.32 470.374C1639.63 469.954 1639.78 469.414 1639.78 468.754C1639.78 468.078 1639.63 467.538 1639.32 467.134C1639.01 466.726 1638.55 466.522 1637.94 466.522C1637.52 466.522 1637.17 466.618 1636.9 466.81C1636.63 466.998 1636.42 467.26 1636.29 467.596C1636.16 467.928 1636.09 468.314 1636.09 468.754C1636.09 469.434 1636.25 469.978 1636.56 470.386C1636.87 470.794 1637.33 470.998 1637.94 470.998ZM1642.43 472V465.52H1643.55V467.092L1643.39 466.888C1643.47 466.68 1643.58 466.49 1643.71 466.318C1643.83 466.142 1643.98 465.998 1644.15 465.886C1644.31 465.766 1644.5 465.674 1644.7 465.61C1644.9 465.542 1645.11 465.502 1645.32 465.49C1645.53 465.474 1645.74 465.484 1645.93 465.52V466.696C1645.72 466.64 1645.48 466.624 1645.22 466.648C1644.97 466.672 1644.73 466.754 1644.52 466.894C1644.31 467.026 1644.15 467.186 1644.03 467.374C1643.91 467.562 1643.83 467.772 1643.78 468.004C1643.73 468.232 1643.7 468.474 1643.7 468.73V472H1642.43ZM1650.78 472C1650.37 472.08 1649.97 472.114 1649.58 472.102C1649.19 472.09 1648.84 472.014 1648.53 471.874C1648.22 471.734 1647.99 471.514 1647.84 471.214C1647.7 470.946 1647.62 470.674 1647.61 470.398C1647.6 470.118 1647.6 469.802 1647.6 469.45V463.72H1648.86V469.39C1648.86 469.65 1648.86 469.876 1648.86 470.068C1648.87 470.26 1648.91 470.422 1648.99 470.554C1649.13 470.802 1649.36 470.944 1649.67 470.98C1649.99 471.012 1650.36 470.998 1650.78 470.938V472ZM1646.35 466.528V465.52H1650.78V466.528H1646.35ZM1654.63 472.174C1653.84 472.174 1653.2 472 1652.7 471.652C1652.2 471.304 1651.9 470.814 1651.79 470.182L1653.07 469.984C1653.15 470.32 1653.34 470.586 1653.62 470.782C1653.92 470.974 1654.28 471.07 1654.71 471.07C1655.1 471.07 1655.41 470.99 1655.63 470.83C1655.85 470.67 1655.96 470.45 1655.96 470.17C1655.96 470.006 1655.92 469.874 1655.84 469.774C1655.77 469.67 1655.61 469.572 1655.36 469.48C1655.11 469.388 1654.73 469.274 1654.22 469.138C1653.67 468.994 1653.23 468.84 1652.9 468.676C1652.57 468.508 1652.34 468.314 1652.2 468.094C1652.07 467.87 1652 467.6 1652 467.284C1652 466.892 1652.1 466.55 1652.31 466.258C1652.52 465.966 1652.81 465.74 1653.19 465.58C1653.57 465.42 1654.01 465.34 1654.52 465.34C1655.01 465.34 1655.46 465.418 1655.84 465.574C1656.23 465.73 1656.55 465.952 1656.79 466.24C1657.03 466.524 1657.17 466.858 1657.22 467.242L1655.93 467.476C1655.89 467.164 1655.74 466.918 1655.5 466.738C1655.25 466.558 1654.93 466.46 1654.53 466.444C1654.15 466.428 1653.84 466.492 1653.61 466.636C1653.37 466.776 1653.25 466.97 1653.25 467.218C1653.25 467.362 1653.3 467.484 1653.38 467.584C1653.48 467.684 1653.65 467.78 1653.91 467.872C1654.17 467.964 1654.56 468.074 1655.06 468.202C1655.61 468.342 1656.04 468.498 1656.36 468.67C1656.68 468.838 1656.91 469.04 1657.04 469.276C1657.18 469.508 1657.25 469.79 1657.25 470.122C1657.25 470.762 1657.02 471.264 1656.55 471.628C1656.09 471.992 1655.45 472.174 1654.63 472.174Z" fill="#020000"/>
<path opacity="0.4" d="M540.035 437V428.36H543.527C543.611 428.36 543.715 428.364 543.839 428.372C543.963 428.376 544.081 428.388 544.193 428.408C544.673 428.484 545.073 428.648 545.393 428.9C545.717 429.152 545.959 429.47 546.119 429.854C546.279 430.238 546.359 430.662 546.359 431.126C546.359 431.594 546.279 432.02 546.119 432.404C545.959 432.788 545.717 433.106 545.393 433.358C545.073 433.61 544.673 433.774 544.193 433.85C544.081 433.866 543.961 433.878 543.833 433.886C543.709 433.894 543.607 433.898 543.527 433.898H541.289V437H540.035ZM541.289 432.71H543.479C543.559 432.71 543.647 432.706 543.743 432.698C543.843 432.69 543.937 432.676 544.025 432.656C544.281 432.596 544.487 432.486 544.643 432.326C544.799 432.162 544.911 431.974 544.979 431.762C545.047 431.55 545.081 431.338 545.081 431.126C545.081 430.914 545.047 430.704 544.979 430.496C544.911 430.284 544.799 430.098 544.643 429.938C544.487 429.774 544.281 429.662 544.025 429.602C543.937 429.578 543.843 429.562 543.743 429.554C543.647 429.546 543.559 429.542 543.479 429.542H541.289V432.71ZM550.291 437.18C549.643 437.18 549.081 437.034 548.605 436.742C548.129 436.45 547.761 436.048 547.501 435.536C547.245 435.02 547.117 434.426 547.117 433.754C547.117 433.078 547.249 432.484 547.513 431.972C547.777 431.456 548.147 431.056 548.623 430.772C549.099 430.484 549.655 430.34 550.291 430.34C550.939 430.34 551.501 430.486 551.977 430.778C552.453 431.07 552.821 431.472 553.081 431.984C553.341 432.496 553.471 433.086 553.471 433.754C553.471 434.43 553.339 435.026 553.075 435.542C552.815 436.054 552.447 436.456 551.971 436.748C551.495 437.036 550.935 437.18 550.291 437.18ZM550.291 435.998C550.911 435.998 551.373 435.79 551.677 435.374C551.985 434.954 552.139 434.414 552.139 433.754C552.139 433.078 551.983 432.538 551.671 432.134C551.363 431.726 550.903 431.522 550.291 431.522C549.871 431.522 549.525 431.618 549.253 431.81C548.981 431.998 548.779 432.26 548.647 432.596C548.515 432.928 548.449 433.314 548.449 433.754C548.449 434.434 548.605 434.978 548.917 435.386C549.229 435.794 549.687 435.998 550.291 435.998ZM554.909 437V428.18H556.163V437H554.909ZM558.085 429.458V428.24H559.339V429.458H558.085ZM558.085 437V430.52H559.339V437H558.085ZM564.849 437C564.441 437.08 564.041 437.114 563.649 437.102C563.257 437.09 562.907 437.014 562.599 436.874C562.291 436.734 562.059 436.514 561.903 436.214C561.763 435.946 561.687 435.674 561.675 435.398C561.667 435.118 561.663 434.802 561.663 434.45V428.72H562.923V434.39C562.923 434.65 562.925 434.876 562.929 435.068C562.937 435.26 562.979 435.422 563.055 435.554C563.199 435.802 563.427 435.944 563.739 435.98C564.055 436.012 564.425 435.998 564.849 435.938V437ZM560.421 431.528V430.52H564.849V431.528H560.421ZM566.335 429.458V428.24H567.589V429.458H566.335ZM566.335 437V430.52H567.589V437H566.335ZM572.163 437.18C571.499 437.18 570.935 437.032 570.471 436.736C570.007 436.44 569.651 436.034 569.403 435.518C569.159 435.002 569.035 434.416 569.031 433.76C569.035 433.092 569.163 432.502 569.415 431.99C569.667 431.474 570.027 431.07 570.495 430.778C570.963 430.486 571.525 430.34 572.181 430.34C572.889 430.34 573.493 430.516 573.993 430.868C574.497 431.22 574.829 431.702 574.989 432.314L573.741 432.674C573.617 432.31 573.413 432.028 573.129 431.828C572.849 431.624 572.527 431.522 572.163 431.522C571.751 431.522 571.413 431.62 571.149 431.816C570.885 432.008 570.689 432.272 570.561 432.608C570.433 432.944 570.367 433.328 570.363 433.76C570.367 434.428 570.519 434.968 570.819 435.38C571.123 435.792 571.571 435.998 572.163 435.998C572.567 435.998 572.893 435.906 573.141 435.722C573.393 435.534 573.585 435.266 573.717 434.918L574.989 435.218C574.777 435.85 574.427 436.336 573.939 436.676C573.451 437.012 572.859 437.18 572.163 437.18ZM578.689 437.174C577.901 437.174 577.259 437 576.763 436.652C576.267 436.304 575.963 435.814 575.851 435.182L577.135 434.984C577.215 435.32 577.399 435.586 577.687 435.782C577.979 435.974 578.341 436.07 578.773 436.07C579.165 436.07 579.471 435.99 579.691 435.83C579.915 435.67 580.027 435.45 580.027 435.17C580.027 435.006 579.987 434.874 579.907 434.774C579.831 434.67 579.669 434.572 579.421 434.48C579.173 434.388 578.795 434.274 578.287 434.138C577.731 433.994 577.289 433.84 576.961 433.676C576.637 433.508 576.405 433.314 576.265 433.094C576.129 432.87 576.061 432.6 576.061 432.284C576.061 431.892 576.165 431.55 576.373 431.258C576.581 430.966 576.873 430.74 577.249 430.58C577.629 430.42 578.073 430.34 578.581 430.34C579.077 430.34 579.519 430.418 579.907 430.574C580.295 430.73 580.609 430.952 580.849 431.24C581.089 431.524 581.233 431.858 581.281 432.242L579.997 432.476C579.953 432.164 579.807 431.918 579.559 431.738C579.311 431.558 578.989 431.46 578.593 431.444C578.213 431.428 577.905 431.492 577.669 431.636C577.433 431.776 577.315 431.97 577.315 432.218C577.315 432.362 577.359 432.484 577.447 432.584C577.539 432.684 577.715 432.78 577.975 432.872C578.235 432.964 578.619 433.074 579.127 433.202C579.671 433.342 580.103 433.498 580.423 433.67C580.743 433.838 580.971 434.04 581.107 434.276C581.247 434.508 581.317 434.79 581.317 435.122C581.317 435.762 581.083 436.264 580.615 436.628C580.151 436.992 579.509 437.174 578.689 437.174Z" fill="#020000"/>
<path opacity="0.4" d="M815.26 358V349.36H820.78V350.542H816.514V352.966H820.06V354.148H816.514V356.818H820.78V358H815.26ZM824.795 358.18C824.191 358.18 823.669 358.03 823.229 357.73C822.793 357.43 822.455 357.022 822.215 356.506C821.979 355.986 821.861 355.402 821.861 354.754C821.861 354.102 821.981 353.52 822.221 353.008C822.461 352.492 822.801 352.086 823.241 351.79C823.685 351.49 824.211 351.34 824.819 351.34C825.431 351.34 825.945 351.49 826.361 351.79C826.781 352.086 827.097 352.492 827.309 353.008C827.525 353.524 827.633 354.106 827.633 354.754C827.633 355.402 827.525 355.984 827.309 356.5C827.093 357.016 826.775 357.426 826.355 357.73C825.935 358.03 825.415 358.18 824.795 358.18ZM824.969 357.046C825.381 357.046 825.717 356.948 825.977 356.752C826.237 356.556 826.427 356.286 826.547 355.942C826.667 355.598 826.727 355.202 826.727 354.754C826.727 354.306 826.665 353.91 826.541 353.566C826.421 353.222 826.233 352.954 825.977 352.762C825.725 352.57 825.403 352.474 825.011 352.474C824.595 352.474 824.253 352.576 823.985 352.78C823.717 352.984 823.517 353.258 823.385 353.602C823.257 353.946 823.193 354.33 823.193 354.754C823.193 355.182 823.257 355.57 823.385 355.918C823.517 356.262 823.713 356.536 823.973 356.74C824.237 356.944 824.569 357.046 824.969 357.046ZM826.727 358V353.338H826.583V349.36H827.843V358H826.727ZM831.964 358.174C831.516 358.174 831.14 358.102 830.836 357.958C830.532 357.814 830.284 357.626 830.092 357.394C829.904 357.158 829.76 356.902 829.66 356.626C829.56 356.35 829.492 356.08 829.456 355.816C829.42 355.552 829.402 355.32 829.402 355.12V351.52H830.674V354.706C830.674 354.958 830.694 355.218 830.734 355.486C830.778 355.75 830.858 355.996 830.974 356.224C831.094 356.452 831.26 356.636 831.472 356.776C831.688 356.916 831.968 356.986 832.312 356.986C832.536 356.986 832.748 356.95 832.948 356.878C833.148 356.802 833.322 356.682 833.47 356.518C833.622 356.354 833.74 356.138 833.824 355.87C833.912 355.602 833.956 355.276 833.956 354.892L834.736 355.186C834.736 355.774 834.626 356.294 834.406 356.746C834.186 357.194 833.87 357.544 833.458 357.796C833.046 358.048 832.548 358.174 831.964 358.174ZM834.106 358V356.128H833.956V351.52H835.222V358H834.106ZM839.676 358.18C839.012 358.18 838.448 358.032 837.984 357.736C837.52 357.44 837.164 357.034 836.916 356.518C836.672 356.002 836.548 355.416 836.544 354.76C836.548 354.092 836.676 353.502 836.928 352.99C837.18 352.474 837.54 352.07 838.008 351.778C838.476 351.486 839.038 351.34 839.694 351.34C840.402 351.34 841.006 351.516 841.506 351.868C842.01 352.22 842.342 352.702 842.502 353.314L841.254 353.674C841.13 353.31 840.926 353.028 840.642 352.828C840.362 352.624 840.04 352.522 839.676 352.522C839.264 352.522 838.926 352.62 838.662 352.816C838.398 353.008 838.202 353.272 838.074 353.608C837.946 353.944 837.88 354.328 837.876 354.76C837.88 355.428 838.032 355.968 838.332 356.38C838.636 356.792 839.084 356.998 839.676 356.998C840.08 356.998 840.406 356.906 840.654 356.722C840.906 356.534 841.098 356.266 841.23 355.918L842.502 356.218C842.29 356.85 841.94 357.336 841.452 357.676C840.964 358.012 840.372 358.18 839.676 358.18ZM845.473 358.18C844.993 358.18 844.591 358.092 844.267 357.916C843.943 357.736 843.697 357.5 843.529 357.208C843.365 356.912 843.283 356.588 843.283 356.236C843.283 355.908 843.341 355.62 843.457 355.372C843.573 355.124 843.745 354.914 843.973 354.742C844.201 354.566 844.481 354.424 844.813 354.316C845.101 354.232 845.427 354.158 845.791 354.094C846.155 354.03 846.537 353.97 846.937 353.914C847.341 353.858 847.741 353.802 848.137 353.746L847.681 353.998C847.689 353.49 847.581 353.114 847.357 352.87C847.137 352.622 846.757 352.498 846.217 352.498C845.877 352.498 845.565 352.578 845.281 352.738C844.997 352.894 844.799 353.154 844.687 353.518L843.517 353.158C843.677 352.602 843.981 352.16 844.429 351.832C844.881 351.504 845.481 351.34 846.229 351.34C846.809 351.34 847.313 351.44 847.741 351.64C848.173 351.836 848.489 352.148 848.689 352.576C848.793 352.788 848.857 353.012 848.881 353.248C848.905 353.484 848.917 353.738 848.917 354.01V358H847.807V356.518L848.023 356.71C847.755 357.206 847.413 357.576 846.997 357.82C846.585 358.06 846.077 358.18 845.473 358.18ZM845.695 357.154C846.051 357.154 846.357 357.092 846.613 356.968C846.869 356.84 847.075 356.678 847.231 356.482C847.387 356.286 847.489 356.082 847.537 355.87C847.605 355.678 847.643 355.462 847.651 355.222C847.663 354.982 847.669 354.79 847.669 354.646L848.077 354.796C847.681 354.856 847.321 354.91 846.997 354.958C846.673 355.006 846.379 355.054 846.115 355.102C845.855 355.146 845.623 355.2 845.419 355.264C845.247 355.324 845.093 355.396 844.957 355.48C844.825 355.564 844.719 355.666 844.639 355.786C844.563 355.906 844.525 356.052 844.525 356.224C844.525 356.392 844.567 356.548 844.651 356.692C844.735 356.832 844.863 356.944 845.035 357.028C845.207 357.112 845.427 357.154 845.695 357.154ZM854.183 358C853.775 358.08 853.375 358.114 852.983 358.102C852.591 358.09 852.241 358.014 851.933 357.874C851.625 357.734 851.393 357.514 851.237 357.214C851.097 356.946 851.021 356.674 851.009 356.398C851.001 356.118 850.997 355.802 850.997 355.45V349.72H852.257V355.39C852.257 355.65 852.259 355.876 852.263 356.068C852.271 356.26 852.313 356.422 852.389 356.554C852.533 356.802 852.761 356.944 853.073 356.98C853.389 357.012 853.759 356.998 854.183 356.938V358ZM849.755 352.528V351.52H854.183V352.528H849.755ZM855.669 350.458V349.24H856.923V350.458H855.669ZM855.669 358V351.52H856.923V358H855.669ZM861.539 358.18C860.891 358.18 860.329 358.034 859.853 357.742C859.377 357.45 859.009 357.048 858.749 356.536C858.493 356.02 858.365 355.426 858.365 354.754C858.365 354.078 858.497 353.484 858.761 352.972C859.025 352.456 859.395 352.056 859.871 351.772C860.347 351.484 860.903 351.34 861.539 351.34C862.187 351.34 862.749 351.486 863.225 351.778C863.701 352.07 864.069 352.472 864.329 352.984C864.589 353.496 864.719 354.086 864.719 354.754C864.719 355.43 864.587 356.026 864.323 356.542C864.063 357.054 863.695 357.456 863.219 357.748C862.743 358.036 862.183 358.18 861.539 358.18ZM861.539 356.998C862.159 356.998 862.621 356.79 862.925 356.374C863.233 355.954 863.387 355.414 863.387 354.754C863.387 354.078 863.231 353.538 862.919 353.134C862.611 352.726 862.151 352.522 861.539 352.522C861.119 352.522 860.773 352.618 860.501 352.81C860.229 352.998 860.027 353.26 859.895 353.596C859.763 353.928 859.697 354.314 859.697 354.754C859.697 355.434 859.853 355.978 860.165 356.386C860.477 356.794 860.935 356.998 861.539 356.998ZM870.585 358V354.814C870.585 354.562 870.563 354.304 870.519 354.04C870.479 353.772 870.399 353.524 870.279 353.296C870.163 353.068 869.997 352.884 869.781 352.744C869.569 352.604 869.291 352.534 868.947 352.534C868.723 352.534 868.511 352.572 868.311 352.648C868.111 352.72 867.935 352.838 867.783 353.002C867.635 353.166 867.517 353.382 867.429 353.65C867.345 353.918 867.303 354.244 867.303 354.628L866.523 354.334C866.523 353.746 866.633 353.228 866.853 352.78C867.073 352.328 867.389 351.976 867.801 351.724C868.213 351.472 868.711 351.346 869.295 351.346C869.743 351.346 870.119 351.418 870.423 351.562C870.727 351.706 870.973 351.896 871.161 352.132C871.353 352.364 871.499 352.618 871.599 352.894C871.699 353.17 871.767 353.44 871.803 353.704C871.839 353.968 871.857 354.2 871.857 354.4V358H870.585ZM866.031 358V351.52H867.153V353.392H867.303V358H866.031Z" fill="#020000"/>
<path opacity="0.4" d="M675.301 159V150.36H676.573L680.827 156.78V150.36H682.099V159H680.827L676.573 152.574V159H675.301ZM686.648 159.18C686.004 159.18 685.438 159.04 684.95 158.76C684.466 158.476 684.088 158.082 683.816 157.578C683.548 157.07 683.414 156.482 683.414 155.814C683.414 155.106 683.546 154.492 683.81 153.972C684.078 153.452 684.45 153.05 684.926 152.766C685.402 152.482 685.956 152.34 686.588 152.34C687.248 152.34 687.81 152.494 688.274 152.802C688.738 153.106 689.084 153.54 689.312 154.104C689.544 154.668 689.636 155.338 689.588 156.114H688.334V155.658C688.326 154.906 688.182 154.35 687.902 153.99C687.626 153.63 687.204 153.45 686.636 153.45C686.008 153.45 685.536 153.648 685.22 154.044C684.904 154.44 684.746 155.012 684.746 155.76C684.746 156.472 684.904 157.024 685.22 157.416C685.536 157.804 685.992 157.998 686.588 157.998C686.98 157.998 687.318 157.91 687.602 157.734C687.89 157.554 688.114 157.298 688.274 156.966L689.504 157.356C689.252 157.936 688.87 158.386 688.358 158.706C687.846 159.022 687.276 159.18 686.648 159.18ZM684.338 156.114V155.136H688.964V156.114H684.338ZM692.079 159L690.099 152.514L691.341 152.52L692.697 156.966L694.065 152.52H695.145L696.513 156.966L697.869 152.52H699.105L697.125 159H696.117L694.605 154.308L693.087 159H692.079ZM702.423 159.174C701.635 159.174 700.993 159 700.497 158.652C700.001 158.304 699.697 157.814 699.585 157.182L700.869 156.984C700.949 157.32 701.133 157.586 701.421 157.782C701.713 157.974 702.075 158.07 702.507 158.07C702.899 158.07 703.205 157.99 703.425 157.83C703.649 157.67 703.761 157.45 703.761 157.17C703.761 157.006 703.721 156.874 703.641 156.774C703.565 156.67 703.403 156.572 703.155 156.48C702.907 156.388 702.529 156.274 702.021 156.138C701.465 155.994 701.023 155.84 700.695 155.676C700.371 155.508 700.139 155.314 699.999 155.094C699.863 154.87 699.795 154.6 699.795 154.284C699.795 153.892 699.899 153.55 700.107 153.258C700.315 152.966 700.607 152.74 700.983 152.58C701.363 152.42 701.807 152.34 702.315 152.34C702.811 152.34 703.253 152.418 703.641 152.574C704.029 152.73 704.343 152.952 704.583 153.24C704.823 153.524 704.967 153.858 705.015 154.242L703.731 154.476C703.687 154.164 703.541 153.918 703.293 153.738C703.045 153.558 702.723 153.46 702.327 153.444C701.947 153.428 701.639 153.492 701.403 153.636C701.167 153.776 701.049 153.97 701.049 154.218C701.049 154.362 701.093 154.484 701.181 154.584C701.273 154.684 701.449 154.78 701.709 154.872C701.969 154.964 702.353 155.074 702.861 155.202C703.405 155.342 703.837 155.498 704.157 155.67C704.477 155.838 704.705 156.04 704.841 156.276C704.981 156.508 705.051 156.79 705.051 157.122C705.051 157.762 704.817 158.264 704.349 158.628C703.885 158.992 703.243 159.174 702.423 159.174Z" fill="#020000"/>
</g>
<defs>
<clipPath id="clip0_399_144">
<rect width="1920" height="1076" fill="white" transform="translate(0 -248)"/>
</clipPath>
</defs>
</svg>
