<svg width="407" height="800" viewBox="0 0 407 800" fill="none" xmlns="http://www.w3.org/2000/svg">
<g clip-path="url(#clip0_531_153)">
<rect width="407" height="800" fill="white"/>
<circle cx="-74" cy="400" r="399.875" stroke="#D9D9D9" stroke-width="0.25"/>
<circle cx="-74" cy="400" r="199.875" stroke="#B6B6B6" stroke-width="0.25"/>
<circle cx="202" cy="400" r="139.875" stroke="#676873" stroke-width="0.25"/>
<circle cx="202" cy="400" r="94.3125" stroke="#676873" stroke-width="0.375"/>
<circle cx="202" cy="400" r="61.3125" stroke="#676873" stroke-width="0.375"/>
<circle cx="202" cy="400" r="39.25" stroke="#676873" stroke-width="0.5"/>
<circle cx="202" cy="400" r="21.25" stroke="#676873" stroke-width="0.5"/>
<circle cx="8" cy="8" r="7.95" transform="matrix(1 0 0 -1 195 408)" stroke="#303030" stroke-width="0.1"/>
<path d="M47.375 465C47.375 484.31 42.427 501.786 34.4338 514.431C26.4396 527.077 15.4113 534.875 3.25 534.875C-8.91134 534.875 -19.9396 527.077 -27.9338 514.431C-35.927 501.786 -40.875 484.31 -40.875 465C-40.875 445.69 -35.927 428.214 -27.9338 415.569C-19.9396 402.923 -8.91134 395.125 3.25 395.125C15.4113 395.125 26.4396 402.923 34.4338 415.569C42.427 428.214 47.375 445.69 47.375 465Z" stroke="#B6B6B6" stroke-width="0.25"/>
<circle cx="2" cy="395" r="6" fill="#B6B6B6"/>
<circle cx="374" cy="298" r="6" fill="#B6B6B6"/>
<circle cx="247.5" cy="452" r="6" fill="#676873"/>
<circle cx="182" cy="408" r="2" fill="#B6B6B6"/>
<circle cx="220.5" cy="409.5" r="2" fill="#303030"/>
<circle cx="197" cy="416.5" r="1" fill="#B6B6B6"/>
<circle cx="199" cy="384" r="1" fill="#676873"/>
<circle cx="144" cy="358.5" r="6" fill="#676873"/>
<circle cx="173" cy="427.5" r="6" fill="#676873"/>
<circle cx="233" cy="402" r="4" fill="#676873"/>
<circle cx="182" cy="379" r="4" fill="#303030"/>
<circle cx="215.25" cy="389.25" r="2.25" fill="#303030"/>
<circle cx="344" cy="395" r="10" fill="#B6B6B6"/>
<circle cx="15" cy="471" r="10" fill="#D9D9D9"/>
<ellipse cx="257.5" cy="363" rx="7" ry="10" stroke="#B6B6B6" stroke-width="0.25"/>
<circle cx="68.5" cy="254" r="10" fill="#B6B6B6"/>
<circle cx="270" cy="280" r="20" fill="#D9D9D9"/>
<circle cx="253" cy="371" r="2.5" fill="#B6B6B6"/>
<circle cx="255.5" cy="354" r="2" fill="#B6B6B6"/>
<circle cx="260.5" cy="361" r="2" fill="#676873"/>
<circle cx="265.5" cy="365" r="1" fill="#D9D9D9"/>
<circle cx="264.5" cy="357" r="1" fill="#D9D9D9"/>
<circle cx="250.5" cy="362" r="1" fill="#D9D9D9"/>
<circle cx="363.5" cy="519" r="18" fill="#F7F6F9"/>
<path opacity="0.4" d="M261.917 310.09C261.485 310.09 261.117 309.996 260.813 309.808C260.509 309.618 260.276 309.354 260.114 309.016C259.954 308.678 259.874 308.286 259.874 307.84C259.874 307.394 259.954 307.002 260.114 306.664C260.276 306.326 260.509 306.063 260.813 305.875C261.117 305.685 261.485 305.59 261.917 305.59C262.415 305.59 262.827 305.716 263.153 305.968C263.481 306.22 263.709 306.559 263.837 306.985L263.201 307.156C263.117 306.854 262.967 306.617 262.751 306.445C262.537 306.273 262.259 306.187 261.917 306.187C261.611 306.187 261.356 306.256 261.152 306.394C260.948 306.532 260.794 306.725 260.69 306.973C260.588 307.221 260.537 307.51 260.537 307.84C260.535 308.17 260.585 308.459 260.687 308.707C260.791 308.955 260.945 309.148 261.149 309.286C261.355 309.424 261.611 309.493 261.917 309.493C262.259 309.493 262.537 309.407 262.751 309.235C262.967 309.061 263.117 308.824 263.201 308.524L263.837 308.695C263.709 309.121 263.481 309.46 263.153 309.712C262.827 309.964 262.415 310.09 261.917 310.09ZM264.497 310V306.76H265.055V307.546L264.977 307.444C265.017 307.34 265.069 307.245 265.133 307.159C265.197 307.071 265.271 306.999 265.355 306.943C265.437 306.883 265.528 306.837 265.628 306.805C265.73 306.771 265.834 306.751 265.94 306.745C266.046 306.737 266.148 306.742 266.246 306.76V307.348C266.14 307.32 266.022 307.312 265.892 307.324C265.764 307.336 265.646 307.377 265.538 307.447C265.436 307.513 265.355 307.593 265.295 307.687C265.237 307.781 265.195 307.886 265.169 308.002C265.143 308.116 265.13 308.237 265.13 308.365V310H264.497ZM267.173 311.44L267.8 309.733L267.809 310.237L266.396 306.76H267.05L268.106 309.445H267.914L268.922 306.76H269.558L267.77 311.44H267.173ZM271.549 310.09C271.239 310.09 270.979 310.015 270.769 309.865C270.559 309.713 270.4 309.508 270.292 309.25C270.184 308.992 270.13 308.701 270.13 308.377C270.13 308.053 270.183 307.762 270.289 307.504C270.397 307.246 270.555 307.043 270.763 306.895C270.973 306.745 271.231 306.67 271.537 306.67C271.841 306.67 272.103 306.745 272.323 306.895C272.545 307.043 272.716 307.246 272.836 307.504C272.956 307.76 273.016 308.051 273.016 308.377C273.016 308.701 272.956 308.993 272.836 309.253C272.718 309.511 272.549 309.715 272.329 309.865C272.111 310.015 271.851 310.09 271.549 310.09ZM270.025 311.44V306.76H270.583V309.091H270.655V311.44H270.025ZM271.462 309.523C271.662 309.523 271.827 309.472 271.957 309.37C272.089 309.268 272.187 309.131 272.251 308.959C272.317 308.785 272.35 308.591 272.35 308.377C272.35 308.165 272.317 307.973 272.251 307.801C272.187 307.629 272.088 307.492 271.954 307.39C271.82 307.288 271.649 307.237 271.441 307.237C271.245 307.237 271.083 307.285 270.955 307.381C270.829 307.477 270.735 307.611 270.673 307.783C270.613 307.955 270.583 308.153 270.583 308.377C270.583 308.601 270.613 308.799 270.673 308.971C270.733 309.143 270.828 309.278 270.958 309.376C271.088 309.474 271.256 309.523 271.462 309.523ZM275.533 310C275.329 310.04 275.129 310.057 274.933 310.051C274.737 310.045 274.562 310.007 274.408 309.937C274.254 309.867 274.138 309.757 274.06 309.607C273.99 309.473 273.952 309.337 273.946 309.199C273.942 309.059 273.94 308.901 273.94 308.725V305.86H274.57V308.695C274.57 308.825 274.571 308.938 274.573 309.034C274.577 309.13 274.598 309.211 274.636 309.277C274.708 309.401 274.822 309.472 274.978 309.49C275.136 309.506 275.321 309.499 275.533 309.469V310ZM273.319 307.264V306.76H275.533V307.264H273.319ZM277.476 310.09C277.152 310.09 276.871 310.017 276.633 309.871C276.395 309.725 276.211 309.524 276.081 309.268C275.953 309.01 275.889 308.713 275.889 308.377C275.889 308.039 275.955 307.742 276.087 307.486C276.219 307.228 276.404 307.028 276.642 306.886C276.88 306.742 277.158 306.67 277.476 306.67C277.8 306.67 278.081 306.743 278.319 306.889C278.557 307.035 278.741 307.236 278.871 307.492C279.001 307.748 279.066 308.043 279.066 308.377C279.066 308.715 279 309.013 278.868 309.271C278.738 309.527 278.554 309.728 278.316 309.874C278.078 310.018 277.798 310.09 277.476 310.09ZM277.476 309.499C277.786 309.499 278.017 309.395 278.169 309.187C278.323 308.977 278.4 308.707 278.4 308.377C278.4 308.039 278.322 307.769 278.166 307.567C278.012 307.363 277.782 307.261 277.476 307.261C277.266 307.261 277.093 307.309 276.957 307.405C276.821 307.499 276.72 307.63 276.654 307.798C276.588 307.964 276.555 308.157 276.555 308.377C276.555 308.717 276.633 308.989 276.789 309.193C276.945 309.397 277.174 309.499 277.476 309.499Z" fill="#020000"/>
<path opacity="0.4" d="M337.896 415.59C337.606 415.59 337.339 415.54 337.095 415.44C336.851 415.338 336.639 415.19 336.459 414.996C336.279 414.802 336.139 414.566 336.039 414.288C335.939 414.01 335.889 413.694 335.889 413.34C335.889 412.874 335.974 412.474 336.144 412.14C336.314 411.804 336.55 411.546 336.852 411.366C337.154 411.184 337.502 411.093 337.896 411.093C338.404 411.093 338.809 411.211 339.111 411.447C339.415 411.683 339.622 412.009 339.732 412.425L339.096 412.539C339.008 412.281 338.866 412.075 338.67 411.921C338.474 411.767 338.228 411.689 337.932 411.687C337.626 411.685 337.371 411.753 337.167 411.891C336.965 412.029 336.813 412.223 336.711 412.473C336.609 412.721 336.557 413.01 336.555 413.34C336.553 413.67 336.603 413.959 336.705 414.207C336.807 414.453 336.96 414.645 337.164 414.783C337.37 414.921 337.626 414.991 337.932 414.993C338.178 414.997 338.389 414.952 338.565 414.858C338.743 414.762 338.884 414.622 338.988 414.438C339.092 414.254 339.159 414.028 339.189 413.76H338.349V413.256H339.855C339.859 413.292 339.862 413.34 339.864 413.4C339.866 413.458 339.867 413.495 339.867 413.511C339.867 413.911 339.79 414.268 339.636 414.582C339.482 414.896 339.258 415.143 338.964 415.323C338.67 415.501 338.314 415.59 337.896 415.59ZM341.38 415.59C341.14 415.59 340.939 415.546 340.777 415.458C340.615 415.368 340.492 415.25 340.408 415.104C340.326 414.956 340.285 414.794 340.285 414.618C340.285 414.454 340.314 414.31 340.372 414.186C340.43 414.062 340.516 413.957 340.63 413.871C340.744 413.783 340.884 413.712 341.05 413.658C341.194 413.616 341.357 413.579 341.539 413.547C341.721 413.515 341.912 413.485 342.112 413.457C342.314 413.429 342.514 413.401 342.712 413.373L342.484 413.499C342.488 413.245 342.434 413.057 342.322 412.935C342.212 412.811 342.022 412.749 341.752 412.749C341.582 412.749 341.426 412.789 341.284 412.869C341.142 412.947 341.043 413.077 340.987 413.259L340.402 413.079C340.482 412.801 340.634 412.58 340.858 412.416C341.084 412.252 341.384 412.17 341.758 412.17C342.048 412.17 342.3 412.22 342.514 412.32C342.73 412.418 342.888 412.574 342.988 412.788C343.04 412.894 343.072 413.006 343.084 413.124C343.096 413.242 343.102 413.369 343.102 413.505V415.5H342.547V414.759L342.655 414.855C342.521 415.103 342.35 415.288 342.142 415.41C341.936 415.53 341.682 415.59 341.38 415.59ZM341.491 415.077C341.669 415.077 341.822 415.046 341.95 414.984C342.078 414.92 342.181 414.839 342.259 414.741C342.337 414.643 342.388 414.541 342.412 414.435C342.446 414.339 342.465 414.231 342.469 414.111C342.475 413.991 342.478 413.895 342.478 413.823L342.682 413.898C342.484 413.928 342.304 413.955 342.142 413.979C341.98 414.003 341.833 414.027 341.701 414.051C341.571 414.073 341.455 414.1 341.353 414.132C341.267 414.162 341.19 414.198 341.122 414.24C341.056 414.282 341.003 414.333 340.963 414.393C340.925 414.453 340.906 414.526 340.906 414.612C340.906 414.696 340.927 414.774 340.969 414.846C341.011 414.916 341.075 414.972 341.161 415.014C341.247 415.056 341.357 415.077 341.491 415.077ZM347.763 415.5L347.766 413.481C347.766 413.247 347.706 413.065 347.586 412.935C347.466 412.803 347.308 412.737 347.112 412.737C346.992 412.737 346.882 412.765 346.782 412.821C346.684 412.875 346.604 412.957 346.542 413.067C346.482 413.175 346.452 413.311 346.452 413.475L346.149 413.322C346.145 413.094 346.193 412.894 346.293 412.722C346.395 412.55 346.533 412.417 346.707 412.323C346.881 412.227 347.076 412.179 347.292 412.179C347.642 412.179 347.913 412.284 348.105 412.494C348.297 412.704 348.393 412.983 348.393 413.331L348.39 415.5H347.763ZM343.878 415.5V412.26H344.436V413.196H344.508V415.5H343.878ZM345.822 415.5L345.825 413.493C345.825 413.257 345.765 413.072 345.645 412.938C345.527 412.804 345.368 412.737 345.168 412.737C344.97 412.737 344.81 412.805 344.688 412.941C344.568 413.077 344.508 413.255 344.508 413.475L344.208 413.283C344.208 413.071 344.259 412.882 344.361 412.716C344.463 412.55 344.601 412.419 344.775 412.323C344.949 412.227 345.146 412.179 345.366 412.179C345.596 412.179 345.792 412.228 345.954 412.326C346.116 412.422 346.239 412.557 346.323 412.731C346.409 412.905 346.452 413.107 346.452 413.337L346.449 415.5H345.822ZM350.568 415.59C350.246 415.59 349.963 415.52 349.719 415.38C349.477 415.238 349.288 415.041 349.152 414.789C349.018 414.535 348.951 414.241 348.951 413.907C348.951 413.553 349.017 413.246 349.149 412.986C349.283 412.726 349.469 412.525 349.707 412.383C349.945 412.241 350.222 412.17 350.538 412.17C350.868 412.17 351.149 412.247 351.381 412.401C351.613 412.553 351.786 412.77 351.9 413.052C352.016 413.334 352.062 413.669 352.038 414.057H351.411V413.829C351.407 413.453 351.335 413.175 351.195 412.995C351.057 412.815 350.846 412.725 350.562 412.725C350.248 412.725 350.012 412.824 349.854 413.022C349.696 413.22 349.617 413.506 349.617 413.88C349.617 414.236 349.696 414.512 349.854 414.708C350.012 414.902 350.24 414.999 350.538 414.999C350.734 414.999 350.903 414.955 351.045 414.867C351.189 414.777 351.301 414.649 351.381 414.483L351.996 414.678C351.87 414.968 351.679 415.193 351.423 415.353C351.167 415.511 350.882 415.59 350.568 415.59ZM349.413 414.057V413.568H351.726V414.057H349.413Z" fill="#020000"/>
<path opacity="0.4" d="M238.913 467V462.68H239.54V464.543H241.7V462.68H242.33V467H241.7V465.134H239.54V467H238.913ZM244.61 467.09C244.288 467.09 244.005 467.02 243.761 466.88C243.519 466.738 243.33 466.541 243.194 466.289C243.06 466.035 242.993 465.741 242.993 465.407C242.993 465.053 243.059 464.746 243.191 464.486C243.325 464.226 243.511 464.025 243.749 463.883C243.987 463.741 244.264 463.67 244.58 463.67C244.91 463.67 245.191 463.747 245.423 463.901C245.655 464.053 245.828 464.27 245.942 464.552C246.058 464.834 246.104 465.169 246.08 465.557H245.453V465.329C245.449 464.953 245.377 464.675 245.237 464.495C245.099 464.315 244.888 464.225 244.604 464.225C244.29 464.225 244.054 464.324 243.896 464.522C243.738 464.72 243.659 465.006 243.659 465.38C243.659 465.736 243.738 466.012 243.896 466.208C244.054 466.402 244.282 466.499 244.58 466.499C244.776 466.499 244.945 466.455 245.087 466.367C245.231 466.277 245.343 466.149 245.423 465.983L246.038 466.178C245.912 466.468 245.721 466.693 245.465 466.853C245.209 467.011 244.924 467.09 244.61 467.09ZM243.455 465.557V465.068H245.768V465.557H243.455ZM247.609 467.09C247.369 467.09 247.168 467.046 247.006 466.958C246.844 466.868 246.721 466.75 246.637 466.604C246.555 466.456 246.514 466.294 246.514 466.118C246.514 465.954 246.543 465.81 246.601 465.686C246.659 465.562 246.745 465.457 246.859 465.371C246.973 465.283 247.113 465.212 247.279 465.158C247.423 465.116 247.586 465.079 247.768 465.047C247.95 465.015 248.141 464.985 248.341 464.957C248.543 464.929 248.743 464.901 248.941 464.873L248.713 464.999C248.717 464.745 248.663 464.557 248.551 464.435C248.441 464.311 248.251 464.249 247.981 464.249C247.811 464.249 247.655 464.289 247.513 464.369C247.371 464.447 247.272 464.577 247.216 464.759L246.631 464.579C246.711 464.301 246.863 464.08 247.087 463.916C247.313 463.752 247.613 463.67 247.987 463.67C248.277 463.67 248.529 463.72 248.743 463.82C248.959 463.918 249.117 464.074 249.217 464.288C249.269 464.394 249.301 464.506 249.313 464.624C249.325 464.742 249.331 464.869 249.331 465.005V467H248.776V466.259L248.884 466.355C248.75 466.603 248.579 466.788 248.371 466.91C248.165 467.03 247.911 467.09 247.609 467.09ZM247.72 466.577C247.898 466.577 248.051 466.546 248.179 466.484C248.307 466.42 248.41 466.339 248.488 466.241C248.566 466.143 248.617 466.041 248.641 465.935C248.675 465.839 248.694 465.731 248.698 465.611C248.704 465.491 248.707 465.395 248.707 465.323L248.911 465.398C248.713 465.428 248.533 465.455 248.371 465.479C248.209 465.503 248.062 465.527 247.93 465.551C247.8 465.573 247.684 465.6 247.582 465.632C247.496 465.662 247.419 465.698 247.351 465.74C247.285 465.782 247.232 465.833 247.192 465.893C247.154 465.953 247.135 466.026 247.135 466.112C247.135 466.196 247.156 466.274 247.198 466.346C247.24 466.416 247.304 466.472 247.39 466.514C247.476 466.556 247.586 466.577 247.72 466.577ZM250.17 467V462.59H250.797V467H250.17ZM253.552 467C253.348 467.04 253.148 467.057 252.952 467.051C252.756 467.045 252.581 467.007 252.427 466.937C252.273 466.867 252.157 466.757 252.079 466.607C252.009 466.473 251.971 466.337 251.965 466.199C251.961 466.059 251.959 465.901 251.959 465.725V462.86H252.589V465.695C252.589 465.825 252.59 465.938 252.592 466.034C252.596 466.13 252.617 466.211 252.655 466.277C252.727 466.401 252.841 466.472 252.997 466.49C253.155 466.506 253.34 466.499 253.552 466.469V467ZM251.338 464.264V463.76H253.552V464.264H251.338ZM256.509 467V465.407C256.509 465.281 256.498 465.152 256.476 465.02C256.456 464.886 256.416 464.762 256.356 464.648C256.298 464.534 256.215 464.442 256.107 464.372C256.001 464.302 255.862 464.267 255.69 464.267C255.578 464.267 255.472 464.286 255.372 464.324C255.272 464.36 255.184 464.419 255.108 464.501C255.034 464.583 254.975 464.691 254.931 464.825C254.889 464.959 254.868 465.122 254.868 465.314L254.478 465.167C254.478 464.873 254.533 464.614 254.643 464.39C254.753 464.164 254.911 463.988 255.117 463.862C255.323 463.736 255.572 463.673 255.864 463.673C256.088 463.673 256.276 463.709 256.428 463.781C256.58 463.853 256.703 463.948 256.797 464.066C256.893 464.182 256.966 464.309 257.016 464.447C257.066 464.585 257.1 464.72 257.118 464.852C257.136 464.984 257.145 465.1 257.145 465.2V467H256.509ZM254.232 467V462.68H254.793V465.011H254.868V467H254.232Z" fill="#020000"/>
<path opacity="0.4" d="M152.587 444V439.68H155.347V440.271H153.214V441.483H154.987V442.074H153.214V443.409H155.347V444H152.587ZM158.341 444V442.407C158.341 442.281 158.33 442.152 158.308 442.02C158.288 441.886 158.248 441.762 158.188 441.648C158.13 441.534 158.047 441.442 157.939 441.372C157.833 441.302 157.694 441.267 157.522 441.267C157.41 441.267 157.304 441.286 157.204 441.324C157.104 441.36 157.016 441.419 156.94 441.501C156.866 441.583 156.807 441.691 156.763 441.825C156.721 441.959 156.7 442.122 156.7 442.314L156.31 442.167C156.31 441.873 156.365 441.614 156.475 441.39C156.585 441.164 156.743 440.988 156.949 440.862C157.155 440.736 157.404 440.673 157.696 440.673C157.92 440.673 158.108 440.709 158.26 440.781C158.412 440.853 158.535 440.948 158.629 441.066C158.725 441.182 158.798 441.309 158.848 441.447C158.898 441.585 158.932 441.72 158.95 441.852C158.968 441.984 158.977 442.1 158.977 442.2V444H158.341ZM156.064 444V440.76H156.625V441.696H156.7V444H156.064ZM161.613 444C161.409 444.04 161.209 444.057 161.013 444.051C160.817 444.045 160.642 444.007 160.488 443.937C160.334 443.867 160.218 443.757 160.14 443.607C160.07 443.473 160.032 443.337 160.026 443.199C160.022 443.059 160.02 442.901 160.02 442.725V439.86H160.65V442.695C160.65 442.825 160.651 442.938 160.653 443.034C160.657 443.13 160.678 443.211 160.716 443.277C160.788 443.401 160.902 443.472 161.058 443.49C161.216 443.506 161.401 443.499 161.613 443.469V444ZM159.399 441.264V440.76H161.613V441.264H159.399ZM163.586 444.09C163.264 444.09 162.981 444.02 162.737 443.88C162.495 443.738 162.306 443.541 162.17 443.289C162.036 443.035 161.969 442.741 161.969 442.407C161.969 442.053 162.035 441.746 162.167 441.486C162.301 441.226 162.487 441.025 162.725 440.883C162.963 440.741 163.24 440.67 163.556 440.67C163.886 440.67 164.167 440.747 164.399 440.901C164.631 441.053 164.804 441.27 164.918 441.552C165.034 441.834 165.08 442.169 165.056 442.557H164.429V442.329C164.425 441.953 164.353 441.675 164.213 441.495C164.075 441.315 163.864 441.225 163.58 441.225C163.266 441.225 163.03 441.324 162.872 441.522C162.714 441.72 162.635 442.006 162.635 442.38C162.635 442.736 162.714 443.012 162.872 443.208C163.03 443.402 163.258 443.499 163.556 443.499C163.752 443.499 163.921 443.455 164.063 443.367C164.207 443.277 164.319 443.149 164.399 442.983L165.014 443.178C164.888 443.468 164.697 443.693 164.441 443.853C164.185 444.011 163.9 444.09 163.586 444.09ZM162.431 442.557V442.068H164.744V442.557H162.431ZM165.73 444V440.76H166.288V441.546L166.21 441.444C166.25 441.34 166.302 441.245 166.366 441.159C166.43 441.071 166.504 440.999 166.588 440.943C166.67 440.883 166.761 440.837 166.861 440.805C166.963 440.771 167.067 440.751 167.173 440.745C167.279 440.737 167.381 440.742 167.479 440.76V441.348C167.373 441.32 167.255 441.312 167.125 441.324C166.997 441.336 166.879 441.377 166.771 441.447C166.669 441.513 166.588 441.593 166.528 441.687C166.47 441.781 166.428 441.886 166.402 442.002C166.376 442.116 166.363 442.237 166.363 442.365V444H165.73ZM169.904 444C169.7 444.04 169.5 444.057 169.304 444.051C169.108 444.045 168.933 444.007 168.779 443.937C168.625 443.867 168.509 443.757 168.431 443.607C168.361 443.473 168.323 443.337 168.317 443.199C168.313 443.059 168.311 442.901 168.311 442.725V439.86H168.941V442.695C168.941 442.825 168.942 442.938 168.944 443.034C168.948 443.13 168.969 443.211 169.007 443.277C169.079 443.401 169.193 443.472 169.349 443.49C169.507 443.506 169.692 443.499 169.904 443.469V444ZM167.69 441.264V440.76H169.904V441.264H167.69ZM171.502 444.09C171.262 444.09 171.061 444.046 170.899 443.958C170.737 443.868 170.614 443.75 170.53 443.604C170.448 443.456 170.407 443.294 170.407 443.118C170.407 442.954 170.436 442.81 170.494 442.686C170.552 442.562 170.638 442.457 170.752 442.371C170.866 442.283 171.006 442.212 171.172 442.158C171.316 442.116 171.479 442.079 171.661 442.047C171.843 442.015 172.034 441.985 172.234 441.957C172.436 441.929 172.636 441.901 172.834 441.873L172.606 441.999C172.61 441.745 172.556 441.557 172.444 441.435C172.334 441.311 172.144 441.249 171.874 441.249C171.704 441.249 171.548 441.289 171.406 441.369C171.264 441.447 171.165 441.577 171.109 441.759L170.524 441.579C170.604 441.301 170.756 441.08 170.98 440.916C171.206 440.752 171.506 440.67 171.88 440.67C172.17 440.67 172.422 440.72 172.636 440.82C172.852 440.918 173.01 441.074 173.11 441.288C173.162 441.394 173.194 441.506 173.206 441.624C173.218 441.742 173.224 441.869 173.224 442.005V444H172.669V443.259L172.777 443.355C172.643 443.603 172.472 443.788 172.264 443.91C172.058 444.03 171.804 444.09 171.502 444.09ZM171.613 443.577C171.791 443.577 171.944 443.546 172.072 443.484C172.2 443.42 172.303 443.339 172.381 443.241C172.459 443.143 172.51 443.041 172.534 442.935C172.568 442.839 172.587 442.731 172.591 442.611C172.597 442.491 172.6 442.395 172.6 442.323L172.804 442.398C172.606 442.428 172.426 442.455 172.264 442.479C172.102 442.503 171.955 442.527 171.823 442.551C171.693 442.573 171.577 442.6 171.475 442.632C171.389 442.662 171.312 442.698 171.244 442.74C171.178 442.782 171.125 442.833 171.085 442.893C171.047 442.953 171.028 443.026 171.028 443.112C171.028 443.196 171.049 443.274 171.091 443.346C171.133 443.416 171.197 443.472 171.283 443.514C171.369 443.556 171.479 443.577 171.613 443.577ZM174.063 440.229V439.62H174.69V440.229H174.063ZM174.063 444V440.76H174.69V444H174.063ZM177.865 444V442.407C177.865 442.281 177.854 442.152 177.832 442.02C177.812 441.886 177.772 441.762 177.712 441.648C177.654 441.534 177.571 441.442 177.463 441.372C177.357 441.302 177.218 441.267 177.046 441.267C176.934 441.267 176.828 441.286 176.728 441.324C176.628 441.36 176.54 441.419 176.464 441.501C176.39 441.583 176.331 441.691 176.287 441.825C176.245 441.959 176.224 442.122 176.224 442.314L175.834 442.167C175.834 441.873 175.889 441.614 175.999 441.39C176.109 441.164 176.267 440.988 176.473 440.862C176.679 440.736 176.928 440.673 177.22 440.673C177.444 440.673 177.632 440.709 177.784 440.781C177.936 440.853 178.059 440.948 178.153 441.066C178.249 441.182 178.322 441.309 178.372 441.447C178.422 441.585 178.456 441.72 178.474 441.852C178.492 441.984 178.501 442.1 178.501 442.2V444H177.865ZM175.588 444V440.76H176.149V441.696H176.224V444H175.588ZM183.164 444L183.167 441.981C183.167 441.747 183.107 441.565 182.987 441.435C182.867 441.303 182.709 441.237 182.513 441.237C182.393 441.237 182.283 441.265 182.183 441.321C182.085 441.375 182.005 441.457 181.943 441.567C181.883 441.675 181.853 441.811 181.853 441.975L181.55 441.822C181.546 441.594 181.594 441.394 181.694 441.222C181.796 441.05 181.934 440.917 182.108 440.823C182.282 440.727 182.477 440.679 182.693 440.679C183.043 440.679 183.314 440.784 183.506 440.994C183.698 441.204 183.794 441.483 183.794 441.831L183.791 444H183.164ZM179.279 444V440.76H179.837V441.696H179.909V444H179.279ZM181.223 444L181.226 441.993C181.226 441.757 181.166 441.572 181.046 441.438C180.928 441.304 180.769 441.237 180.569 441.237C180.371 441.237 180.211 441.305 180.089 441.441C179.969 441.577 179.909 441.755 179.909 441.975L179.609 441.783C179.609 441.571 179.66 441.382 179.762 441.216C179.864 441.05 180.002 440.919 180.176 440.823C180.35 440.727 180.547 440.679 180.767 440.679C180.997 440.679 181.193 440.728 181.355 440.826C181.517 440.922 181.64 441.057 181.724 441.231C181.81 441.405 181.853 441.607 181.853 441.837L181.85 444H181.223ZM185.969 444.09C185.647 444.09 185.364 444.02 185.12 443.88C184.878 443.738 184.689 443.541 184.553 443.289C184.419 443.035 184.352 442.741 184.352 442.407C184.352 442.053 184.418 441.746 184.55 441.486C184.684 441.226 184.87 441.025 185.108 440.883C185.346 440.741 185.623 440.67 185.939 440.67C186.269 440.67 186.55 440.747 186.782 440.901C187.014 441.053 187.187 441.27 187.301 441.552C187.417 441.834 187.463 442.169 187.439 442.557H186.812V442.329C186.808 441.953 186.736 441.675 186.596 441.495C186.458 441.315 186.247 441.225 185.963 441.225C185.649 441.225 185.413 441.324 185.255 441.522C185.097 441.72 185.018 442.006 185.018 442.38C185.018 442.736 185.097 443.012 185.255 443.208C185.413 443.402 185.641 443.499 185.939 443.499C186.135 443.499 186.304 443.455 186.446 443.367C186.59 443.277 186.702 443.149 186.782 442.983L187.397 443.178C187.271 443.468 187.08 443.693 186.824 443.853C186.568 444.011 186.283 444.09 185.969 444.09ZM184.814 442.557V442.068H187.127V442.557H184.814ZM190.298 444V442.407C190.298 442.281 190.287 442.152 190.265 442.02C190.245 441.886 190.205 441.762 190.145 441.648C190.087 441.534 190.004 441.442 189.896 441.372C189.79 441.302 189.651 441.267 189.479 441.267C189.367 441.267 189.261 441.286 189.161 441.324C189.061 441.36 188.973 441.419 188.897 441.501C188.823 441.583 188.764 441.691 188.72 441.825C188.678 441.959 188.657 442.122 188.657 442.314L188.267 442.167C188.267 441.873 188.322 441.614 188.432 441.39C188.542 441.164 188.7 440.988 188.906 440.862C189.112 440.736 189.361 440.673 189.653 440.673C189.877 440.673 190.065 440.709 190.217 440.781C190.369 440.853 190.492 440.948 190.586 441.066C190.682 441.182 190.755 441.309 190.805 441.447C190.855 441.585 190.889 441.72 190.907 441.852C190.925 441.984 190.934 442.1 190.934 442.2V444H190.298ZM188.021 444V440.76H188.582V441.696H188.657V444H188.021ZM193.57 444C193.366 444.04 193.166 444.057 192.97 444.051C192.774 444.045 192.599 444.007 192.445 443.937C192.291 443.867 192.175 443.757 192.097 443.607C192.027 443.473 191.989 443.337 191.983 443.199C191.979 443.059 191.977 442.901 191.977 442.725V439.86H192.607V442.695C192.607 442.825 192.608 442.938 192.61 443.034C192.614 443.13 192.635 443.211 192.673 443.277C192.745 443.401 192.859 443.472 193.015 443.49C193.173 443.506 193.358 443.499 193.57 443.469V444ZM191.356 441.264V440.76H193.57V441.264H191.356Z" fill="#020000"/>
<path opacity="0.4" d="M358.197 316.59C357.765 316.59 357.397 316.496 357.093 316.308C356.789 316.118 356.556 315.854 356.394 315.516C356.234 315.178 356.154 314.786 356.154 314.34C356.154 313.894 356.234 313.502 356.394 313.164C356.556 312.826 356.789 312.563 357.093 312.375C357.397 312.185 357.765 312.09 358.197 312.09C358.695 312.09 359.107 312.216 359.433 312.468C359.761 312.72 359.989 313.059 360.117 313.485L359.481 313.656C359.397 313.354 359.247 313.117 359.031 312.945C358.817 312.773 358.539 312.687 358.197 312.687C357.891 312.687 357.636 312.756 357.432 312.894C357.228 313.032 357.074 313.225 356.97 313.473C356.868 313.721 356.817 314.01 356.817 314.34C356.815 314.67 356.865 314.959 356.967 315.207C357.071 315.455 357.225 315.648 357.429 315.786C357.635 315.924 357.891 315.993 358.197 315.993C358.539 315.993 358.817 315.907 359.031 315.735C359.247 315.561 359.397 315.324 359.481 315.024L360.117 315.195C359.989 315.621 359.761 315.96 359.433 316.212C359.107 316.464 358.695 316.59 358.197 316.59ZM362.183 316.59C361.859 316.59 361.578 316.517 361.34 316.371C361.102 316.225 360.918 316.024 360.788 315.768C360.66 315.51 360.596 315.213 360.596 314.877C360.596 314.539 360.662 314.242 360.794 313.986C360.926 313.728 361.111 313.528 361.349 313.386C361.587 313.242 361.865 313.17 362.183 313.17C362.507 313.17 362.788 313.243 363.026 313.389C363.264 313.535 363.448 313.736 363.578 313.992C363.708 314.248 363.773 314.543 363.773 314.877C363.773 315.215 363.707 315.513 363.575 315.771C363.445 316.027 363.261 316.228 363.023 316.374C362.785 316.518 362.505 316.59 362.183 316.59ZM362.183 315.999C362.493 315.999 362.724 315.895 362.876 315.687C363.03 315.477 363.107 315.207 363.107 314.877C363.107 314.539 363.029 314.269 362.873 314.067C362.719 313.863 362.489 313.761 362.183 313.761C361.973 313.761 361.8 313.809 361.664 313.905C361.528 313.999 361.427 314.13 361.361 314.298C361.295 314.464 361.262 314.657 361.262 314.877C361.262 315.217 361.34 315.489 361.496 315.693C361.652 315.897 361.881 315.999 362.183 315.999ZM364.493 316.5V312.09H365.12V316.5H364.493ZM366.081 316.5V312.09H366.708V316.5H366.081ZM368.523 316.59C368.283 316.59 368.082 316.546 367.92 316.458C367.758 316.368 367.635 316.25 367.551 316.104C367.469 315.956 367.428 315.794 367.428 315.618C367.428 315.454 367.457 315.31 367.515 315.186C367.573 315.062 367.659 314.957 367.773 314.871C367.887 314.783 368.027 314.712 368.193 314.658C368.337 314.616 368.5 314.579 368.682 314.547C368.864 314.515 369.055 314.485 369.255 314.457C369.457 314.429 369.657 314.401 369.855 314.373L369.627 314.499C369.631 314.245 369.577 314.057 369.465 313.935C369.355 313.811 369.165 313.749 368.895 313.749C368.725 313.749 368.569 313.789 368.427 313.869C368.285 313.947 368.186 314.077 368.13 314.259L367.545 314.079C367.625 313.801 367.777 313.58 368.001 313.416C368.227 313.252 368.527 313.17 368.901 313.17C369.191 313.17 369.443 313.22 369.657 313.32C369.873 313.418 370.031 313.574 370.131 313.788C370.183 313.894 370.215 314.006 370.227 314.124C370.239 314.242 370.245 314.369 370.245 314.505V316.5H369.69V315.759L369.798 315.855C369.664 316.103 369.493 316.288 369.285 316.41C369.079 316.53 368.825 316.59 368.523 316.59ZM368.634 316.077C368.812 316.077 368.965 316.046 369.093 315.984C369.221 315.92 369.324 315.839 369.402 315.741C369.48 315.643 369.531 315.541 369.555 315.435C369.589 315.339 369.608 315.231 369.612 315.111C369.618 314.991 369.621 314.895 369.621 314.823L369.825 314.898C369.627 314.928 369.447 314.955 369.285 314.979C369.123 315.003 368.976 315.027 368.844 315.051C368.714 315.073 368.598 315.1 368.496 315.132C368.41 315.162 368.333 315.198 368.265 315.24C368.199 315.282 368.146 315.333 368.106 315.393C368.068 315.453 368.049 315.526 368.049 315.612C368.049 315.696 368.07 315.774 368.112 315.846C368.154 315.916 368.218 315.972 368.304 316.014C368.39 316.056 368.5 316.077 368.634 316.077ZM372.545 316.59C372.235 316.59 371.975 316.515 371.765 316.365C371.555 316.213 371.396 316.008 371.288 315.75C371.18 315.492 371.126 315.201 371.126 314.877C371.126 314.553 371.179 314.262 371.285 314.004C371.393 313.746 371.551 313.543 371.759 313.395C371.969 313.245 372.227 313.17 372.533 313.17C372.837 313.17 373.099 313.245 373.319 313.395C373.541 313.543 373.712 313.746 373.832 314.004C373.952 314.26 374.012 314.551 374.012 314.877C374.012 315.201 373.952 315.493 373.832 315.753C373.714 316.011 373.545 316.215 373.325 316.365C373.107 316.515 372.847 316.59 372.545 316.59ZM371.021 316.5V312.18H371.651V314.169H371.579V316.5H371.021ZM372.458 316.023C372.658 316.023 372.823 315.972 372.953 315.87C373.085 315.768 373.183 315.631 373.247 315.459C373.313 315.285 373.346 315.091 373.346 314.877C373.346 314.665 373.313 314.473 373.247 314.301C373.183 314.129 373.084 313.992 372.95 313.89C372.816 313.788 372.645 313.737 372.437 313.737C372.241 313.737 372.079 313.785 371.951 313.881C371.825 313.977 371.731 314.111 371.669 314.283C371.609 314.455 371.579 314.653 371.579 314.877C371.579 315.101 371.609 315.299 371.669 315.471C371.729 315.643 371.824 315.778 371.954 315.876C372.084 315.974 372.252 316.023 372.458 316.023ZM376.082 316.59C375.758 316.59 375.477 316.517 375.239 316.371C375.001 316.225 374.817 316.024 374.687 315.768C374.559 315.51 374.495 315.213 374.495 314.877C374.495 314.539 374.561 314.242 374.693 313.986C374.825 313.728 375.01 313.528 375.248 313.386C375.486 313.242 375.764 313.17 376.082 313.17C376.406 313.17 376.687 313.243 376.925 313.389C377.163 313.535 377.347 313.736 377.477 313.992C377.607 314.248 377.672 314.543 377.672 314.877C377.672 315.215 377.606 315.513 377.474 315.771C377.344 316.027 377.16 316.228 376.922 316.374C376.684 316.518 376.404 316.59 376.082 316.59ZM376.082 315.999C376.392 315.999 376.623 315.895 376.775 315.687C376.929 315.477 377.006 315.207 377.006 314.877C377.006 314.539 376.928 314.269 376.772 314.067C376.618 313.863 376.388 313.761 376.082 313.761C375.872 313.761 375.699 313.809 375.563 313.905C375.427 313.999 375.326 314.13 375.26 314.298C375.194 314.464 375.161 314.657 375.161 314.877C375.161 315.217 375.239 315.489 375.395 315.693C375.551 315.897 375.78 315.999 376.082 315.999ZM378.331 316.5V313.26H378.889V314.046L378.811 313.944C378.851 313.84 378.903 313.745 378.967 313.659C379.031 313.571 379.105 313.499 379.189 313.443C379.271 313.383 379.362 313.337 379.462 313.305C379.564 313.271 379.668 313.251 379.774 313.245C379.88 313.237 379.982 313.242 380.08 313.26V313.848C379.974 313.82 379.856 313.812 379.726 313.824C379.598 313.836 379.48 313.877 379.372 313.947C379.27 314.013 379.189 314.093 379.129 314.187C379.071 314.281 379.029 314.386 379.003 314.502C378.977 314.616 378.964 314.737 378.964 314.865V316.5H378.331ZM381.473 316.59C381.233 316.59 381.032 316.546 380.87 316.458C380.708 316.368 380.585 316.25 380.501 316.104C380.419 315.956 380.378 315.794 380.378 315.618C380.378 315.454 380.407 315.31 380.465 315.186C380.523 315.062 380.609 314.957 380.723 314.871C380.837 314.783 380.977 314.712 381.143 314.658C381.287 314.616 381.45 314.579 381.632 314.547C381.814 314.515 382.005 314.485 382.205 314.457C382.407 314.429 382.607 314.401 382.805 314.373L382.577 314.499C382.581 314.245 382.527 314.057 382.415 313.935C382.305 313.811 382.115 313.749 381.845 313.749C381.675 313.749 381.519 313.789 381.377 313.869C381.235 313.947 381.136 314.077 381.08 314.259L380.495 314.079C380.575 313.801 380.727 313.58 380.951 313.416C381.177 313.252 381.477 313.17 381.851 313.17C382.141 313.17 382.393 313.22 382.607 313.32C382.823 313.418 382.981 313.574 383.081 313.788C383.133 313.894 383.165 314.006 383.177 314.124C383.189 314.242 383.195 314.369 383.195 314.505V316.5H382.64V315.759L382.748 315.855C382.614 316.103 382.443 316.288 382.235 316.41C382.029 316.53 381.775 316.59 381.473 316.59ZM381.584 316.077C381.762 316.077 381.915 316.046 382.043 315.984C382.171 315.92 382.274 315.839 382.352 315.741C382.43 315.643 382.481 315.541 382.505 315.435C382.539 315.339 382.558 315.231 382.562 315.111C382.568 314.991 382.571 314.895 382.571 314.823L382.775 314.898C382.577 314.928 382.397 314.955 382.235 314.979C382.073 315.003 381.926 315.027 381.794 315.051C381.664 315.073 381.548 315.1 381.446 315.132C381.36 315.162 381.283 315.198 381.215 315.24C381.149 315.282 381.096 315.333 381.056 315.393C381.018 315.453 380.999 315.526 380.999 315.612C380.999 315.696 381.02 315.774 381.062 315.846C381.104 315.916 381.168 315.972 381.254 316.014C381.34 316.056 381.45 316.077 381.584 316.077ZM385.828 316.5C385.624 316.54 385.424 316.557 385.228 316.551C385.032 316.545 384.857 316.507 384.703 316.437C384.549 316.367 384.433 316.257 384.355 316.107C384.285 315.973 384.247 315.837 384.241 315.699C384.237 315.559 384.235 315.401 384.235 315.225V312.36H384.865V315.195C384.865 315.325 384.866 315.438 384.868 315.534C384.872 315.63 384.893 315.711 384.931 315.777C385.003 315.901 385.117 315.972 385.273 315.99C385.431 316.006 385.616 315.999 385.828 315.969V316.5ZM383.614 313.764V313.26H385.828V313.764H383.614ZM386.571 312.729V312.12H387.198V312.729H386.571ZM386.571 316.5V313.26H387.198V316.5H386.571ZM389.506 316.59C389.182 316.59 388.901 316.517 388.663 316.371C388.425 316.225 388.241 316.024 388.111 315.768C387.983 315.51 387.919 315.213 387.919 314.877C387.919 314.539 387.985 314.242 388.117 313.986C388.249 313.728 388.434 313.528 388.672 313.386C388.91 313.242 389.188 313.17 389.506 313.17C389.83 313.17 390.111 313.243 390.349 313.389C390.587 313.535 390.771 313.736 390.901 313.992C391.031 314.248 391.096 314.543 391.096 314.877C391.096 315.215 391.03 315.513 390.898 315.771C390.768 316.027 390.584 316.228 390.346 316.374C390.108 316.518 389.828 316.59 389.506 316.59ZM389.506 315.999C389.816 315.999 390.047 315.895 390.199 315.687C390.353 315.477 390.43 315.207 390.43 314.877C390.43 314.539 390.352 314.269 390.196 314.067C390.042 313.863 389.812 313.761 389.506 313.761C389.296 313.761 389.123 313.809 388.987 313.905C388.851 313.999 388.75 314.13 388.684 314.298C388.618 314.464 388.585 314.657 388.585 314.877C388.585 315.217 388.663 315.489 388.819 315.693C388.975 315.897 389.204 315.999 389.506 315.999ZM394.029 316.5V314.907C394.029 314.781 394.018 314.652 393.996 314.52C393.976 314.386 393.936 314.262 393.876 314.148C393.818 314.034 393.735 313.942 393.627 313.872C393.521 313.802 393.382 313.767 393.21 313.767C393.098 313.767 392.992 313.786 392.892 313.824C392.792 313.86 392.704 313.919 392.628 314.001C392.554 314.083 392.495 314.191 392.451 314.325C392.409 314.459 392.388 314.622 392.388 314.814L391.998 314.667C391.998 314.373 392.053 314.114 392.163 313.89C392.273 313.664 392.431 313.488 392.637 313.362C392.843 313.236 393.092 313.173 393.384 313.173C393.608 313.173 393.796 313.209 393.948 313.281C394.1 313.353 394.223 313.448 394.317 313.566C394.413 313.682 394.486 313.809 394.536 313.947C394.586 314.085 394.62 314.22 394.638 314.352C394.656 314.484 394.665 314.6 394.665 314.7V316.5H394.029ZM391.752 316.5V313.26H392.313V314.196H392.388V316.5H391.752Z" fill="#020000"/>
<path opacity="0.4" d="M-7.73234 411.5V407.18H-5.98634C-5.94434 407.18 -5.89234 407.182 -5.83034 407.186C-5.76834 407.188 -5.70934 407.194 -5.65334 407.204C-5.41334 407.242 -5.21334 407.324 -5.05334 407.45C-4.89134 407.576 -4.77034 407.735 -4.69034 407.927C-4.61034 408.119 -4.57034 408.331 -4.57034 408.563C-4.57034 408.797 -4.61034 409.01 -4.69034 409.202C-4.77034 409.394 -4.89134 409.553 -5.05334 409.679C-5.21334 409.805 -5.41334 409.887 -5.65334 409.925C-5.70934 409.933 -5.76934 409.939 -5.83334 409.943C-5.89534 409.947 -5.94634 409.949 -5.98634 409.949H-7.10534V411.5H-7.73234ZM-7.10534 409.355H-6.01034C-5.97034 409.355 -5.92634 409.353 -5.87834 409.349C-5.82834 409.345 -5.78134 409.338 -5.73734 409.328C-5.60934 409.298 -5.50634 409.243 -5.42834 409.163C-5.35034 409.081 -5.29434 408.987 -5.26034 408.881C-5.22634 408.775 -5.20934 408.669 -5.20934 408.563C-5.20934 408.457 -5.22634 408.352 -5.26034 408.248C-5.29434 408.142 -5.35034 408.049 -5.42834 407.969C-5.50634 407.887 -5.60934 407.831 -5.73734 407.801C-5.78134 407.789 -5.82834 407.781 -5.87834 407.777C-5.92634 407.773 -5.97034 407.771 -6.01034 407.771H-7.10534V409.355ZM-2.60464 411.59C-2.92864 411.59 -3.20964 411.517 -3.44764 411.371C-3.68564 411.225 -3.86964 411.024 -3.99964 410.768C-4.12764 410.51 -4.19164 410.213 -4.19164 409.877C-4.19164 409.539 -4.12564 409.242 -3.99364 408.986C-3.86164 408.728 -3.67664 408.528 -3.43864 408.386C-3.20064 408.242 -2.92264 408.17 -2.60464 408.17C-2.28064 408.17 -1.99964 408.243 -1.76164 408.389C-1.52364 408.535 -1.33964 408.736 -1.20964 408.992C-1.07964 409.248 -1.01464 409.543 -1.01464 409.877C-1.01464 410.215 -1.08064 410.513 -1.21264 410.771C-1.34264 411.027 -1.52664 411.228 -1.76464 411.374C-2.00264 411.518 -2.28264 411.59 -2.60464 411.59ZM-2.60464 410.999C-2.29464 410.999 -2.06364 410.895 -1.91164 410.687C-1.75764 410.477 -1.68064 410.207 -1.68064 409.877C-1.68064 409.539 -1.75864 409.269 -1.91464 409.067C-2.06864 408.863 -2.29864 408.761 -2.60464 408.761C-2.81464 408.761 -2.98764 408.809 -3.12364 408.905C-3.25964 408.999 -3.36064 409.13 -3.42664 409.298C-3.49264 409.464 -3.52564 409.657 -3.52564 409.877C-3.52564 410.217 -3.44764 410.489 -3.29164 410.693C-3.13564 410.897 -2.90664 410.999 -2.60464 410.999ZM-0.295391 411.5V407.09H0.331609V411.5H-0.295391ZM1.2925 407.729V407.12H1.9195V407.729H1.2925ZM1.2925 411.5V408.26H1.9195V411.5H1.2925ZM4.67439 411.5C4.47039 411.54 4.27039 411.557 4.07439 411.551C3.87839 411.545 3.70339 411.507 3.54939 411.437C3.39539 411.367 3.27939 411.257 3.20139 411.107C3.13139 410.973 3.09339 410.837 3.08739 410.699C3.08339 410.559 3.08139 410.401 3.08139 410.225V407.36H3.71139V410.195C3.71139 410.325 3.71239 410.438 3.71439 410.534C3.71839 410.63 3.73939 410.711 3.77739 410.777C3.84939 410.901 3.96339 410.972 4.11939 410.99C4.27739 411.006 4.46239 410.999 4.67439 410.969V411.5ZM2.46039 408.764V408.26H4.67439V408.764H2.46039ZM5.4175 407.729V407.12H6.0445V407.729H5.4175ZM5.4175 411.5V408.26H6.0445V411.5H5.4175ZM8.33139 411.59C7.99939 411.59 7.71739 411.516 7.48539 411.368C7.25339 411.22 7.07539 411.017 6.95139 410.759C6.82939 410.501 6.76739 410.208 6.76539 409.88C6.76739 409.546 6.83139 409.251 6.95739 408.995C7.08339 408.737 7.26339 408.535 7.49739 408.389C7.73139 408.243 8.01239 408.17 8.34039 408.17C8.69439 408.17 8.99639 408.258 9.24639 408.434C9.49839 408.61 9.66439 408.851 9.74439 409.157L9.12039 409.337C9.05839 409.155 8.95639 409.014 8.81439 408.914C8.67439 408.812 8.51339 408.761 8.33139 408.761C8.12539 408.761 7.95639 408.81 7.82439 408.908C7.69239 409.004 7.59439 409.136 7.53039 409.304C7.46639 409.472 7.43339 409.664 7.43139 409.88C7.43339 410.214 7.50939 410.484 7.65939 410.69C7.81139 410.896 8.03539 410.999 8.33139 410.999C8.53339 410.999 8.69639 410.953 8.82039 410.861C8.94639 410.767 9.04239 410.633 9.10839 410.459L9.74439 410.609C9.63839 410.925 9.46339 411.168 9.21939 411.338C8.97539 411.506 8.67939 411.59 8.33139 411.59ZM11.5945 411.587C11.2005 411.587 10.8795 411.5 10.6315 411.326C10.3835 411.152 10.2315 410.907 10.1755 410.591L10.8175 410.492C10.8575 410.66 10.9495 410.793 11.0935 410.891C11.2395 410.987 11.4205 411.035 11.6365 411.035C11.8325 411.035 11.9855 410.995 12.0955 410.915C12.2075 410.835 12.2635 410.725 12.2635 410.585C12.2635 410.503 12.2435 410.437 12.2035 410.387C12.1655 410.335 12.0845 410.286 11.9605 410.24C11.8365 410.194 11.6475 410.137 11.3935 410.069C11.1155 409.997 10.8945 409.92 10.7305 409.838C10.5685 409.754 10.4525 409.657 10.3825 409.547C10.3145 409.435 10.2805 409.3 10.2805 409.142C10.2805 408.946 10.3325 408.775 10.4365 408.629C10.5405 408.483 10.6865 408.37 10.8745 408.29C11.0645 408.21 11.2865 408.17 11.5405 408.17C11.7885 408.17 12.0095 408.209 12.2035 408.287C12.3975 408.365 12.5545 408.476 12.6745 408.62C12.7945 408.762 12.8665 408.929 12.8905 409.121L12.2485 409.238C12.2265 409.082 12.1535 408.959 12.0295 408.869C11.9055 408.779 11.7445 408.73 11.5465 408.722C11.3565 408.714 11.2025 408.746 11.0845 408.818C10.9665 408.888 10.9075 408.985 10.9075 409.109C10.9075 409.181 10.9295 409.242 10.9735 409.292C11.0195 409.342 11.1075 409.39 11.2375 409.436C11.3675 409.482 11.5595 409.537 11.8135 409.601C12.0855 409.671 12.3015 409.749 12.4615 409.835C12.6215 409.919 12.7355 410.02 12.8035 410.138C12.8735 410.254 12.9085 410.395 12.9085 410.561C12.9085 410.881 12.7915 411.132 12.5575 411.314C12.3255 411.496 12.0045 411.587 11.5945 411.587Z" fill="#020000"/>
<path opacity="0.4" d="M129.88 372V367.68H132.64V368.271H130.507V369.483H132.28V370.074H130.507V371.409H132.64V372H129.88ZM134.647 372.09C134.345 372.09 134.084 372.015 133.864 371.865C133.646 371.715 133.477 371.511 133.357 371.253C133.239 370.993 133.18 370.701 133.18 370.377C133.18 370.051 133.24 369.76 133.36 369.504C133.48 369.246 133.65 369.043 133.87 368.895C134.092 368.745 134.355 368.67 134.659 368.67C134.965 368.67 135.222 368.745 135.43 368.895C135.64 369.043 135.798 369.246 135.904 369.504C136.012 369.762 136.066 370.053 136.066 370.377C136.066 370.701 136.012 370.992 135.904 371.25C135.796 371.508 135.637 371.713 135.427 371.865C135.217 372.015 134.957 372.09 134.647 372.09ZM134.734 371.523C134.94 371.523 135.108 371.474 135.238 371.376C135.368 371.278 135.463 371.143 135.523 370.971C135.583 370.799 135.613 370.601 135.613 370.377C135.613 370.153 135.582 369.955 135.52 369.783C135.46 369.611 135.366 369.477 135.238 369.381C135.112 369.285 134.951 369.237 134.755 369.237C134.547 369.237 134.376 369.288 134.242 369.39C134.108 369.492 134.008 369.629 133.942 369.801C133.878 369.973 133.846 370.165 133.846 370.377C133.846 370.591 133.878 370.785 133.942 370.959C134.008 371.131 134.106 371.268 134.236 371.37C134.368 371.472 134.534 371.523 134.734 371.523ZM135.613 372V369.669H135.541V367.68H136.171V372H135.613ZM138.232 372.087C138.008 372.087 137.82 372.051 137.668 371.979C137.516 371.907 137.392 371.813 137.296 371.697C137.202 371.579 137.13 371.451 137.08 371.313C137.03 371.175 136.996 371.04 136.978 370.908C136.96 370.776 136.951 370.66 136.951 370.56V368.76H137.587V370.353C137.587 370.479 137.597 370.609 137.617 370.743C137.639 370.875 137.679 370.998 137.737 371.112C137.797 371.226 137.88 371.318 137.986 371.388C138.094 371.458 138.234 371.493 138.406 371.493C138.518 371.493 138.624 371.475 138.724 371.439C138.824 371.401 138.911 371.341 138.985 371.259C139.061 371.177 139.12 371.069 139.162 370.935C139.206 370.801 139.228 370.638 139.228 370.446L139.618 370.593C139.618 370.887 139.563 371.147 139.453 371.373C139.343 371.597 139.185 371.772 138.979 371.898C138.773 372.024 138.524 372.087 138.232 372.087ZM139.303 372V371.064H139.228V368.76H139.861V372H139.303ZM142.088 372.09C141.756 372.09 141.474 372.016 141.242 371.868C141.01 371.72 140.832 371.517 140.708 371.259C140.586 371.001 140.524 370.708 140.522 370.38C140.524 370.046 140.588 369.751 140.714 369.495C140.84 369.237 141.02 369.035 141.254 368.889C141.488 368.743 141.769 368.67 142.097 368.67C142.451 368.67 142.753 368.758 143.003 368.934C143.255 369.11 143.421 369.351 143.501 369.657L142.877 369.837C142.815 369.655 142.713 369.514 142.571 369.414C142.431 369.312 142.27 369.261 142.088 369.261C141.882 369.261 141.713 369.31 141.581 369.408C141.449 369.504 141.351 369.636 141.287 369.804C141.223 369.972 141.19 370.164 141.188 370.38C141.19 370.714 141.266 370.984 141.416 371.19C141.568 371.396 141.792 371.499 142.088 371.499C142.29 371.499 142.453 371.453 142.577 371.361C142.703 371.267 142.799 371.133 142.865 370.959L143.501 371.109C143.395 371.425 143.22 371.668 142.976 371.838C142.732 372.006 142.436 372.09 142.088 372.09ZM144.986 372.09C144.746 372.09 144.545 372.046 144.383 371.958C144.221 371.868 144.098 371.75 144.014 371.604C143.932 371.456 143.891 371.294 143.891 371.118C143.891 370.954 143.92 370.81 143.978 370.686C144.036 370.562 144.122 370.457 144.236 370.371C144.35 370.283 144.49 370.212 144.656 370.158C144.8 370.116 144.963 370.079 145.145 370.047C145.327 370.015 145.518 369.985 145.718 369.957C145.92 369.929 146.12 369.901 146.318 369.873L146.09 369.999C146.094 369.745 146.04 369.557 145.928 369.435C145.818 369.311 145.628 369.249 145.358 369.249C145.188 369.249 145.032 369.289 144.89 369.369C144.748 369.447 144.649 369.577 144.593 369.759L144.008 369.579C144.088 369.301 144.24 369.08 144.464 368.916C144.69 368.752 144.99 368.67 145.364 368.67C145.654 368.67 145.906 368.72 146.12 368.82C146.336 368.918 146.494 369.074 146.594 369.288C146.646 369.394 146.678 369.506 146.69 369.624C146.702 369.742 146.708 369.869 146.708 370.005V372H146.153V371.259L146.261 371.355C146.127 371.603 145.956 371.788 145.748 371.91C145.542 372.03 145.288 372.09 144.986 372.09ZM145.097 371.577C145.275 371.577 145.428 371.546 145.556 371.484C145.684 371.42 145.787 371.339 145.865 371.241C145.943 371.143 145.994 371.041 146.018 370.935C146.052 370.839 146.071 370.731 146.075 370.611C146.081 370.491 146.084 370.395 146.084 370.323L146.288 370.398C146.09 370.428 145.91 370.455 145.748 370.479C145.586 370.503 145.439 370.527 145.307 370.551C145.177 370.573 145.061 370.6 144.959 370.632C144.873 370.662 144.796 370.698 144.728 370.74C144.662 370.782 144.609 370.833 144.569 370.893C144.531 370.953 144.512 371.026 144.512 371.112C144.512 371.196 144.533 371.274 144.575 371.346C144.617 371.416 144.681 371.472 144.767 371.514C144.853 371.556 144.963 371.577 145.097 371.577ZM149.341 372C149.137 372.04 148.937 372.057 148.741 372.051C148.545 372.045 148.37 372.007 148.216 371.937C148.062 371.867 147.946 371.757 147.868 371.607C147.798 371.473 147.76 371.337 147.754 371.199C147.75 371.059 147.748 370.901 147.748 370.725V367.86H148.378V370.695C148.378 370.825 148.379 370.938 148.381 371.034C148.385 371.13 148.406 371.211 148.444 371.277C148.516 371.401 148.63 371.472 148.786 371.49C148.944 371.506 149.129 371.499 149.341 371.469V372ZM147.127 369.264V368.76H149.341V369.264H147.127ZM150.084 368.229V367.62H150.711V368.229H150.084ZM150.084 372V368.76H150.711V372H150.084ZM153.019 372.09C152.695 372.09 152.414 372.017 152.176 371.871C151.938 371.725 151.754 371.524 151.624 371.268C151.496 371.01 151.432 370.713 151.432 370.377C151.432 370.039 151.498 369.742 151.63 369.486C151.762 369.228 151.947 369.028 152.185 368.886C152.423 368.742 152.701 368.67 153.019 368.67C153.343 368.67 153.624 368.743 153.862 368.889C154.1 369.035 154.284 369.236 154.414 369.492C154.544 369.748 154.609 370.043 154.609 370.377C154.609 370.715 154.543 371.013 154.411 371.271C154.281 371.527 154.097 371.728 153.859 371.874C153.621 372.018 153.341 372.09 153.019 372.09ZM153.019 371.499C153.329 371.499 153.56 371.395 153.712 371.187C153.866 370.977 153.943 370.707 153.943 370.377C153.943 370.039 153.865 369.769 153.709 369.567C153.555 369.363 153.325 369.261 153.019 369.261C152.809 369.261 152.636 369.309 152.5 369.405C152.364 369.499 152.263 369.63 152.197 369.798C152.131 369.964 152.098 370.157 152.098 370.377C152.098 370.717 152.176 370.989 152.332 371.193C152.488 371.397 152.717 371.499 153.019 371.499ZM157.543 372V370.407C157.543 370.281 157.532 370.152 157.51 370.02C157.49 369.886 157.45 369.762 157.39 369.648C157.332 369.534 157.249 369.442 157.141 369.372C157.035 369.302 156.896 369.267 156.724 369.267C156.612 369.267 156.506 369.286 156.406 369.324C156.306 369.36 156.218 369.419 156.142 369.501C156.068 369.583 156.009 369.691 155.965 369.825C155.923 369.959 155.902 370.122 155.902 370.314L155.512 370.167C155.512 369.873 155.567 369.614 155.677 369.39C155.787 369.164 155.945 368.988 156.151 368.862C156.357 368.736 156.606 368.673 156.898 368.673C157.122 368.673 157.31 368.709 157.462 368.781C157.614 368.853 157.737 368.948 157.831 369.066C157.927 369.182 158 369.309 158.05 369.447C158.1 369.585 158.134 369.72 158.152 369.852C158.17 369.984 158.179 370.1 158.179 370.2V372H157.543ZM155.266 372V368.76H155.827V369.696H155.902V372H155.266Z" fill="#020000"/>
<path opacity="0.4" d="M59.6505 272.5V268.18H60.2865L62.4135 271.39V268.18H63.0495V272.5H62.4135L60.2865 269.287V272.5H59.6505ZM65.3238 272.59C65.0018 272.59 64.7188 272.52 64.4748 272.38C64.2328 272.238 64.0438 272.041 63.9078 271.789C63.7738 271.535 63.7068 271.241 63.7068 270.907C63.7068 270.553 63.7728 270.246 63.9048 269.986C64.0388 269.726 64.2248 269.525 64.4628 269.383C64.7008 269.241 64.9778 269.17 65.2938 269.17C65.6238 269.17 65.9048 269.247 66.1368 269.401C66.3688 269.553 66.5418 269.77 66.6558 270.052C66.7718 270.334 66.8178 270.669 66.7938 271.057H66.1668V270.829C66.1628 270.453 66.0908 270.175 65.9508 269.995C65.8128 269.815 65.6018 269.725 65.3178 269.725C65.0038 269.725 64.7678 269.824 64.6098 270.022C64.4518 270.22 64.3728 270.506 64.3728 270.88C64.3728 271.236 64.4518 271.512 64.6098 271.708C64.7678 271.902 64.9958 271.999 65.2938 271.999C65.4898 271.999 65.6588 271.955 65.8008 271.867C65.9448 271.777 66.0568 271.649 66.1368 271.483L66.7518 271.678C66.6258 271.968 66.4348 272.193 66.1788 272.353C65.9228 272.511 65.6378 272.59 65.3238 272.59ZM64.1688 271.057V270.568H66.4818V271.057H64.1688ZM68.0397 272.5L67.0497 269.257L67.6707 269.26L68.3487 271.483L69.0327 269.26H69.5727L70.2567 271.483L70.9347 269.26H71.5527L70.5627 272.5H70.0587L69.3027 270.154L68.5437 272.5H68.0397ZM73.2117 272.587C72.8177 272.587 72.4967 272.5 72.2487 272.326C72.0007 272.152 71.8487 271.907 71.7927 271.591L72.4347 271.492C72.4747 271.66 72.5667 271.793 72.7107 271.891C72.8567 271.987 73.0377 272.035 73.2537 272.035C73.4497 272.035 73.6027 271.995 73.7127 271.915C73.8247 271.835 73.8807 271.725 73.8807 271.585C73.8807 271.503 73.8607 271.437 73.8207 271.387C73.7827 271.335 73.7017 271.286 73.5777 271.24C73.4537 271.194 73.2647 271.137 73.0107 271.069C72.7327 270.997 72.5117 270.92 72.3477 270.838C72.1857 270.754 72.0697 270.657 71.9997 270.547C71.9317 270.435 71.8977 270.3 71.8977 270.142C71.8977 269.946 71.9497 269.775 72.0537 269.629C72.1577 269.483 72.3037 269.37 72.4917 269.29C72.6817 269.21 72.9037 269.17 73.1577 269.17C73.4057 269.17 73.6267 269.209 73.8207 269.287C74.0147 269.365 74.1717 269.476 74.2917 269.62C74.4117 269.762 74.4837 269.929 74.5077 270.121L73.8657 270.238C73.8437 270.082 73.7707 269.959 73.6467 269.869C73.5227 269.779 73.3617 269.73 73.1637 269.722C72.9737 269.714 72.8197 269.746 72.7017 269.818C72.5837 269.888 72.5247 269.985 72.5247 270.109C72.5247 270.181 72.5467 270.242 72.5907 270.292C72.6367 270.342 72.7247 270.39 72.8547 270.436C72.9847 270.482 73.1767 270.537 73.4307 270.601C73.7027 270.671 73.9187 270.749 74.0787 270.835C74.2387 270.919 74.3527 271.02 74.4207 271.138C74.4907 271.254 74.5257 271.395 74.5257 271.561C74.5257 271.881 74.4087 272.132 74.1747 272.314C73.9427 272.496 73.6217 272.587 73.2117 272.587Z" fill="#020000"/>
</g>
<defs>
<clipPath id="clip0_531_153">
<rect width="407" height="800" fill="white"/>
</clipPath>
</defs>
</svg>
