<svg width="48" height="48" viewBox="0 0 48 48" fill="none" xmlns="http://www.w3.org/2000/svg">
<circle cx="24" cy="24" r="24" fill="#303030"/>
<g opacity="0.6">
<path d="M18.2718 34.3071H13.8817V19.7166H18.2717V34.3071H18.2718ZM34.2825 34.3071H29.8924V26.5597C29.8924 24.5585 29.1824 23.5256 27.7619 23.5256C26.6 23.5256 25.8899 24.1065 25.567 25.2039V34.3069H21.177C21.177 34.3069 21.2417 21.2012 21.177 19.7165H24.8628L24.8568 22.6217H24.9213C25.8252 21.1369 27.2457 20.1685 29.2468 20.1685C30.7316 20.1685 31.9584 20.5559 32.862 21.6535C33.7659 22.6864 34.2824 24.1067 34.2824 26.0433V34.3071L34.2825 34.3071ZM18.3364 16.1012C18.3364 17.3278 17.3033 18.2962 16.0769 18.2962C14.8501 18.2962 13.8174 17.3278 13.8174 16.1012C13.8174 14.8746 14.8501 13.9062 16.0769 13.9062C17.3033 13.9062 18.3364 14.8746 18.3364 16.1012Z" fill="white"/>
</g>
</svg>
