<svg width="111" height="24" viewBox="0 0 111 24" fill="none" xmlns="http://www.w3.org/2000/svg">
<g clip-path="url(#clip0_92_5844)">
<path fill-rule="evenodd" clip-rule="evenodd" d="M7.03109 0.883482C6.76006 0.341427 6.20604 -0.000976562 5.6 -0.000976562C4.99397 -0.000976562 4.43995 0.341427 4.16892 0.883482L0.168918 8.88348C-0.0790725 9.37946 -0.0525702 9.96849 0.23896 10.4402C0.530491 10.9119 1.04548 11.199 1.6 11.199H9.6C10.1545 11.199 10.6695 10.9119 10.961 10.4402C11.2526 9.96849 11.2791 9.37946 11.0311 8.88348L7.03109 0.883482ZM5.6 5.17673L7.01115 7.99902H4.18886L5.6 5.17673ZM16.3998 -0.000976562C14.4116 -0.000976562 12.7998 1.6108 12.7998 3.59902V11.199H15.9998V3.59902C15.9998 3.37811 16.1789 3.19902 16.3998 3.19902C16.6207 3.19902 16.7998 3.37811 16.7998 3.59902V11.199H16.7998H19.9998H19.9998V3.59902C19.9998 3.37811 20.1789 3.19902 20.3998 3.19902C20.6207 3.19902 20.7998 3.37811 20.7998 3.59902V11.199H23.9998V3.59902C23.9998 1.6108 22.388 -0.000976562 20.3998 -0.000976562C19.6597 -0.000976562 18.9718 0.222335 18.3998 0.605251C17.8278 0.222335 17.1399 -0.000976562 16.3998 -0.000976562ZM3.6 12.8008C1.61177 12.8008 2.76293e-09 14.4126 2.76293e-09 16.4008V24.0008H3.2V16.4008C3.2 16.1799 3.37909 16.0008 3.6 16.0008C3.82091 16.0008 4 16.1799 4 16.4008V24.0008H7.2V16.4008C7.2 16.1799 7.37909 16.0008 7.6 16.0008C7.82091 16.0008 8 16.1799 8 16.4008V24.0008H11.2V16.4008C11.2 14.4126 9.58822 12.8008 7.6 12.8008C6.85994 12.8008 6.17204 13.0241 5.6 13.407C5.02796 13.0241 4.34006 12.8008 3.6 12.8008ZM18.3998 12.8008C15.307 12.8008 12.7998 15.308 12.7998 18.4008C12.7998 21.4936 15.307 24.0008 18.3998 24.0008C21.4926 24.0008 23.9998 21.4936 23.9998 18.4008C23.9998 15.308 21.4926 12.8008 18.3998 12.8008ZM15.9998 18.4008C15.9998 17.0753 17.0743 16.0008 18.3998 16.0008C19.7253 16.0008 20.7998 17.0753 20.7998 18.4008C20.7998 19.7263 19.7253 20.8008 18.3998 20.8008C17.0743 20.8008 15.9998 19.7263 15.9998 18.4008Z" fill="#FD6060"/>
</g>
<path fill-rule="evenodd" clip-rule="evenodd" d="M40.342 3.82918C40.0879 3.321 39.5685 3 39.0003 3C38.4322 3 37.9128 3.321 37.6587 3.82918L30.1587 18.8292C29.7882 19.5701 30.0885 20.4712 30.8295 20.8416C31.5705 21.2121 32.4715 20.9118 32.842 20.1708L39.0003 7.8541L45.1587 20.1708C45.5292 20.9118 46.4302 21.2121 47.1711 20.8416C47.9121 20.4712 48.2125 19.5701 47.842 18.8292L40.342 3.82918ZM53.2717 3.21376C52.8083 2.93572 52.2312 2.92844 51.7609 3.1947C51.2907 3.46096 51 3.95959 51 4.5V19.5C51 20.3284 51.6716 21 52.5 21C53.3284 21 54 20.3284 54 19.5V7.14929L59.2282 10.2862C59.7033 10.5713 60.2967 10.5713 60.7717 10.2862L66 7.14929V19.5C66 20.3284 66.6716 21 67.5 21C68.3284 21 69 20.3284 69 19.5V4.5C69 3.95959 68.7093 3.46096 68.239 3.1947C67.7688 2.92844 67.1916 2.93572 66.7282 3.21376L60 7.25071L53.2717 3.21376ZM72.7609 3.1947C73.2312 2.92844 73.8083 2.93572 74.2717 3.21376L81 7.25071L87.7282 3.21376C88.1916 2.93572 88.7688 2.92844 89.239 3.1947C89.7093 3.46096 90 3.95959 90 4.5V19.5C90 20.3284 89.3284 21 88.5 21C87.6716 21 87 20.3284 87 19.5V7.14929L81.7717 10.2862C81.2967 10.5713 80.7033 10.5713 80.2282 10.2862L75 7.14929V19.5C75 20.3284 74.3284 21 73.5 21C72.6716 21 72 20.3284 72 19.5V4.5C72 3.95959 72.2907 3.46096 72.7609 3.1947ZM96 12C96 8.68629 98.6863 6 102 6C105.314 6 108 8.68629 108 12C108 15.3137 105.314 18 102 18C98.6863 18 96 15.3137 96 12ZM102 3C97.0294 3 93 7.02944 93 12C93 16.9706 97.0294 21 102 21C106.971 21 111 16.9706 111 12C111 7.02944 106.971 3 102 3Z" fill="white"/>
<defs>
<clipPath id="clip0_92_5844">
<rect width="24" height="24" fill="white"/>
</clipPath>
</defs>
</svg>
