<svg width="80" height="80" viewBox="0 0 80 80" fill="none" xmlns="http://www.w3.org/2000/svg">
<circle opacity="0.1" cx="40" cy="40" r="40" fill="#FD6060"/>
<g filter="url(#filter0_d_686_1728)">
<circle cx="40" cy="40" r="20" fill="#FD6060"/>
<circle cx="40" cy="40" r="22" stroke="white" stroke-width="4"/>
</g>
<rect x="28" y="29.1257" width="3" height="23.7934" rx="1" transform="rotate(-22.0391 28 29.1257)" fill="white"/>
<ellipse cx="39" cy="50.5" rx="5" ry="1.5" fill="white"/>
<path d="M42 30C45.245 32.2715 49.1482 32.0641 51.5739 31.4599C52.2663 31.2874 52.9322 31.784 52.7288 32.468C51.8681 35.3627 48.9585 40.4132 44 40C40.3051 39.6921 37.3607 40.7471 35.6687 41.7053C35.0675 42.0457 34.2395 41.8226 33.9915 41.1778L29.8542 30.421C29.6578 29.9104 29.9063 29.3358 30.4278 29.1704C33.2753 28.2666 38.4329 27.5031 42 30Z" fill="white"/>
<defs>
<filter id="filter0_d_686_1728" x="4" y="4" width="72" height="72" filterUnits="userSpaceOnUse" color-interpolation-filters="sRGB">
<feFlood flood-opacity="0" result="BackgroundImageFix"/>
<feColorMatrix in="SourceAlpha" type="matrix" values="0 0 0 0 0 0 0 0 0 0 0 0 0 0 0 0 0 0 127 0" result="hardAlpha"/>
<feOffset/>
<feGaussianBlur stdDeviation="6"/>
<feComposite in2="hardAlpha" operator="out"/>
<feColorMatrix type="matrix" values="0 0 0 0 0.992157 0 0 0 0 0.376471 0 0 0 0 0.376471 0 0 0 0.5 0"/>
<feBlend mode="normal" in2="BackgroundImageFix" result="effect1_dropShadow_686_1728"/>
<feBlend mode="normal" in="SourceGraphic" in2="effect1_dropShadow_686_1728" result="shape"/>
</filter>
</defs>
</svg>
