<svg width="253" height="327" viewBox="0 0 253 327" fill="none" xmlns="http://www.w3.org/2000/svg">
<path opacity="0.2" d="M184.647 289.808C181.564 290.077 180.152 291.939 179.669 294.787C179.014 296.332 177.008 298.075 175.835 299.249C174.715 300.369 172.73 301.495 171.19 301.775C169.204 302.136 167.076 301.785 165.143 302.346C164.343 302.578 163.771 303.126 163.005 303.415C158.934 304.952 154.053 306.173 149.732 306.808C147.668 307.112 145.409 307.158 143.502 308.062C142.215 308.671 140.787 308.545 139.52 309.131C137.824 309.917 137.147 311.28 136.202 312.782C135.189 314.391 134.708 316.142 132.423 316.34C129.007 316.638 124.995 317.156 121.952 318.83C119.655 320.093 117.442 320.799 115.371 322.37C114.402 323.105 112.931 324.441 111.74 324.803C109.814 325.39 107.514 324.88 105.564 324.674C104.042 324.514 101.618 324.731 100.532 325.818C99.503 326.847 99.0392 327.14 97.3613 326.942C95.5465 326.729 92.7466 326.272 91.7389 324.508C91.0578 323.316 89.8145 322.997 88.5683 322.997C87.3631 322.997 86.2869 323.893 85.4345 324.656C84.48 325.51 81.4324 324.656 80.1255 324.656C78.6237 324.656 78.0967 325.613 76.6968 325.983C74.9547 326.445 72.66 326.979 70.8347 326.979C67.4763 326.979 62.8783 323.667 60.5485 321.337C59.8359 320.624 59.4463 319.566 58.8895 318.756C57.4565 316.671 55.4474 314.993 54.0966 312.966C53.2148 311.643 52.2532 310.372 52.2532 308.726C52.2532 305.644 53.5016 303.9 54.5759 300.945C54.818 300.279 55.0056 296.259 54.41 295.782C53.0608 294.703 51.8864 292.357 51.1103 290.804C50.3705 289.324 48.9847 289.199 47.9581 288.001C47.5837 287.565 46.3278 286.748 45.746 286.49C44.6272 285.992 42.3204 286.142 41.4877 285.31C41.0078 284.83 40.9716 283.799 40.9716 283.171C40.9716 282.137 40.3253 281.379 39.7549 280.553C37.9325 277.913 36.7635 274.647 34.4828 272.366C32.5853 270.468 30.7631 268.299 28.7682 266.503C27.8451 265.672 22.7614 263.678 22.7219 262.926C22.5992 260.595 25.2913 260.563 25.7819 258.796C26.0712 257.754 26.7036 256.545 26.7036 255.459C26.7036 255.018 26.3718 254.904 26.3718 254.463C26.3718 252.624 26.4201 251.274 27.1829 249.54C28.6104 246.295 30.5917 244.575 34.0035 243.179C35.8248 242.434 37.6109 242.078 38.9623 240.524C39.4444 239.969 40.3079 239.324 40.3079 238.533C40.3079 238.193 40.1813 237.605 40.4739 237.371C41.0413 236.917 41.4218 234.774 41.7827 234.052C42.3168 232.984 42.1252 231.928 43.1099 231.084C44.7121 229.71 46.4276 227.517 48.2715 226.493C50.5942 225.202 50.5942 223.172 50.5941 220.808V220.777C50.5941 220.014 51.0948 218.914 50.6679 218.38C50.0563 217.615 49.3551 216.924 48.6033 216.131C46.9603 214.396 46.0443 211.221 45.3589 208.977C44.6508 206.659 42.6598 205.179 41.4877 203.169C40.179 200.925 37.5629 200.774 35.8285 199.039C34.3846 197.595 32.7312 195.109 32.3629 193.083C32.1573 191.952 31.6808 190.687 31.6808 189.562C31.6808 188.025 31.873 186.29 31.5149 184.786C31.1736 183.353 31.1368 182.128 30.0217 180.951C28.7487 179.607 27.8987 179.439 26.1506 178.96C23.8802 178.337 21.9186 178.673 21.4683 176.084C21.071 173.798 20.86 171.326 20.731 169.004C20.6532 167.603 19.2148 164.449 17.8921 163.693C15.2957 162.209 16.4174 160.547 16.4174 158.051C16.4174 155.914 16.0856 153.907 16.0856 151.746C16.0856 148.663 17.5907 144.935 18.8138 142.121C20.5191 138.198 21.0628 134.632 21.0628 130.505C21.0628 128.782 21.4178 125.139 19.0719 124.863C15.9244 124.493 16.9478 121.362 17.0995 119.313C17.1418 118.742 17.3155 115.383 17.9106 114.907C19.5776 113.573 21.2064 112.119 22.8693 110.758C24.7384 109.229 22.39 106.687 22.39 105.116C22.39 102.648 23.6361 98.4079 21.1734 96.6164C19.9041 95.6931 18.5098 94.0403 17.7447 92.6707C16.9251 91.2038 15.3773 91.1101 13.9104 90.7532C11.9838 90.2845 9.44957 89.7496 7.97462 88.3563C6.77927 87.2271 6.76166 85.4505 6.05748 84.0418C5.24913 82.4248 6.77835 80.2271 5.54133 78.9898C4.25508 77.7033 -0.705684 76.9578 0.0848475 74.8229C0.631484 73.3467 2.2866 73.089 2.73935 71.5041C3.22835 69.7922 1.4507 67.9856 1.83608 66.6365C2.13186 65.601 3.96615 64.3032 4.67493 63.5942C5.71058 62.5584 6.49773 61.551 7.27413 60.3307C7.63201 59.7682 7.12666 58.3279 7.12666 57.6572C7.12666 56.3061 6.78211 54.9383 7.95619 54.025C9.33209 52.9546 11.4484 52.9313 13.0624 52.679C14.558 52.4453 15.8166 51.6965 17.2654 51.3515C19.2826 50.8711 21.0183 50.0585 23.0352 49.3602C24.8111 48.7454 24.0149 48.0696 24.3994 46.7236C24.6091 45.9892 26.6026 44.2603 27.3672 43.8104C28.3668 43.2223 28.9959 42.5422 29.4319 41.561C30.3775 39.4328 31.9626 37.3821 33.0818 35.2552C34.2931 32.9534 36.3292 31.911 38.6489 30.6826C39.4972 30.2335 39.9761 28.8624 39.9761 27.9538C39.9761 26.8595 40.561 26.085 41.3034 25.2988C42.0979 24.4574 42.577 23.1877 42.9624 22.1275C43.4193 20.8709 44.8199 20.5241 45.8013 19.8043C47.128 18.8312 49.0263 18.2046 48.4374 16.3196C47.9816 14.8608 47.9396 13.3493 47.9396 11.8392C47.9396 9.43889 50.3088 7.02379 51.2578 4.88808C51.8047 3.65725 52.8993 2.74766 53.562 1.5877C54.2033 0.465161 54.5185 -0.454828 56.0506 0.241735C57.0488 0.695539 58.8121 0.182822 59.6268 0.997687C60.765 2.13608 62.4556 2.64741 63.8667 3.39461C64.6094 3.78792 65.3903 4.96521 66.1894 5.05402C66.4782 5.08612 67.2126 5.29217 67.4429 5.45965C68.4759 6.21109 70.377 5.95014 71.609 6.12341C73.472 6.38546 75.1083 7.10994 76.8811 7.63532C78.9028 8.23448 81.2684 8.29776 83.3699 8.37283C85.5311 8.45004 88.4608 10.8343 89.49 12.6873C89.864 13.3607 90.6439 15.3223 91.2597 15.6742C92.7174 16.5074 94.117 16.9754 95.6838 17.6471C98.4561 18.8354 101.06 18.6612 103.85 18.6612C105.957 18.6612 107.945 15.9275 108.735 14.3467C110.068 11.6809 112.682 14.3467 114.966 14.3467C116.103 14.3467 117.436 13.3747 118.1 12.5214C118.738 11.7001 118.066 11.1124 119.114 10.5301C121.048 9.45523 122.614 7.88513 124.588 6.8978C125.806 6.28903 129.063 6.79496 130.082 7.37719C131.746 8.32852 134.148 10.3063 135.354 11.8576C135.946 12.6195 136.815 14.0432 136.866 15.0105C136.896 15.5986 137.014 16.7724 137.529 17.0755C138.741 17.7887 139.749 18.5617 141.179 18.9193C142.323 19.2052 143.396 19.4953 144.497 19.9149C144.906 20.0706 145.448 19.6108 145.972 19.7306C147.142 19.9981 149.038 20.1374 149.991 20.9843C150.6 21.5263 150.758 22.34 151.207 22.9019C153.036 25.1885 157.86 22.8919 160.092 22.6437C161.597 22.4766 161.771 18.9109 162.913 17.9974C163.758 17.3208 165.607 17.7938 166.544 18.3293C167.356 18.7932 167.536 19.6887 167.89 20.4681C169.001 22.9138 171.859 23.8869 174.194 24.801L174.299 24.8417C175.678 25.3809 176.49 25.6981 177.015 27.1426C177.37 28.1202 178.226 28.9662 178.858 29.7792C181.068 32.6205 184.844 32.6839 188.112 33.3377C191.085 33.9323 192.099 36.6868 193.864 38.6478C194.577 39.4411 194.579 40.5569 195.596 41.1554C196.379 41.6158 197.039 42.1903 197.919 42.6304C199.964 43.6529 201.292 45.2527 202.159 47.203C202.802 48.6507 202.809 50.6471 204.408 51.6649C205.348 52.2631 206.568 51.5543 207.376 51.5543C207.823 51.5543 208.476 54.2952 208.537 54.5044C209.3 57.1218 209.533 59.6519 209.533 62.3773C209.533 63.3946 209.185 65.0978 210.012 65.8068C210.924 66.5889 211.758 68.0142 212.666 68.9228C213.462 69.7187 214.394 70.4762 215.007 71.4303C217.046 74.602 211.857 74.0612 210.675 74.3988C209.385 74.7675 209.489 79.9019 208.943 81.0549C208.164 82.6993 206.786 83.6224 205.219 84.4475C204.729 84.7051 201.126 86.7123 201.643 87.2869C202.248 87.9595 203.501 87.6192 204.15 88.43C204.574 88.9599 204.518 90.3383 204.555 91.0113C204.614 92.0642 206.84 92.6277 207.689 92.1914C210.577 90.7083 210.762 87.9391 214.049 88.6697C215.927 89.0873 219.332 88.1095 221.017 87.3606C221.932 86.954 223.142 86.6901 223.8 85.8672L223.806 85.8607C224.265 85.2869 224.597 84.8715 225.128 85.5353C226.416 87.1454 227.146 88.0847 227.469 90.1816C227.88 92.8519 228.777 95.6137 230.695 97.5752C233.447 100.391 234.751 103.437 232.833 107.274C231.912 109.116 232.496 111.697 233.441 113.432C234.614 115.581 235.198 117.574 235.432 120.033C235.535 121.115 235.892 122.182 236.557 123.038C237.456 124.194 238.083 125.505 239.396 126.265C240.493 126.9 240.634 127.068 241.128 128.182C242.184 130.558 242.298 133.36 243.451 135.668C243.837 136.439 244.125 136.594 244.778 137.069C245.516 137.606 248.164 137.292 248.613 138.139C248.887 138.657 248.988 140.549 249.018 141.125C249.068 142.072 249.319 142.662 249.756 143.449C250.538 144.857 250.956 146.39 251.839 147.763C252.569 148.899 253 149.4 253 150.787C253 155.509 252.808 160.13 251.673 164.671C250.986 167.416 248.556 171.125 246.548 173.134C245.667 174.015 245.104 175.023 244.059 175.807C242.907 176.672 241.72 178.284 240.539 178.96C238.736 179.99 239.442 183.994 239.396 185.745C239.317 188.726 238.869 190.684 237.663 193.231C236.655 195.359 238.188 197.665 237.479 199.795C237.158 200.755 236.731 202.386 236.004 203.114C234.951 204.167 233.312 204.166 231.911 204.847C230.251 205.653 231.167 208.646 231.764 209.991C232.88 212.503 234.375 214.692 233.681 217.643C233.053 220.312 232.24 223.009 230.455 225.091C229.797 225.859 229.116 226.441 228.298 227.064C228.008 227.286 226.938 227.666 226.787 227.931C225.926 229.438 225.128 232.522 225.128 234.237C225.128 234.945 224.917 236.212 224.298 236.707C221.849 238.667 219.028 239.699 216.832 242.017C216.461 242.41 213.887 244.724 214.583 245.594C215.111 246.254 215.173 247.774 215.173 248.655C215.173 250.543 213.722 251.766 212.519 252.97C211.424 254.065 210.742 256.27 209.533 257.026C209.024 257.344 209 258 208.371 258.28C207.891 258.493 207.278 258.951 206.878 259.294C205.768 260.245 204.306 260.429 203.025 261.119C200.698 262.373 197.467 261.628 195.43 263.258C193.561 264.754 196.26 266.346 196.26 267.738C196.26 268.484 195.265 268.984 195.265 269.73C195.265 270.854 195.394 271.176 196.076 272.053C197.57 273.974 196.299 278.249 196.26 280.331C196.232 281.825 196.348 283.338 196.26 284.83C196.197 285.906 194.338 287.125 193.606 287.817C192.273 289.076 189.091 289.477 187.301 289.477C186.508 289.477 185.542 289.73 184.647 289.808Z" fill="#676873"/>
</svg>
