<svg width="255" height="329" viewBox="0 0 255 329" fill="none" xmlns="http://www.w3.org/2000/svg">
<path d="M185.647 290.808C182.564 291.077 181.152 292.939 180.669 295.787C180.014 297.332 178.008 299.075 176.835 300.249C175.715 301.369 173.73 302.495 172.19 302.775C170.204 303.136 168.076 302.785 166.143 303.346C165.343 303.578 164.771 304.126 164.005 304.415C159.934 305.952 155.053 307.173 150.732 307.808C148.668 308.112 146.409 308.158 144.502 309.062C143.215 309.671 141.787 309.545 140.52 310.131C138.824 310.917 138.147 312.28 137.202 313.782C136.189 315.391 135.708 317.142 133.423 317.34C130.007 317.638 125.995 318.156 122.952 319.83C120.655 321.093 118.442 321.799 116.371 323.37C115.402 324.105 113.931 325.441 112.74 325.803C110.814 326.39 108.514 325.88 106.564 325.674C105.042 325.514 102.618 325.731 101.532 326.818C100.503 327.847 100.039 328.14 98.3613 327.942C96.5465 327.729 93.7466 327.272 92.7389 325.508C92.0578 324.316 90.8145 323.997 89.5683 323.997C88.3631 323.997 87.2869 324.893 86.4345 325.656C85.48 326.51 82.4324 325.656 81.1255 325.656C79.6237 325.656 79.0967 326.613 77.6968 326.983C75.9547 327.445 73.66 327.979 71.8347 327.979C68.4763 327.979 63.8783 324.667 61.5485 322.337C60.8359 321.624 60.4463 320.566 59.8895 319.756C58.4565 317.671 56.4474 315.993 55.0966 313.966C54.2148 312.643 53.2532 311.372 53.2532 309.726C53.2532 306.644 54.5016 304.9 55.5759 301.945C55.818 301.279 56.0056 297.259 55.41 296.782C54.0608 295.703 52.8864 293.357 52.1103 291.804C51.3705 290.324 49.9847 290.199 48.9581 289.001C48.5837 288.565 47.3278 287.748 46.746 287.49C45.6272 286.992 43.3204 287.142 42.4877 286.31C42.0078 285.83 41.9716 284.799 41.9716 284.171C41.9716 283.137 41.3253 282.379 40.7549 281.553C38.9325 278.913 37.7635 275.647 35.4828 273.366C33.5853 271.468 31.7631 269.299 29.7682 267.503C28.8451 266.672 23.7614 264.678 23.7219 263.926C23.5992 261.595 26.2913 261.563 26.7819 259.796C27.0712 258.754 27.7036 257.545 27.7036 256.459C27.7036 256.018 27.3718 255.904 27.3718 255.463C27.3718 253.624 27.4201 252.274 28.1829 250.54C29.6104 247.295 31.5917 245.575 35.0035 244.179C36.8248 243.434 38.6109 243.078 39.9623 241.524C40.4444 240.969 41.3079 240.324 41.3079 239.533C41.3079 239.193 41.1813 238.605 41.4739 238.371C42.0413 237.917 42.4218 235.774 42.7827 235.052C43.3168 233.984 43.1252 232.928 44.1099 232.084C45.7121 230.71 47.4276 228.517 49.2715 227.493C51.5942 226.202 51.5942 224.172 51.5941 221.808V221.777C51.5941 221.014 52.0948 219.914 51.6679 219.38C51.0563 218.615 50.3551 217.924 49.6033 217.131C47.9603 215.396 47.0443 212.221 46.3589 209.977C45.6508 207.659 43.6598 206.179 42.4877 204.169C41.179 201.925 38.5629 201.774 36.8285 200.039C35.3846 198.595 33.7312 196.109 33.3629 194.083C33.1573 192.952 32.6808 191.687 32.6808 190.562C32.6808 189.025 32.873 187.29 32.5149 185.786C32.1736 184.353 32.1368 183.128 31.0217 181.951C29.7487 180.607 28.8987 180.439 27.1506 179.96C24.8802 179.337 22.9186 179.673 22.4683 177.084C22.071 174.798 21.86 172.326 21.731 170.004C21.6532 168.603 20.2148 165.449 18.8921 164.693C16.2957 163.209 17.4174 161.547 17.4174 159.051C17.4174 156.914 17.0856 154.907 17.0856 152.746C17.0856 149.663 18.5907 145.935 19.8138 143.121C21.5191 139.198 22.0628 135.632 22.0628 131.505C22.0628 129.782 22.4178 126.139 20.0719 125.863C16.9244 125.493 17.9478 122.362 18.0995 120.313C18.1418 119.742 18.3155 116.383 18.9106 115.907C20.5776 114.573 22.2064 113.119 23.8693 111.758C25.7384 110.229 23.39 107.687 23.39 106.116C23.39 103.648 24.6361 99.4079 22.1734 97.6164C20.9041 96.6931 19.5098 95.0403 18.7447 93.6707C17.9251 92.2038 16.3773 92.1101 14.9104 91.7532C12.9838 91.2845 10.4496 90.7496 8.97462 89.3563C7.77927 88.2271 7.76166 86.4505 7.05748 85.0418C6.24913 83.4248 7.77835 81.2271 6.54133 79.9898C5.25508 78.7033 0.294316 77.9578 1.08485 75.8229C1.63148 74.3467 3.2866 74.089 3.73935 72.5041C4.22835 70.7922 2.4507 68.9856 2.83608 67.6365C3.13186 66.601 4.96615 65.3032 5.67493 64.5942C6.71058 63.5584 7.49773 62.551 8.27413 61.3307C8.63201 60.7682 8.12666 59.3279 8.12666 58.6572C8.12666 57.3061 7.78211 55.9383 8.95619 55.025C10.3321 53.9546 12.4484 53.9313 14.0624 53.679C15.558 53.4453 16.8166 52.6965 18.2654 52.3515C20.2826 51.8711 22.0183 51.0585 24.0352 50.3602C25.8111 49.7454 25.0149 49.0696 25.3994 47.7236C25.6091 46.9892 27.6026 45.2603 28.3672 44.8104C29.3668 44.2223 29.9959 43.5422 30.4319 42.561C31.3775 40.4328 32.9626 38.3821 34.0818 36.2552C35.2931 33.9534 37.3292 32.911 39.6489 31.6826C40.4972 31.2335 40.9761 29.8624 40.9761 28.9538C40.9761 27.8595 41.561 27.085 42.3034 26.2988C43.0979 25.4574 43.577 24.1877 43.9624 23.1275C44.4193 21.8709 45.8199 21.5241 46.8013 20.8043C48.128 19.8312 50.0263 19.2046 49.4374 17.3196C48.9816 15.8608 48.9396 14.3493 48.9396 12.8392C48.9396 10.4389 51.3088 8.02379 52.2578 5.88808C52.8047 4.65725 53.8993 3.74766 54.562 2.5877C55.2033 1.46516 55.5185 0.545172 57.0506 1.24173C58.0488 1.69554 59.8121 1.18282 60.6268 1.99769C61.765 3.13608 63.4556 3.64741 64.8667 4.39461C65.6094 4.78792 66.3903 5.96521 67.1894 6.05402C67.4782 6.08612 68.2126 6.29217 68.4429 6.45965C69.4759 7.21109 71.377 6.95014 72.609 7.12341C74.472 7.38546 76.1083 8.10994 77.8811 8.63532C79.9028 9.23448 82.2684 9.29776 84.3699 9.37283C86.5311 9.45004 89.4608 11.8343 90.49 13.6873C90.864 14.3607 91.6439 16.3223 92.2597 16.6742C93.7174 17.5074 95.117 17.9754 96.6838 18.6471C99.4561 19.8354 102.06 19.6612 104.85 19.6612C106.957 19.6612 108.945 16.9275 109.735 15.3467C111.068 12.6809 113.682 15.3467 115.966 15.3467C117.103 15.3467 118.436 14.3747 119.1 13.5214C119.738 12.7001 119.066 12.1124 120.114 11.5301C122.048 10.4552 123.614 8.88513 125.588 7.8978C126.806 7.28903 130.063 7.79496 131.082 8.37719C132.746 9.32852 135.148 11.3063 136.354 12.8576C136.946 13.6195 137.815 15.0432 137.866 16.0105C137.896 16.5986 138.014 17.7724 138.529 18.0755C139.741 18.7887 140.749 19.5617 142.179 19.9193C143.323 20.2052 144.396 20.4953 145.497 20.9149C145.906 21.0706 146.448 20.6108 146.972 20.7306C148.142 20.9981 150.038 21.1374 150.991 21.9843C151.6 22.5263 151.758 23.34 152.207 23.9019C154.036 26.1885 158.86 23.8919 161.092 23.6437C162.597 23.4766 162.771 19.9109 163.913 18.9974C164.758 18.3208 166.607 18.7938 167.544 19.3293C168.356 19.7932 168.536 20.6887 168.89 21.4681C170.001 23.9138 172.859 24.8869 175.194 25.801L175.299 25.8417C176.678 26.3809 177.49 26.6981 178.015 28.1426C178.37 29.1202 179.226 29.9662 179.858 30.7792C182.068 33.6205 185.844 33.6839 189.112 34.3377C192.085 34.9323 193.099 37.6868 194.864 39.6478C195.577 40.4411 195.579 41.5569 196.596 42.1554C197.379 42.6158 198.039 43.1903 198.919 43.6304C200.964 44.6529 202.292 46.2527 203.159 48.203C203.802 49.6507 203.809 51.6471 205.408 52.6649C206.348 53.2631 207.568 52.5543 208.376 52.5543C208.823 52.5543 209.476 55.2952 209.537 55.5044C210.3 58.1218 210.533 60.6519 210.533 63.3773C210.533 64.3946 210.185 66.0978 211.012 66.8068C211.924 67.5889 212.758 69.0142 213.666 69.9228C214.462 70.7187 215.394 71.4762 216.007 72.4303C218.046 75.602 212.857 75.0612 211.675 75.3988C210.385 75.7675 210.489 80.9019 209.943 82.0549C209.164 83.6993 207.786 84.6224 206.219 85.4475C205.729 85.7051 202.126 87.7123 202.643 88.2869C203.248 88.9595 204.501 88.6192 205.15 89.43C205.574 89.9599 205.518 91.3383 205.555 92.0113C205.614 93.0642 207.84 93.6277 208.689 93.1914C211.577 91.7083 211.762 88.9391 215.049 89.6697C216.927 90.0873 220.332 89.1095 222.017 88.3606C222.932 87.954 224.142 87.6901 224.8 86.8672L224.806 86.8607C225.265 86.2869 225.597 85.8715 226.128 86.5353C227.416 88.1454 228.146 89.0847 228.469 91.1816C228.88 93.8519 229.777 96.6137 231.695 98.5752C234.447 101.391 235.751 104.437 233.833 108.274C232.912 110.116 233.496 112.697 234.441 114.432C235.614 116.581 236.198 118.574 236.432 121.033C236.535 122.115 236.892 123.182 237.557 124.038C238.456 125.194 239.083 126.505 240.396 127.265C241.493 127.9 241.634 128.068 242.128 129.182C243.184 131.558 243.298 134.36 244.451 136.668C244.837 137.439 245.125 137.594 245.778 138.069C246.516 138.606 249.164 138.292 249.613 139.139C249.887 139.657 249.988 141.549 250.018 142.125C250.068 143.072 250.319 143.662 250.756 144.449C251.538 145.857 251.956 147.39 252.839 148.763C253.569 149.899 254 150.4 254 151.787C254 156.509 253.808 161.13 252.673 165.671C251.986 168.416 249.556 172.125 247.548 174.134C246.667 175.015 246.104 176.023 245.059 176.807C243.907 177.672 242.72 179.284 241.539 179.96C239.736 180.99 240.442 184.994 240.396 186.745C240.317 189.726 239.869 191.684 238.663 194.231C237.655 196.359 239.188 198.665 238.479 200.795C238.158 201.755 237.731 203.386 237.004 204.114C235.951 205.167 234.312 205.166 232.911 205.847C231.251 206.653 232.167 209.646 232.764 210.991C233.88 213.503 235.375 215.692 234.681 218.643C234.053 221.312 233.24 224.009 231.455 226.091C230.797 226.859 230.116 227.441 229.298 228.064C229.008 228.286 227.938 228.666 227.787 228.931C226.926 230.438 226.128 233.522 226.128 235.237C226.128 235.945 225.917 237.212 225.298 237.707C222.849 239.667 220.028 240.699 217.832 243.017C217.461 243.41 214.887 245.724 215.583 246.594C216.111 247.254 216.173 248.774 216.173 249.655C216.173 251.543 214.722 252.766 213.519 253.97C212.424 255.065 211.742 257.27 210.533 258.026C210.024 258.344 210 259 209.371 259.28C208.891 259.493 208.278 259.951 207.878 260.294C206.768 261.245 205.306 261.429 204.025 262.119C201.698 263.373 198.467 262.628 196.43 264.258C194.561 265.754 197.26 267.346 197.26 268.738C197.26 269.484 196.265 269.984 196.265 270.73C196.265 271.854 196.394 272.176 197.076 273.053C198.57 274.974 197.299 279.249 197.26 281.331C197.232 282.825 197.348 284.338 197.26 285.83C197.197 286.906 195.338 288.125 194.606 288.817C193.273 290.076 190.091 290.477 188.301 290.477C187.508 290.477 186.542 290.73 185.647 290.808Z" fill="#676873" fill-opacity="0.2" stroke="#FD6060" stroke-width="2" stroke-linecap="round"/>
</svg>
