<svg width="363" height="389" viewBox="0 0 363 389" fill="none" xmlns="http://www.w3.org/2000/svg">
<path opacity="0.2" d="M190.315 0C195.1 0 199.215 1.28749 204.179 0.840912C206.009 0.676251 207.777 1.73265 209.64 2.61617C211.719 3.60164 215.153 4.23144 216.829 5.69952C218.22 6.91759 220.622 6.69585 221.824 8.19889C222.726 9.32722 223.52 10.6044 224.345 11.8662C226.456 15.0985 231.616 17.2387 235.501 17.2387C237.756 17.2387 239.297 19.9475 240.099 21.9104C240.694 23.3657 241.149 24.9471 241.803 26.3486C242.756 28.3919 244.178 32.3122 246.191 33.543C248.335 34.8546 250.651 37.0561 253.17 37.4439C255.12 37.7442 256.671 38.6305 257.441 40.3638C259.431 44.8461 260.895 48.4674 260.895 54.0052C260.895 55.0909 260.241 56.1833 260.778 57.1353C262.46 60.112 264.255 63.2542 266.683 65.6846C268.224 67.2263 270.337 68.0413 272.448 68.511C275.873 69.2726 278.57 71.9279 282.111 72.7155C283.381 72.9979 284.634 73.3232 285.892 73.6032C287.837 74.0357 290.762 76.6936 291.891 78.018C292.837 79.1289 293.831 79.3857 294.178 81.0079C294.563 82.8057 294.505 84.5742 294.505 86.4037C294.505 86.9728 293.935 88.4282 294.295 88.7162C294.816 89.1333 295.025 90.871 295.252 91.4725C295.821 92.984 296.398 94.517 297.026 96.0041C298.173 98.7243 298.223 101.788 296.932 104.694C296.406 105.879 294.085 107.074 294.085 108.267C294.085 109.28 294.198 111.319 295.112 111.841C295.405 112.009 296.185 113.565 296.185 113.944C296.185 116.857 295.345 120.564 295.345 123.754C295.345 126.026 295.765 128.406 295.765 130.552C295.765 135.279 301.221 139.661 304.774 141.694C305.72 142.234 306.056 143.961 306.502 144.894C307.367 146.704 308.563 148.781 310.049 150.103C311.111 151.047 312.672 150.807 313.924 151.271C315.717 151.936 318.694 153.388 319.899 154.938C322.273 157.993 323.232 161.684 326.014 164.398C328.473 166.798 332.041 170.568 335.537 171.219C337.919 171.663 340.558 172.335 342.959 172.387C347.016 172.475 347.414 179.042 349.751 181.38C351.63 183.261 354.28 184.991 356.403 186.729C357.674 187.77 360.464 189.302 360.464 191.097C360.464 193.333 359.203 195.561 359.203 197.825C359.203 200.029 361.063 201.054 362.284 202.8C363.213 204.128 363.198 206.251 362.471 207.705C361.783 209.082 359.367 208.546 358.153 208.546C355.093 208.546 353.164 209.401 350.241 210.181C349.177 210.465 348.541 211.519 347.44 211.816C344.332 212.657 336.256 212.719 335.233 216.301C334.676 218.252 334.007 221.323 332.923 223.029C330.451 226.915 327.248 230.416 324.52 234.147C322.227 237.283 323.96 241.014 322.326 244.285C320.384 248.173 317.34 251.361 314.531 254.609C312.721 256.703 311.781 258.285 310.703 261.033C310.052 262.691 309.088 264.62 309.232 266.429C309.375 268.214 309.986 269.986 310.049 271.708C310.135 274.012 309.734 276.129 309.629 278.435C309.525 280.724 308.101 282.06 307.108 283.995C305.812 286.52 304.77 289.283 303.654 291.89C303.014 293.384 302.067 295.188 302.067 296.842C302.067 301.31 302.503 305.561 300.48 309.689C298.653 313.416 295.155 316.481 293.758 320.294C293.175 321.884 294.326 323.812 294.481 325.363C294.679 327.34 292.665 329.047 291.821 330.642C290.806 332.561 290.763 332.209 288.67 332.791C284.259 334.017 278.634 330.6 274.759 334.263C272.925 335.996 271.883 337.322 269.251 338.28C266.577 339.253 262.992 339.175 260.312 338.28C258.792 337.773 254.353 338.817 252.726 339.331C249.44 340.37 245.637 341.998 242.737 343.933C240.863 345.183 239.585 347.06 237.695 348.231C235.225 349.761 233.686 349.043 230.74 348.979C227.053 348.898 226.913 344.895 224.508 342.859C221.127 339.995 215.736 338.676 211.834 340.99C209.562 342.338 206.365 343.1 203.759 342.578C202.054 342.237 200.935 340.687 199.768 339.518C198.061 337.81 195.453 336.8 193.396 335.571C192.706 335.158 192.099 334.906 191.365 335.314C189.394 336.41 187.532 337.468 185.904 339.098C183.741 341.262 182.053 342.253 179.485 343.933C177.318 345.351 176.031 344.34 176.031 347.507C176.031 351.089 174.988 354.672 173.93 358.088C173.18 360.513 171.719 363.16 172.343 365.797C172.611 366.93 173.015 368.196 173.72 369.137C174.107 369.653 174.796 369.818 175.097 370.422C175.975 372.178 176.031 374.09 176.031 376.098C176.031 378.119 176.143 380.177 176.031 382.195C175.997 382.798 166.605 382.77 165.084 383.246C162.559 384.035 160.409 385.558 157.779 385.558C156.501 385.558 155.21 385.389 153.974 385.114C151.278 384.515 148.456 384.717 145.689 384.717C137.774 384.717 128.016 386.813 120.481 384.203C118.942 383.67 117.387 383.184 115.86 382.615C112.985 381.544 110.562 382.964 107.784 383.409C104.223 383.979 99.212 384.529 96.3011 386.913C94.8914 388.067 90.3944 388.487 88.4588 388.828C87.0638 389.075 85.4414 389.218 84.4677 388.081C83.5649 387.027 82.0173 385.824 80.8266 385.091C78.8783 383.891 77.3891 381.244 75.6218 379.672C71.2872 375.816 61.6652 379.15 60.054 371.893C59.4239 369.056 58.3028 366.308 57.6499 363.367C56.9716 360.313 54.2031 357.569 51.4648 356.126C49.1244 354.893 46.5799 354.473 44.1827 353.393C42.5201 352.645 40.9018 351.3 39.2813 350.427C35.5655 348.424 31.3254 348.354 28.3348 345.194C25.4868 342.186 24.5021 337.761 21.5895 334.847C20.2308 333.487 19.1054 331 17.4584 330.058C17.0076 329.8 16.9008 329.162 16.3847 328.89C15.1623 328.246 13.5786 328.175 12.2769 327.769C10.4942 327.212 7.56218 326.738 7.56218 324.592C7.56218 321.285 7.88227 317.63 8.58914 314.408C9.2594 311.352 9.55374 308.288 10.1763 305.251L10.188 305.194C10.5213 303.569 11.1207 300.646 10.293 299.154C9.70477 298.095 9.55768 296.158 9.21932 294.973C8.74978 293.329 4.14955 292.382 2.89417 291.89C0.156765 290.818 2.02857 288.069 1.65714 285.653C1.42539 284.146 0 282.313 0 281.051C0 277.602 0.0306463 274.696 1.44708 271.474C2.65791 268.72 4.53546 269.598 6.30181 267.83C9.01614 265.114 11.1971 261.331 13.2338 258.16C14.8566 255.634 17.4003 253.329 17.225 250.171C17.1558 248.926 16.5577 248.38 17.6451 247.228C18.6638 246.149 19.7198 244.705 20.9127 243.865C22.2171 242.946 25.3776 241.332 26.0475 239.823C27.4797 236.599 31.4255 235.101 33.0962 232.092C34.1953 230.112 34.8012 226.426 37.2974 225.995C41.6806 225.239 46.0456 225.841 50.2278 226.602C54.659 227.409 61.3055 226.626 65.5389 225.037C68.5231 223.917 71.3131 222.766 74.128 220.973C75.5071 220.095 78.729 222.361 79.9864 222.818C82.1947 223.622 84.4493 223.946 86.685 224.617C89.4263 225.44 92.2151 227.257 95.0874 226.953C100.233 226.408 105.3 225.402 110.398 224.617C111.867 224.391 112.73 224.431 114.039 223.683C115.16 223.042 116.246 221.534 117.027 220.529C118.136 219.103 117.824 217.453 118.567 215.881C119.567 213.769 118.934 211.898 121.835 211.069C124.295 210.366 126.178 211.364 128.557 211.489C131.062 211.621 132.892 210.315 135.069 209.831C139.309 208.888 142.001 203.209 142.001 199.086C142.001 197.468 141.852 196.542 141.137 195.022C140.477 193.617 139.759 190.69 138.43 189.626C136.382 187.986 137.426 183.973 135.606 182.151C135.064 181.608 132.758 181.368 132.758 180.796C132.758 179.306 133.947 177.757 134.439 176.405C135.074 174.655 135.691 173.243 136.633 171.546C138.097 168.909 138.984 166.533 139.807 163.651C140.396 161.588 140.944 159.36 142.258 157.461C143.938 155.031 146.286 151.82 148.303 149.682C150.099 147.779 149.208 144.471 150.193 142.301C151.36 139.732 149.563 136.509 149.563 133.915C149.563 131.759 149.636 128.074 150.497 126.137C152.5 121.626 149.987 115.733 146.949 112.355C146.347 111.686 145.563 110.636 144.848 110.159C143.835 109.483 142.542 109.678 141.908 108.478C140.279 105.398 139.798 101.792 138.43 98.5969C137.661 96.8018 137.547 94.7281 136.306 93.131C135.611 92.2363 135.222 91.1211 135.279 89.9776C135.404 87.4792 136.287 84.2738 137.193 81.9422C138.938 77.4517 142.745 74.3013 144.078 69.6322C144.868 66.8645 144.942 64.6973 144.942 61.807C144.942 59.4987 144.2 57.0984 143.705 54.8695C143.29 53.002 144.325 50.3048 144.498 48.3992C144.625 47.006 144.868 45.4835 144.942 44.1479C145.263 38.3588 150.351 35.696 152.084 30.9269C152.757 29.0751 154.623 26.5328 156.285 25.5544C158.699 24.1333 159.447 19.4505 159.623 17.0752C159.822 14.3774 159.013 12.191 156.915 10.5114C155.123 9.07624 156.759 7.74758 157.872 6.63386C159.355 5.1502 159.095 2.24815 161.537 1.70518C163.407 1.28913 167.17 1.28454 168.889 2.00885C171.19 2.97842 174.385 1.26642 176.684 2.31251C178.482 3.13016 182.157 2.71214 183.826 2.00885C185.797 1.17858 188.116 0 190.315 0Z" fill="#676873"/>
</svg>
