<svg width="365" height="391" viewBox="0 0 365 391" fill="none" xmlns="http://www.w3.org/2000/svg">
<path d="M191.315 1C196.1 1 200.215 2.28749 205.179 1.84091C207.009 1.67625 208.777 2.73265 210.64 3.61617C212.719 4.60164 216.153 5.23144 217.829 6.69952C219.22 7.91759 221.622 7.69585 222.824 9.19889C223.726 10.3272 224.52 11.6044 225.345 12.8662C227.456 16.0985 232.616 18.2387 236.501 18.2387C238.756 18.2387 240.297 20.9475 241.099 22.9104C241.694 24.3657 242.149 25.9471 242.803 27.3486C243.756 29.3919 245.178 33.3122 247.191 34.5431C249.335 35.8546 251.651 38.0561 254.17 38.444C256.12 38.7442 257.671 39.6305 258.441 41.3638C260.431 45.8461 261.895 49.4674 261.895 55.0053C261.895 56.0909 261.241 57.1833 261.778 58.1353C263.46 61.112 265.255 64.2542 267.683 66.6846C269.224 68.2263 271.337 69.0413 273.448 69.511C276.873 70.2726 279.57 72.9279 283.111 73.7155C284.381 73.9979 285.634 74.3232 286.892 74.6032C288.837 75.0357 291.762 77.6936 292.891 79.018C293.837 80.1289 294.831 80.3857 295.178 82.0079C295.563 83.8057 295.505 85.5742 295.505 87.4037C295.505 87.9728 294.935 89.4282 295.295 89.7162C295.816 90.1333 296.025 91.871 296.252 92.4725C296.821 93.984 297.398 95.517 298.026 97.0041C299.173 99.7243 299.223 102.788 297.932 105.694C297.406 106.879 295.085 108.074 295.085 109.267C295.085 110.28 295.198 112.319 296.112 112.841C296.405 113.009 297.185 114.565 297.185 114.944C297.185 117.857 296.345 121.564 296.345 124.754C296.345 127.026 296.765 129.406 296.765 131.552C296.765 136.279 302.221 140.661 305.774 142.694C306.72 143.235 307.056 144.961 307.502 145.894C308.367 147.704 309.563 149.781 311.049 151.103C312.111 152.047 313.672 151.807 314.924 152.271C316.717 152.936 319.694 154.388 320.899 155.938C323.273 158.993 324.232 162.684 327.014 165.398C329.473 167.798 333.041 171.568 336.537 172.219C338.919 172.663 341.558 173.335 343.959 173.387C348.016 173.475 348.414 180.042 350.751 182.38C352.63 184.261 355.28 185.991 357.403 187.729C358.674 188.77 361.464 190.302 361.464 192.097C361.464 194.333 360.203 196.561 360.203 198.825C360.203 201.029 362.063 202.054 363.284 203.8C364.213 205.128 364.198 207.251 363.471 208.705C362.783 210.082 360.367 209.546 359.153 209.546C356.093 209.546 354.164 210.401 351.241 211.181C350.177 211.465 349.541 212.519 348.44 212.816C345.332 213.657 337.256 213.719 336.233 217.301C335.676 219.252 335.007 222.323 333.923 224.029C331.451 227.915 328.248 231.416 325.52 235.147C323.227 238.283 324.96 242.014 323.326 245.285C321.384 249.173 318.34 252.361 315.531 255.61C313.721 257.703 312.781 259.285 311.703 262.033C311.052 263.691 310.088 265.62 310.232 267.429C310.375 269.214 310.986 270.986 311.049 272.708C311.135 275.012 310.734 277.129 310.629 279.435C310.525 281.724 309.101 283.06 308.108 284.995C306.812 287.521 305.77 290.283 304.654 292.89C304.014 294.384 303.067 296.188 303.067 297.842C303.067 302.31 303.503 306.561 301.48 310.689C299.653 314.416 296.155 317.481 294.758 321.294C294.175 322.884 295.326 324.812 295.481 326.363C295.679 328.34 293.665 330.047 292.821 331.642C291.806 333.561 291.763 333.209 289.67 333.791C285.259 335.017 279.634 331.6 275.759 335.263C273.925 336.996 272.883 338.322 270.251 339.28C267.577 340.253 263.992 340.175 261.312 339.28C259.792 338.773 255.353 339.817 253.726 340.331C250.44 341.37 246.637 342.998 243.737 344.933C241.863 346.183 240.585 348.06 238.695 349.231C236.225 350.761 234.686 350.043 231.74 349.979C228.053 349.898 227.913 345.895 225.508 343.859C222.127 340.995 216.736 339.676 212.834 341.99C210.562 343.338 207.365 344.1 204.759 343.578C203.054 343.237 201.935 341.687 200.768 340.518C199.061 338.81 196.453 337.8 194.396 336.571C193.706 336.158 193.099 335.906 192.365 336.314C190.394 337.41 188.532 338.468 186.904 340.098C184.741 342.262 183.053 343.253 180.485 344.933C178.318 346.351 177.031 345.34 177.031 348.507C177.031 352.09 175.988 355.672 174.93 359.088C174.18 361.513 172.719 364.16 173.343 366.797C173.611 367.93 174.015 369.197 174.72 370.137C175.107 370.653 175.796 370.818 176.097 371.422C176.975 373.178 177.031 375.09 177.031 377.098C177.031 379.119 177.143 381.177 177.031 383.195C176.997 383.798 167.605 383.77 166.084 384.246C163.559 385.035 161.409 386.558 158.779 386.558C157.501 386.558 156.209 386.389 154.974 386.114C152.278 385.515 149.456 385.717 146.689 385.717C138.774 385.717 129.016 387.814 121.481 385.203C119.942 384.67 118.387 384.184 116.86 383.615C113.985 382.544 111.562 383.964 108.784 384.409C105.223 384.98 100.212 385.529 97.3011 387.913C95.8914 389.067 91.3944 389.487 89.4588 389.828C88.0637 390.075 86.4414 390.218 85.4677 389.081C84.5649 388.027 83.0173 386.824 81.8266 386.091C79.8783 384.891 78.3891 382.244 76.6218 380.672C72.2872 376.816 62.6652 380.15 61.054 372.893C60.4239 370.056 59.3028 367.308 58.6499 364.367C57.9716 361.313 55.2031 358.569 52.4648 357.126C50.1244 355.894 47.5799 355.473 45.1827 354.393C43.5201 353.645 41.9018 352.3 40.2813 351.427C36.5655 349.424 32.3254 349.354 29.3348 346.194C26.4868 343.186 25.5021 338.761 22.5895 335.847C21.2308 334.487 20.1054 332 18.4584 331.058C18.0076 330.8 17.9008 330.162 17.3847 329.89C16.1623 329.246 14.5786 329.175 13.2769 328.769C11.4942 328.212 8.56218 327.738 8.56218 325.592C8.56218 322.285 8.88227 318.63 9.58914 315.408C10.2594 312.352 10.5537 309.288 11.1763 306.251L11.1879 306.194C11.5213 304.569 12.1207 301.646 11.293 300.155C10.7048 299.095 10.5577 297.159 10.2193 295.973C9.74978 294.329 5.14955 293.382 3.89417 292.89C1.15677 291.818 3.02857 289.069 2.65714 286.653C2.42539 285.146 1 283.313 1 282.052C1 278.602 1.03065 275.696 2.44708 272.474C3.65791 269.72 5.53546 270.598 7.30181 268.831C10.0161 266.114 12.1971 262.331 14.2338 259.16C15.8566 256.634 18.4003 254.329 18.225 251.171C18.1558 249.926 17.5577 249.38 18.6451 248.228C19.6638 247.149 20.7198 245.705 21.9127 244.865C23.2171 243.946 26.3776 242.332 27.0475 240.823C28.4797 237.599 32.4255 236.101 34.0962 233.092C35.1953 231.112 35.8012 227.426 38.2974 226.995C42.6806 226.239 47.0456 226.841 51.2278 227.602C55.659 228.409 62.3055 227.626 66.5389 226.037C69.5231 224.917 72.3131 223.766 75.128 221.973C76.5071 221.095 79.729 223.361 80.9864 223.818C83.1947 224.622 85.4493 224.946 87.685 225.617C90.4263 226.44 93.2151 228.257 96.0874 227.953C101.233 227.408 106.3 226.402 111.398 225.617C112.867 225.391 113.73 225.431 115.039 224.683C116.16 224.042 117.246 222.534 118.027 221.529C119.136 220.103 118.824 218.453 119.567 216.881C120.567 214.769 119.934 212.899 122.835 212.069C125.295 211.366 127.178 212.364 129.557 212.489C132.062 212.621 133.892 211.315 136.069 210.831C140.309 209.888 143.001 204.209 143.001 200.086C143.001 198.468 142.852 197.542 142.137 196.022C141.477 194.618 140.759 191.69 139.43 190.626C137.382 188.986 138.426 184.973 136.606 183.151C136.064 182.608 133.758 182.368 133.758 181.796C133.758 180.306 134.947 178.757 135.439 177.405C136.074 175.655 136.691 174.243 137.633 172.546C139.097 169.909 139.984 167.533 140.807 164.651C141.396 162.589 141.944 160.36 143.258 158.461C144.938 156.031 147.286 152.82 149.303 150.682C151.099 148.779 150.208 145.471 151.193 143.301C152.36 140.732 150.563 137.509 150.563 134.915C150.563 132.759 150.636 129.074 151.497 127.137C153.5 122.626 150.987 116.733 147.949 113.355C147.347 112.686 146.563 111.636 145.848 111.16C144.835 110.483 143.542 110.678 142.908 109.478C141.279 106.398 140.798 102.792 139.43 99.597C138.661 97.8018 138.547 95.7281 137.306 94.131C136.611 93.2363 136.222 92.1211 136.279 90.9776C136.404 88.4792 137.287 85.2738 138.193 82.9422C139.938 78.4517 143.745 75.3013 145.078 70.6322C145.868 67.8645 145.942 65.6973 145.942 62.807C145.942 60.4987 145.2 58.0984 144.705 55.8695C144.29 54.002 145.325 51.3048 145.498 49.3992C145.625 48.006 145.868 46.4835 145.942 45.1479C146.263 39.3588 151.351 36.696 153.084 31.9269C153.757 30.0751 155.623 27.5328 157.285 26.5544C159.699 25.1333 160.447 20.4505 160.623 18.0752C160.822 15.3774 160.013 13.191 157.915 11.5114C156.123 10.0762 157.759 8.74758 158.872 7.63386C160.355 6.1502 160.095 3.24815 162.537 2.70518C164.407 2.28913 168.17 2.28454 169.889 3.00885C172.19 3.97842 175.385 2.26642 177.684 3.31251C179.482 4.13017 183.157 3.71214 184.826 3.00885C186.797 2.17858 189.116 1 191.315 1Z" fill="#676873" fill-opacity="0.2" stroke="#FD6060" stroke-width="2" stroke-linecap="round"/>
</svg>
