<svg width="384" height="267" viewBox="0 0 384 267" fill="none" xmlns="http://www.w3.org/2000/svg">
<path d="M307.651 190.115C304.901 189.756 302.159 188.493 299.366 188.493C297.529 189.767 298.229 190.889 297.221 192.605C294.755 196.801 293.082 201.024 290.99 205.445C290.451 206.583 288.311 206.434 287.269 205.947C284.901 204.841 281.969 200.629 279.555 202.064C276.908 203.637 273.431 203.996 270.608 205.285C266.912 206.972 266.808 210.955 264.81 214.4C263.384 216.86 260.938 220.866 257.895 221.779C257.041 222.036 256.352 222.372 255.589 222.83C253.265 224.226 240.146 224.604 240.64 220.157C240.894 217.863 246.462 207.22 246.277 207.09C242.741 204.599 238.269 202.988 234.477 200.967C230.8 199.007 227.264 196.972 223.864 194.57C221.518 192.912 218.92 194.115 216.332 194.821C215.05 195.172 214.681 195 214.232 196.443C213.31 199.411 212.315 202.46 211.63 205.49C210.529 210.362 208.424 229.005 199.944 224.155C196.777 222.344 196.187 217.316 195.608 214.08C195.383 212.822 195.57 212.32 194.444 211.636C190.295 209.115 185.805 207.224 181.731 204.577C177.762 201.998 173.95 199.113 169.68 197.037C165.828 195.165 160.591 191.622 156.168 193.656C155.292 194.059 155.322 197.004 154.753 198.043C152.62 201.935 152.913 203.068 153.201 207.455C153.487 211.824 154.435 216.681 151.306 220.294C150.279 221.48 149.361 220.531 148.567 222.054C147.84 223.449 147.779 224.757 147.495 226.28C146.505 231.576 145.867 236.945 144.573 242.181C143.311 247.289 141.76 250.09 136.722 251.09C131.346 252.158 126.631 250.999 121.316 250.999C119.495 250.999 118.169 255.285 117.116 256.573C115.592 258.438 113.899 260.309 112.072 261.874C110.764 262.994 108.796 265.346 107.05 265.803C103.114 266.834 97.3279 263.551 93.6299 262.193C90.0652 260.885 86.4065 257.487 83.3591 255.363C79.7134 252.821 77.8251 251.41 73.3165 251.41C70.7888 251.41 67.9503 251.037 65.5107 251.821C62.4939 252.792 59.2607 253.413 56.1072 253.695C49.6139 254.276 43.9436 251.943 41.1346 246.064C40.3217 244.363 40.3028 242.821 39.0348 241.29C36.4904 238.216 33.1431 235.976 30.3845 233.111C27.4907 230.106 24.4464 226.418 23.4688 222.259C22.9919 220.23 23.4088 217.762 22.6699 215.839C21.7676 213.491 21.1016 211.884 18.9953 210.151C16.7509 208.304 13.8863 207.484 11.6231 205.742C10.1816 204.632 9.26805 201.355 8.13101 199.825C7.84246 199.436 7.30414 197.958 6.89851 197.723C5.54529 196.939 2.94979 197.119 1.92286 195.895C0.574875 194.289 1.1012 190.225 1.1012 188.356C1.1012 181.201 3.08976 174.346 3.15536 167.155C3.18183 164.254 1.39696 156.214 5.23235 154.59C11.5554 151.912 15.508 145.588 20.5929 141.225C22.0502 139.975 20.9304 134.157 20.7299 132.613C20.558 131.289 20.4766 129.46 19.68 128.363C19.0259 127.463 19.2538 124.675 19.2007 123.611C19.1051 121.698 19.1301 119.85 18.8583 117.946C18.5769 115.974 18.3394 113.8 17.4432 112.006C16.9234 110.965 17.5067 110.201 18.4475 109.538C24.0429 105.597 28.987 100.96 32.9179 95.3284C35.7861 91.2191 40.3762 86.6556 34.5613 83.403C33.0848 82.5771 36.859 80.2176 37.5056 79.702C40.0038 77.71 42.5862 75.7685 44.8777 73.5336C46.8449 71.6151 47.9362 69.8333 47.9362 67.0455C47.9362 65.7329 46.3099 63.6548 47.7308 62.8647C49.4733 61.8957 51.6052 60.8327 53.1172 59.5521C58.884 54.6679 60.0759 45.5045 62.749 38.6483C63.7998 35.953 64.0656 36.2191 65.4715 37.6266L65.5107 37.6659C66.1029 38.2587 67.2504 37.9857 68.0442 37.9857C69.5323 37.9857 70.4414 38.3784 71.7188 39.1737C75.3853 41.4562 76.3432 43.6551 76.6488 48.015C76.993 52.9234 76.4347 57.742 78.9541 62.225C79.9026 63.9129 82.1485 62.6593 83.5873 62.3393C85.1162 61.9992 86.159 61.0221 87.3533 60.009C90.2351 57.5645 93.271 55.0606 95.5928 52.0587C96.5133 50.8686 98.216 51.0083 99.5186 51.3733C106.29 53.2712 118.676 51.9673 121.156 44.1541C122.577 39.6746 126.1 35.8003 126.405 30.9036C126.474 29.8077 126.214 28.73 125.218 28.2535C121.991 26.7085 115.189 23.3575 116.363 18.6583C116.938 16.354 118.844 15.7616 120.973 15.2771C126.039 14.1246 132.138 13.0308 136.585 10.3425C138.45 9.21498 139.918 7.60872 141.195 5.8647C142.155 4.55434 142.638 2.55152 143.98 1.56971C145.617 0.372426 147.832 1.33475 149.503 1.98094C151.937 2.92233 154.355 3.69704 156.83 4.47112C158.728 5.06496 160.738 4.2591 162.581 5.1108C165.623 6.51577 168.524 8.18701 171.643 9.42863C177.475 11.7505 185.595 17.7067 191.614 13.2439C193.017 12.2036 194.274 11.0475 195.608 9.93124C196.714 9.00517 198.76 6.53904 200.218 6.34446C201.506 6.17263 202.868 6.30409 204.053 6.82422C206.514 7.90464 209.154 8.07153 211.767 8.58334C216.618 9.53327 221.046 11.9977 225.644 13.7236C232.928 16.4576 241.197 17.5272 248.971 16.9906C250.314 16.8978 252.402 16.1076 253.535 17.2419C255.445 19.1532 257.4 21.2358 259.47 23.0447C261.429 24.7576 263.298 25.862 264.537 28.1164C265.731 30.2902 270.073 34.696 272.662 34.696C276.025 34.696 278.778 33.1738 282.02 32.7312C284.617 32.3767 287.882 33.5107 290.51 33.8735C296.891 34.7544 302.884 36.351 308.724 33.0511C311.118 31.6982 313.555 29.7613 316.393 29.7613C319.416 29.7613 322.461 30.7368 325.408 31.3833C329.753 32.3365 334.363 33.4623 338.829 33.4623C341.183 33.4623 343.441 32.4543 345.699 31.9088C347.463 31.4826 349.051 32.2716 350.081 33.5537C352.621 36.7146 355.059 41.124 358.731 43.1032C360.52 44.0671 360.398 42.692 361.196 44.7709C361.913 46.6352 362.545 49.2191 362.634 51.2363C362.788 54.7044 362.892 56.8611 366.309 57.93C368.001 58.4594 369.844 58.9581 371.627 58.9581C372.261 58.9581 375.808 58.3457 375.918 58.6383C376.165 59.2972 375.111 61.4019 374.959 61.9737C374.379 64.1699 373.935 66.4004 373.362 68.599C371.785 74.6405 369.708 80.5174 367.975 86.51C367.214 89.1423 365.353 92.3178 365.51 95.1457C365.656 97.7796 369.618 98.4487 369.618 100.697C369.618 101.72 369.208 102.633 369.208 103.576C369.208 104.659 367.725 105.282 367.564 106.249C367.044 109.371 366.329 111.534 367.884 114.473C368.423 115.493 369.167 115.964 369.208 117.352C369.235 118.27 368.912 119.839 369.413 120.641C370.96 123.118 369.764 127.549 371.992 129.78C374.224 132.014 376.316 132.156 379.273 132.156C380.508 132.156 383.317 131.453 382.971 132.773C382.602 134.173 381.761 134.919 381.122 136.039C379.993 138.017 374.416 138.592 372.517 139.146C370.653 139.691 368.541 140.156 367.154 141.614C364.333 144.578 362.233 148.423 359.941 151.803C358.277 154.258 354.592 155.15 351.839 155.938C350.001 156.464 348.185 155.939 346.429 157.058C344.392 158.355 343.08 161.85 342.321 164.003C340.53 169.082 336.518 169.287 332.415 171.633C331.483 172.166 330.785 172.874 329.973 173.506C327.324 175.569 324.026 176.408 321.231 178.213C320.307 178.809 320.365 179.533 320.296 180.543C320.168 182.399 319.457 184.083 318.742 185.775L318.675 185.934C318.168 187.136 317.374 188.261 316.621 189.316C316.425 189.591 316.011 190.734 315.708 190.869C313.918 191.665 309.595 190.369 307.651 190.115Z" fill="#676873" fill-opacity="0.2" stroke="#FD6060" stroke-width="2" stroke-linecap="round"/>
</svg>
