<svg width="382" height="265" viewBox="0 0 382 265" fill="none" xmlns="http://www.w3.org/2000/svg">
<path d="M306.651 189.115C303.901 188.756 301.159 187.493 298.366 187.493C296.529 188.767 297.229 189.889 296.221 191.605C293.755 195.801 292.082 200.024 289.99 204.445C289.451 205.583 287.311 205.434 286.269 204.947C283.901 203.841 280.969 199.629 278.555 201.064C275.908 202.637 272.431 202.996 269.608 204.285C265.912 205.972 265.808 209.955 263.81 213.4C262.384 215.86 259.938 219.866 256.895 220.779C256.041 221.036 255.352 221.372 254.589 221.83C252.265 223.226 239.146 223.604 239.64 219.157C239.894 216.863 245.462 206.22 245.277 206.09C241.741 203.599 237.269 201.988 233.477 199.967C229.8 198.007 226.264 195.972 222.864 193.57C220.518 191.912 217.92 193.115 215.332 193.821C214.05 194.172 213.681 194 213.232 195.443C212.31 198.411 211.315 201.46 210.63 204.49C209.529 209.362 207.424 228.005 198.944 223.155C195.777 221.344 195.187 216.316 194.608 213.08C194.383 211.822 194.57 211.32 193.444 210.636C189.295 208.115 184.805 206.224 180.731 203.577C176.762 200.998 172.95 198.113 168.68 196.037C164.828 194.165 159.591 190.622 155.168 192.656C154.292 193.059 154.322 196.004 153.753 197.043C151.62 200.935 151.913 202.068 152.201 206.455C152.487 210.824 153.435 215.681 150.306 219.294C149.279 220.48 148.361 219.531 147.567 221.054C146.84 222.449 146.779 223.757 146.495 225.28C145.505 230.576 144.867 235.945 143.573 241.181C142.311 246.289 140.76 249.09 135.722 250.09C130.346 251.158 125.631 249.999 120.316 249.999C118.495 249.999 117.169 254.285 116.116 255.573C114.592 257.438 112.899 259.309 111.072 260.874C109.764 261.994 107.796 264.346 106.05 264.803C102.114 265.834 96.3279 262.551 92.6299 261.193C89.0652 259.885 85.4065 256.487 82.3591 254.363C78.7134 251.821 76.8251 250.41 72.3165 250.41C69.7888 250.41 66.9503 250.037 64.5107 250.821C61.4939 251.792 58.2607 252.413 55.1072 252.695C48.6139 253.276 42.9436 250.943 40.1346 245.064C39.3217 243.363 39.3028 241.821 38.0348 240.29C35.4904 237.216 32.1431 234.976 29.3845 232.111C26.4907 229.106 23.4464 225.418 22.4688 221.259C21.9919 219.23 22.4088 216.762 21.6699 214.839C20.7676 212.491 20.1016 210.884 17.9953 209.151C15.7509 207.304 12.8863 206.484 10.6231 204.742C9.18157 203.632 8.26805 200.355 7.13101 198.825C6.84246 198.436 6.30414 196.958 5.89851 196.723C4.54529 195.939 1.94979 196.119 0.922862 194.895C-0.425125 193.289 0.101195 189.225 0.101195 187.356C0.101195 180.201 2.08976 173.346 2.15536 166.155C2.18183 163.254 0.396962 155.214 4.23235 153.59C10.5554 150.912 14.508 144.588 19.5929 140.225C21.0502 138.975 19.9304 133.157 19.7299 131.613C19.558 130.289 19.4766 128.46 18.68 127.363C18.0259 126.463 18.2538 123.675 18.2007 122.611C18.1051 120.698 18.1301 118.85 17.8583 116.946C17.5769 114.974 17.3394 112.8 16.4432 111.006C15.9234 109.965 16.5067 109.201 17.4475 108.538C23.0429 104.597 27.987 99.9604 31.9179 94.3284C34.7861 90.2191 39.3762 85.6556 33.5613 82.403C32.0848 81.5771 35.859 79.2176 36.5056 78.702C39.0038 76.71 41.5862 74.7685 43.8777 72.5336C45.8449 70.6151 46.9362 68.8333 46.9362 66.0455C46.9362 64.7329 45.3099 62.6548 46.7308 61.8647C48.4733 60.8957 50.6052 59.8327 52.1172 58.5521C57.884 53.6679 59.0759 44.5045 61.749 37.6483C62.7998 34.953 63.0656 35.2191 64.4715 36.6266L64.5107 36.6659C65.1029 37.2587 66.2504 36.9857 67.0442 36.9857C68.5323 36.9857 69.4414 37.3784 70.7188 38.1737C74.3853 40.4562 75.3432 42.6551 75.6488 47.015C75.993 51.9234 75.4347 56.742 77.9541 61.225C78.9026 62.9129 81.1485 61.6593 82.5873 61.3393C84.1162 60.9992 85.159 60.0221 86.3533 59.009C89.2351 56.5645 92.271 54.0606 94.5928 51.0587C95.5133 49.8686 97.216 50.0083 98.5186 50.3733C105.29 52.2712 117.676 50.9673 120.156 43.1541C121.577 38.6746 125.1 34.8003 125.405 29.9036C125.474 28.8077 125.214 27.73 124.218 27.2535C120.991 25.7085 114.189 22.3575 115.363 17.6583C115.938 15.354 117.844 14.7616 119.973 14.2771C125.039 13.1246 131.138 12.0308 135.585 9.34246C137.45 8.21498 138.918 6.60872 140.195 4.8647C141.155 3.55434 141.638 1.55152 142.98 0.569713C144.617 -0.627574 146.832 0.334753 148.503 0.980936C150.937 1.92233 153.355 2.69704 155.83 3.47112C157.728 4.06496 159.738 3.2591 161.581 4.1108C164.623 5.51577 167.524 7.18701 170.643 8.42863C176.475 10.7505 184.595 16.7067 190.614 12.2439C192.017 11.2036 193.274 10.0475 194.608 8.93124C195.714 8.00517 197.76 5.53904 199.218 5.34446C200.506 5.17263 201.868 5.30409 203.053 5.82422C205.514 6.90464 208.154 7.07153 210.767 7.58334C215.618 8.53327 220.046 10.9977 224.644 12.7236C231.928 15.4576 240.197 16.5272 247.971 15.9906C249.314 15.8978 251.402 15.1076 252.535 16.2419C254.445 18.1532 256.4 20.2358 258.47 22.0447C260.429 23.7576 262.298 24.862 263.537 27.1164C264.731 29.2902 269.073 33.696 271.662 33.696C275.025 33.696 277.778 32.1738 281.02 31.7312C283.617 31.3767 286.882 32.5107 289.51 32.8735C295.891 33.7544 301.884 35.351 307.724 32.0511C310.118 30.6982 312.555 28.7613 315.393 28.7613C318.416 28.7613 321.461 29.7368 324.408 30.3833C328.753 31.3365 333.363 32.4623 337.829 32.4623C340.183 32.4623 342.441 31.4543 344.699 30.9088C346.463 30.4826 348.051 31.2716 349.081 32.5537C351.621 35.7146 354.059 40.124 357.731 42.1032C359.52 43.0671 359.398 41.692 360.196 43.7709C360.913 45.6352 361.545 48.2191 361.634 50.2363C361.788 53.7044 361.892 55.8611 365.309 56.93C367.001 57.4594 368.844 57.9581 370.627 57.9581C371.261 57.9581 374.808 57.3457 374.918 57.6383C375.165 58.2972 374.111 60.4019 373.959 60.9737C373.379 63.1699 372.935 65.4004 372.362 67.599C370.785 73.6405 368.708 79.5174 366.975 85.51C366.214 88.1423 364.353 91.3178 364.51 94.1457C364.656 96.7796 368.618 97.4487 368.618 99.6972C368.618 100.72 368.208 101.633 368.208 102.576C368.208 103.659 366.725 104.282 366.564 105.249C366.044 108.371 365.329 110.534 366.884 113.473C367.423 114.493 368.167 114.964 368.208 116.352C368.235 117.27 367.912 118.839 368.413 119.641C369.96 122.118 368.764 126.549 370.992 128.78C373.224 131.014 375.316 131.156 378.273 131.156C379.508 131.156 382.317 130.453 381.971 131.773C381.602 133.173 380.761 133.919 380.122 135.039C378.993 137.017 373.416 137.592 371.517 138.146C369.653 138.691 367.541 139.156 366.154 140.614C363.333 143.578 361.233 147.423 358.941 150.803C357.277 153.258 353.592 154.15 350.839 154.938C349.001 155.464 347.185 154.939 345.429 156.058C343.392 157.355 342.08 160.85 341.321 163.003C339.53 168.082 335.518 168.287 331.415 170.633C330.483 171.166 329.785 171.874 328.973 172.506C326.324 174.569 323.026 175.408 320.231 177.213C319.307 177.809 319.365 178.533 319.296 179.543C319.168 181.399 318.457 183.083 317.742 184.775L317.675 184.934C317.168 186.136 316.374 187.261 315.621 188.316C315.425 188.591 315.011 189.734 314.708 189.869C312.918 190.665 308.595 189.369 306.651 189.115Z" fill="#676873" fill-opacity="0.2"/>
</svg>
