<svg width="2400" height="800" viewBox="0 0 2400 800" fill="none" xmlns="http://www.w3.org/2000/svg">
<path d="M2399.5 400C2399.5 455.01 2366.05 507.495 2305.39 555.305C2244.73 603.111 2156.92 646.185 2048.37 682.368C1831.28 754.733 1531.33 799.5 1200 799.5C868.668 799.5 568.724 754.733 351.63 682.368C243.08 646.185 155.272 603.111 94.6114 555.305C33.9451 507.495 0.5 455.01 0.5 400C0.5 344.99 33.9451 292.505 94.6114 244.695C155.272 196.889 243.08 153.815 351.63 117.632C568.724 45.267 868.668 0.5 1200 0.5C1531.33 0.5 1831.28 45.267 2048.37 117.632C2156.92 153.815 2244.73 196.889 2305.39 244.695C2366.05 292.505 2399.5 344.99 2399.5 400Z" stroke="url(#paint0_linear_750_9)"/>
<defs>
<linearGradient id="paint0_linear_750_9" x1="1200" y1="0" x2="1200" y2="800" gradientUnits="userSpaceOnUse">
<stop stop-color="#B6B6B6"/>
<stop offset="0.829031" stop-color="#B6B6B6" stop-opacity="0.73"/>
<stop offset="1" stop-color="#B6B6B6" stop-opacity="0"/>
</linearGradient>
</defs>
</svg>
