<svg width="205" height="48" viewBox="0 0 205 48" fill="none" xmlns="http://www.w3.org/2000/svg">
    <g clip-path="url(#clip0_589_2205)">
        <g clip-path="url(#clip1_589_2205)">
            <path
                d="M34.1907 2.51342C31.2369 1.11924 27.7239 0.268555 24.3841 0.268555C14.3098 0.268555 8.28412 8.61 8.93001 16.7545C9.22145 20.4408 11.0331 24.009 14.0263 26.7973C15.0975 27.8056 16.2947 28.6641 17.5865 29.3573C16.6098 28.1915 15.9639 26.7816 15.7119 25.2771C15.0424 21.1812 17.7441 15.1556 24.652 15.1556C32.0797 15.1556 40.2636 22.221 40.9489 30.9011C41.3742 36.2179 39.3578 40.9991 35.955 44.3388C43.0126 40.2508 47.7465 32.634 47.7465 23.8987C47.7465 14.4545 42.2013 6.30212 34.1907 2.51342Z"
                fill="white" />
            <path
                d="M39.3007 31.0423C39.0093 27.356 37.1976 23.7878 34.2045 20.9995C33.1333 19.9912 31.936 19.1327 30.6442 18.4395C31.6209 19.6053 32.2668 21.0152 32.5189 22.5197C33.1884 26.6156 30.4867 32.6413 23.5788 32.6413C16.151 32.6413 7.96714 25.5758 7.28186 16.8957C6.85652 11.5868 8.87295 6.79774 12.2757 3.45801C5.23391 7.54603 0.5 15.1707 0.5 23.906C0.5 33.3502 6.04522 41.5026 14.0558 45.2913C17.0096 46.6854 20.5226 47.5361 23.8624 47.5361C33.9209 47.5283 39.9466 39.1868 39.3007 31.0423Z"
                fill="white" />
            <path
                d="M67.1044 12.083H59.5742V35.7132H67.1044C75.4064 35.7132 79.2266 31.1919 79.2266 23.9296C79.2266 16.6436 75.4064 12.083 67.1044 12.083ZM67.002 32.8776H62.9139V14.8871H66.9941C73.5396 14.8871 75.8081 18.3292 75.8081 23.9375C75.816 29.4984 73.5554 32.8776 67.002 32.8776Z"
                fill="white" />
            <path
                d="M89.2052 18.5664C84.2114 18.5664 80.8008 22.1109 80.8008 27.412C80.8008 32.6421 84.2429 36.1236 89.1737 36.1236C93.1278 36.1236 95.8611 33.7606 96.7669 30.6178H93.4272C92.7498 32.2719 91.2689 33.351 89.1737 33.351C86.5744 33.351 84.2823 31.5315 84.0775 28.1209H97.208C97.2395 27.5144 97.2395 27.0103 97.2395 26.5376C97.2395 22.2133 94.1282 18.5664 89.2052 18.5664ZM84.1405 25.7579C84.5107 22.8513 86.6689 21.339 89.1659 21.339C91.7967 21.339 93.7895 23.0246 93.9234 25.7579H84.1405Z"
                fill="white" />
            <path
                d="M107.397 18.5664C102.403 18.5664 98.9922 22.1109 98.9922 27.412C98.9922 32.6421 102.434 36.1236 107.365 36.1236C111.311 36.1236 114.045 33.7606 114.958 30.6178H111.619C110.941 32.2719 109.46 33.351 107.365 33.351C104.766 33.351 102.474 31.5315 102.269 28.1209H115.399C115.431 27.5144 115.431 27.0103 115.431 26.5376C115.431 22.2133 112.32 18.5664 107.397 18.5664ZM102.332 25.7579C102.702 22.8513 104.86 21.339 107.365 21.339C109.996 21.339 111.989 23.0246 112.123 25.7579H102.332Z"
                fill="white" />
            <path
                d="M126.701 18.5664C123.7 18.5664 121.809 20.0157 120.762 21.6383L120.423 18.9681H117.414V43.1339H120.762V33.0832C121.912 35.0051 123.999 36.1236 126.669 36.1236C131.6 36.1236 134.971 32.4452 134.971 27.3805C134.971 22.3157 131.592 18.5664 126.701 18.5664ZM126.157 33.2171C123.014 33.2171 120.754 30.8541 120.754 27.3411C120.754 23.8674 123.014 21.465 126.157 21.465C129.332 21.465 131.561 23.8596 131.561 27.3411C131.561 30.8541 129.332 33.2171 126.157 33.2171Z"
                fill="white" />
            <path
                d="M148.974 28.0491L140.805 12.083H136.891V35.7132H140.23V17.9197L147.69 32.3341H150.257L157.685 17.9197V35.7132H161.025V12.083H157.11L148.974 28.0491Z"
                fill="white" />
            <path d="M166.961 18.9678H163.621V35.7137H166.961V18.9678Z" fill="white" />
            <path
                d="M165.272 11.4053C164.019 11.4053 163.074 12.2796 163.074 13.5005C163.074 14.7214 164.019 15.6272 165.272 15.6272C166.556 15.6272 167.501 14.7135 167.501 13.5005C167.501 12.2875 166.556 11.4053 165.272 11.4053Z"
                fill="white" />
            <path
                d="M178.538 18.5664C175.939 18.5664 173.844 19.8503 172.764 21.9061L172.528 18.9681H169.559V35.714H172.906V27.0733C172.906 23.4263 174.899 21.4335 177.632 21.4335C180.334 21.4335 181.72 23.0876 181.72 26.3959V35.714H185.028V26.0572C185.021 21.0318 182.555 18.5664 178.538 18.5664Z"
                fill="white" />
            <path
                d="M201.077 11.335V21.5274C199.927 19.6055 197.839 18.487 195.138 18.487C190.207 18.487 186.867 22.1655 186.867 27.2302C186.867 32.2949 190.207 36.0442 195.106 36.0442C198.107 36.0442 199.998 34.5949 201.085 32.9723L201.423 35.6425H204.424V11.335H201.077ZM195.642 33.1377C192.499 33.1377 190.238 30.7432 190.238 27.2617C190.238 23.7487 192.499 21.3857 195.642 21.3857C198.816 21.3857 201.045 23.7487 201.045 27.2617C201.037 30.7432 198.816 33.1377 195.642 33.1377Z"
                fill="white" />
        </g>
    </g>
    <defs>
        <clipPath id="clip0_589_2205">
            <rect width="204.59" height="48" fill="white" transform="translate(0.152344)" />
        </clipPath>
        <clipPath id="clip1_589_2205">
            <rect width="203.928" height="47.2603" fill="white" transform="translate(0.488281 0.268555)" />
        </clipPath>
    </defs>
</svg>