<svg width="176" height="36" viewBox="0 0 176 36" fill="none" xmlns="http://www.w3.org/2000/svg">
    <g clip-path="url(#clip0_589_2218)">
        <path
            d="M64.6953 1.5H71.2953L82.6203 21.975L93.9453 1.5H100.395V35.1H94.9953V9.375L85.0953 27.15H79.9953L70.0953 9.375V35.1H64.6953V1.5Z"
            fill="white" />
        <path
            d="M121.919 15.7504C120.794 14.6254 119.294 14.0254 117.419 14.0254C115.619 14.0254 114.119 14.6254 112.919 15.8254C111.719 17.0254 110.969 18.6004 110.594 20.6254H123.794C123.644 18.5254 123.044 16.9504 121.919 15.7504ZM117.944 35.7004C115.394 35.7004 113.219 35.1754 111.344 34.0504C109.469 32.9254 107.969 31.4254 106.919 29.4004C105.869 27.4504 105.344 25.2004 105.344 22.6504C105.344 20.1004 105.869 17.7754 106.919 15.8254C107.969 13.8754 109.394 12.3004 111.269 11.1754C113.144 10.0504 115.244 9.52539 117.644 9.52539C120.044 9.52539 122.069 10.1254 123.794 11.2504C125.519 12.3754 126.869 13.9504 127.769 15.9754C128.669 18.0004 129.194 20.4004 129.194 23.1004V24.6004H110.744C111.044 26.6254 111.944 28.2754 113.219 29.4754C114.569 30.6754 116.219 31.2754 118.244 31.2754C119.894 31.2754 121.244 31.0504 122.444 30.5254C123.644 30.0754 124.694 29.3254 125.744 28.3504L128.594 31.8754C125.594 34.4254 122.069 35.7004 117.944 35.7004Z"
            fill="white" />
        <path
            d="M135.642 14.4752H130.617V10.0502H135.642V2.7002H140.892V10.0502H148.467V14.4752H140.892V25.7252C140.892 27.6002 141.192 28.9502 141.867 29.7002C142.542 30.5252 143.592 30.9002 145.167 30.9002C145.842 30.9002 146.442 30.9002 146.892 30.8252C147.342 30.7502 147.867 30.6752 148.467 30.6002V35.0252C147.792 35.2502 147.117 35.3252 146.442 35.4752C145.692 35.6252 144.867 35.6252 144.117 35.6252C138.492 35.6252 135.642 32.5502 135.642 26.3252V14.4752Z"
            fill="white" />
        <path
            d="M170.517 18.825C169.992 17.4 169.092 16.275 167.892 15.45C166.692 14.625 165.267 14.25 163.692 14.175C161.442 14.175 159.642 14.925 158.367 16.425C157.017 17.925 156.342 19.95 156.342 22.5C156.342 25.05 157.017 27.15 158.292 28.65C159.567 30.15 161.292 30.9 163.467 30.9C165.117 30.9 166.542 30.45 167.817 29.625C169.092 28.8 169.992 27.675 170.517 26.25V18.825ZM175.692 35.1H170.517V31.575C169.617 32.85 168.417 33.9 167.067 34.575C165.642 35.25 164.067 35.625 162.267 35.625C160.092 35.625 158.067 35.025 156.417 33.9C154.692 32.775 153.342 31.2 152.367 29.25C151.392 27.3 150.867 25.05 150.867 22.5C150.867 19.95 151.392 17.7 152.367 15.675C153.342 13.725 154.767 12.15 156.492 11.025C158.217 9.9 160.242 9.375 162.567 9.375C164.292 9.375 165.792 9.675 167.142 10.35C168.492 11.025 169.617 12 170.517 13.2V9.975H175.692V35.1Z"
            fill="white" />
        <path
            d="M53.5148 21.3006C53.5148 22.5756 53.5148 23.9256 53.5148 25.2006C53.5148 25.2756 53.5148 25.2756 53.5148 25.3506C53.5148 25.6506 53.5148 25.8756 53.4398 26.1756C53.3648 26.9256 53.2148 27.6756 53.0648 28.3506C52.7648 29.4756 52.3898 30.5256 51.8648 31.5006C51.4148 32.3256 50.8148 33.0756 50.1398 33.6756C49.7648 34.0506 49.3148 34.3506 48.8648 34.6506C47.9648 35.1756 46.9898 35.5506 45.9398 35.7006C45.7898 35.7006 45.7148 35.7006 45.5648 35.7756C44.8148 35.7756 43.9898 35.7756 43.2398 35.7756C43.1648 35.7756 43.1648 35.7756 43.0898 35.7756C42.7898 35.7006 42.4148 35.7006 42.1148 35.6256C41.3648 35.4756 40.6898 35.2506 40.0898 34.8756C39.2648 34.4256 38.5898 33.9006 37.9148 33.3006C37.3898 32.7756 36.8648 32.2506 36.3398 31.6506C35.5898 30.7506 34.9148 29.7756 34.2398 28.8756C33.2648 27.3756 32.2898 25.8756 31.3898 24.3006C30.3398 22.5006 29.2898 20.7006 28.2398 18.9756C27.9398 18.4506 27.5648 17.9256 27.2648 17.4006C27.2648 17.4006 27.2648 17.3256 27.1898 17.3256C27.1148 17.2506 27.1148 17.2506 27.0398 17.3256C27.0398 17.3256 27.0398 17.4006 26.9648 17.4006C26.8898 17.5506 26.7398 17.7756 26.6648 17.9256C26.2148 18.6756 25.7648 19.5006 25.3148 20.2506C24.5648 21.5256 23.8898 22.8006 23.1398 24.0006C22.4648 25.2006 21.7898 26.3256 21.0398 27.4506C20.3648 28.5756 19.6148 29.6256 18.7898 30.6756C18.1148 31.5006 17.4398 32.3256 16.6898 33.0006C16.1648 33.5256 15.5648 33.9756 14.9648 34.3506C13.9148 35.0256 12.7898 35.4756 11.5898 35.6256C11.5148 35.6256 11.3648 35.6256 11.2898 35.7006C10.4648 35.7006 9.71484 35.7006 8.88984 35.7006C8.81485 35.7006 8.81484 35.7006 8.73984 35.7006C8.28984 35.6256 7.76485 35.5506 7.31485 35.4006C5.51485 34.8756 4.08984 33.9006 2.96484 32.4756C2.36484 31.7256 1.83984 30.8256 1.46484 29.9256C1.01484 28.8006 0.714846 27.6006 0.564846 26.4006C0.489846 25.9506 0.414845 25.5006 0.414845 24.9756C0.414845 24.5256 0.339844 24.0756 0.339844 23.7006C0.339844 23.3256 0.339844 22.8756 0.339844 22.5006C0.339844 22.2006 0.339844 21.9006 0.339844 21.6756C0.339844 21.2256 0.414845 20.7756 0.414845 20.3256C0.489845 19.7256 0.564845 19.1256 0.639845 18.5256C0.864845 17.2506 1.08984 15.9756 1.46484 14.7756C1.91484 13.2006 2.43985 11.6256 3.18985 10.2006C3.78985 8.92558 4.46484 7.72559 5.21484 6.60059C5.96484 5.55059 6.71484 4.65058 7.61484 3.75058C8.28984 3.15058 8.96484 2.55059 9.71484 2.10059C10.6148 1.50059 11.5898 1.05058 12.6398 0.750584C13.4648 0.525584 14.3648 0.300585 15.2648 0.300585C15.3398 0.300585 15.4148 0.300585 15.4898 0.300585C15.6398 0.300585 15.7148 0.300585 15.8648 0.300585C15.9398 0.300585 16.0148 0.300585 16.0898 0.300585C16.5398 0.300585 16.9898 0.375583 17.3648 0.450583C18.7898 0.675583 20.1398 1.12558 21.3398 1.87558C22.4648 2.55058 23.4398 3.30058 24.4148 4.20058C25.0148 4.72558 25.5398 5.32559 26.0648 5.85059C26.5898 6.45059 27.0398 6.97558 27.4898 7.57558C27.6398 7.72558 27.6398 7.72558 27.7148 7.57558C27.9398 7.27558 28.2398 6.90059 28.4648 6.60059C28.9898 5.92559 29.5148 5.32558 30.1148 4.65058C30.6398 4.12558 31.1648 3.60058 31.6898 3.07558C32.2898 2.55058 32.9648 2.02558 33.7148 1.57558C34.4648 1.12558 35.2898 0.750581 36.1148 0.525581C36.7148 0.375581 37.2398 0.225586 37.8398 0.225586C38.2898 0.225586 38.7398 0.225586 39.2648 0.225586C39.6398 0.225586 40.0148 0.300584 40.4648 0.375584C41.6648 0.600584 42.7898 1.12559 43.9148 1.72559C44.8898 2.32559 45.7898 3.07558 46.6148 3.82558C46.8398 4.05058 47.1398 4.35058 47.3648 4.65058C47.8898 5.25058 48.3398 5.85058 48.7898 6.52558C49.6898 7.87558 50.4398 9.22559 51.0398 10.7256C51.4148 11.5506 51.7148 12.3756 51.9398 13.2756C52.2398 14.1756 52.4648 15.1506 52.6898 16.0506C52.8398 16.8006 52.9898 17.4756 53.0648 18.2256C53.1398 18.7506 53.2148 19.2006 53.2148 19.7256C53.2898 20.1006 53.2898 20.4756 53.2898 20.8506C53.5148 21.1506 53.5148 21.2256 53.5148 21.3006ZM48.4898 23.2506C48.4898 23.1006 48.4898 23.0256 48.4898 22.9506C48.4898 22.4256 48.4898 21.9006 48.4148 21.3756C48.4148 20.9256 48.3398 20.4756 48.2648 20.0256C48.1898 19.3506 48.1148 18.6006 47.9648 17.9256C47.6648 16.2006 47.2148 14.4756 46.5398 12.9006C46.0898 11.7756 45.5648 10.6506 44.8898 9.60059C44.3648 8.70059 43.6898 7.95058 42.9398 7.20058C42.4148 6.67558 41.8898 6.22558 41.2148 5.92558C40.2398 5.32558 39.1148 5.02558 37.9898 5.02558C37.6898 5.02558 37.3898 5.10059 37.0898 5.10059C36.4898 5.25059 35.8898 5.47558 35.3648 5.77558C34.7648 6.15058 34.2398 6.52559 33.7898 6.97559C33.1148 7.65059 32.4398 8.40058 31.8398 9.15058C31.3148 9.82558 30.8648 10.5006 30.4148 11.2506C30.2648 11.4756 30.2648 11.4006 30.4148 11.6256C31.3898 13.1256 32.3648 14.6256 33.2648 16.1256C34.1648 17.6256 34.9898 19.0506 35.8898 20.5506C36.3398 21.3006 36.7898 22.0506 37.3148 22.8006C38.0648 23.9256 38.7398 25.0506 39.5648 26.1756C40.0898 26.9256 40.6898 27.6756 41.2898 28.4256C41.5898 28.8006 41.9648 29.1006 42.4148 29.4006C42.8648 29.7006 43.3148 29.8506 43.7648 29.9256C44.2148 30.0006 44.5898 30.0006 45.0398 29.9256C45.9398 29.8506 46.6898 29.4006 47.2148 28.7256C47.5148 28.2756 47.7398 27.8256 47.9648 27.3006C48.2648 26.4006 48.4148 25.5006 48.4148 24.6006C48.4148 24.4506 48.4148 24.3756 48.4148 24.2256C48.4898 24.0006 48.4898 23.6256 48.4898 23.2506ZM6.11484 23.5506C6.11484 23.7756 6.11484 24.0006 6.11484 24.2256C6.11484 24.7506 6.18985 25.2756 6.26484 25.8006C6.33984 26.4006 6.48985 27.0006 6.78985 27.6006C7.01485 28.1256 7.31485 28.6506 7.76484 29.1006C8.06485 29.4006 8.43985 29.6256 8.81485 29.7756C9.26485 29.9256 9.63984 30.0006 10.0898 30.0756C10.3148 30.0756 10.5398 30.0756 10.7648 30.0756C11.2898 30.0006 11.7398 29.8506 12.1898 29.6256C12.7148 29.3256 13.0898 29.0256 13.5398 28.6506C13.9898 28.2756 14.3648 27.8256 14.6648 27.3756C15.4148 26.4756 16.0148 25.5756 16.6898 24.6756C17.5148 23.4756 18.3398 22.2006 19.0898 21.0006C19.6148 20.1756 20.2148 19.2756 20.7398 18.4506C21.3398 17.4756 22.0148 16.5006 22.6148 15.5256C23.0648 14.7756 23.5898 14.0256 24.0398 13.3506C24.1898 13.1256 24.1898 13.1256 24.0398 12.9756C23.3648 12.0006 22.6148 11.0256 21.8648 10.2006C21.2648 9.52558 20.6648 8.92558 20.0648 8.32558C19.6148 7.95058 19.1648 7.57558 18.6398 7.27558C18.1148 6.97558 17.5148 6.75059 16.8398 6.60059C16.3898 6.52559 15.9398 6.45058 15.4898 6.45058C15.1148 6.45058 14.7398 6.52559 14.3648 6.60059C13.6898 6.82559 13.0898 7.12558 12.4898 7.50058C11.9648 7.87558 11.5148 8.25058 11.1398 8.70058C10.7648 9.07558 10.4648 9.52559 10.0898 9.97559C9.41484 10.8756 8.88985 11.8506 8.43985 12.9006C7.83985 14.2506 7.38984 15.6006 7.01484 16.9506C6.78984 17.9256 6.56485 18.9756 6.41485 19.9506C6.33985 20.4006 6.26484 20.9256 6.26484 21.3756C6.26484 21.7506 6.18985 22.1256 6.18985 22.5756C6.11485 22.8006 6.11484 23.1756 6.11484 23.5506Z"
            fill="white" />
    </g>
    <defs>
        <clipPath id="clip0_589_2218">
            <rect width="175.5" height="36" fill="white" transform="translate(0.265625)" />
        </clipPath>
    </defs>
</svg>