<svg width="141" height="48" viewBox="0 0 141 48" fill="none" xmlns="http://www.w3.org/2000/svg">
    <g clip-path="url(#clip0_589_2235)">
        <path
            d="M33.3162 25.5052C33.2583 19.4314 38.2783 16.5132 38.5041 16.3742C35.6785 12.2459 31.2896 11.6784 29.7263 11.6148C25.9917 11.2326 22.4366 13.815 20.5374 13.815C18.6383 13.815 15.7143 11.6669 12.6165 11.7306C8.54031 11.7885 4.78253 14.0987 2.68072 17.7465C-1.54606 25.0768 1.60376 35.9622 5.7321 41.9202C7.75285 44.8326 10.15 48.1156 13.3114 47.994C16.357 47.8724 17.5034 46.0254 21.1743 46.0254C24.8453 46.0254 25.8817 47.994 29.0952 47.9361C32.3666 47.8724 34.4395 44.96 36.4428 42.036C38.7473 38.6488 39.7027 35.3774 39.7606 35.2037C39.6853 35.1747 33.3857 32.7602 33.3162 25.5052Z"
            fill="white" />
        <path
            d="M27.2772 7.6661C28.9564 5.63378 30.0855 2.81399 29.7786 0C27.3641 0.0984319 24.4401 1.60965 22.7089 3.64198C21.1571 5.43691 19.7964 8.30881 20.167 11.0649C22.8478 11.2733 25.6039 9.69264 27.2772 7.6661ZM54.4908 31.475L51.7115 39.8996H48.139L57.2353 13.1262H61.4041L70.5351 39.8996H66.8411L63.9807 31.475H54.4908ZM63.2686 28.7711L60.6514 21.0644C60.0551 19.3158 59.6613 17.7293 59.2618 16.1776H59.1865C58.787 17.7641 58.3528 19.3911 57.8374 21.0239L55.2203 28.7653L63.2686 28.7711ZM73.2449 26.9472C73.2449 24.4864 73.1696 22.4946 73.0828 20.6707H76.221L76.3832 23.9711H76.4584C77.8886 21.6261 80.1525 20.2364 83.2908 20.2364C87.9402 20.2364 91.4317 24.1679 91.4317 30.0101C91.4317 36.9235 87.2222 40.3339 82.6944 40.3339C80.1525 40.3339 77.9291 39.2222 76.7769 37.3173H76.7016V47.7626H73.2449V26.9472ZM76.6958 32.0714C76.6958 32.5925 76.7711 33.0615 76.8579 33.5016C77.4949 35.9218 79.5967 37.5952 82.1038 37.5952C85.7979 37.5952 87.946 34.5785 87.946 30.1665C87.946 26.3103 85.9195 23.0215 82.2254 23.0215C79.8456 23.0215 77.6222 24.7296 76.939 27.3525C76.8174 27.7867 76.7016 28.3078 76.7016 28.7826L76.6958 32.0714ZM95.0447 26.9472C95.0447 24.4864 94.9694 22.4946 94.8826 20.6707H98.0208L98.1829 23.9711H98.2582C99.6883 21.6261 101.952 20.2364 105.091 20.2364C109.74 20.2364 113.231 24.1679 113.231 30.0101C113.231 36.9235 109.022 40.3339 104.494 40.3339C101.952 40.3339 99.7289 39.2222 98.5766 37.3173H98.5014V47.7626H95.0447V26.9472ZM98.5014 32.0714C98.5014 32.5925 98.5766 33.0615 98.6635 33.5016C99.3004 35.9218 101.402 37.5952 103.909 37.5952C107.603 37.5952 109.752 34.5785 109.752 30.1665C109.752 26.3103 107.725 23.0215 104.031 23.0215C101.651 23.0215 99.4278 24.7296 98.7446 27.3525C98.623 27.7867 98.5072 28.3078 98.5072 28.7826L98.5014 32.0714ZM116.85 11.696H120.347V39.8939H116.85V11.696ZM127.377 30.9192C127.452 35.6439 130.474 37.5952 133.966 37.5952C136.467 37.5952 137.978 37.1609 139.287 36.6051L139.883 39.1064C138.656 39.6623 136.548 40.2992 133.491 40.2992C127.574 40.2992 124.036 36.4082 124.036 30.6065C124.036 24.8048 127.452 20.2364 133.051 20.2364C139.327 20.2364 140.995 25.7544 140.995 29.2922C140.995 30.0101 140.92 30.5602 140.873 30.9192H127.377ZM137.625 28.4179C137.666 26.1945 136.71 22.7378 132.779 22.7378C129.241 22.7378 127.695 25.9976 127.417 28.4179H137.625Z"
            fill="white" />
    </g>
    <defs>
        <clipPath id="clip0_589_2235">
            <rect width="140.323" height="48" fill="white" transform="translate(0.675781)" />
        </clipPath>
    </defs>
</svg>