<svg width="153" height="48" viewBox="0 0 153 48" fill="none" xmlns="http://www.w3.org/2000/svg">
    <g clip-path="url(#clip0_589_2198)">
        <path
            d="M19.0654 17.0983V22.2346H31.341C30.9669 25.1144 30.0056 27.226 28.5255 28.7062C26.7316 30.5 23.9322 32.4628 19.0453 32.4628C11.4878 32.4628 5.57927 26.3653 5.57927 18.7876C5.57927 11.2099 11.4878 5.1124 19.0453 5.1124C22.4934 5.06801 25.8191 6.38958 28.2962 8.78861L31.9161 5.1687C30.2331 3.47573 28.2257 2.13998 26.0141 1.24151C23.8024 0.343035 21.4322 -0.0996659 19.0453 -0.0600588C8.68836 -0.0600588 -0.0195312 8.3864 -0.0195312 18.7313C-0.0195312 29.0762 8.68836 37.5226 19.0453 37.5226C24.6401 37.5226 28.8593 35.6845 32.1574 32.2617C35.54 28.8791 36.6059 24.0968 36.6059 20.2557C36.6216 19.1769 36.5313 18.0992 36.3364 17.038L19.0654 17.0983Z"
            fill="white" />
        <path
            d="M51.9678 12.9229C45.267 12.9229 39.7969 18.0189 39.7969 25.0536C39.7969 32.0279 45.267 37.1843 51.9678 37.1843C58.6687 37.1843 64.1388 32.048 64.1388 25.0536C64.1388 18.0591 58.6687 12.9229 51.9678 12.9229ZM51.9678 32.402C48.2916 32.402 45.1302 29.3733 45.1302 25.0536C45.1302 20.7338 48.3037 17.7052 51.9678 17.7052C55.632 17.7052 58.8054 20.6896 58.8054 25.0536C58.8054 29.4176 55.644 32.402 51.9678 32.402Z"
            fill="white" />
        <path
            d="M111.641 15.6378H111.452C110.245 14.218 107.965 12.9229 105.065 12.9229C99.0116 12.9229 93.7266 18.2039 93.7266 25.0536C93.7266 31.9032 99.0076 37.1843 105.065 37.1843C107.969 37.1843 110.266 35.8892 111.452 34.4291H111.641V36.1184C111.641 40.7519 109.155 43.2376 105.17 43.2376C101.912 43.2376 99.8885 40.9007 99.0519 38.9138L94.4144 40.8404C95.2892 42.9694 96.7799 44.7886 98.6953 46.0649C100.611 47.3412 102.864 48.0163 105.165 48.0038C111.408 48.0038 116.693 44.3276 116.693 35.3703V13.5423H111.641V15.6378ZM105.523 32.402C101.847 32.402 99.0519 29.2688 99.0519 25.0536C99.0519 20.774 101.867 17.7052 105.523 17.7052C109.18 17.7052 111.995 20.8384 111.995 25.0978C111.995 29.3572 109.159 32.402 105.523 32.402Z"
            fill="white" />
        <path
            d="M79.128 12.9229C72.4271 12.9229 66.957 18.0189 66.957 25.0536C66.957 32.0279 72.4271 37.1843 79.128 37.1843C85.8288 37.1843 91.2989 32.048 91.2989 25.0536C91.2989 18.0591 85.8127 12.9229 79.128 12.9229ZM79.128 32.402C75.4518 32.402 72.2904 29.3733 72.2904 25.0536C72.2904 20.7338 75.4638 17.7052 79.128 17.7052C82.7921 17.7052 85.9656 20.6896 85.9656 25.0536C85.9656 29.4176 82.7841 32.402 79.128 32.402Z"
            fill="white" />
        <path d="M120.875 0.499023H126.104V37.1848H120.875V0.499023Z" fill="white" />
        <path
            d="M142.28 32.4021C139.565 32.4021 137.647 31.1713 136.392 28.7259L152.617 22.025L152.074 20.6454C151.072 17.9305 147.983 12.9189 141.697 12.9189C135.41 12.9189 130.254 17.8259 130.254 25.0497C130.254 31.8551 135.39 37.1804 142.28 37.1804C144.277 37.1892 146.244 36.7039 148.008 35.7677C149.772 34.8315 151.276 33.4736 152.388 31.8149L148.253 29.0597C146.873 31.0708 144.995 32.4021 142.28 32.4021ZM141.906 17.472C144.058 17.472 145.896 18.5781 146.499 20.1427L135.539 24.6716C135.551 19.5755 139.163 17.476 141.922 17.476L141.906 17.472Z"
            fill="white" />
    </g>
    <defs>
        <clipPath id="clip0_589_2198">
            <rect width="152.627" height="48" fill="white" />
        </clipPath>
    </defs>
</svg>