<svg width="170" height="32" viewBox="0 0 170 32" fill="none" xmlns="http://www.w3.org/2000/svg">
    <g clip-path="url(#clip0_589_2227)">
        <path
            d="M155.46 9.94548H148.246L151.083 14.0145H154.739L151.664 31.5288H158.076L161.157 14.0145H169.149L156.529 3.85938L155.46 9.94548Z"
            fill="white" />
        <path d="M30.2022 0H1.08543L0.289062 4.58638H11.5951L6.85764 31.5292H13.2693L18.0068 4.58638H29.4059L30.2022 0Z"
            fill="white" />
        <path
            d="M34.9375 9.45699C26.7995 9.45699 21.5679 14.584 20.539 20.5422C19.3764 27.1573 23.4455 31.9994 31.6765 31.9994C35.3503 31.9994 38.7857 31.3077 41.5584 29.7556L42.4246 24.8205C39.7509 26.7251 36.5684 27.7859 33.2867 27.8664C29.1886 27.8664 25.9276 26.1574 26.4449 22.2454H43.3837C43.6834 21.5064 43.8998 20.7362 44.0289 19.9493C44.8485 15.2234 43.1744 9.45117 34.9434 9.45117M38.2683 18.4379H27.1134C27.7819 16.229 29.9501 13.2063 33.8912 13.2063C38.1811 13.2063 38.6345 16.4674 38.2625 18.4379"
            fill="white" />
        <path
            d="M63.2506 9.45703C59.2513 9.45703 56.2751 11.1137 54.8393 12.7936H54.6882L49.0439 9.45703C48.8346 11.3288 48.5614 13.869 48.1254 16.3628L45.4922 31.5286H51.8864L54.1127 18.8274C54.2013 18.2162 54.3981 17.6257 54.694 17.0835C55.2562 16.1179 56.0597 15.3149 57.0258 14.7534C57.9918 14.1919 59.0873 13.8911 60.2046 13.8806C63.6924 13.8806 64.6515 16.2407 64.1167 19.339L61.9717 31.546H68.3659L70.6213 18.7228C71.7839 11.8984 67.6103 9.47447 63.1924 9.47447"
            fill="white" />
        <path
            d="M140.126 9.45703C136.12 9.45703 133.15 11.1137 131.714 12.7936H131.563L125.919 9.45703C125.71 11.3288 125.431 13.869 125 16.3628L122.367 31.5286H128.761L130.994 18.8274C131.082 18.2162 131.279 17.6257 131.575 17.0835C132.137 16.1183 132.941 15.3156 133.907 14.7542C134.873 14.1927 135.968 13.8917 137.085 13.8806C140.573 13.8806 141.538 16.2407 141.003 19.339L138.858 31.546H145.253L147.508 18.7228C148.671 11.8984 144.497 9.47447 140.085 9.47447"
            fill="white" />
        <path
            d="M111.826 9.45699C103.688 9.45699 98.4566 14.584 97.4335 20.5422C96.271 27.1573 100.34 31.9994 108.571 31.9994C112.245 31.9994 115.68 31.3077 118.453 29.7556L119.319 24.8205C116.644 26.7262 113.459 27.7871 110.175 27.8664C106.106 27.8664 102.822 26.1574 103.334 22.2454H120.272C120.563 21.5047 120.774 20.7349 120.9 19.9493C121.714 15.2234 120.04 9.45117 111.809 9.45117M115.128 18.4379H104.002C104.671 16.229 106.839 13.2063 110.78 13.2063C115.07 13.2063 115.523 16.4674 115.151 18.4379"
            fill="white" />
        <path
            d="M73.3594 20.4431C72.1968 27.1453 76.8878 31.9933 84.8283 31.9933C87.6714 31.9182 90.488 31.4246 93.1872 30.5284L94.2219 24.762C91.9955 27.1569 88.9903 27.6685 86.8337 27.6685C82.474 27.6685 79.1723 25.1282 79.9396 20.693C80.6081 16.7344 84.3516 13.7175 89.2403 13.7175C91.2283 13.7175 93.9313 14.386 95.6344 16.624L96.6284 10.7529C94.4502 9.88693 92.1249 9.45068 89.7809 9.46829C80.8697 9.46829 74.4929 13.9849 73.371 20.4431"
            fill="white" />
    </g>
    <defs>
        <clipPath id="clip0_589_2227">
            <rect width="168.865" height="32" fill="white" transform="translate(0.289062)" />
        </clipPath>
    </defs>
</svg>